<svg width="403" height="191" viewBox="0 0 403 191" fill="none" xmlns="http://www.w3.org/2000/svg">
<path d="M65.1025 91H50.1265V55.672C44.8785 58.872 38.7345 60.92 31.6945 60.92C14.0305 60.92 0.8465 49.016 0.8465 30.968V1.39999H15.8225V30.968C16.7185 41.464 24.7825 46.2 33.8705 46.2C39.6305 46.2 45.7745 44.024 50.1265 40.184V1.39999H65.1025V91ZM130.228 1.39999V15.096H111.412V91H96.5635V15.096H77.7475V1.39999H130.228ZM173.139 66.68C154.835 66.68 139.859 51.704 139.859 33.4C139.859 15.096 154.835 0.119995 173.139 0.119995C191.443 0.119995 206.419 15.096 206.419 33.4C206.419 51.704 191.443 66.68 173.139 66.68ZM173.139 14.968C162.899 14.968 154.707 23.16 154.707 33.4C154.707 43.64 162.899 51.832 173.139 51.832C183.379 51.832 191.571 43.64 191.571 33.4C191.571 23.16 183.379 14.968 173.139 14.968ZM202.323 76.152V91H143.187V76.152H202.323ZM264.492 39.16V52.728H219.436V39.16H264.492ZM325.978 1.39999V15.096H307.162V91H292.314V15.096H273.498V1.39999H325.978ZM368.889 66.68C350.585 66.68 335.609 51.704 335.609 33.4C335.609 15.096 350.585 0.119995 368.889 0.119995C387.193 0.119995 402.169 15.096 402.169 33.4C402.169 51.704 387.193 66.68 368.889 66.68ZM368.889 14.968C358.649 14.968 350.457 23.16 350.457 33.4C350.457 43.64 358.649 51.832 368.889 51.832C379.129 51.832 387.321 43.64 387.321 33.4C387.321 23.16 379.129 14.968 368.889 14.968ZM398.073 76.152V91H338.937V76.152H398.073ZM62.5235 101.4H77.4995V191H62.5235V168.6H25.2755V191H10.2995V101.4H25.2755V123.8H62.5235V101.4ZM25.2755 153.624H62.5235V138.776H25.2755V153.624ZM127.889 166.68C109.585 166.68 94.6085 151.704 94.6085 133.4C94.6085 115.096 109.585 100.12 127.889 100.12C146.193 100.12 161.169 115.096 161.169 133.4C161.169 151.704 146.193 166.68 127.889 166.68ZM127.889 114.968C117.649 114.968 109.457 123.16 109.457 133.4C109.457 143.64 117.649 151.832 127.889 151.832C138.129 151.832 146.321 143.64 146.321 133.4C146.321 123.16 138.129 114.968 127.889 114.968ZM157.073 176.152V191H97.9365V176.152H157.073ZM223.722 146.328C240.618 149.784 239.978 165.272 239.978 165.272C239.978 189.848 214.89 191 208.874 191H179.05V101.4H208.874C208.874 101.4 238.698 100.76 238.698 126.616C238.698 138.392 231.402 144.408 223.722 146.328ZM193.898 116.248V138.776H208.874C208.874 138.776 223.722 138.776 223.722 127.64C223.722 115.608 208.874 116.248 208.874 116.248H193.898ZM208.874 176.152C215.146 176.152 225.002 174.616 225.002 164.888C225.002 152.856 208.874 153.752 208.874 153.752H193.898V176.152H208.874ZM286.639 166.68C268.335 166.68 253.359 151.704 253.359 133.4C253.359 115.096 268.335 100.12 286.639 100.12C304.943 100.12 319.919 115.096 319.919 133.4C319.919 151.704 304.943 166.68 286.639 166.68ZM286.639 114.968C276.399 114.968 268.207 123.16 268.207 133.4C268.207 143.64 276.399 151.832 286.639 151.832C296.879 151.832 305.071 143.64 305.071 133.4C305.071 123.16 296.879 114.968 286.639 114.968ZM315.823 176.152V191H256.687V176.152H315.823ZM396.168 116.376H352.648V127.512H394.888V141.208H352.648V149.912H394.888V163.608H352.648V176.024H396.168V191H337.672V101.4H396.168V116.376Z" fill="#EEF0F1"/>
</svg>
