<svg width="161" height="23" viewBox="0 0 161 23" fill="none" xmlns="http://www.w3.org/2000/svg">
<rect x="0.5" y="0.5" width="160" height="22" rx="11" stroke="white" stroke-opacity="0.1"/>
<path d="M15.5 5C14.2144 5 12.9577 5.38122 11.8888 6.09545C10.8199 6.80968 9.98676 7.82484 9.49479 9.01256C9.00282 10.2003 8.87409 11.5072 9.1249 12.7681C9.3757 14.029 9.99477 15.1872 10.9038 16.0962C11.8129 17.0052 12.971 17.6243 14.2319 17.8751C15.4928 18.1259 16.7997 17.9972 17.9874 17.5052C19.1752 17.0132 20.1903 16.1801 20.9046 15.1112C21.6188 14.0423 22 12.7856 22 11.5C21.9982 9.77665 21.3128 8.12441 20.0942 6.90582C18.8756 5.68722 17.2234 5.00182 15.5 5ZM21 11.5C21.0006 12.2056 20.8647 12.9047 20.6 13.5588L17.8063 11.8406C17.6875 11.7673 17.5546 11.7198 17.4163 11.7013L15.99 11.5088C15.7935 11.4831 15.5938 11.5161 15.4159 11.6035C15.238 11.6908 15.0898 11.8288 14.99 12H14.445L14.2075 11.5088C14.1418 11.372 14.0458 11.252 13.9266 11.1581C13.8074 11.0642 13.6683 10.9988 13.52 10.9669L13.02 10.8588L13.5088 10H14.5531C14.7221 9.99967 14.8883 9.95667 15.0363 9.875L15.8019 9.4525C15.8691 9.41501 15.932 9.37015 15.9894 9.31875L17.6713 7.7975C17.8399 7.64638 17.952 7.4423 17.989 7.21892C18.026 6.99554 17.9858 6.76621 17.875 6.56875L17.8525 6.52813C18.7936 6.97437 19.5889 7.67837 20.146 8.55841C20.7031 9.43845 20.9993 10.4584 21 11.5ZM16.4569 6.08375L17 7.05625L15.3181 8.5775L14.5531 9H13.5088C13.333 8.99974 13.1602 9.04582 13.0079 9.13361C12.8556 9.22139 12.7291 9.34776 12.6413 9.5L12.0956 10.4519L11.4613 8.76188L12.145 7.145C12.7502 6.67737 13.4464 6.34131 14.1891 6.15835C14.9317 5.97538 15.7043 5.94955 16.4575 6.0825L16.4569 6.08375ZM10 11.5C9.99917 10.6825 10.1816 9.87523 10.5338 9.1375L11.2425 11.0294C11.3016 11.186 11.399 11.3253 11.5259 11.4345C11.6528 11.5437 11.8051 11.6193 11.9688 11.6544L13.3081 11.9425L13.5463 12.4375C13.6289 12.6059 13.757 12.7477 13.916 12.8471C14.075 12.9465 14.2587 12.9995 14.4463 13H14.5388L14.0869 14.0144C14.0073 14.193 13.9818 14.391 14.0135 14.584C14.0453 14.7769 14.1329 14.9563 14.2656 15.1L14.2744 15.1088L15.5 16.3713L15.3788 16.9963C13.9424 16.9628 12.576 16.3694 11.5711 15.3425C10.5662 14.3157 10.0024 12.9367 10 11.5ZM16.4113 16.9238L16.4819 16.5606C16.5109 16.4064 16.5034 16.2474 16.46 16.0966C16.4166 15.9457 16.3385 15.8071 16.2319 15.6919C16.2288 15.6891 16.2259 15.6862 16.2231 15.6831L15 14.4213L15.8563 12.5L17.2825 12.6925L20.14 14.45C19.726 15.1001 19.1803 15.6562 18.538 16.0823C17.8957 16.5084 17.1712 16.7951 16.4113 16.9238Z" fill="#7D8B96"/>
<path d="M32.53 16.626C31.5407 16.626 30.7007 16.4207 30.01 16.01C29.3193 15.5993 28.7873 15.016 28.414 14.26C28.05 13.504 27.868 12.6033 27.868 11.558C27.868 10.5127 28.05 9.61667 28.414 8.87C28.7873 8.114 29.3193 7.53067 30.01 7.12C30.7007 6.70933 31.5407 6.504 32.53 6.504C33.23 6.504 33.8553 6.61133 34.406 6.826C34.9567 7.04067 35.4373 7.35333 35.848 7.764L35.414 8.688C34.966 8.296 34.5227 8.01133 34.084 7.834C33.6453 7.64733 33.132 7.554 32.544 7.554C31.4147 7.554 30.556 7.904 29.968 8.604C29.38 9.304 29.086 10.2887 29.086 11.558C29.086 12.8273 29.38 13.8167 29.968 14.526C30.556 15.226 31.4147 15.576 32.544 15.576C33.132 15.576 33.6453 15.4873 34.084 15.31C34.5227 15.1233 34.966 14.8293 35.414 14.428L35.848 15.366C35.4373 15.7673 34.9567 16.08 34.406 16.304C33.8553 16.5187 33.23 16.626 32.53 16.626ZM36.9483 18.32V15.604H37.6903C38.0263 15.128 38.269 14.5587 38.4183 13.896C38.5676 13.2333 38.6423 12.4493 38.6423 11.544V9.472H43.5843V15.604H44.6903V18.32H43.7103V16.5H37.9143V18.32H36.9483ZM38.7823 15.618H42.5063V10.354H39.6363V11.726C39.6363 12.4633 39.5616 13.1773 39.4123 13.868C39.2723 14.5493 39.0623 15.1327 38.7823 15.618ZM49.3859 16.626C48.2846 16.626 47.4166 16.3087 46.7819 15.674C46.1472 15.03 45.8299 14.1387 45.8299 13C45.8299 12.2627 45.9699 11.6233 46.2499 11.082C46.5299 10.5313 46.9219 10.1067 47.4259 9.808C47.9299 9.5 48.5086 9.346 49.1619 9.346C49.8059 9.346 50.3472 9.48133 50.7859 9.752C51.2246 10.0227 51.5606 10.41 51.7939 10.914C52.0272 11.4087 52.1439 11.9967 52.1439 12.678V13.098H46.6979V12.384H51.4019L51.1639 12.566C51.1639 11.8193 50.9959 11.236 50.6599 10.816C50.3239 10.396 49.8246 10.186 49.1619 10.186C48.4619 10.186 47.9159 10.4333 47.5239 10.928C47.1319 11.4133 46.9359 12.0713 46.9359 12.902V13.028C46.9359 13.9053 47.1506 14.5727 47.5799 15.03C48.0186 15.478 48.6299 15.702 49.4139 15.702C49.8339 15.702 50.2259 15.6413 50.5899 15.52C50.9632 15.3893 51.3179 15.1793 51.6539 14.89L52.0459 15.688C51.7379 15.9867 51.3459 16.22 50.8699 16.388C50.4032 16.5467 49.9086 16.626 49.3859 16.626ZM53.5818 16.654L53.1618 15.772C53.4885 15.6227 53.7592 15.4407 53.9738 15.226C54.1978 15.002 54.3752 14.722 54.5058 14.386C54.6365 14.0407 54.7298 13.616 54.7858 13.112C54.8418 12.5987 54.8698 11.9827 54.8698 11.264V9.472H59.9378V16.5H58.8178V10.368H55.9198V11.306C55.9198 12.4073 55.8405 13.3127 55.6818 14.022C55.5325 14.7313 55.2852 15.296 54.9398 15.716C54.6038 16.1267 54.1512 16.4393 53.5818 16.654ZM64.9066 16.626C64.2813 16.626 63.7353 16.4813 63.2686 16.192C62.802 15.8933 62.438 15.4733 62.1766 14.932C61.9246 14.3907 61.7986 13.742 61.7986 12.986C61.7986 12.2207 61.9246 11.5673 62.1766 11.026C62.438 10.4847 62.802 10.0693 63.2686 9.78C63.7353 9.49067 64.2813 9.346 64.9066 9.346C65.5413 9.346 66.0873 9.50933 66.5446 9.836C67.0113 10.1533 67.3193 10.5873 67.4686 11.138H67.3006L67.4546 9.472H68.5466C68.5186 9.74267 68.4906 10.018 68.4626 10.298C68.444 10.5687 68.4346 10.8347 68.4346 11.096V16.5H67.3006V14.848H67.4546C67.3053 15.3987 66.9973 15.8327 66.5306 16.15C66.064 16.4673 65.5226 16.626 64.9066 16.626ZM65.1306 15.702C65.8026 15.702 66.3346 15.4733 66.7266 15.016C67.1186 14.5493 67.3146 13.8727 67.3146 12.986C67.3146 12.09 67.1186 11.4133 66.7266 10.956C66.3346 10.4893 65.8026 10.256 65.1306 10.256C64.468 10.256 63.936 10.4893 63.5346 10.956C63.1426 11.4133 62.9466 12.09 62.9466 12.986C62.9466 13.8727 63.1426 14.5493 63.5346 15.016C63.936 15.4733 64.468 15.702 65.1306 15.702ZM70.7216 16.5V9.472H71.8556V12.412H75.7196V9.472H76.8536V16.5H75.7196V13.322H71.8556V16.5H70.7216ZM82.0288 16.626C81.3568 16.626 80.7688 16.4813 80.2648 16.192C79.7701 15.8933 79.3874 15.4733 79.1168 14.932C78.8461 14.3813 78.7108 13.7327 78.7108 12.986C78.7108 12.23 78.8461 11.5813 79.1168 11.04C79.3874 10.4987 79.7701 10.0833 80.2648 9.794C80.7688 9.49533 81.3568 9.346 82.0288 9.346C82.7101 9.346 83.2981 9.49533 83.7928 9.794C84.2968 10.0833 84.6841 10.4987 84.9548 11.04C85.2348 11.5813 85.3748 12.23 85.3748 12.986C85.3748 13.7327 85.2348 14.3813 84.9548 14.932C84.6841 15.4733 84.2968 15.8933 83.7928 16.192C83.2981 16.4813 82.7101 16.626 82.0288 16.626ZM82.0288 15.702C82.7008 15.702 83.2328 15.4733 83.6248 15.016C84.0168 14.5493 84.2128 13.8727 84.2128 12.986C84.2128 12.09 84.0121 11.4133 83.6108 10.956C83.2188 10.4893 82.6914 10.256 82.0288 10.256C81.3661 10.256 80.8388 10.4893 80.4468 10.956C80.0548 11.4133 79.8588 12.09 79.8588 12.986C79.8588 13.8727 80.0548 14.5493 80.4468 15.016C80.8388 15.4733 81.3661 15.702 82.0288 15.702ZM90.8739 16.5V9.472H94.2619C95.0739 9.472 95.6806 9.63067 96.0819 9.948C96.4926 10.256 96.6979 10.7133 96.6979 11.32C96.6979 11.768 96.5392 12.146 96.2219 12.454C95.9139 12.7527 95.5126 12.93 95.0179 12.986V12.818C95.5966 12.8367 96.0586 13.0047 96.4039 13.322C96.7492 13.6393 96.9219 14.05 96.9219 14.554C96.9219 15.1607 96.6979 15.6367 96.2499 15.982C95.8112 16.3273 95.1859 16.5 94.3739 16.5H90.8739ZM91.9519 15.73H94.3179C94.8126 15.73 95.1906 15.6273 95.4519 15.422C95.7226 15.2073 95.8579 14.904 95.8579 14.512C95.8579 14.12 95.7226 13.8213 95.4519 13.616C95.1906 13.4107 94.8126 13.308 94.3179 13.308H91.9519V15.73ZM91.9519 12.538H94.1919C94.6492 12.538 95.0039 12.4353 95.2559 12.23C95.5079 12.0247 95.6339 11.74 95.6339 11.376C95.6339 11.012 95.5079 10.732 95.2559 10.536C95.0039 10.3307 94.6492 10.228 94.1919 10.228H91.9519V12.538ZM102.443 16.5V6.63H106.461C107.497 6.63 108.295 6.882 108.855 7.386C109.415 7.88067 109.695 8.57133 109.695 9.458C109.695 10.326 109.415 11.0167 108.855 11.53C108.295 12.034 107.497 12.286 106.461 12.286H103.605V16.5H102.443ZM103.605 11.32H106.349C107.068 11.32 107.609 11.1567 107.973 10.83C108.346 10.5033 108.533 10.046 108.533 9.458C108.533 8.86067 108.346 8.39867 107.973 8.072C107.609 7.74533 107.068 7.582 106.349 7.582H103.605V11.32ZM114.171 16.626C113.499 16.626 112.911 16.4813 112.407 16.192C111.913 15.8933 111.53 15.4733 111.259 14.932C110.989 14.3813 110.853 13.7327 110.853 12.986C110.853 12.23 110.989 11.5813 111.259 11.04C111.53 10.4987 111.913 10.0833 112.407 9.794C112.911 9.49533 113.499 9.346 114.171 9.346C114.853 9.346 115.441 9.49533 115.935 9.794C116.439 10.0833 116.827 10.4987 117.097 11.04C117.377 11.5813 117.517 12.23 117.517 12.986C117.517 13.7327 117.377 14.3813 117.097 14.932C116.827 15.4733 116.439 15.8933 115.935 16.192C115.441 16.4813 114.853 16.626 114.171 16.626ZM114.171 15.702C114.843 15.702 115.375 15.4733 115.767 15.016C116.159 14.5493 116.355 13.8727 116.355 12.986C116.355 12.09 116.155 11.4133 115.753 10.956C115.361 10.4893 114.834 10.256 114.171 10.256C113.509 10.256 112.981 10.4893 112.589 10.956C112.197 11.4133 112.001 12.09 112.001 12.986C112.001 13.8727 112.197 14.5493 112.589 15.016C112.981 15.4733 113.509 15.702 114.171 15.702ZM122.376 16.626C121.685 16.626 121.083 16.4767 120.57 16.178C120.066 15.8793 119.674 15.4547 119.394 14.904C119.123 14.3533 118.988 13.7 118.988 12.944C118.988 12.1787 119.128 11.53 119.408 10.998C119.688 10.4567 120.08 10.046 120.584 9.766C121.097 9.486 121.695 9.346 122.376 9.346C122.824 9.346 123.258 9.42533 123.678 9.584C124.107 9.74267 124.462 9.96667 124.742 10.256L124.336 11.068C124.056 10.7973 123.748 10.5967 123.412 10.466C123.085 10.3353 122.763 10.27 122.446 10.27C121.718 10.27 121.153 10.4987 120.752 10.956C120.351 11.4133 120.15 12.0807 120.15 12.958C120.15 13.826 120.351 14.498 120.752 14.974C121.153 15.45 121.718 15.688 122.446 15.688C122.754 15.688 123.071 15.6273 123.398 15.506C123.734 15.3847 124.047 15.184 124.336 14.904L124.742 15.702C124.453 16.0007 124.093 16.2293 123.664 16.388C123.235 16.5467 122.805 16.626 122.376 16.626ZM129.444 16.626C128.754 16.626 128.152 16.4767 127.638 16.178C127.134 15.8793 126.742 15.4547 126.462 14.904C126.192 14.3533 126.056 13.7 126.056 12.944C126.056 12.1787 126.196 11.53 126.476 10.998C126.756 10.4567 127.148 10.046 127.652 9.766C128.166 9.486 128.763 9.346 129.444 9.346C129.892 9.346 130.326 9.42533 130.746 9.584C131.176 9.74267 131.53 9.96667 131.81 10.256L131.404 11.068C131.124 10.7973 130.816 10.5967 130.48 10.466C130.154 10.3353 129.832 10.27 129.514 10.27C128.786 10.27 128.222 10.4987 127.82 10.956C127.419 11.4133 127.218 12.0807 127.218 12.958C127.218 13.826 127.419 14.498 127.82 14.974C128.222 15.45 128.786 15.688 129.514 15.688C129.822 15.688 130.14 15.6273 130.466 15.506C130.802 15.3847 131.115 15.184 131.404 14.904L131.81 15.702C131.521 16.0007 131.162 16.2293 130.732 16.388C130.303 16.5467 129.874 16.626 129.444 16.626ZM133.503 16.5V9.472H134.539V15.45H134.161L138.641 9.472H139.593V16.5H138.571V10.508H138.949L134.469 16.5H133.503ZM141.829 16.5V9.472H142.865V15.45H142.487L146.967 9.472H147.919V16.5H146.897V10.508H147.275L142.795 16.5H141.829ZM150.281 13.924L149.931 6.63H151.331L150.981 13.924H150.281ZM149.917 16.5V15.072H151.345V16.5H149.917Z" fill="#7D8B96"/>
</svg>
