<svg width="32" height="32" viewBox="0 0 32 32" fill="none" xmlns="http://www.w3.org/2000/svg">
<path d="M28.61 3.27376C28.4551 3.13997 28.2666 3.051 28.0648 3.01641C27.863 2.98183 27.6557 3.00296 27.465 3.07751L2.13251 12.9913C1.77349 13.1309 1.46954 13.3833 1.26642 13.7106C1.06329 14.0379 0.97199 14.4224 1.00625 14.806C1.04052 15.1897 1.1985 15.5519 1.4564 15.838C1.71431 16.1241 2.05819 16.3187 2.43626 16.3925L9.00001 17.6813V25C8.99872 25.3987 9.11719 25.7885 9.34006 26.119C9.56294 26.4496 9.87995 26.7055 10.25 26.8538C10.6195 27.0046 11.0258 27.0409 11.4162 26.9577C11.8065 26.8746 12.1628 26.6759 12.4388 26.3875L15.6038 23.105L20.625 27.5C20.9873 27.8213 21.4545 27.9992 21.9388 28C22.151 27.9998 22.3618 27.9665 22.5638 27.9013C22.8937 27.7966 23.1904 27.6073 23.4245 27.3522C23.6585 27.0971 23.8216 26.7852 23.8975 26.4475L28.9713 4.37501C29.0166 4.17595 29.007 3.96829 28.9434 3.77429C28.8797 3.58029 28.7645 3.40727 28.61 3.27376ZM20.9675 7.77376L9.76876 15.7938L3.56876 14.5775L20.9675 7.77376ZM11 25V19.065L14.0988 21.7825L11 25ZM21.9413 26L11.6063 16.9375L26.4813 6.27626L21.9413 26Z" fill="#B6BEC4"/>
</svg>
