<svg width="32" height="32" viewBox="0 0 32 32" fill="none" xmlns="http://www.w3.org/2000/svg">
<path d="M29.6001 23.5112L18.6689 4.52746C18.3957 4.06237 18.0057 3.67673 17.5376 3.40879C17.0695 3.14084 16.5395 2.99988 16.0001 2.99988C15.4607 2.99988 14.9307 3.14084 14.4626 3.40879C13.9945 3.67673 13.6045 4.06237 13.3314 4.52746L2.40012 23.5112C2.13729 23.9611 1.99878 24.4727 1.99878 24.9937C1.99878 25.5147 2.13729 26.0264 2.40012 26.4762C2.66978 26.9441 3.05908 27.3318 3.52807 27.5996C3.99706 27.8674 4.52885 28.0056 5.06887 28H26.9314C27.471 28.0051 28.0022 27.8667 28.4707 27.599C28.9393 27.3312 29.3282 26.9437 29.5976 26.4762C29.8608 26.0266 29.9998 25.5151 30.0002 24.994C30.0007 24.473 29.8626 23.9613 29.6001 23.5112ZM27.8664 25.475C27.7711 25.6375 27.6343 25.7718 27.47 25.8641C27.3057 25.9563 27.1198 26.0032 26.9314 26H5.06887C4.88047 26.0032 4.69458 25.9563 4.53028 25.8641C4.36598 25.7718 4.22917 25.6375 4.13387 25.475C4.04755 25.3288 4.00202 25.1622 4.00202 24.9925C4.00202 24.8227 4.04755 24.6561 4.13387 24.51L15.0651 5.52621C15.1623 5.36443 15.2998 5.23055 15.4641 5.13761C15.6283 5.04467 15.8139 4.99583 16.0026 4.99583C16.1914 4.99583 16.3769 5.04467 16.5412 5.13761C16.7055 5.23055 16.8429 5.36443 16.9401 5.52621L27.8714 24.51C27.9569 24.6566 28.0016 24.8234 28.0007 24.9931C27.9998 25.1629 27.9534 25.3293 27.8664 25.475ZM15.0001 18V13C15.0001 12.7347 15.1055 12.4804 15.293 12.2929C15.4805 12.1053 15.7349 12 16.0001 12C16.2653 12 16.5197 12.1053 16.7072 12.2929C16.8948 12.4804 17.0001 12.7347 17.0001 13V18C17.0001 18.2652 16.8948 18.5195 16.7072 18.7071C16.5197 18.8946 16.2653 19 16.0001 19C15.7349 19 15.4805 18.8946 15.293 18.7071C15.1055 18.5195 15.0001 18.2652 15.0001 18ZM17.5001 22.5C17.5001 22.7966 17.4121 23.0866 17.2473 23.3333C17.0825 23.58 16.8482 23.7722 16.5741 23.8858C16.3001 23.9993 15.9985 24.029 15.7075 23.9711C15.4165 23.9133 15.1492 23.7704 14.9395 23.5606C14.7297 23.3508 14.5868 23.0836 14.5289 22.7926C14.4711 22.5016 14.5008 22.2 14.6143 21.9259C14.7278 21.6518 14.9201 21.4176 15.1668 21.2528C15.4134 21.0879 15.7034 21 16.0001 21C16.3979 21 16.7795 21.158 17.0608 21.4393C17.3421 21.7206 17.5001 22.1021 17.5001 22.5Z" fill="#F6C86A"/>
</svg>
