<svg width="14" height="16" viewBox="0 0 14 16" fill="none" xmlns="http://www.w3.org/2000/svg">
<g filter="url(#filter0_d_4063_527)">
<path d="M10.7729 8.97699C10.8786 9.08266 10.938 9.22599 10.938 9.37543C10.938 9.52487 10.8786 9.66819 10.7729 9.77387C10.6673 9.87954 10.524 9.9389 10.3745 9.9389C10.2251 9.93891 10.0817 9.87954 9.97607 9.77387L6.99998 6.79683L4.02295 9.77293C3.91728 9.8786 3.77395 9.93797 3.62451 9.93797C3.47507 9.93797 3.33175 9.8786 3.22607 9.77293C3.1204 9.66726 3.06104 9.52393 3.06104 9.37449C3.06104 9.22505 3.1204 9.08173 3.22607 8.97605L6.2031 5.99996L3.22701 3.02293C3.12134 2.91726 3.06197 2.77393 3.06197 2.62449C3.06197 2.47505 3.12134 2.33173 3.22701 2.22605C3.33268 2.12038 3.47601 2.06102 3.62545 2.06102C3.77489 2.06102 3.91821 2.12038 4.02389 2.22605L6.99998 5.20309L9.97701 2.22558C10.0827 2.11991 10.226 2.06055 10.3754 2.06055C10.5249 2.06055 10.6682 2.11991 10.7739 2.22558C10.8796 2.33126 10.9389 2.47458 10.9389 2.62402C10.9389 2.77347 10.8796 2.91679 10.7739 3.02246L7.79685 5.99996L10.7729 8.97699Z" fill="#7D8B96"/>
</g>
<defs>
<filter id="filter0_d_4063_527" x="-2" y="0" width="18" height="18" filterUnits="userSpaceOnUse" color-interpolation-filters="sRGB">
<feFlood flood-opacity="0" result="BackgroundImageFix"/>
<feColorMatrix in="SourceAlpha" type="matrix" values="0 0 0 0 0 0 0 0 0 0 0 0 0 0 0 0 0 0 127 0" result="hardAlpha"/>
<feOffset dy="3"/>
<feGaussianBlur stdDeviation="1.5"/>
<feComposite in2="hardAlpha" operator="out"/>
<feColorMatrix type="matrix" values="0 0 0 0 0 0 0 0 0 0 0 0 0 0 0 0 0 0 0.25 0"/>
<feBlend mode="normal" in2="BackgroundImageFix" result="effect1_dropShadow_4063_527"/>
<feBlend mode="normal" in="SourceGraphic" in2="effect1_dropShadow_4063_527" result="shape"/>
</filter>
</defs>
</svg>
