<svg width="1440" height="832" viewBox="0 0 1440 832" fill="none" xmlns="http://www.w3.org/2000/svg">
<g clip-path="url(#clip0_22_43)">
<path d="M1268.97 1050.94C1223.52 1050.94 1177.68 1050.9 1132.31 1050.74C815.616 1049.63 493.609 1050.1 182.206 1050.57C98.4844 1050.69 11.9174 1050.82 -73.2327 1050.91V1048.35C11.9117 1048.26 98.4845 1048.13 182.2 1048.01C352.195 1047.76 525.398 1047.49 699.126 1047.49C843.638 1047.49 988.502 1047.67 1132.31 1048.18C1207.23 1048.44 1283.39 1048.39 1357.06 1048.35C1408 1048.31 1460.68 1048.28 1512.5 1048.35L1512.49 1050.91C1460.68 1050.84 1408 1050.87 1357.06 1050.91C1328.01 1050.93 1298.57 1050.94 1268.97 1050.94Z" fill="white" fill-opacity="0.01"/>
<path d="M1245.31 1032.64C1206.4 1032.64 1167.3 1032.01 1128.53 1030.07C1097.43 1028.52 1065.7 1026.18 1035.03 1023.9C965.428 1018.76 893.462 1013.44 823.029 1016.88C789.235 1018.53 754.842 1021.12 721.59 1023.63C670.015 1027.52 616.689 1031.54 564.215 1032.15C499.853 1032.91 434.402 1029.55 371.1 1026.31C325.653 1023.98 278.657 1021.57 232.468 1020.7C172.575 1019.58 111.675 1022.96 52.7731 1026.24C11.4854 1028.54 -31.2135 1030.91 -73.2096 1031.71L-73.2499 1029.15C-31.2883 1028.35 11.3875 1025.98 52.6579 1023.69C111.594 1020.41 172.541 1017.02 232.508 1018.14C278.732 1019.01 325.74 1021.42 371.203 1023.75C434.465 1027 499.887 1030.34 564.186 1029.59C616.596 1028.98 669.894 1024.96 721.428 1021.08C754.698 1018.57 789.103 1015.97 822.925 1014.32C893.485 1010.87 965.52 1016.2 1035.18 1021.34C1065.85 1023.61 1097.56 1025.95 1128.64 1027.51C1204.32 1031.29 1281.28 1030.09 1355.7 1028.93C1407.09 1028.13 1460.23 1027.31 1512.52 1028.13L1512.48 1030.69C1460.22 1029.87 1407.1 1030.69 1355.73 1031.49C1319.39 1032.06 1282.43 1032.64 1245.31 1032.64Z" fill="white" fill-opacity="0.01"/>
<path d="M1228.4 1015.37C1194.91 1015.37 1161.34 1014.34 1127.97 1011.43C1092.16 1008.31 1055.84 1004.22 1020.71 1000.26C1002.16 998.164 982.973 996 964.097 994.004C959.438 993.511 954.778 993.012 950.106 992.506C906.013 987.757 860.423 982.848 815.725 986.816C781.914 989.818 747.596 994.49 714.407 999.008C668.431 1005.27 620.888 1011.74 573.88 1013.89C529.137 1015.94 483.051 1011.76 438.48 1007.73C426.649 1006.66 414.421 1005.54 402.492 1004.58C394.831 1003.96 387.17 1003.33 379.509 1002.71C326.483 998.381 271.647 993.901 217.607 992C161.211 990.016 104.049 996.25 48.7641 1002.28C8.83005 1006.63 -32.4634 1011.14 -73.1866 1012.52L-73.2557 1009.96C-32.6132 1008.58 8.64574 1004.08 48.5395 999.732C103.893 993.696 161.13 987.45 217.676 989.44C271.768 991.341 326.627 995.828 379.676 1000.16C387.337 1000.79 394.998 1001.41 402.659 1002.03C414.599 1003 426.833 1004.1 438.664 1005.17C483.166 1009.2 529.183 1013.38 573.782 1011.33C620.698 1009.18 668.195 1002.71 714.125 996.461C747.337 991.943 781.678 987.264 815.541 984.256C860.44 980.269 906.14 985.191 950.331 989.952C954.996 990.458 959.656 990.957 964.316 991.45C983.203 993.447 1002.39 995.61 1020.95 997.703C1056.06 1001.66 1092.37 1005.76 1128.15 1008.87C1204.05 1015.48 1281.12 1012.41 1355.64 1009.45C1407.02 1007.41 1460.15 1005.29 1512.52 1006.35L1512.48 1008.91C1460.17 1007.85 1407.08 1009.96 1355.72 1012C1313.87 1013.68 1271.21 1015.37 1228.4 1015.37Z" fill="white" fill-opacity="0.01"/>
<path d="M1216.22 999.105C1186.54 999.105 1156.8 997.773 1127.15 994.247C1090.69 989.914 1053.8 984.135 1018.11 978.548C999.279 975.597 979.805 972.551 960.63 969.748C955.642 969.018 950.636 968.269 945.625 967.52C901.67 960.948 856.218 954.151 811.947 959.629C779.593 963.636 746.847 970.061 715.179 976.282C671.858 984.788 627.062 993.581 582.492 996.333C557.775 997.856 532.247 995.437 507.56 993.089C501.955 992.557 496.155 992.007 490.51 991.514C460.598 988.922 431.343 985.677 404.185 982.554C396.317 981.652 388.443 980.737 380.575 979.821C325.342 973.402 268.232 966.772 211.818 963.981C156.574 961.255 100.927 970.1 47.111 978.663C7.78173 984.916 -32.8896 991.386 -73.1751 993.312L-73.273 990.752C-33.1027 988.832 7.51102 982.375 46.7885 976.128C100.708 967.553 156.465 958.688 211.922 961.428C268.404 964.218 325.549 970.861 380.817 977.28C388.685 978.196 396.553 979.111 404.421 980.013C431.568 983.13 460.806 986.375 490.689 988.967C496.345 989.46 502.145 990.01 507.756 990.541C532.368 992.884 557.816 995.296 582.365 993.78C626.797 991.034 671.524 982.253 714.781 973.76C746.484 967.54 779.265 961.101 811.699 957.089C856.253 951.572 901.849 958.394 945.942 964.986C950.953 965.735 955.953 966.484 960.941 967.213C980.127 970.016 999.608 973.069 1018.44 976.013C1054.1 981.6 1090.98 987.373 1127.4 991.7C1203.86 1000.79 1281.16 995.258 1355.91 989.914C1407.14 986.247 1460.11 982.458 1512.52 983.373L1512.49 985.933C1460.17 985.018 1407.25 988.807 1356.06 992.468C1310.16 995.751 1263.28 999.105 1216.22 999.105Z" fill="white" fill-opacity="0.01"/>
<path d="M1216.57 984.519C1185.2 984.519 1155.85 982.426 1127.39 978.247C1090.8 972.871 1053.87 965.6 1018.17 958.567C999.314 954.855 979.816 951.015 960.607 947.501C955.918 946.644 951.201 945.76 946.472 944.877C902.437 936.647 856.909 928.141 812.857 934.81C781.471 939.559 749.837 947.463 719.24 955.105C677.866 965.434 635.086 976.122 592.18 979.22C566.744 981.05 540.276 977.869 514.679 974.791C509.345 974.151 503.827 973.485 498.47 972.89C468.017 969.492 438.313 965.229 410.746 961.133C402.826 959.956 394.906 958.765 386.986 957.575C330.814 949.127 272.724 940.391 215.171 936.775C159.27 933.261 103.357 944.525 49.2883 955.412C9.31389 963.463 -32.0199 971.783 -73.1693 974.132L-73.2845 971.578C-32.2848 969.242 8.97405 960.935 48.8793 952.896C103.081 941.984 159.137 930.701 215.303 934.228C272.949 937.85 331.079 946.592 387.297 955.047C395.217 956.237 403.131 957.428 411.051 958.605C438.595 962.701 468.282 966.957 498.701 970.356C504.063 970.957 509.587 971.616 514.927 972.263C540.426 975.328 566.801 978.503 592.036 976.685C634.763 973.6 677.451 962.938 718.739 952.628C749.382 944.973 781.062 937.063 812.552 932.301C856.95 925.581 902.655 934.125 946.858 942.381C951.587 943.264 956.292 944.141 960.981 944.999C980.202 948.512 999.706 952.359 1018.57 956.071C1054.26 963.098 1091.16 970.362 1127.69 975.732C1183.75 983.968 1243.26 984.058 1314.97 976.026C1327.24 974.65 1339.71 973.172 1351.77 971.738C1404.31 965.498 1458.62 959.053 1512.51 959.533L1512.5 962.093C1458.74 961.594 1404.48 968.045 1352.02 974.279C1339.95 975.712 1327.48 977.197 1315.2 978.573C1279.69 982.528 1247.17 984.519 1216.57 984.519Z" fill="white" fill-opacity="0.01"/>
<path d="M1210.01 971.335C1180.78 971.335 1152.65 967.252 1128.43 963.085C1092.09 956.832 1055.54 948.244 1020.18 939.936C1001.53 935.552 982.23 931.015 963.204 926.88C959.345 926.042 955.469 925.184 951.575 924.327C907.258 914.56 861.431 904.455 817.229 911.968C786.292 917.229 755.257 926.349 725.247 935.168C685.094 946.97 643.576 959.168 601.574 962.368C575.528 964.352 548.306 960.429 521.983 956.634C517.311 955.962 512.484 955.264 507.802 954.624C477.32 950.458 446.509 944.992 420.382 940.199C412.56 938.765 404.732 937.312 396.91 935.86C340.906 925.466 283 914.714 225.383 910.362C167.593 905.997 110.068 919.456 54.4435 932.48C12.839 942.221 -30.1882 952.288 -73.1693 954.9L-73.296 952.346C-30.4877 949.741 12.4473 939.693 53.9654 929.978C109.751 916.922 167.432 903.418 225.539 907.808C283.265 912.173 341.228 922.932 397.284 933.338C405.107 934.791 412.929 936.244 420.751 937.677C446.849 942.464 477.636 947.924 508.072 952.084C512.761 952.724 517.594 953.421 522.265 954.093C548.479 957.869 575.585 961.773 601.407 959.808C643.19 956.628 684.605 944.455 724.648 932.685C754.716 923.847 785.808 914.708 816.872 909.428C861.471 901.844 907.5 911.988 952.013 921.805C955.907 922.663 959.783 923.514 963.636 924.352C982.679 928.493 1001.98 933.024 1020.65 937.415C1055.97 945.716 1092.49 954.298 1128.77 960.538C1156.67 965.338 1189.76 970.029 1223.7 968.448C1256.98 966.893 1290.08 962.266 1315.2 958.4C1327.51 956.506 1340.01 954.477 1352.1 952.519C1404.4 944.026 1458.48 935.245 1512.49 935.117L1512.5 937.677C1458.66 937.805 1404.66 946.573 1352.43 955.053C1340.34 957.018 1327.84 959.047 1315.52 960.941C1290.35 964.813 1257.17 969.453 1223.8 971.008C1219.19 971.232 1214.59 971.335 1210.01 971.335Z" fill="white" fill-opacity="0.01"/>
<path d="M1207.07 957.152C1179.23 957.152 1152.83 952.845 1130.02 948.41C1094.19 941.44 1058.3 931.693 1023.58 922.266C1005.27 917.293 986.337 912.154 967.651 907.488C965.163 906.868 962.669 906.24 960.163 905.613C915.258 894.33 868.821 882.663 823.887 890.727C792.841 896.301 761.852 906.42 731.889 916.212C692.214 929.178 651.18 942.58 609.327 945.671C582.618 947.649 554.717 942.983 527.731 938.477C524.108 937.869 520.508 937.268 516.937 936.692C487.031 931.828 456.872 925.415 431.309 919.783C423.7 918.106 416.091 916.41 408.482 914.714C353.635 902.49 296.928 889.844 240.198 884.871C179.205 879.521 118.397 895.066 59.5929 910.106C16.2835 921.178 -28.5005 932.628 -73.1578 935.719L-73.3018 933.165C-28.8288 930.087 15.8573 918.663 59.0745 907.616C118.051 892.538 179.032 876.948 240.376 882.324C297.239 887.309 354.021 899.969 408.931 912.212C416.54 913.908 424.143 915.604 431.752 917.28C457.281 922.906 487.405 929.312 517.265 934.164C520.836 934.746 524.437 935.348 528.065 935.949C554.93 940.436 582.705 945.076 609.166 943.124C650.765 940.052 691.672 926.682 731.232 913.76C761.265 903.949 792.323 893.799 823.513 888.205C868.884 880.064 915.54 891.783 960.664 903.124C963.17 903.751 965.664 904.378 968.152 904.999C986.861 909.671 1005.81 914.816 1024.12 919.789C1058.8 929.204 1094.66 938.938 1130.41 945.895C1157.75 951.213 1190.25 956.34 1224.12 954.029C1257.36 951.764 1290.4 945.812 1315.47 940.877C1327.82 938.445 1340.35 935.847 1352.48 933.332C1404.51 922.541 1458.32 911.38 1512.47 910.56L1512.5 913.12C1458.55 913.933 1404.84 925.076 1352.9 935.847C1340.77 938.362 1328.23 940.967 1315.87 943.392C1290.74 948.34 1257.62 954.304 1224.26 956.576C1218.49 956.973 1212.75 957.152 1207.07 957.152Z" fill="white" fill-opacity="0.01"/>
<path d="M1205.11 942.855C1177.86 942.855 1152.23 938.228 1131.91 933.869C1096.75 926.324 1061.69 915.584 1027.79 905.197C1009.91 899.719 991.417 894.055 973.141 888.928L971.839 888.564C925.788 875.648 878.17 862.292 831.606 870.663C799.862 876.372 768.326 887.316 737.833 897.901C697.859 911.777 656.519 926.125 614.068 928.935C586.391 930.772 557.643 925.28 529.839 919.975C527.979 919.623 526.13 919.264 524.287 918.919C495.372 913.434 466.324 906.157 441.723 899.757C434.431 897.863 427.144 895.943 419.852 894.023C367.01 880.116 312.371 865.728 257.328 860.282C204.077 855.008 151.154 868.442 99.9763 881.428L98.0237 881.927C90.1555 883.924 82.1433 885.997 74.4019 888.007C26.4499 900.423 -23.1322 913.268 -73.1578 916.512L-73.2903 913.959C-23.4605 910.733 26.0237 897.914 73.8777 885.517C81.625 883.514 89.6371 881.434 97.511 879.437L99.4637 878.945C150.814 865.914 203.915 852.436 257.535 857.741C312.739 863.207 367.465 877.613 420.388 891.54C427.674 893.46 434.961 895.38 442.253 897.274C466.819 903.668 495.827 910.938 524.678 916.404C526.522 916.756 528.376 917.108 530.237 917.46C557.908 922.74 586.523 928.205 613.935 926.388C656.11 923.597 697.311 909.293 737.153 895.469C767.727 884.858 799.338 873.882 831.249 868.148C878.285 859.693 926.139 873.114 972.415 886.093L973.717 886.458C992.016 891.591 1010.52 897.255 1028.41 902.74C1062.27 913.114 1097.29 923.84 1132.35 931.367C1157.35 936.73 1190.41 942.496 1224.54 939.469C1257.74 936.519 1290.72 929.28 1315.74 923.303C1328.14 920.34 1340.71 917.172 1352.88 914.113C1404.62 901.082 1458.13 887.61 1512.48 886.151L1512.54 888.711C1458.42 890.164 1405.03 903.61 1353.39 916.608C1341.22 919.674 1328.64 922.842 1316.22 925.805C1291.13 931.802 1258.06 939.06 1224.73 942.023C1218.13 942.599 1211.58 942.855 1205.11 942.855Z" fill="white" fill-opacity="0.01"/>
<path d="M1203.15 928.199C1182.52 928.199 1160.32 925.248 1133.85 919.124C1099.4 911.143 1065.22 899.559 1032.17 888.352C1014.74 882.445 996.728 876.333 978.895 870.836C931.248 856.128 884.701 843.584 839.197 851.431C806.141 857.133 773.418 868.749 741.773 879.988C700.71 894.573 658.247 909.652 614.436 912.045C563.437 914.829 508.671 898.087 460.345 883.322C456.814 882.24 453.3 881.172 449.821 880.109C442.927 878.016 436.032 875.898 429.137 873.773C379.014 858.362 327.185 842.432 274.499 836.679C220.464 830.784 166.36 844.909 114.036 858.573L108.582 859.994C100.063 862.215 91.3881 864.525 83.0016 866.765C32.279 880.288 -20.1773 894.272 -73.1693 897.306L-73.2903 894.752C-20.5056 891.738 31.8412 877.78 82.4601 864.282C90.8524 862.042 99.527 859.732 108.052 857.511L113.507 856.09C166.015 842.381 220.308 828.199 274.723 834.138C327.612 839.911 379.538 855.872 429.754 871.309C436.648 873.428 443.537 875.546 450.432 877.639C453.917 878.695 457.425 879.77 460.961 880.852C509.121 895.572 563.702 912.244 614.333 909.492C657.844 907.117 700.157 892.084 741.082 877.549C772.808 866.279 805.617 854.631 838.852 848.896C884.817 840.973 931.617 853.588 979.517 868.365C997.379 873.876 1015.41 879.988 1032.84 885.901C1065.84 897.088 1099.97 908.66 1134.32 916.615C1170.16 924.916 1198.1 927.341 1224.91 924.493C1257.88 920.986 1289.44 912.973 1315.97 905.594C1328.42 902.132 1341.05 898.426 1353.27 894.842C1404.71 879.751 1457.91 864.154 1512.47 862.208L1512.54 864.768C1458.25 866.701 1405.18 882.266 1353.86 897.319C1341.64 900.903 1329 904.608 1316.53 908.077C1289.92 915.476 1258.26 923.52 1225.13 927.04C1217.92 927.815 1210.64 928.199 1203.15 928.199Z" fill="white" fill-opacity="0.01"/>
<path d="M1202.04 912.775C1181.79 912.775 1160.16 909.837 1135.59 903.821C1101.77 895.54 1068.41 883.245 1036.14 871.348C1019.13 865.082 1001.55 858.599 984.131 852.788C942.607 838.944 894.229 824.826 845.482 832.589C810.455 838.17 775.872 850.356 742.424 862.138C699.466 877.274 655.044 892.922 609.114 894.81C606.401 894.919 603.683 894.976 600.964 894.976C551.105 894.976 499.582 876.845 453.842 860.749C447.402 858.484 440.963 856.186 434.523 853.895C387.694 837.197 339.27 819.936 289.457 814.093C234.737 807.668 179.493 822.368 126.075 836.583C123.396 837.293 120.724 838.004 118.057 838.714C108.933 841.133 99.648 843.655 90.6681 846.093C37.4688 860.551 -17.5392 875.495 -73.1693 878.106L-73.2672 875.546C-17.8675 872.948 37.031 858.029 90.1209 843.604C99.1065 841.165 108.397 838.637 117.521 836.218C120.188 835.514 122.861 834.804 125.533 834.087C179.142 819.821 234.576 805.076 289.693 811.546C339.742 817.421 388.282 834.72 435.22 851.456C441.659 853.754 448.093 856.045 454.533 858.311C502.589 875.22 557.067 894.394 609.028 892.256C654.647 890.381 698.913 874.784 741.727 859.7C775.261 847.885 809.942 835.668 845.159 830.055C894.361 822.215 943.039 836.41 984.799 850.336C1002.26 856.154 1019.85 862.644 1036.87 868.916C1069.08 880.788 1102.39 893.069 1136.09 901.319C1170.1 909.645 1198.42 912.039 1225.23 908.864C1258.17 904.954 1289.68 895.981 1316.17 887.712C1328.67 883.808 1341.34 879.629 1353.6 875.591C1404.77 858.72 1457.68 841.274 1512.46 839.136L1512.54 841.696C1458.05 843.821 1405.28 861.223 1354.26 878.048C1341.99 882.093 1329.3 886.272 1316.79 890.183C1290.21 898.477 1258.58 907.488 1225.47 911.418C1217.81 912.32 1210.03 912.775 1202.04 912.775Z" fill="white" fill-opacity="0.01"/>
<path d="M1201.21 896.314C1181.08 896.314 1159.83 893.428 1136.87 887.616C1104.86 879.508 1072.7 866.701 1041.59 854.311C979.811 829.709 915.927 804.269 849.231 813.792C811.538 819.175 774.363 831.847 738.415 844.103C692.749 859.668 645.529 875.764 596.696 877.127C594.737 877.184 592.779 877.21 590.832 877.21C535.069 877.21 482.388 855.271 431.372 834.029C389.002 816.384 345.185 798.138 299.889 792.583C244.65 785.812 188.536 800.967 134.266 815.629C131.195 816.461 128.131 817.287 125.078 818.106C115.453 820.692 105.65 823.405 96.1689 826.023C41.1897 841.223 -15.6615 856.935 -73.1924 858.906L-73.2615 856.346C-15.9783 854.381 40.752 838.701 95.616 823.54C105.103 820.916 114.906 818.208 124.543 815.616C127.596 814.797 130.654 813.972 133.73 813.14C188.191 798.426 244.506 783.213 300.148 790.036C345.727 795.629 389.681 813.927 432.19 831.629C484.779 853.53 539.165 876.167 596.644 874.567C645.155 873.21 692.225 857.165 737.741 841.652C773.787 829.364 811.054 816.66 848.943 811.252C916.197 801.645 980.341 827.194 1042.37 851.898C1073.41 864.263 1105.51 877.044 1137.39 885.12C1169.61 893.28 1198.42 895.629 1225.46 892.289C1258.38 888.225 1289.86 878.516 1316.31 869.556C1328.85 865.306 1341.57 860.749 1353.87 856.333C1404.8 838.061 1457.46 819.168 1512.47 817.236L1512.55 819.796C1457.86 821.716 1405.35 840.557 1354.57 858.772C1342.26 863.188 1329.54 867.751 1316.98 872.007C1290.44 880.999 1258.83 890.746 1225.72 894.836C1217.7 895.821 1209.55 896.314 1201.21 896.314Z" fill="white" fill-opacity="0.01"/>
<path d="M1196.62 877.562C1176.34 877.562 1156.78 875.104 1137.46 870.157C1104.41 861.696 1071.95 848.596 1040.56 835.93C979.891 811.444 917.153 786.125 849.272 794.618C808.151 799.764 767.606 812.871 728.398 825.549C679.219 841.453 628.364 857.895 575.862 858.804C574.808 858.823 573.748 858.829 572.7 858.829C520.312 858.829 472.522 836.449 426.263 814.785C387.118 796.455 346.643 777.498 303.575 772.18C247.997 765.319 191.422 780.877 136.708 795.924C133.914 796.692 131.132 797.453 128.362 798.215C118.379 800.948 108.207 803.821 98.3635 806.605C42.6816 822.337 -14.9011 838.612 -73.1981 839.712L-73.2384 837.152C-15.2122 836.058 42.238 819.821 97.7932 804.128C107.637 801.344 117.815 798.471 127.809 795.732C130.579 794.97 133.361 794.208 136.155 793.44C191.065 778.343 247.841 762.727 303.828 769.633C347.23 774.989 387.861 794.016 427.162 812.423C474.129 834.42 522.697 857.159 575.833 856.244C628.03 855.341 678.73 838.945 727.764 823.092C767.065 810.381 807.708 797.242 849.024 792.071C879.736 788.225 911.987 790.887 947.618 800.199C979.367 808.5 1010.88 821.216 1041.36 833.517C1072.68 846.157 1105.07 859.232 1137.99 867.655C1205.84 885.018 1268.97 867.898 1316.39 851.04C1328.96 846.573 1341.71 841.754 1354.03 837.095C1404.8 817.901 1457.29 798.055 1512.5 796.852L1512.55 799.412C1457.69 800.609 1405.37 820.391 1354.77 839.52C1342.43 844.186 1329.68 849.005 1317.09 853.479C1283.5 865.421 1255.25 872.468 1228.19 875.655C1217.42 876.928 1206.93 877.562 1196.62 877.562Z" fill="white" fill-opacity="0.01"/>
<path d="M1202.28 857.453C1182.65 857.453 1162.1 854.65 1139.21 848.928C1107.05 840.896 1074.93 828.544 1043.86 816.596C980.98 792.423 915.961 767.424 847.63 777.095C805.38 783.072 763.453 796.672 722.915 809.824C670.643 826.784 616.585 844.32 561.133 845.773C509.092 847.111 461.733 822.784 415.924 799.232C379.446 780.48 341.724 761.088 301.859 754.778C250.191 746.612 196.249 761.261 144.086 775.431C138.678 776.896 133.321 778.356 128.016 779.77C118.218 782.381 108.23 785.127 98.5766 787.776C42.8025 803.085 -14.8666 818.906 -73.1981 820.512L-73.2557 817.952C-15.1719 816.359 42.3705 800.564 98.0237 785.293C107.683 782.644 117.671 779.904 127.475 777.287C132.774 775.872 138.131 774.42 143.533 772.948C193.467 759.38 250.07 744.007 302.175 752.244C342.374 758.599 380.252 778.074 416.886 796.909C462.453 820.333 509.564 844.544 561.07 843.213C616.222 841.767 670.124 824.282 722.258 807.367C762.889 794.189 804.897 780.557 847.331 774.554C916.203 764.807 981.481 789.908 1044.61 814.176C1075.62 826.1 1107.68 838.426 1139.71 846.426C1172.3 854.567 1200.11 856.762 1227.23 853.319C1260.58 849.088 1293.05 838.932 1317.61 830.56C1329.76 826.42 1342.06 821.997 1353.96 817.722C1404.81 799.45 1457.38 780.557 1512.46 778.272L1512.54 780.832C1457.79 783.098 1405.37 801.94 1354.67 820.154C1342.77 824.436 1330.45 828.858 1318.29 833.005C1293.63 841.415 1261.02 851.61 1227.48 855.86C1219.19 856.922 1210.82 857.453 1202.28 857.453Z" fill="white" fill-opacity="0.01"/>
<path d="M1207.51 832.544C1188.35 832.544 1167.85 829.94 1143.82 824.564C1112.2 817.492 1080.01 806.599 1048.88 796.064C983.163 773.824 915.206 750.829 846.438 761.146C803.434 767.597 760.602 780.973 719.176 793.908C665.245 810.746 609.483 828.154 552.568 830.567C509.645 832.378 466.341 810.9 428.129 791.943C422.807 789.3 417.393 786.573 412.157 783.943C376.151 765.812 338.918 747.06 299.163 739.93C249.921 731.098 195.195 745.287 146.909 757.812C139.951 759.616 133.379 761.319 126.76 762.983C117.285 765.357 107.637 767.84 98.3059 770.24C42.5779 784.576 -15.0509 799.399 -73.1924 801.325L-73.2615 798.765C-15.3504 796.852 42.1689 782.055 97.7875 767.744C107.119 765.344 116.772 762.861 126.253 760.48C132.86 758.823 139.432 757.12 146.385 755.316C194.878 742.74 249.84 728.493 299.531 737.402C339.592 744.589 376.963 763.412 413.107 781.613C418.337 784.25 423.746 786.97 429.068 789.613C467.05 808.455 510.094 829.812 552.476 828.013C609.114 825.613 664.75 808.244 718.548 791.45C760.049 778.496 802.961 765.095 846.121 758.618C915.396 748.224 983.589 771.303 1049.54 793.62C1080.62 804.135 1112.75 815.015 1144.26 822.061C1178.69 829.76 1205.78 831.744 1232.1 828.487C1258.08 825.28 1285.52 818.97 1321.08 808.045C1332.5 804.532 1344.07 800.82 1355.25 797.229C1405.85 780.986 1458.17 764.186 1512.44 761.338L1512.55 763.898C1458.55 766.733 1406.36 783.488 1355.89 799.693C1344.7 803.284 1333.13 807.002 1321.7 810.516C1286.02 821.485 1258.46 827.815 1232.36 831.04C1224.21 832.032 1215.99 832.544 1207.51 832.544Z" fill="white" fill-opacity="0.01"/>
<path d="M542.339 812.474C503.274 812.474 463.035 793.812 427.34 777.255L424.086 775.745C418.792 773.293 413.412 770.765 408.205 768.32C372.223 751.412 335.013 733.927 295.736 726.874C247.548 718.215 193.801 731.04 146.379 742.356C138.943 744.128 131.921 745.805 124.854 747.425C115.747 749.511 106.485 751.68 97.5225 753.78C41.9789 766.804 -15.4541 780.263 -73.1981 782.113L-73.2672 779.553C-15.7306 777.716 41.5987 764.276 97.0444 751.277C106.007 749.178 115.275 747.002 124.387 744.916C131.443 743.303 138.465 741.626 145.895 739.853C193.513 728.493 247.484 715.617 296.104 724.352C335.652 731.456 372.995 749.005 409.104 765.972C414.305 768.417 419.685 770.944 424.973 773.396L428.227 774.906C465.327 792.109 507.375 811.597 547.592 809.812C605.002 807.232 661.738 790.74 716.613 774.791C758.506 762.618 801.821 750.023 845.194 743.687C896.175 736.237 946.115 746.452 992.892 757.556C1011.11 761.882 1029.56 766.656 1047.4 771.277C1081.21 780.032 1116.17 789.082 1151 795.431C1176.51 800.077 1206.98 804.359 1239.52 800.871C1264.88 798.151 1292.46 792.8 1326.29 784.026C1336.78 781.306 1347.4 778.452 1357.67 775.693C1407.71 762.247 1459.46 748.34 1512.44 745.677L1512.55 748.237C1459.78 750.893 1408.14 764.769 1358.21 778.183C1347.93 780.948 1337.31 783.802 1326.8 786.522C1292.87 795.322 1265.2 800.692 1239.73 803.418C1206.74 806.951 1174.78 802.356 1150.62 797.952C1115.71 791.597 1080.71 782.535 1046.86 773.767C1029.03 769.152 1010.59 764.378 992.396 760.058C945.809 748.999 896.095 738.823 845.482 746.221C802.253 752.538 759.007 765.108 717.183 777.261C662.193 793.242 605.336 809.773 547.672 812.359C545.91 812.436 544.124 812.474 542.339 812.474Z" fill="white" fill-opacity="0.01"/>
<path d="M540.317 791.853C501.955 791.853 462.004 775.501 426.568 760.993L421.436 758.893C416.125 756.724 410.815 754.528 405.498 752.327C368.922 737.197 331.102 721.549 291.784 715.136C243.683 707.296 192.781 718.029 143.556 728.404C136.604 729.869 129.416 731.386 122.475 732.794C113.783 734.554 104.941 736.384 96.3878 738.157C41.1379 749.6 -15.9898 761.428 -73.1981 762.906L-73.2499 760.346C-16.2259 758.874 40.8096 747.06 95.9673 735.636C104.521 733.863 113.363 732.032 122.06 730.272C128.995 728.865 136.184 727.354 143.13 725.889C192.539 715.469 243.637 704.698 292.124 712.602C331.684 719.047 369.619 734.746 406.305 749.927C411.615 752.122 416.92 754.317 422.231 756.487L427.369 758.586C464.314 773.709 506.2 790.855 545.772 789.172C603.233 786.733 660.361 771.866 715.611 757.492C757.659 746.548 801.135 735.239 844.502 729.46C897.16 722.445 951.466 731.648 995.092 739.047C1014 742.253 1033.19 745.786 1051.74 749.21C1086.93 755.693 1123.32 762.4 1159.33 767.13C1185.6 770.586 1216.77 773.767 1248.79 771.194C1273.7 769.197 1300.39 765.287 1332.77 758.906C1342.17 757.05 1351.71 755.117 1360.93 753.242C1410.17 743.245 1461.09 732.909 1512.46 730.951L1512.54 733.511C1461.34 735.463 1410.5 745.786 1361.35 755.764C1352.12 757.639 1342.58 759.572 1333.17 761.428C1300.71 767.828 1273.95 771.745 1248.95 773.748C1216.74 776.333 1185.43 773.14 1159.05 769.671C1122.99 764.929 1086.57 758.221 1051.36 751.732C1032.81 748.314 1013.63 744.781 994.74 741.575C939.427 732.199 893.261 725.536 844.773 732C801.533 737.76 758.12 749.057 716.135 759.981C660.781 774.388 603.544 789.281 545.858 791.725C544.015 791.815 542.166 791.853 540.317 791.853Z" fill="white" fill-opacity="0.01"/>
<path d="M541.642 769.505C501.684 769.505 461.601 755.751 422.824 742.445C420.584 741.677 418.349 740.909 416.131 740.154C411.932 738.72 407.733 737.274 403.534 735.828C365.42 722.695 326.01 709.121 285.696 703.981C236.903 697.761 185.996 706.9 136.765 715.745C130.113 716.941 123.235 718.177 116.548 719.335C109.365 720.583 102.177 721.85 94.9939 723.117C40.1184 732.794 -16.6234 742.797 -73.2039 743.725L-73.2384 741.165C-16.8192 740.237 39.8419 730.247 94.631 720.589C101.819 719.322 109.008 718.055 116.191 716.807C122.872 715.648 129.744 714.413 136.391 713.217C185.777 704.346 236.84 695.175 285.949 701.44C326.483 706.605 365.996 720.225 404.208 733.389C408.407 734.836 412.606 736.282 416.799 737.716C419.023 738.477 421.252 739.239 423.498 740.013C462.355 753.344 502.549 767.124 542.39 766.957C586.984 766.759 632.419 756.909 676.357 747.38C681.587 746.247 686.794 745.114 691.978 744.007C698.665 742.58 705.352 741.133 712.04 739.687C754.209 730.567 797.818 721.14 841.294 716.02C892.011 710.048 943.459 715.162 993.208 720.109L995.363 720.32C1015.79 722.349 1036.55 724.615 1056.63 726.797C1092.79 730.74 1130.19 734.81 1167.05 737.684C1222.52 742.01 1278.9 740.544 1339.4 733.204C1348.04 732.154 1356.68 731.079 1365.3 730.004C1413.36 724.02 1463.05 717.825 1512.48 716.865L1512.52 719.425C1463.2 720.385 1413.56 726.567 1365.56 732.545C1356.93 733.62 1348.3 734.695 1339.65 735.745C1279.01 743.098 1222.5 744.57 1166.89 740.231C1130 737.357 1092.59 733.281 1056.41 729.338C1036.34 727.149 1015.59 724.89 995.161 722.861L993.007 722.65C943.361 717.716 892.028 712.608 841.536 718.554C798.163 723.661 754.606 733.082 712.483 742.189C705.796 743.636 699.103 745.082 692.415 746.516C687.231 747.623 682.024 748.756 676.8 749.889C632.759 759.437 587.215 769.319 542.402 769.517C542.154 769.504 541.895 769.505 541.642 769.505Z" fill="white" fill-opacity="0.01"/>
<path d="M543.583 745.741C494.214 745.741 445.478 732.09 398.327 718.887C360.207 708.212 320.786 697.172 281.33 693.44C230.728 688.66 178.704 696.128 128.396 703.348C123.506 704.052 118.633 704.749 113.771 705.434C107.055 706.381 100.345 707.348 93.6288 708.308C39.1219 716.122 -17.2397 724.199 -73.2212 724.512L-73.2327 721.952C-17.3952 721.639 38.8915 713.568 93.335 705.767C100.051 704.807 106.767 703.84 113.483 702.893C118.345 702.208 123.218 701.504 128.102 700.807C178.531 693.568 230.682 686.08 281.531 690.887C321.178 694.637 360.685 705.703 398.897 716.404C446.296 729.684 495.314 743.38 544.81 743.181C602.755 742.912 661.167 732.007 717.656 721.466C758.028 713.927 799.776 706.138 841.012 702.292C886.913 698.01 933.788 699.668 979.119 701.274C985.427 701.498 991.734 701.722 998.029 701.927C1019.3 702.631 1040.91 703.431 1061.82 704.205C1099.5 705.607 1138.46 707.053 1176.8 707.956C1239.74 709.434 1303.66 707.565 1365.47 705.754C1413.64 704.34 1463.45 702.893 1512.51 703.021L1512.5 705.581C1463.47 705.453 1413.68 706.906 1365.52 708.314C1303.68 710.125 1239.74 712 1176.74 710.516C1138.4 709.613 1099.43 708.167 1061.74 706.765C1040.84 705.991 1019.22 705.184 997.955 704.487C991.653 704.282 985.346 704.058 979.039 703.834C933.771 702.234 886.965 700.576 841.196 704.845C800.053 708.685 758.356 716.468 718.03 723.994C661.455 734.554 602.951 745.479 544.815 745.748C544.406 745.741 543.992 745.741 543.583 745.741Z" fill="white" fill-opacity="0.01"/>
<path d="M548.634 721.3C548.554 721.3 548.467 721.3 548.387 721.3C498.361 721.28 448.456 711.284 400.193 701.613C360.023 693.568 318.488 685.242 277.125 682.733C213.085 678.842 148.159 686.279 85.3747 693.479C33.4541 699.431 -20.2407 705.594 -73.2269 705.319L-73.2154 702.759C-20.3386 703.034 33.2813 696.877 85.1385 690.932C148.015 683.725 213.034 676.276 277.252 680.18C318.758 682.701 360.369 691.04 400.608 699.098C448.773 708.749 498.574 718.727 548.392 718.746C548.473 718.746 548.559 718.746 548.64 718.746C605.261 718.746 662.481 710.631 717.834 702.778C758.114 697.063 799.764 691.156 840.868 688.416C877.743 685.959 915.35 685.268 951.725 684.602C967.766 684.308 984.355 684 1000.64 683.552C1022.73 682.938 1044.82 682.317 1066.91 681.69C1106.08 680.583 1146.57 679.444 1186.41 678.375C1254.75 676.544 1323.86 680.224 1390.68 683.776C1430.58 685.901 1471.83 688.09 1512.53 689.095L1512.48 691.655C1471.75 690.65 1430.48 688.455 1390.57 686.33C1323.78 682.778 1254.72 679.104 1186.46 680.928C1146.63 681.997 1106.13 683.136 1066.97 684.244C1044.88 684.864 1022.79 685.492 1000.7 686.106C984.401 686.56 967.812 686.861 951.765 687.156C915.42 687.821 877.836 688.512 841.012 690.964C799.983 693.696 758.373 699.597 718.128 705.306C662.7 713.172 605.399 721.3 548.634 721.3Z" fill="white" fill-opacity="0.01"/>
<path d="M552.177 696.781C502.082 696.781 451.722 690.24 402.981 683.911C361.215 678.49 318.027 672.877 275.276 671.424C214.059 669.338 152.006 674.023 91.9929 678.548C37.9008 682.631 -18.0346 686.848 -73.2327 686.112L-73.2039 683.552C-18.0979 684.295 37.7913 680.071 91.8374 675.994C151.903 671.463 214.013 666.772 275.345 668.864C318.194 670.324 361.434 675.936 403.252 681.37C453.277 687.866 505.014 694.567 556.335 694.208C609.558 693.818 663.454 688.692 715.576 683.738C757.44 679.757 800.726 675.642 843.448 673.997C922.412 670.957 1002.45 664.557 1079.84 658.375C1118.26 655.303 1157.97 652.128 1197.1 649.402L1204.02 648.916C1232.51 646.906 1261.97 644.826 1291.04 646.881C1313.53 648.474 1336.85 651.284 1362.33 655.482C1367.19 656.282 1372.04 657.088 1376.89 657.895C1421.08 665.236 1466.77 672.826 1512.55 674.759L1512.46 677.319C1466.55 675.373 1420.8 667.776 1376.55 660.423C1371.7 659.616 1366.85 658.81 1361.99 658.01C1336.57 653.824 1313.32 651.021 1290.9 649.428C1261.97 647.38 1232.58 649.453 1204.16 651.463L1197.23 651.949C1158.12 654.676 1118.41 657.85 1080 660.922C1002.58 667.111 922.522 673.511 843.517 676.551C800.859 678.196 757.601 682.304 715.766 686.285C663.598 691.245 609.656 696.372 556.341 696.768C554.953 696.775 553.565 696.781 552.177 696.781Z" fill="white" fill-opacity="0.01"/>
<path d="M558.91 672.813C509.121 672.813 458.726 669.242 409.974 665.786C364.821 662.586 318.125 659.277 272.091 658.816C216.507 658.266 160.042 660.647 105.437 662.944C46.8921 665.415 -13.6397 667.962 -73.2442 666.912L-73.2096 664.352C-13.6685 665.408 46.8345 662.855 105.345 660.391C159.978 658.087 216.472 655.706 272.108 656.256C318.211 656.711 364.936 660.026 410.118 663.226C459.268 666.708 510.1 670.317 560.235 670.247C611.499 670.183 663.535 667.303 713.86 664.519C756.305 662.17 800.191 659.738 843.431 659.008C924.636 657.632 1006.5 646.836 1085.68 636.391C1124.67 631.245 1164.99 625.927 1204.77 621.799L1209.24 621.332C1238.8 618.247 1269.37 615.053 1299.54 618.055C1321.7 620.256 1344.19 624.442 1368.32 630.848C1372.69 632.007 1377.04 633.178 1381.39 634.336C1425.54 646.164 1467.25 657.332 1512.55 659.655L1512.44 662.215C1466.92 659.879 1425.11 648.679 1380.84 636.826C1376.5 635.661 1372.15 634.496 1367.78 633.338C1343.77 626.964 1321.38 622.797 1299.34 620.602C1269.38 617.62 1238.91 620.8 1209.46 623.879L1204.98 624.346C1165.24 628.474 1124.93 633.792 1085.94 638.932C1006.72 649.383 924.785 660.192 843.46 661.568C800.266 662.298 756.392 664.724 713.969 667.072C663.615 669.856 611.551 672.743 560.235 672.807C559.797 672.807 559.354 672.813 558.91 672.813Z" fill="white" fill-opacity="0.01"/>
<path d="M555.022 649.895C508.919 649.895 462.171 648.532 416.909 647.213C368.006 645.786 317.434 644.314 267.69 644.557C224.289 644.768 180.127 645.562 137.422 646.324C68.3596 647.559 -3.05283 648.833 -73.2442 647.719L-73.2096 645.159C-3.05859 646.273 68.3424 644.999 137.387 643.764C180.098 643.002 224.266 642.215 267.684 641.997C317.468 641.754 368.052 643.226 416.972 644.653C463.72 646.016 512.064 647.431 559.624 647.335C607.254 647.239 655.667 646.183 702.484 645.165C747.85 644.18 794.765 643.156 840.92 643.008C924.152 642.74 1007.55 628.679 1088.21 615.085C1127.65 608.436 1168.44 601.562 1208.76 596.372L1210.8 596.109C1241.63 592.135 1273.51 588.032 1304.91 591.508C1326.76 593.927 1349.44 599.252 1372.34 607.335C1377.08 609.005 1381.78 610.688 1386.46 612.352C1428.19 627.258 1467.61 641.332 1512.55 643.469L1512.46 646.029C1467.2 643.873 1427.64 629.748 1385.75 614.791C1381.08 613.12 1376.38 611.444 1371.65 609.773C1348.91 601.748 1326.38 596.461 1304.69 594.055C1273.54 590.605 1241.78 594.695 1211.07 598.65L1209.03 598.912C1168.76 604.096 1127.99 610.97 1088.56 617.62C1007.82 631.232 924.336 645.306 840.937 645.575C794.799 645.722 747.896 646.746 702.536 647.732C655.707 648.749 607.283 649.805 559.636 649.901C558.092 649.895 556.554 649.895 555.022 649.895Z" fill="white" fill-opacity="0.01"/>
<path d="M175.139 629.184C92.3789 629.184 9.21598 629.024 -73.2327 628.512L-73.2212 625.952C82.0569 626.912 239.967 626.637 392.676 626.375C447.978 626.279 505.158 626.176 561.393 626.138C599.795 626.112 638.836 625.997 676.598 625.882C730.472 625.722 786.177 625.556 840.966 625.645C841.329 625.645 841.692 625.645 842.054 625.645C925.079 625.645 1007.66 609.972 1087.53 594.804C1128.26 587.072 1170.36 579.079 1212.13 573.229C1263.92 565.972 1319.48 562.445 1374.92 585.6C1383.12 589.024 1391.32 592.852 1399.24 596.551C1410.13 601.632 1421.38 606.88 1432.75 611.143C1456.93 620.212 1483.03 625.005 1512.54 625.812L1512.48 628.372C1482.74 627.559 1456.42 622.72 1432.01 613.568C1420.57 609.28 1409.28 604.007 1398.35 598.912C1390.44 595.22 1382.27 591.405 1374.11 588.001C1319.14 565.044 1263.92 568.551 1212.42 575.77C1170.7 581.613 1128.62 589.607 1087.93 597.332C1007.96 612.512 925.275 628.205 842.054 628.205C841.686 628.205 841.329 628.205 840.96 628.205C786.177 628.109 730.472 628.282 676.604 628.442C638.842 628.557 599.8 628.672 561.398 628.698C505.164 628.736 447.984 628.839 392.682 628.935C321.045 629.056 248.25 629.184 175.139 629.184Z" fill="white" fill-opacity="0.01"/>
<path d="M359.862 612.365C328.441 612.365 296.94 611.821 265.68 610.266C190.967 606.554 115.073 607.527 41.6793 608.468C4.03197 608.948 -34.8999 609.453 -73.2327 609.312L-73.2269 606.752C-34.9114 606.887 4.00893 606.394 41.6505 605.908C115.079 604.967 191.002 603.994 265.784 607.712C334.253 611.117 403.932 609.671 471.318 608.276C501.46 607.648 532.627 607.002 563.276 606.804C616.049 606.452 669.698 606.727 721.584 606.989C760.919 607.188 801.59 607.399 841.594 607.329C897.834 607.232 952.088 602.196 1007.44 591.917C1031.66 587.424 1056.22 582.381 1079.97 577.504C1122.95 568.685 1167.4 559.559 1211.5 553.319C1244.18 548.692 1270.44 547.117 1294.16 548.372C1323.82 549.933 1350.25 555.949 1374.95 566.752C1382.85 570.208 1390.75 574.048 1398.38 577.767C1409.63 583.239 1421.26 588.903 1433.07 593.402C1456.67 602.394 1482.05 606.772 1510.61 606.772C1511.23 606.772 1511.86 606.772 1512.5 606.765L1512.51 609.325C1511.87 609.332 1511.24 609.332 1510.61 609.332C1481.79 609.332 1456.17 604.909 1432.32 595.821C1420.42 591.29 1408.75 585.607 1397.45 580.109C1389.84 576.404 1381.96 572.57 1374.11 569.133C1318.92 544.999 1261.09 548.877 1211.79 555.86C1167.75 562.093 1123.34 571.213 1080.39 580.026C1056.63 584.903 1032.05 589.946 1007.83 594.445C952.341 604.743 897.973 609.799 841.599 609.889C801.59 609.959 760.913 609.748 721.578 609.549C669.698 609.287 616.055 609.012 563.293 609.364C532.662 609.568 501.5 610.215 471.364 610.836C434.69 611.591 397.331 612.365 359.862 612.365Z" fill="white" fill-opacity="0.01"/>
<path d="M367.632 597.664C334.092 597.664 300.493 596.167 267.241 591.789C211.628 584.474 159.823 581.754 108.864 583.482C87.5117 584.205 65.8195 585.3 44.8358 586.362C6.16318 588.314 -33.8343 590.33 -73.2384 590.112L-73.2269 587.552C-33.8688 587.783 6.08829 585.76 44.7321 583.808C65.7216 582.746 87.431 581.652 108.795 580.928C159.869 579.194 211.784 581.92 267.512 589.248C337.501 598.458 409.156 594.893 478.454 591.444C510.618 589.844 543.877 588.186 576.513 587.834C626.953 587.29 678.223 588.212 727.805 589.101C767.555 589.818 808.664 590.554 849.087 590.528C904.902 590.496 958.712 585.159 1013.6 574.215C1036.21 569.709 1059.14 564.66 1081.31 559.776C1123.46 550.49 1167.06 540.896 1210.41 534.58C1242.24 529.94 1268.48 528.538 1292.99 530.151C1322.16 532.077 1348.51 538.356 1373.55 549.357C1380.9 552.589 1388.29 556.122 1395.43 559.54C1407.73 565.421 1420.44 571.508 1433.38 576.224C1457.76 585.12 1483.62 588.826 1512.46 587.565L1512.55 590.125C1483.44 591.405 1457.3 587.655 1432.66 578.663C1419.63 573.908 1406.87 567.802 1394.52 561.895C1387.4 558.484 1380.03 554.964 1372.71 551.744C1314.82 526.304 1255.73 530.567 1210.71 537.127C1167.44 543.431 1123.89 553.024 1081.77 562.298C1059.59 567.181 1036.65 572.237 1014.02 576.749C958.994 587.725 905.046 593.069 849.099 593.101C848.511 593.101 847.924 593.101 847.331 593.101C807.454 593.101 766.956 592.372 727.776 591.668C678.211 590.778 626.959 589.856 576.541 590.4C543.951 590.752 510.71 592.41 478.564 594.01C442.051 595.815 404.882 597.664 367.632 597.664Z" fill="white" fill-opacity="0.01"/>
<path d="M376.946 582.471C340.151 582.471 303.379 579.872 267.235 572.096C263.071 571.2 258.929 570.285 254.811 569.376C233.493 564.66 213.362 560.212 191.779 558.74C168.048 557.12 142.877 557.268 110.16 559.232C88.6982 560.519 66.9081 562.4 45.8323 564.225C6.87165 567.597 -33.408 571.092 -73.2384 570.919L-73.2327 568.359C-33.5117 568.532 6.73917 565.037 45.6537 561.671C66.7411 559.847 88.5427 557.959 110.033 556.673C142.842 554.708 168.094 554.554 191.917 556.186C213.65 557.671 233.862 562.138 255.254 566.868C259.373 567.777 263.508 568.692 267.667 569.588C340.646 585.287 416.356 579.789 489.565 574.477C523.446 572.02 558.484 569.479 592.664 569.095C641.71 568.544 691.528 570.368 739.699 572.135C778.481 573.556 818.577 575.021 858.033 575.239C912.603 575.553 965.169 570.004 1018.7 558.292C1040.27 553.575 1062.12 548.276 1083.25 543.149C1123.42 533.408 1164.95 523.341 1206.37 516.813C1237.06 511.981 1264.2 510.535 1289.34 512.404C1318.13 514.541 1344.6 520.967 1370.25 532.039C1377.33 535.098 1384.46 538.4 1391.35 541.6C1404.74 547.815 1418.59 554.247 1432.68 559.092C1457.75 567.712 1483.82 570.746 1512.39 568.352L1512.56 570.906C1483.7 573.319 1457.34 570.26 1432 561.543C1417.8 556.66 1403.9 550.209 1390.45 543.969C1383.58 540.775 1376.47 537.479 1369.41 534.433C1321.62 513.805 1271.43 509.152 1206.68 519.354C1165.35 525.863 1123.86 535.924 1083.73 545.658C1062.59 550.784 1040.72 556.09 1019.13 560.807C965.451 572.545 912.73 578.113 858.004 577.799C818.519 577.575 778.401 576.109 739.607 574.688C691.459 572.928 641.67 571.104 592.669 571.655C558.553 572.039 523.549 574.573 489.698 577.031C452.552 579.725 414.743 582.471 376.946 582.471Z" fill="white" fill-opacity="0.01"/>
<path d="M387.625 566.874C347.126 566.874 306.824 563.098 267.592 551.565C262.696 550.125 257.818 548.628 253.094 547.181C232.946 540.999 213.909 535.156 192.747 533.261C169.356 531.175 144.282 531.54 111.444 534.445C89.8848 536.352 68.0256 539.085 46.8864 541.722C7.64349 546.624 -32.9299 551.687 -73.2269 551.712V549.152C-33.0567 549.127 7.44765 544.071 46.6214 539.181C67.7779 536.538 89.6601 533.805 111.254 531.898C144.219 528.98 169.407 528.615 192.925 530.714C214.312 532.621 233.447 538.496 253.705 544.717C258.417 546.164 263.295 547.661 268.174 549.095C344.788 571.616 425.768 564.384 504.081 557.383C540.253 554.151 577.665 550.81 613.866 550.516C661.15 550.138 709.102 553.044 755.47 555.853C792.991 558.132 831.79 560.48 870.002 561.076C922.291 561.895 973.014 556.084 1025.08 543.322C1045.36 538.349 1065.89 532.756 1085.75 527.341C1123.48 517.056 1162.5 506.426 1201.56 499.597C1263.11 488.839 1315.35 493.722 1365.96 514.957C1368.94 516.205 1371.9 517.46 1374.84 518.701C1419.62 537.6 1461.92 555.456 1512.36 549.146L1512.62 551.687C1505.46 552.583 1498.46 552.999 1491.6 552.999C1449.61 552.999 1412.74 537.434 1374.03 521.089C1371.08 519.847 1368.13 518.599 1365.14 517.351C1314.92 496.276 1263.05 491.437 1201.91 502.125C1162.95 508.935 1123.98 519.553 1086.3 529.824C1066.42 535.239 1045.87 540.839 1025.57 545.818C973.325 558.618 922.424 564.442 869.962 563.629C831.704 563.034 792.881 560.679 755.338 558.4C709.004 555.591 661.087 552.685 613.878 553.063C577.757 553.351 540.392 556.692 504.259 559.917C465.759 563.38 426.603 566.874 387.625 566.874Z" fill="white" fill-opacity="0.01"/>
<path d="M897.967 550.452C893.284 550.452 888.595 550.388 883.895 550.247C847.06 549.191 809.758 545.837 773.689 542.599C729.418 538.618 683.631 534.528 638.415 534.618C601.626 534.708 564.278 538.176 528.163 541.536C507.715 543.437 486.57 545.402 465.759 546.733C399.756 550.951 330.134 553.165 268.174 530.49C262.379 528.372 256.694 526.138 251.194 523.981C232.278 516.564 214.41 509.556 193.674 507.296C164.131 504.077 134.876 506.695 112.689 509.325C91.0368 511.898 69.1142 515.508 47.9174 518.996C8.43261 525.498 -32.4116 532.224 -73.2212 532.512L-73.2384 529.952C-32.5901 529.664 8.16766 522.957 47.5833 516.461C68.8032 512.967 90.743 509.357 112.447 506.778C134.744 504.128 164.154 501.504 193.905 504.743C214.917 507.028 232.911 514.087 251.965 521.562C257.455 523.712 263.128 525.94 268.9 528.052C330.48 550.592 399.853 548.372 465.633 544.167C486.409 542.842 507.537 540.877 527.973 538.976C564.134 535.616 601.528 532.141 638.41 532.052C683.718 531.968 729.556 536.058 773.873 540.045C809.914 543.284 847.187 546.631 883.953 547.687C933.615 549.108 982.132 543.002 1032.27 529.012C1051.12 523.757 1070.17 517.824 1088.59 512.096C1123.59 501.204 1159.78 489.946 1196.21 482.765C1225.2 477.05 1252.47 475.469 1279.58 477.927C1307.11 480.417 1333.73 487.002 1360.98 498.055C1363.86 499.226 1366.73 500.397 1369.58 501.562C1416.33 520.634 1460.49 538.637 1512.33 529.972L1512.67 532.5C1460.25 541.274 1415.83 523.149 1368.79 503.962C1365.94 502.797 1363.07 501.626 1360.19 500.461C1307.26 478.989 1253.76 474.029 1196.61 485.287C1160.29 492.442 1124.16 503.687 1089.22 514.56C1070.78 520.301 1051.71 526.234 1032.84 531.495C987.235 544.218 942.97 550.452 897.967 550.452Z" fill="white" fill-opacity="0.01"/>
<path d="M916.047 537.607C910.316 537.607 904.579 537.479 898.819 537.229C863.505 535.687 827.856 531.271 793.382 527.002C751.306 521.792 707.795 516.404 664.623 516.205C625.588 516.039 585.942 520.058 547.597 523.956C525.779 526.176 503.217 528.468 481.029 529.959C448.497 532.148 410.7 534.285 373.795 532.02C333.158 529.524 298.846 522.036 268.9 509.127C262.259 506.266 255.848 503.201 249.65 500.244C231.828 491.725 214.998 483.687 194.607 481.076C165.502 477.351 136.212 480.698 113.944 484.032C92.2003 487.284 70.2374 491.789 48.9945 496.141C9.25053 504.288 -31.8471 512.711 -73.2096 513.313L-73.2384 510.753C-32.0717 510.157 8.92798 501.754 48.5798 493.626C69.8515 489.268 91.8432 484.756 113.645 481.498C136.045 478.144 165.519 474.778 194.878 478.535C215.603 481.184 232.583 489.3 250.566 497.895C256.74 500.845 263.128 503.898 269.735 506.746C334.293 534.567 409.45 532.212 480.897 527.412C503.05 525.92 525.594 523.629 547.396 521.415C585.792 517.511 625.496 513.485 664.641 513.652C707.933 513.844 751.507 519.245 793.647 524.461C828.081 528.724 863.683 533.133 898.923 534.676C946.777 536.769 991.573 530.528 1039.89 515.028C1057.22 509.472 1074.7 503.188 1091.61 497.12C1123.71 485.588 1156.9 473.665 1190.59 466.119C1218.74 459.815 1246.04 458.1 1274.08 460.877C1300.75 463.52 1327.43 470.176 1355.66 481.236C1358.51 482.349 1361.34 483.469 1364.17 484.583C1412.98 503.808 1459.09 521.959 1512.3 510.791L1512.73 513.306C1501.27 515.712 1490.15 516.775 1479.27 516.775C1439.03 516.775 1402.06 502.215 1363.4 486.989C1360.58 485.876 1357.74 484.762 1354.9 483.642C1298.36 461.498 1244.76 456.589 1191.05 468.628C1157.49 476.148 1124.36 488.052 1092.32 499.559C1075.4 505.639 1057.9 511.924 1040.54 517.492C998.433 530.977 957.542 537.607 916.047 537.607Z" fill="white" fill-opacity="0.01"/>
<path d="M933.327 524.769C925.839 524.769 918.271 524.512 910.598 524.013C877.812 521.863 844.871 516.532 813.018 511.373C772.428 504.807 730.449 498.01 688.504 497.767C647.775 497.53 606.407 502.048 566.404 506.42C542.46 509.037 517.703 511.738 493.356 513.389C418.314 518.484 339.42 520.8 272.068 488.993C264.666 485.498 257.616 481.063 250.796 476.781C242.571 471.616 234.069 466.272 225.003 462.631C215.775 458.925 205.546 456.263 194.602 454.714C166.948 450.804 139.248 454.516 118.201 458.183C95.351 462.164 72.3398 467.808 50.0774 473.261C10.0915 483.06 -31.2538 493.191 -73.2039 494.106L-73.2499 491.546C-31.5303 490.637 9.69981 480.532 49.5763 470.759C71.8675 465.293 94.919 459.649 117.838 455.649C139.035 451.956 166.948 448.218 194.884 452.167C205.995 453.741 216.392 456.449 225.78 460.212C235.025 463.924 243.619 469.325 251.925 474.541C258.687 478.791 265.68 483.188 272.961 486.624C339.852 518.215 418.447 515.898 493.206 510.823C517.513 509.172 542.252 506.471 566.173 503.86C606.234 499.482 647.66 494.97 688.516 495.194C730.621 495.437 772.681 502.247 813.352 508.826C845.159 513.972 878.049 519.297 910.737 521.441C957.79 524.532 1000.91 518.164 1046.43 501.396C1062.61 495.437 1078.88 488.641 1094.61 482.074C1124.23 469.703 1154.86 456.916 1186.34 449.089C1237.29 436.417 1289.6 441.344 1350.96 464.615C1353.64 465.632 1356.31 466.65 1358.98 467.668C1409.81 487.034 1457.83 505.332 1512.25 491.578L1512.76 494.074C1499.33 497.466 1486.29 498.938 1473.52 498.938C1433.95 498.938 1396.91 484.826 1358.24 470.087C1355.57 469.069 1352.9 468.052 1350.22 467.041C1289.28 443.937 1237.36 439.028 1186.84 451.591C1155.52 459.38 1124.97 472.141 1095.42 484.474C1079.67 491.053 1063.38 497.856 1047.15 503.828C1008.77 517.978 972.075 524.769 933.327 524.769Z" fill="white" fill-opacity="0.01"/>
<path d="M948.862 511.584C940.902 511.584 932.832 511.245 924.612 510.567C893.14 507.975 861.742 501.639 831.381 495.508C792.933 487.751 753.183 479.725 713.059 479.29C670.216 478.823 626.665 483.937 584.548 488.884C559.279 491.853 533.151 494.919 507.473 496.749C481.905 498.567 455.927 500.058 430.14 500.058C374.93 500.058 320.567 493.223 272.765 468.103C263.987 463.488 255.859 458.183 247.997 453.05C231.448 442.241 215.81 432.033 195.54 428.724C168.422 424.301 140.636 428.666 119.462 432.967C96.5261 437.626 73.4803 444.161 51.1949 450.484C10.967 461.908 -30.6375 473.709 -73.1981 474.912L-73.2557 472.352C-30.9543 471.156 10.5177 459.386 50.6246 448.007C72.9504 441.671 96.0365 435.124 119.048 430.452C140.4 426.119 168.428 421.716 195.875 426.196C216.587 429.575 232.41 439.911 249.16 450.848C256.977 455.956 265.064 461.229 273.744 465.792C343.377 502.381 427.311 499.885 507.324 494.196C532.956 492.372 559.06 489.306 584.3 486.343C626.481 481.389 670.101 476.269 713.076 476.736C753.396 477.178 793.25 485.223 831.79 492.999C862.093 499.111 893.428 505.434 924.78 508.02C970.318 511.777 1011.28 505.133 1053.69 487.13C1068.41 480.884 1083.15 473.735 1097.39 466.829C1124.2 453.831 1151.92 440.385 1180.87 432.25C1207.45 424.781 1234.75 422.912 1264.34 426.535C1289.05 429.562 1315 436.295 1346 447.725C1348.76 448.743 1351.5 449.76 1354.25 450.778C1406.98 470.324 1456.78 488.794 1512.2 472.404L1512.79 474.881C1456.71 491.463 1406.59 472.884 1353.52 453.21C1350.77 452.193 1348.02 451.175 1345.27 450.157C1301.22 433.92 1242.81 417.485 1181.43 434.74C1152.66 442.823 1125.03 456.224 1098.31 469.184C1084.04 476.103 1069.28 483.258 1054.51 489.53C1019.43 504.41 985.334 511.584 948.862 511.584Z" fill="white" fill-opacity="0.01"/>
<path d="M962.012 497.639C953.724 497.639 945.274 497.216 936.611 496.378C906.238 493.434 876.223 486.189 847.192 479.181C810.657 470.362 772.877 461.242 734.256 460.711C689.674 460.096 644.319 465.863 600.457 471.444C573.984 474.81 546.613 478.292 519.736 480.327C434.655 486.765 345.537 489.549 273.214 447.77C264.038 442.471 255.686 436.218 247.617 430.17C231.707 418.253 216.68 407.002 196.514 403.245C169.805 398.273 141.99 403.232 120.741 408.109C97.7241 413.396 74.6438 420.788 52.3238 427.936C11.8483 440.896 -30.0096 454.304 -73.1981 455.719L-73.2672 453.159C-30.3667 451.751 11.3472 438.394 51.6845 425.472C74.0448 418.311 97.1712 410.906 120.269 405.601C141.713 400.679 169.799 395.668 196.888 400.717C217.549 404.564 232.779 415.969 248.901 428.045C256.925 434.049 265.213 440.263 274.274 445.498C346.067 486.976 434.822 484.186 519.575 477.773C546.405 475.744 573.748 472.269 600.192 468.903C644.124 463.316 689.553 457.536 734.279 458.157C773.13 458.695 811.025 467.84 847.676 476.685C876.638 483.674 906.578 490.906 936.807 493.837C981.556 498.176 1020.74 491.303 1060.11 472.205C1073.53 465.697 1086.88 458.234 1099.79 451.015C1124.07 437.44 1149.17 423.405 1175.95 415.034C1201.95 406.912 1229.35 404.916 1259.71 408.929C1283.76 412.109 1309.05 418.81 1341.72 430.656C1344.41 431.636 1347.11 432.615 1349.8 433.601C1404.39 453.505 1455.94 472.301 1512.16 453.216L1512.83 455.668C1487.27 464.346 1460.07 465.908 1429.7 460.436C1402.63 455.559 1375.41 445.632 1349.08 436.039C1346.39 435.06 1343.7 434.074 1341 433.095C1291.95 415.303 1234.06 399.533 1176.57 417.498C1150.01 425.799 1125 439.783 1100.82 453.3C1087.89 460.532 1074.51 468.013 1061.03 474.548C1028.92 490.119 996.935 497.639 962.012 497.639Z" fill="white" fill-opacity="0.01"/>
<path d="M971.493 482.503C963.711 482.503 955.78 482.093 947.67 481.287C915.045 478.023 883.089 468.263 854.893 459.649C816.635 447.962 781.695 442.17 748.08 441.952C702.835 441.639 656.796 448.039 612.248 454.215C583.88 458.151 554.544 462.215 525.773 464.506C486.328 467.642 440.484 470.637 395.631 466.432C345.704 461.754 305.113 448.903 271.549 427.143C262.449 421.242 254.396 414.362 246.603 407.706C231.425 394.74 217.089 382.497 196.623 378.33C170.352 372.98 142.566 378.535 121.288 383.969C98.4672 389.799 75.6115 397.882 53.5046 405.703C12.7584 420.116 -29.376 435.021 -73.1981 436.525L-73.2672 433.965C-29.7677 432.468 12.2112 417.62 52.8077 403.264C74.9549 395.431 97.8624 387.329 120.77 381.472C142.26 375.981 170.352 370.375 197.038 375.809C218.056 380.084 232.606 392.512 248.008 405.677C255.744 412.282 263.739 419.117 272.713 424.935C345.151 471.892 437.363 468.973 525.606 461.959C554.319 459.674 583.621 455.61 611.96 451.687C656.577 445.498 702.726 439.092 748.086 439.405C781.909 439.629 817.044 445.447 855.498 457.197C883.601 465.78 915.454 475.514 947.871 478.759C990.904 483.066 1029.04 475.879 1064.47 456.788C1077.16 449.946 1089.65 442.023 1101.74 434.356C1122.68 421.076 1144.33 407.335 1167.83 398.727C1193.16 389.441 1220.34 386.701 1250.92 390.362C1281.21 393.985 1310.52 403.463 1332.67 411.309C1337.64 413.069 1342.69 414.893 1347.58 416.66C1400.8 435.866 1455.82 455.725 1512.12 434.055L1512.87 436.474C1455.85 458.426 1400.45 438.432 1346.87 419.098C1341.98 417.338 1336.93 415.514 1331.97 413.754C1279.74 395.245 1223.79 380.916 1168.54 401.165C1145.27 409.697 1123.72 423.367 1102.87 436.589C1090.76 444.276 1078.23 452.218 1065.47 459.098C1036.35 474.759 1005.41 482.496 971.493 482.503Z" fill="white" fill-opacity="0.01"/>
<path d="M977.783 465.824C969.696 465.824 961.338 465.377 952.635 464.487C922.516 461.396 895.156 452.66 862.52 441.549C825.915 429.095 791.574 423.034 757.521 423.021C757.492 423.021 757.457 423.021 757.423 423.021C728.404 423.021 698.947 427.271 670.458 431.38C665.695 432.064 660.931 432.756 656.185 433.421L650.834 434.17C611.764 439.655 571.369 445.325 531.429 448.864C490.908 452.455 443.82 455.917 397.705 451.476C346.124 446.509 304.721 432.481 271.129 408.602C261.884 402.029 253.878 394.234 246.131 386.689C231.679 372.615 218.028 359.322 197.695 354.554C171.953 348.525 145.302 354.093 122.63 360.333C99.7344 366.637 76.8269 375.418 54.6739 383.904C13.6569 399.623 -28.7482 415.879 -73.1866 417.312L-73.2557 414.752C-29.1687 413.332 13.0694 397.14 53.9193 381.485C76.1184 372.98 99.0777 364.18 122.072 357.844C145.002 351.533 171.971 345.908 198.167 352.045C219.093 356.948 232.963 370.458 247.645 384.756C255.329 392.237 263.267 399.975 272.367 406.439C344.863 457.978 444.01 454.042 531.245 446.311C571.133 442.772 611.505 437.108 650.546 431.629L655.897 430.881C660.643 430.215 665.401 429.53 670.164 428.839C698.723 424.717 728.254 420.461 757.423 420.461C757.457 420.461 757.486 420.461 757.521 420.461C791.804 420.474 826.37 426.567 863.194 439.098C895.703 450.164 922.942 458.868 952.848 461.933C997.528 466.516 1034.12 459.418 1068 439.597C1079.95 432.609 1091.6 424.461 1102.87 416.589C1122.38 402.964 1142.54 388.877 1164.96 380.237C1190.06 370.567 1217.39 367.828 1248.51 371.879C1277.84 375.693 1306.49 385.005 1330.66 393.613C1335.72 395.412 1340.87 397.287 1345.85 399.098C1400.01 418.772 1456.02 439.117 1512.09 414.842L1512.92 417.229C1494.33 425.281 1475.78 428.506 1457.33 428.506C1419.38 428.506 1381.84 414.868 1345.14 401.536C1340.16 399.725 1335.01 397.856 1329.96 396.058C1276.24 376.928 1219.17 362.061 1165.71 382.663C1143.54 391.207 1123.49 405.217 1104.1 418.765C1092.79 426.663 1081.1 434.836 1069.07 441.869C1051.17 452.34 1032.64 459.194 1012.42 462.836C1001.32 464.826 989.85 465.824 977.783 465.824Z" fill="white" fill-opacity="0.01"/>
<path d="M982.535 446.842C973.037 446.842 963.141 446.234 952.779 445.024C922.257 441.46 894.131 432.141 864.363 422.273L861.794 421.421C827.332 410.004 794.724 404.34 762.106 404.103C733.732 403.892 704.966 408.103 677.128 412.173C672.762 412.813 668.402 413.447 664.053 414.068L655.563 415.277C615.974 420.929 575.032 426.772 534.551 430.42C493.165 434.151 445.075 437.741 398.074 433.133C345.087 427.936 302.941 413.223 269.211 388.161C260.317 381.556 252.691 373.882 245.307 366.471C231.126 352.218 217.728 338.759 197.05 333.978C171.441 328.058 144.824 333.85 122.17 340.295C99.7171 346.682 77.2301 355.495 55.4861 364.02C14.2387 380.186 -28.4199 396.909 -73.1981 398.106L-73.2557 395.546C-28.8403 394.362 13.6396 377.709 54.72 361.607C76.5101 353.063 99.0432 344.231 121.599 337.818C144.507 331.296 171.441 325.447 197.516 331.476C218.811 336.397 232.428 350.08 246.851 364.576C254.172 371.93 261.734 379.533 270.49 386.042C343.158 440.039 444.799 435.949 534.367 427.879C574.796 424.237 615.709 418.394 655.275 412.743L663.765 411.533C668.114 410.912 672.468 410.279 676.835 409.639C704.747 405.556 733.622 401.338 762.123 401.543C794.961 401.78 827.781 407.482 862.451 418.964L865.02 419.815C894.684 429.652 922.706 438.938 953.021 442.477C999.74 447.93 1036.92 441.095 1070.02 420.973C1081.62 413.92 1092.89 405.703 1103.78 397.754C1122.89 383.802 1142.67 369.383 1164.95 360.736C1221.22 338.912 1280.08 357.14 1330.84 375.936C1335.54 377.677 1340.35 379.495 1345.01 381.249C1399.79 401.908 1456.43 423.264 1512.03 395.668L1512.97 398.004C1493.67 407.585 1474.29 411.367 1454.94 411.367C1417.71 411.367 1380.59 397.364 1344.27 383.668C1339.62 381.914 1334.81 380.103 1330.11 378.362C1279.72 359.7 1221.29 341.594 1165.71 363.149C1143.69 371.693 1124.05 386.029 1105.04 399.892C1094.11 407.866 1082.81 416.116 1071.13 423.213C1044.95 439.124 1016.29 446.836 982.535 446.842Z" fill="white" fill-opacity="0.01"/>
<path d="M987.782 426.208C974.114 426.208 960.97 424.8 948.609 422.996C922.637 419.2 896.907 412.845 872.024 406.701C833.04 397.076 792.732 387.117 751.19 387.034C750.874 387.034 750.557 387.034 750.24 387.034C707.052 387.034 663.137 392.768 620.657 398.324C591.471 402.138 561.295 406.08 531.642 408.122C490.62 410.951 442.938 413.543 396.207 408.512C343.901 402.88 301.916 388.64 267.846 364.992C259.73 359.354 252.461 352.98 245.439 346.816C230.273 333.505 215.948 320.935 194.964 317.044C169.085 312.244 142.56 318.036 120.021 324.333C98.4326 330.368 76.7635 338.484 55.8144 346.33C14.4 361.844 -28.4314 377.882 -73.2039 378.919L-73.2499 376.359C-28.8231 375.328 13.8297 359.354 55.0829 343.904C76.078 336.039 97.7875 327.911 119.462 321.85C142.226 315.482 169.044 309.633 195.345 314.516C216.916 318.516 231.466 331.29 246.868 344.807C253.843 350.932 261.06 357.261 269.067 362.823C342.616 413.888 443.094 411.668 531.498 405.575C561.087 403.533 591.235 399.597 620.387 395.789C663.247 390.189 707.558 384.391 751.19 384.487C792.979 384.57 833.414 394.554 872.519 404.212C897.35 410.343 923.034 416.685 948.902 420.468C984.217 425.632 1025.97 427.501 1067.88 402.208C1080.05 394.861 1091.84 386.221 1103.23 377.863C1122.44 363.776 1142.31 349.21 1164.68 340.359C1221.25 317.985 1279.86 337.562 1330.36 357.677C1334.49 359.322 1338.64 360.999 1342.81 362.682C1398.52 385.184 1456.13 408.461 1511.97 376.506L1513.02 378.784C1487.61 393.332 1459.45 397.812 1426.94 392.5C1398.26 387.808 1369.67 376.263 1342.02 365.095C1337.86 363.412 1333.71 361.735 1329.58 360.09C1279.46 340.128 1221.3 320.679 1165.46 342.778C1143.34 351.527 1123.6 366.004 1104.5 380.007C1093.06 388.391 1081.23 397.063 1068.97 404.461C1041.22 421.204 1013.56 426.208 987.782 426.208Z" fill="white" fill-opacity="0.01"/>
<path d="M989.032 404.673C971.844 404.673 954.755 402.369 939.79 399.969C921.548 397.044 903.151 393.645 885.358 390.362C836.853 381.402 786.695 372.141 736.024 371.904C735.091 371.898 734.158 371.898 733.225 371.898C692.807 371.898 651.773 375.885 612.058 379.744C580.355 382.823 547.569 386.01 515.295 387.149C475.425 388.557 432.806 389.14 391.242 383.949C344.223 378.074 305.453 365.658 272.719 345.991C263.52 340.468 255.26 334.1 247.271 327.949C230.394 314.951 214.456 302.676 191.952 299.681C165.888 296.212 139.507 302.093 117.141 308.295C96.7277 313.959 76.199 321.319 56.3385 328.429C14.6995 343.354 -28.3623 358.778 -73.2096 359.719L-73.2557 357.159C-28.7482 356.231 14.1465 340.858 55.6243 325.997C75.5193 318.868 96.0883 311.501 116.571 305.812C139.139 299.546 165.779 293.62 192.211 297.14C215.286 300.212 231.454 312.666 248.567 325.85C256.504 331.962 264.712 338.285 273.802 343.744C345.421 386.772 435.963 387.393 515.209 384.596C547.413 383.456 580.17 380.276 611.844 377.197C652.527 373.249 694.598 369.165 736.024 369.351C786.879 369.588 837.13 378.868 885.727 387.84C903.508 391.124 921.894 394.522 940.113 397.441C987.69 405.069 1022.56 405.287 1059.97 383.853C1073.91 375.86 1087.29 366.125 1100.23 356.704C1120.1 342.24 1140.64 327.284 1163.75 318.273C1189.36 308.288 1216.96 306.209 1248.11 311.911C1276.43 317.095 1304.12 327.994 1329.81 339.002C1333.19 340.455 1336.6 341.927 1340.02 343.405C1396.87 367.988 1455.65 393.409 1511.92 357.325L1513.07 359.54C1487.45 375.968 1458.85 381.191 1425.62 375.514C1396.38 370.516 1367.3 357.946 1339.19 345.786C1335.77 344.308 1332.37 342.836 1328.98 341.383C1276.53 318.912 1220.62 298.81 1164.52 320.679C1141.67 329.588 1121.24 344.455 1101.49 358.836C1088.51 368.288 1075.08 378.068 1061.03 386.119C1042.51 396.73 1023.06 402.65 1001.57 404.225C997.407 404.538 993.214 404.673 989.032 404.673Z" fill="white" fill-opacity="0.01"/>
<path d="M987.097 384.263C972.743 384.263 958.314 381.639 944.312 379.092C939.819 378.273 935.176 377.428 930.643 376.692C852.451 363.994 780.757 357.869 711.464 358.029C677.013 358.1 642.015 360.154 608.164 362.144C576.006 364.032 542.753 365.991 509.99 366.241C470.575 366.541 428.452 366.023 387.464 360.212C341.148 353.645 302.792 341.268 270.202 322.356C262.495 317.882 255.341 312.916 248.423 308.116C232.047 296.749 216.582 286.01 195.898 282.964C168.111 278.874 139.404 285.159 114.987 291.841C95.5584 297.159 75.9859 303.872 57.0528 310.368C15.1315 324.749 -28.224 339.623 -73.2154 340.506L-73.2557 337.946C-28.5927 337.063 14.6016 322.247 56.3731 307.917C75.335 301.415 94.942 294.689 114.434 289.351C139.064 282.605 168.036 276.276 196.203 280.423C217.377 283.54 233.05 294.42 249.644 305.94C256.522 310.714 263.641 315.655 271.267 320.084C342.553 361.447 431.862 364.269 509.973 363.674C542.684 363.425 575.908 361.472 608.037 359.584C641.912 357.594 676.944 355.533 711.452 355.463C780.86 355.322 852.67 361.434 930.972 374.151C935.528 374.893 940.182 375.738 944.68 376.557C959.869 379.322 975.583 382.176 991.02 381.626C1011.01 380.909 1031.75 374.599 1052.67 362.855C1067.32 354.637 1081.37 344.545 1094.95 334.785C1113.93 321.146 1133.56 307.041 1155.21 297.761C1214.96 272.148 1273.27 294.445 1327.86 319.488C1330.81 320.839 1333.78 322.209 1336.75 323.584C1394.86 350.426 1454.96 378.183 1511.87 338.144L1513.11 340.308C1487.19 358.541 1458.05 364.416 1424.03 358.266C1394.14 352.864 1364.52 339.181 1335.87 325.946C1332.89 324.57 1329.93 323.2 1326.98 321.85C1272.82 297.005 1215 274.868 1156.04 300.148C1134.62 309.332 1115.08 323.367 1096.2 336.935C1082.56 346.733 1068.46 356.858 1053.71 365.14C1032.49 377.05 1011.42 383.456 991.089 384.18C989.77 384.237 988.433 384.263 987.097 384.263Z" fill="white" fill-opacity="0.01"/>
<path d="M979.436 362.036C964.587 362.036 949.651 358.989 935.194 356.039C928.316 354.637 921.208 353.184 914.256 352.096C853.419 342.58 791.459 343.489 731.549 344.365C717.633 344.57 703.25 344.781 689.069 344.858C667.475 344.98 645.506 345.377 624.263 345.767C580.856 346.554 535.974 347.373 491.841 345.844C419.403 343.335 336.361 337.415 267.523 298.746C261.544 295.386 255.899 291.911 250.445 288.545C232.796 277.665 216.121 267.386 193.766 265.178C165.611 262.401 137.065 268.717 112.85 275.265C94.4986 280.225 75.9801 286.305 58.0723 292.186C15.7709 306.074 -27.9706 320.442 -73.2039 321.313L-73.2442 318.753C-28.3219 317.882 15.264 303.572 57.4214 289.729C75.3581 283.84 93.9053 277.748 112.308 272.775C136.708 266.183 165.491 259.821 193.974 262.631C216.818 264.884 233.695 275.29 251.562 286.305C257 289.658 262.621 293.121 268.56 296.455C336.977 334.887 419.72 340.775 491.91 343.277C535.985 344.807 580.844 343.988 624.223 343.201C645.471 342.817 667.446 342.413 689.052 342.292C703.221 342.215 717.604 342.004 731.514 341.799C791.516 340.922 853.563 340.013 914.573 349.556C921.571 350.65 928.708 352.109 935.603 353.517C950.377 356.532 965.676 359.655 980.715 359.469C999.596 359.239 1019.34 353.908 1039.39 343.623C1056.72 334.74 1073.11 323.162 1088.97 311.968C1108.48 298.189 1128.66 283.943 1150.81 274.522C1178.44 262.765 1207.59 260.346 1239.93 267.117C1269.19 273.249 1298.34 286.375 1325.49 299.649C1328.05 300.903 1330.62 302.164 1333.21 303.437C1389.89 331.297 1454.14 362.868 1511.84 318.989L1513.14 321.101C1486.86 341.088 1457.14 347.546 1422.28 340.852C1391.71 334.983 1361.5 320.135 1332.28 305.78C1329.7 304.512 1327.13 303.245 1324.57 301.997C1269.98 275.309 1211.66 251.386 1151.64 276.922C1129.71 286.253 1109.63 300.429 1090.21 314.138C1074.29 325.376 1057.82 336.999 1040.36 345.959C1020.01 356.397 999.953 361.805 980.744 362.042C980.312 362.029 979.868 362.036 979.436 362.036Z" fill="white" fill-opacity="0.01"/>
<path d="M970.013 339.604C968.648 339.604 967.288 339.578 965.929 339.527C952.854 339.021 939.79 336.02 927.158 333.114C919.573 331.367 911.727 329.562 904.003 328.333C849.623 319.674 794.488 323.642 741.168 327.482C715.473 329.332 688.896 331.245 662.659 331.738C605.877 332.801 544.251 330.778 479.503 325.716C412.013 320.442 334.374 311.841 267.108 276.34C262.034 273.665 257.086 270.586 252.3 267.61C244.028 262.465 235.475 257.153 226.23 253.901C215.562 250.157 203.604 247.937 190.696 247.309C163.463 245.985 136.437 251.892 113.593 257.85C95.4029 262.593 77.0285 268.365 59.2646 273.94C16.5197 287.361 -27.6653 301.236 -73.2096 302.113L-73.2499 299.553C-28.0051 298.682 16.0301 284.852 58.6195 271.482C76.4121 265.895 94.8038 260.122 113.046 255.361C136.045 249.364 163.261 243.412 190.777 244.756C203.887 245.396 216.04 247.655 226.904 251.463C236.373 254.791 245.036 260.173 253.405 265.377C258.157 268.333 263.076 271.386 268.082 274.029C334.99 309.338 412.37 317.901 479.652 323.162C544.337 328.218 605.894 330.241 662.607 329.178C688.792 328.685 715.334 326.778 741.007 324.929C794.448 321.082 849.704 317.101 904.32 325.799C912.113 327.041 919.993 328.852 927.619 330.605C940.159 333.492 953.125 336.474 966.004 336.967C986.717 337.767 1008.67 332.346 1031.22 320.858C1048.92 311.847 1065.75 300.199 1082.03 288.935C1102.59 274.701 1123.86 259.988 1147.15 250.375C1208.56 225.031 1265.7 249.933 1323.68 280.013C1325.64 281.031 1327.61 282.055 1329.59 283.085C1387.58 313.255 1453.29 347.456 1511.82 299.789L1513.18 301.857C1491.7 319.348 1469.35 326.061 1446.8 326.061C1406.75 326.061 1366.08 304.903 1328.62 285.409C1326.64 284.378 1324.67 283.354 1322.71 282.337C1265.18 252.493 1208.53 227.777 1147.96 252.775C1124.88 262.298 1103.72 276.948 1083.25 291.111C1066.92 302.42 1050.03 314.106 1032.19 323.188C1010.78 334.093 989.879 339.604 970.013 339.604Z" fill="white" fill-opacity="0.01"/>
<path d="M624.24 318.324C569.699 318.324 513.596 311.885 460.875 304.852C397.169 296.359 329.697 284.378 267.932 254.497C263.29 252.25 258.745 249.754 254.344 247.341C244.529 241.959 235.256 236.871 224.669 234.081C213.575 231.156 201.738 229.684 188.484 229.575C161.827 229.351 135.193 235.169 114.97 240.263C96.9523 244.801 78.7449 250.266 61.1366 255.546C17.7523 268.564 -27.1124 282.017 -73.2039 282.913L-73.2442 280.353C-27.4349 279.463 17.2857 266.049 60.5376 253.076C78.1689 247.789 96.3936 242.317 114.463 237.767C134.807 232.641 161.614 226.791 188.502 227.015C201.934 227.13 213.938 228.621 225.199 231.591C236.039 234.445 245.866 239.834 255.364 245.05C259.736 247.45 264.263 249.933 268.854 252.154C330.348 281.901 397.619 293.844 461.151 302.317C516.574 309.709 575.741 316.449 632.828 315.713C666.253 315.284 699.984 310.836 732.603 306.529C782.79 299.905 834.682 293.057 886.47 300.756C896.187 302.202 905.933 304.698 915.356 307.117C928.138 310.394 941.357 313.78 954.553 314.535C974.241 315.655 995.138 311.156 1016.66 301.159C1037.15 291.649 1056.41 278.541 1075.03 265.869C1094.64 252.532 1114.91 238.733 1136.73 229.031C1166.34 215.86 1195.61 212.154 1223.72 218.023C1256.34 224.833 1286.96 241.479 1313.97 256.173C1317.75 258.228 1321.57 260.327 1325.42 262.445C1384.88 295.143 1452.29 332.199 1511.79 280.634L1513.21 282.65C1491.38 301.568 1468.59 308.826 1445.55 308.826C1404.58 308.826 1362.84 285.882 1324.39 264.737C1320.55 262.625 1316.74 260.525 1312.96 258.471C1286.08 243.853 1255.61 227.284 1223.29 220.538C1195.61 214.765 1166.77 218.42 1137.58 231.405C1115.94 241.031 1095.75 254.765 1076.23 268.052C1057.53 280.775 1038.19 293.933 1017.54 303.521C995.697 313.665 974.46 318.234 954.426 317.089C941.029 316.327 927.711 312.909 914.832 309.613C905.461 307.213 895.766 304.724 886.153 303.297C834.653 295.642 782.905 302.465 732.862 309.069C700.18 313.383 666.386 317.844 632.84 318.273C629.983 318.305 627.114 318.324 624.24 318.324Z" fill="white" fill-opacity="0.01"/>
<path d="M600.503 303.693C548.721 303.693 495.688 293.319 444.309 283.271L441.729 282.765C391.524 272.948 325.97 258.113 264.188 230.305C261.55 229.114 258.929 227.892 256.395 226.714C245.1 221.447 234.426 216.474 222.083 214.298C210.747 212.301 198.737 211.553 185.357 212.001C158.734 212.897 132.221 218.791 112.107 223.828C95.9212 227.879 79.5283 232.564 63.6825 237.089C19.4227 249.735 -26.3463 262.817 -73.2039 263.713L-73.2442 261.153C-26.6573 260.263 18.9792 247.22 63.1123 234.605C78.9753 230.074 95.3798 225.383 111.606 221.325C131.823 216.263 158.475 210.343 185.293 209.441C198.818 208.986 210.971 209.748 222.451 211.77C235.077 213.997 245.871 219.028 257.299 224.359C259.828 225.537 262.437 226.753 265.064 227.937C326.644 255.661 392.043 270.458 442.138 280.25L444.718 280.756C498.833 291.341 554.792 302.285 609.051 301.044C645.08 300.218 681.299 293.607 716.319 287.207C766.863 277.978 819.13 268.429 871.678 276.148C882.634 277.754 893.462 280.877 903.934 283.904C915.748 287.316 927.971 290.842 940.262 292.128C961.805 294.394 984.966 289.837 1009.11 278.599C1029.87 268.929 1049.48 255.777 1068.45 243.06C1089.08 229.229 1110.41 214.925 1133.37 204.98C1163.7 191.847 1193.32 188.602 1221.43 195.335C1253.6 203.041 1283.42 220.097 1312.26 236.596C1315.45 238.42 1318.66 240.269 1321.9 242.138C1382.65 277.159 1451.53 316.858 1511.78 261.453L1513.25 263.425C1485.82 288.647 1454.23 296.749 1416.67 288.218C1383.92 280.775 1351.85 262.292 1320.84 244.41C1317.6 242.541 1314.39 240.692 1311.21 238.874C1282.5 222.452 1252.82 205.473 1220.94 197.844C1193.29 191.226 1164.1 194.426 1134.21 207.373C1111.43 217.236 1090.19 231.482 1069.64 245.255C1050.61 258.023 1030.92 271.22 1010 280.961C985.507 292.365 961.978 296.98 940.049 294.676C927.573 293.364 915.264 289.812 903.358 286.381C892.95 283.38 882.19 280.276 871.379 278.689C819.164 271.021 767.071 280.538 716.694 289.735C681.592 296.148 645.293 302.778 609.097 303.604C606.234 303.661 603.366 303.693 600.503 303.693Z" fill="white" fill-opacity="0.01"/>
<path d="M583.862 287.482C536.561 287.482 488.154 275.245 441.314 263.412L434.811 261.767C374.705 246.618 316.668 228.193 262.305 207.015C236.932 197.127 214.474 193.197 189.492 194.273C161.067 195.495 133.344 201.543 109.976 207.297C95.6736 210.817 81.1757 214.753 67.1501 218.554C21.7094 230.881 -25.2749 243.629 -73.2096 244.513L-73.2499 241.953C-25.5744 241.069 21.2832 228.365 66.5971 216.071C80.6285 212.263 95.1437 208.327 109.469 204.801C132.941 199.021 160.79 192.948 189.4 191.713C214.687 190.625 237.41 194.599 263.065 204.596C317.347 225.741 375.304 244.141 435.318 259.271L441.827 260.916C489.214 272.89 538.226 285.293 585.907 284.916C625.45 284.615 664.934 275.674 703.123 267.021C754.658 255.348 807.944 243.277 862.042 252.308C873.13 254.157 883.982 257.735 894.476 261.197C906.307 265.095 918.541 269.127 930.995 270.618C951.345 273.044 973.244 269.344 996.071 259.623C1019.66 249.575 1041.7 234.913 1063.01 220.737C1084.18 206.65 1106.08 192.084 1129.58 181.965C1158.54 169.492 1186.17 165.908 1211.72 171.309C1245.89 178.535 1277.27 197.319 1307.61 215.482L1310.09 216.967C1312.89 218.637 1315.71 220.34 1318.56 222.049C1349.96 240.941 1382.43 260.481 1415.51 268.321C1453.13 277.236 1484.61 268.717 1511.74 242.279L1513.26 244.205C1492.6 264.34 1469.49 274.305 1443.16 274.311C1434.17 274.311 1424.81 273.146 1415.04 270.829C1381.63 262.913 1349.01 243.284 1317.46 224.301C1314.62 222.593 1311.8 220.897 1309.01 219.226L1306.52 217.741C1276.34 199.668 1245.12 180.986 1211.29 173.831C1186.18 168.519 1158.97 172.065 1130.42 184.359C1107.1 194.401 1085.29 208.909 1064.2 222.938C1042.81 237.172 1020.68 251.885 996.906 262.017C973.734 271.885 951.477 275.642 930.758 273.172C918.092 271.661 905.76 267.597 893.831 263.661C883.411 260.225 872.64 256.673 861.708 254.849C808.013 245.889 754.929 257.914 703.59 269.543C665.292 278.215 625.692 287.188 585.93 287.489C585.239 287.482 584.548 287.482 583.862 287.482Z" fill="white" fill-opacity="0.01"/>
<path d="M569.186 268.948C522.737 268.948 475.736 254.183 430.232 239.892C427.571 239.053 424.921 238.221 422.283 237.396C396.95 229.466 371.382 220.724 346.66 212.269C320.268 203.245 292.977 193.908 265.928 185.556C210.943 168.57 155.157 179.514 107.188 191.098C95.4605 193.933 83.5488 196.986 72.0345 199.937C24.9581 212.001 -23.7255 224.481 -73.2096 225.313L-73.2442 222.753C-24.0019 221.921 24.5549 209.473 71.5161 197.434C83.0361 194.477 94.9536 191.425 106.698 188.589C154.938 176.935 211.052 165.94 266.544 183.079C293.628 191.444 320.93 200.781 347.34 209.812C372.05 218.266 397.607 227.002 422.911 234.925C425.549 235.751 428.198 236.583 430.865 237.421C477.429 252.045 525.577 267.175 572.901 266.349C612.524 265.665 652.141 255.489 690.451 245.645C742.884 232.173 797.103 218.247 852.146 228.442C863.764 230.593 874.956 234.817 885.779 238.906C896.987 243.137 908.577 247.514 920.5 249.498C942.555 253.172 966.58 249.447 991.901 238.433C1015.49 228.173 1037.59 213.511 1058.96 199.322C1079.25 185.863 1100.21 171.949 1122.49 161.754C1154.02 147.322 1183.72 143.29 1210.75 149.773C1244.4 157.837 1275.16 177.044 1304.92 195.617L1309.35 198.381C1313.07 200.698 1316.8 203.047 1320.54 205.402C1349.64 223.719 1379.72 242.663 1412.31 251.796C1449.75 262.285 1483.19 252.628 1511.73 223.085L1513.3 224.961C1491.76 247.258 1467.47 258.465 1440.82 258.465C1431.42 258.465 1421.72 257.069 1411.75 254.273C1378.86 245.057 1348.64 226.029 1319.4 207.629C1315.66 205.274 1311.94 202.932 1308.22 200.615L1303.79 197.85C1274.18 179.367 1243.57 160.263 1210.27 152.276C1183.7 145.901 1154.46 149.889 1123.37 164.122C1101.25 174.247 1080.35 188.109 1060.15 201.524C1038.69 215.764 1016.5 230.484 992.742 240.82C967.035 252.001 942.618 255.77 920.16 252.033C908.035 250.017 896.342 245.601 885.036 241.332C874.299 237.281 863.199 233.089 851.766 230.97C797.178 220.858 743.184 234.733 690.97 248.141C652.545 258.01 612.806 268.218 572.936 268.909C571.686 268.935 570.436 268.948 569.186 268.948Z" fill="white" fill-opacity="0.01"/>
<path d="M563.628 247.604C516.2 247.604 469.204 230.791 423.706 214.516L421.131 213.594C409.386 209.396 397.463 204.954 385.932 200.66C346.441 185.959 305.614 170.759 264.102 162.215C212.527 151.604 159.155 162.241 104.458 175.073C96.025 177.05 87.4598 179.117 79.1712 181.114C29.7158 193.044 -21.4215 205.377 -73.2154 206.1L-73.2442 203.54C-21.6807 202.817 29.3357 190.509 78.6816 178.612C86.9702 176.615 95.5411 174.548 103.98 172.564C158.913 159.674 212.533 148.993 264.517 159.693C306.184 168.269 347.098 183.501 386.657 198.228C398.183 202.522 410.1 206.957 421.834 211.149L424.408 212.071C471.22 228.813 519.627 246.138 568.253 244.98C606.851 244.065 645.708 233.332 683.286 222.945C736.289 208.301 791.096 193.153 846.253 205.21C857.987 207.777 869.109 212.653 879.869 217.377C890.565 222.068 901.624 226.925 913.144 229.402C935.292 234.17 959.484 231.233 985.047 220.673C1010.55 210.138 1034.24 194.298 1057.15 178.983C1078.1 164.98 1099.76 150.497 1122.83 140.033C1154.74 125.556 1183.52 122.055 1210.84 129.338C1243.89 138.145 1274 157.677 1303.13 176.564C1305.2 177.908 1307.27 179.252 1309.33 180.583C1312.67 182.74 1316.02 184.922 1319.37 187.111C1348.82 206.305 1379.28 226.157 1412.5 235.405C1449.94 245.831 1483.31 235.239 1511.69 203.924L1513.31 205.741C1484.32 237.735 1450.22 248.551 1411.94 237.889C1378.4 228.545 1347.79 208.602 1318.2 189.319C1314.85 187.13 1311.51 184.954 1308.17 182.797C1306.11 181.46 1304.04 180.122 1301.96 178.778C1272.98 159.988 1243.02 140.551 1210.3 131.834C1183.47 124.685 1155.15 128.141 1123.7 142.413C1100.79 152.807 1079.21 167.233 1058.34 181.191C1035.34 196.57 1011.55 212.468 985.853 223.085C959.893 233.812 935.28 236.788 912.712 231.93C900.979 229.402 889.816 224.506 879.028 219.77C868.366 215.092 857.347 210.253 845.816 207.738C791.159 195.796 736.606 210.868 683.85 225.447C646.151 235.866 607.167 246.637 568.31 247.559C566.744 247.585 565.188 247.604 563.628 247.604Z" fill="white" fill-opacity="0.01"/>
<path d="M568.817 224.212C568.489 224.212 568.166 224.212 567.832 224.212C510.422 223.93 455.887 202.369 403.142 181.511C357.938 163.636 311.19 145.153 262.852 140.161C209.278 134.625 154.875 147.06 102.257 159.085L102.05 159.13C98.0006 160.058 93.9456 160.986 89.8963 161.921C36.9101 174.1 -17.8791 186.695 -73.2269 186.913L-73.2327 184.353C-18.121 184.135 36.5529 171.565 89.4297 159.412C93.4848 158.477 97.5341 157.549 101.589 156.621L101.796 156.577C154.575 144.513 209.157 132.039 263.071 137.607C311.697 142.631 358.577 161.165 403.92 179.092C456.48 199.873 510.831 221.37 567.85 221.645C568.172 221.645 568.5 221.645 568.823 221.645C607.375 221.645 646.479 210.561 684.305 199.834C737.729 184.685 792.979 169.025 847.757 184.193C858.626 187.201 868.89 192.263 878.82 197.165C890.473 202.913 902.523 208.858 915.443 211.373C936.513 215.469 959.645 212.397 984.2 202.253C1010.19 191.521 1034.31 175.348 1057.63 159.713C1078.25 145.882 1099.58 131.585 1122.21 121.018C1153.91 106.215 1182.3 102.42 1209.01 109.415C1242.01 118.055 1271.96 137.799 1300.91 156.897C1302.83 158.164 1304.75 159.425 1306.66 160.679C1310.3 163.073 1313.95 165.498 1317.62 167.93C1346.65 187.201 1376.67 207.124 1409.44 216.986C1448.39 228.711 1482.79 217.857 1511.68 184.737L1513.33 186.516C1491.5 211.553 1466.58 224.129 1438.96 224.129C1429.25 224.129 1419.2 222.573 1408.84 219.457C1375.75 209.498 1345.6 189.485 1316.43 170.125C1312.77 167.693 1309.12 165.274 1305.48 162.881C1303.56 161.626 1301.65 160.359 1299.73 159.092C1270.92 140.097 1241.12 120.455 1208.47 111.905C1182.25 105.037 1154.33 108.788 1123.09 123.373C1100.62 133.863 1079.37 148.116 1058.81 161.895C1035.39 177.594 1011.19 193.825 984.995 204.647C960.054 214.951 936.513 218.061 915.039 213.889C901.843 211.322 889.661 205.313 877.882 199.501C868.044 194.65 857.871 189.626 847.198 186.676C792.979 171.668 738.017 187.252 684.87 202.317C646.906 213.082 607.651 224.205 568.817 224.212Z" fill="white" fill-opacity="0.01"/>
<path d="M576.766 205.62C517.415 205.62 460.259 184.097 404.957 163.271C360.778 146.637 315.095 129.434 268.635 123.348C215.142 116.333 160.906 129.031 108.455 141.306L100.293 143.213C43.9545 156.397 -14.2964 170.036 -73.2672 167.706L-73.1866 165.146C-14.5037 167.457 43.6147 153.857 99.815 140.705L107.977 138.797C160.612 126.477 215.038 113.741 268.9 120.801C315.602 126.925 361.4 144.167 405.694 160.845C461.485 181.85 519.189 203.565 578.909 203.047C616.326 202.714 654.117 192.231 690.664 182.087C741.767 167.905 794.615 153.242 847.509 165.959C858.148 168.519 868.297 172.999 878.106 177.338C889.131 182.209 900.536 187.252 912.54 189.473C934.669 193.569 959.15 190.343 985.288 179.879C1010.67 169.716 1034.56 154.759 1057.66 140.295C1077.77 127.7 1098.57 114.682 1120.34 104.82C1153.69 89.7093 1181.64 85.7157 1208.29 92.2501C1241.6 100.417 1272.17 119.271 1301.73 137.511C1303.52 138.618 1305.31 139.725 1307.11 140.826C1310.57 142.957 1314.03 145.108 1317.51 147.265C1347.2 165.697 1377.91 184.749 1411.11 193.876C1449.01 204.295 1482.87 194.74 1511.72 165.479L1513.27 167.367C1483.82 197.242 1449.26 206.996 1410.56 196.359C1377.05 187.156 1346.22 168.013 1316.38 149.498C1312.91 147.341 1309.44 145.191 1305.99 143.066C1304.2 141.965 1302.41 140.858 1300.6 139.751C1271.19 121.601 1240.77 102.836 1207.79 94.7525C1181.61 88.3333 1154.1 92.2885 1121.2 107.188C1099.57 116.986 1078.84 129.972 1058.79 142.522C1035.6 157.037 1011.63 172.052 986.066 182.285C959.547 192.897 934.681 196.167 912.154 191.994C899.908 189.729 888.388 184.634 877.248 179.713C867.525 175.418 857.468 170.97 847.014 168.461C794.644 155.873 742.067 170.458 691.217 184.57C654.538 194.746 616.614 205.268 578.92 205.601C578.206 205.62 577.486 205.62 576.766 205.62Z" fill="white" fill-opacity="0.01"/>
<path d="M586.892 186.273C537.322 186.273 487.872 170.074 440.035 154.401L434.264 152.513C426.39 149.94 418.378 147.271 410.63 144.685C363.64 129.031 315.049 112.839 265.576 107.053C214.577 101.089 163.06 113.185 113.23 124.877L106.773 126.394C51.5405 139.322 -11.065 153.978 -73.3133 148.506L-73.129 145.953C-11.2147 151.399 48.528 137.415 106.301 123.892L112.758 122.375C162.76 110.637 214.462 98.4965 265.824 104.506C315.516 110.317 364.211 126.541 411.304 142.234C419.051 144.813 427.058 147.482 434.926 150.055L440.698 151.943C488.638 167.649 538.22 183.917 587.71 183.706C624.828 183.572 662.118 173.434 698.181 163.629C747.256 150.292 797.996 136.493 849.145 147.629C859.34 149.85 869.167 153.703 878.677 157.428C889.96 161.85 901.63 166.426 913.83 168.199C934.554 171.213 957.398 168.436 981.717 159.956C1008.39 150.65 1033.66 136.263 1058.11 122.349C1079.44 110.209 1101.49 97.6517 1124.45 88.4677C1156.01 75.8469 1182.2 72.4101 1206.88 77.6517C1240.59 84.8133 1271.9 102.497 1302.19 119.597L1305.83 121.658C1308.28 123.041 1310.74 124.436 1313.22 125.837C1376.8 161.844 1448.86 202.657 1511.79 146.228L1513.23 148.218C1484.63 173.869 1451.6 182.023 1412.27 173.14C1378 165.402 1344.53 146.445 1312.17 128.116C1309.69 126.714 1307.23 125.319 1304.78 123.937L1301.14 121.876C1271 104.858 1239.83 87.2581 1206.44 80.1605C1182.19 75.0085 1156.38 78.4133 1125.23 90.8677C1102.4 99.9941 1080.41 112.513 1059.15 124.615C1034.62 138.58 1009.26 153.018 982.403 162.388C957.761 170.983 934.589 173.793 913.53 170.727C901.089 168.922 889.304 164.301 877.91 159.828C868.481 156.129 858.73 152.308 848.701 150.125C798.054 139.098 747.556 152.826 698.728 166.1C662.532 175.937 625.11 186.113 587.716 186.247C587.439 186.273 587.163 186.273 586.892 186.273Z" fill="white" fill-opacity="0.01"/>
<path d="M596.102 166.1C547.5 166.1 498.442 151.661 450.956 137.684C447.183 136.57 443.422 135.469 439.684 134.375C432.029 132.135 424.241 129.825 416.707 127.591C369.331 113.524 320.342 98.9765 270.852 92.9989C213.702 86.0997 156.874 98.9765 101.917 111.431C45.0489 124.321 -13.7549 137.645 -73.3709 129.306L-73.0829 126.765C-13.8471 135.053 44.7725 121.767 101.457 108.922C156.586 96.4293 213.598 83.5077 271.1 90.4517C320.769 96.4485 369.844 111.021 417.3 125.114C424.829 127.348 432.616 129.658 440.266 131.898C444.004 132.993 447.765 134.1 451.544 135.207C499.968 149.46 550.045 164.205 599.42 163.514C635.126 163.021 670.89 153.613 705.479 144.519C751.98 132.289 800.058 119.642 848.724 128.429C859.092 130.298 869.161 133.793 878.901 137.172C889.897 140.986 901.267 144.929 912.995 146.49C934.272 149.319 956.84 146.893 981.988 139.079C1008.51 130.836 1034.02 118.017 1058.68 105.62C1078.99 95.4117 1099.99 84.8517 1121.51 76.8645C1156.01 64.0645 1184.58 60.7493 1211.43 66.4325C1243.67 73.2613 1274.14 88.6597 1303.61 103.559L1303.94 103.725C1307.06 105.306 1310.22 106.906 1313.38 108.519C1376.63 140.692 1448.32 177.165 1511.83 126.989L1513.17 129.076C1490.07 147.322 1465.98 154.343 1441.64 154.343C1397.93 154.343 1353.42 131.7 1312.43 110.849C1309.26 109.236 1306.11 107.636 1302.99 106.055L1302.66 105.889C1273.32 91.0597 1242.97 75.7189 1211 68.9477C1184.56 63.3477 1156.36 66.6373 1122.25 79.2965C1100.84 87.2389 1079.89 97.7669 1059.64 107.956C1034.9 120.391 1009.31 133.255 982.621 141.549C957.174 149.46 934.318 151.905 912.735 149.037C900.801 147.45 889.327 143.469 878.227 139.623C868.568 136.269 858.574 132.807 848.373 130.964C800.156 122.26 752.302 134.842 706.026 147.015C671.316 156.141 635.426 165.581 599.466 166.081C598.337 166.093 597.22 166.1 596.102 166.1Z" fill="white" fill-opacity="0.01"/>
<path d="M602.427 145.185C556.744 145.185 510.163 133.133 465.016 121.453C459.222 119.956 453.468 118.465 447.759 117.018C439.379 114.887 430.86 112.685 422.617 110.554C372.902 97.7029 321.489 84.4101 269.862 79.0661C215.637 73.4533 161.747 85.0373 109.624 96.2373C50.2502 108.999 -11.1399 122.189 -73.4285 110.1L-73.0311 107.578C-11.1629 119.591 50.0198 106.439 109.187 93.7221C161.47 82.4837 215.528 70.8677 270.081 76.5125C321.863 81.8757 373.352 95.1813 423.141 108.058C431.378 110.189 439.897 112.391 448.272 114.522C453.98 115.975 459.74 117.46 465.535 118.964C513.642 131.405 563.38 144.276 611.752 142.458C645.039 141.204 678.534 132.858 710.922 124.781C756.876 113.325 804.401 101.485 852.284 109.607C861.725 111.207 870.993 114.074 879.949 116.845C889.88 119.917 900.144 123.092 910.598 124.513C933.581 127.642 958.251 125.37 986.02 117.562C1011.11 110.509 1035.64 99.9493 1059.37 89.7285C1081.45 80.2181 1104.28 70.3877 1127.57 63.3797C1159.64 53.7221 1186.37 51.2965 1211.69 55.7445C1244.7 61.5493 1276.32 75.6101 1306.9 89.2101L1313.81 92.2821C1376.72 120.231 1448.03 151.911 1511.88 107.745L1513.1 109.921C1491.43 124.909 1467.6 132.327 1440.85 132.327C1431.8 132.327 1422.42 131.482 1412.67 129.793C1378.83 123.924 1345.34 109.05 1312.96 94.6629L1306.05 91.5909C1275.58 78.0421 1244.09 64.0389 1211.33 58.2725C1186.35 53.8821 1159.93 56.2885 1128.18 65.8501C1105 72.8261 1082.23 82.6309 1060.2 92.1157C1036.41 102.362 1011.81 112.954 986.584 120.039C958.533 127.924 933.587 130.215 910.316 127.047C899.695 125.601 889.344 122.401 879.333 119.303C870.44 116.551 861.241 113.709 851.939 112.129C804.476 104.084 757.175 115.873 711.429 127.271C678.931 135.367 645.333 143.745 611.833 145.005C608.705 145.127 605.56 145.185 602.427 145.185Z" fill="white" fill-opacity="0.01"/>
<path d="M610.514 123.437C563.846 123.437 516.194 112.884 470.016 102.65C463.392 101.185 456.543 99.6677 449.873 98.2213C442.351 96.5893 434.828 94.9445 427.3 93.2933C376.047 82.0485 323.044 70.4197 270.127 65.7669C218.592 61.2357 167.224 71.5845 117.55 81.5941C55.4803 94.0997 -8.69762 107.028 -73.4861 90.8805L-72.9792 88.3845C-8.64003 104.417 55.3075 91.5333 117.147 79.0725C166.965 69.0373 218.483 58.6565 270.317 63.2133C323.366 67.8789 376.433 79.5205 427.755 90.7781C435.277 92.4293 442.8 94.0805 450.323 95.7061C456.993 97.1525 463.847 98.6693 470.471 100.135C519.454 110.983 570.102 122.209 619.327 120.743C652.55 119.757 685.814 111.988 717.984 104.481C760.464 94.5669 804.39 84.3077 848.863 89.4853C859.651 90.7397 870.284 93.5365 880.566 96.2437C890.755 98.9253 901.296 101.697 911.917 102.945C933.523 105.473 956.609 103.962 982.5 98.3301C1008.94 92.5829 1035.01 83.2901 1060.24 74.3109C1081.7 66.6629 1103.9 58.7589 1126.26 53.0501C1158.68 44.7749 1185.59 42.4901 1210.96 45.8565C1244.4 50.2981 1276.87 62.5413 1308.26 74.3749L1313.66 76.4101C1379.53 101.255 1447.65 126.951 1511.96 88.4997L1513.05 90.7525C1483.87 108.199 1451.08 114.029 1412.77 108.577C1379.05 103.777 1345.43 91.0981 1312.92 78.8357L1307.53 76.8005C1276.24 65.0053 1243.89 52.8069 1210.69 48.3973C1185.59 45.0629 1158.93 47.3349 1126.78 55.5461C1104.51 61.2357 1082.36 69.1205 1060.95 76.7493C1035.67 85.7541 1009.52 95.0661 982.95 100.845C956.828 106.522 933.518 108.045 911.681 105.492C900.91 104.231 890.3 101.441 880.036 98.7397C869.829 96.0517 859.271 93.2741 848.627 92.0325C804.516 86.8997 760.769 97.1077 718.462 106.983C686.195 114.516 652.827 122.305 619.396 123.297C616.435 123.393 613.475 123.437 610.514 123.437Z" fill="white" fill-opacity="0.01"/>
<path d="M619.471 100.909C570.211 100.909 520.186 91.8789 471.784 83.1365C466.335 82.1509 460.904 81.1717 455.484 80.2053C447.31 78.7461 439.131 77.2677 430.952 75.7893C379.204 66.4325 325.693 56.7493 272.523 52.7941C223.315 49.1269 173.958 58.3685 126.219 67.2965C61.056 79.4885 -6.32451 92.0965 -73.5322 71.6677L-72.9216 69.1973C-6.2093 89.4789 60.9177 76.9157 125.839 64.7685C173.704 55.8085 223.206 46.5477 272.678 50.2341C325.958 54.2021 379.521 63.8917 431.32 73.2613C439.5 74.7397 447.673 76.2181 455.846 77.6773C461.267 78.6437 466.704 79.6229 472.153 80.6085C521.32 89.4853 572.158 98.6565 622.074 98.3429C656.484 98.1189 690.924 90.7781 724.228 83.6805C765.642 74.8549 808.474 65.7221 851.772 70.1317C861.984 71.1685 872.122 73.4661 881.925 75.6869C890.911 77.7221 900.196 79.8213 909.475 80.9349C932.901 83.7509 958.165 82.6181 986.705 77.4789C1011.75 72.9669 1036.76 65.9205 1060.95 59.1045C1082.26 53.1013 1104.3 46.8933 1126.31 42.4261C1160.36 35.5205 1190.43 33.8437 1218.23 37.3061C1249.64 41.2165 1280.54 50.7269 1310.42 59.9237L1313.47 60.8645C1379.26 81.1269 1447.29 102.074 1512.02 69.2741L1512.97 71.6037C1447.48 104.788 1379.04 83.7125 1312.86 63.3285L1309.81 62.3877C1280.02 53.2165 1249.21 43.7381 1217.98 39.8469C1190.41 36.4165 1160.55 38.0805 1126.73 44.9413C1104.79 49.3893 1082.79 55.5909 1061.52 61.5813C1037.28 68.4101 1012.22 75.4693 987.074 80.0005C958.326 85.1781 932.867 86.3109 909.228 83.4693C899.845 82.3429 890.502 80.2245 881.464 78.1829C871.718 75.9749 861.644 73.6965 851.558 72.6725C808.583 68.3013 765.919 77.3957 724.66 86.1893C691.252 93.3125 656.709 100.673 622.086 100.903C621.216 100.903 620.34 100.909 619.471 100.909Z" fill="white" fill-opacity="0.01"/>
<path d="M618.768 77.5813C570.764 77.5813 522.012 70.5669 474.808 63.7829C468.714 62.9061 462.632 62.0293 456.561 61.1717C448.468 60.0261 440.381 58.8677 432.288 57.7029C380.212 50.2341 326.362 42.5093 273.059 39.4053C216.357 36.1093 163.348 46.3429 107.222 57.1781L107.05 57.2101C53.3433 67.5781 -10.1203 75.1237 -73.584 52.4485L-72.8813 50.0101C-9.88994 72.5189 53.2224 65.0117 106.658 54.6949L106.831 54.6629C163.089 43.8021 216.219 33.5429 273.18 36.8581C326.575 39.9621 380.465 47.6933 432.588 55.1685C440.68 56.3269 448.767 57.4917 456.86 58.6309C462.931 59.4885 469.014 60.3653 475.108 61.2421C523.855 68.2501 574.249 75.5013 623.693 74.9957C658.017 74.6437 692.502 68.3973 725.852 62.3557C766.731 54.9509 809.004 47.2901 851.472 50.3813C862.232 51.1621 872.963 53.1461 883.336 55.0661C891.798 56.6277 900.547 58.2469 909.239 59.1941C932.711 61.7605 958.113 61.1781 986.895 57.4277C1012.05 54.1509 1037.35 48.8197 1061.82 43.6613C1083.35 39.1237 1105.61 34.4325 1127.72 31.1493C1196.46 20.9349 1259.07 32.2821 1311.24 44.7301L1313.22 45.2037C1378.96 60.8901 1446.95 77.1141 1512.11 50.0357L1512.92 52.4357C1487.24 63.1045 1461.16 67.1301 1434.99 67.1301C1394.12 67.1301 1353.02 57.3189 1312.74 47.7061L1310.76 47.2325C1258.78 34.8293 1196.42 23.5269 1128.02 33.6901C1105.98 36.9669 1083.75 41.6517 1062.25 46.1765C1037.74 51.3413 1012.4 56.6789 987.166 59.9685C958.222 63.7445 932.659 64.3205 909.02 61.7413C900.253 60.7813 891.464 59.1621 882.962 57.5877C872.646 55.6805 861.973 53.7093 851.328 52.9349C809.13 49.8629 766.984 57.4981 726.232 64.8837C692.801 70.9381 658.23 77.2037 623.727 77.5557C622.068 77.5749 620.41 77.5813 618.768 77.5813Z" fill="white" fill-opacity="0.01"/>
<path d="M607.738 53.5237C563.789 53.5237 519.178 48.5701 475.897 43.7701C467.182 42.8037 458.173 41.8053 449.355 40.8645C443.14 40.2053 436.931 39.5397 430.716 38.8677C379.63 33.3893 326.799 27.7189 274.66 25.4533C216.132 22.9125 161.263 33.1269 108.207 43.0021C72.8467 49.5877 43.7472 52.3077 16.6291 51.5717C-16.0359 50.6821 -45.5559 44.6853 -73.6244 33.2357L-72.8295 30.8357C-8.6285 57.0181 54.5184 50.4069 107.827 40.4805C160.998 30.5797 215.977 20.3461 274.746 22.8997C326.955 25.1653 379.814 30.8357 430.934 36.3205C437.149 36.9861 443.359 37.6517 449.574 38.3173C458.398 39.2581 467.407 40.2565 476.122 41.2229C523.981 46.5349 573.477 52.0261 621.815 50.7909C655.327 49.9333 689.167 45.2037 721.889 40.6277C763.246 34.8485 806.008 28.8773 848.609 30.6245C860.901 31.1301 873.216 32.8517 885.128 34.5221C894.171 35.7893 903.525 37.1013 912.781 37.8629C934.756 39.6741 958.412 39.4949 985.104 37.3125C1011.15 35.1877 1037.48 31.3669 1062.95 27.6677C1086.18 24.2949 1110.21 20.8133 1133.97 18.6181C1186.91 13.7285 1241.55 16.8517 1311.13 28.7557L1312.93 29.0629C1378.62 40.3077 1446.54 51.9301 1512.18 30.8037L1512.82 33.2613C1446.69 54.5477 1378.51 42.8805 1312.58 31.5909L1310.78 31.2837C1241.39 19.4117 1186.91 16.2885 1134.16 21.1653C1110.45 23.3541 1086.45 26.8357 1063.25 30.2021C1037.75 33.9013 1011.39 37.7285 985.277 39.8597C958.47 42.0485 934.704 42.2277 912.614 40.4101C903.295 39.6421 893.912 38.3301 884.84 37.0565C872.98 35.3989 860.717 33.6773 848.523 33.1781C806.112 31.4373 763.442 37.3957 722.177 43.1621C689.391 47.7445 655.494 52.4805 621.867 53.3381C617.167 53.4661 612.455 53.5237 607.738 53.5237Z" fill="white" fill-opacity="0.01"/>
<path d="M32.2041 35.9621C-7.14243 35.9621 -41.3107 28.7365 -73.6647 14.0165L-72.7892 11.6485C-21.5943 34.9381 34.2489 39.3029 108.276 25.8117C161.176 16.1733 215.873 6.20855 274.153 7.82775C321.316 9.13974 369.291 12.9861 415.682 16.6981C479.82 21.8373 546.14 27.1493 611.338 25.8565C646.347 25.1653 681.834 21.7797 716.152 18.5029C758.915 14.4325 803.14 10.2085 846.916 11.1557C865.066 11.5461 883.354 12.8005 901.037 14.0101C928.483 15.8917 956.869 17.8309 985.15 16.5701C1011.32 15.3989 1037.88 13.0885 1063.56 10.8549C1086.96 8.81974 1111.17 6.71415 1135.03 5.47255C1188.17 2.71415 1245.94 4.81334 1311.66 11.9045L1312.38 11.9813C1378.11 19.0661 1446.08 26.3941 1512.27 11.5781L1512.73 14.0869C1446.2 28.9861 1378.06 21.6389 1312.15 14.5285L1311.44 14.4517C1245.84 7.37975 1188.17 5.28054 1135.14 8.03255C1111.31 9.26775 1087.13 11.3733 1063.74 13.4085C1038.04 15.6421 1011.46 17.9525 985.248 19.1301C956.845 20.3973 928.403 18.4517 900.899 16.5701C883.238 15.3605 864.979 14.1125 846.876 13.7221C803.226 12.7813 759.059 16.9925 716.348 21.0693C681.996 24.3461 646.468 27.7381 611.378 28.4293C546.071 29.7157 479.699 24.3973 415.509 19.2581C369.147 15.5461 321.201 11.7061 274.09 10.3941C216.035 8.77495 161.441 18.7205 108.645 28.3397C80.8646 33.4021 55.6185 35.9621 32.2041 35.9621Z" fill="white" fill-opacity="0.01"/>
<path d="M37.5609 19.9749C30.3206 19.9749 23.2646 19.7189 16.3699 19.2005C-16.0589 16.7877 -45.5213 8.80695 -73.6992 -5.19625L-72.7604 -7.53225C-20.8224 18.2789 35.1302 23.7893 108.668 10.3301C118.31 8.56374 128.102 6.61174 137.566 4.72375C152.605 1.72215 168.157 -1.38185 183.56 -3.81385C214.41 -8.68425 244.685 -9.01065 272.811 -8.62665C317.831 -8.01865 363.606 -6.11785 407.871 -4.28105C468.53 -1.75945 531.256 0.845348 592.935 0.154148C630.547 -0.261852 668.765 -2.12425 705.721 -3.92265C751.121 -6.13065 798.071 -8.41545 844.324 -8.05065C864.398 -7.89065 884.753 -7.09705 904.441 -6.33545C930.851 -5.30505 958.159 -4.24265 985.093 -4.70345C1011.39 -5.15145 1038.12 -6.18185 1063.97 -7.18025C1087.51 -8.08905 1111.84 -9.02985 1135.79 -9.52265C1191.19 -10.6683 1248.82 -9.66345 1311.96 -6.45065C1377.63 -3.10345 1445.54 0.352547 1512.37 -7.65385L1512.62 -5.10665C1445.61 2.91895 1377.61 -0.543451 1311.85 -3.89065C1248.76 -7.10345 1191.18 -8.10825 1135.82 -6.96265C1111.89 -6.46985 1087.57 -5.52905 1064.04 -4.62025C1038.18 -3.62185 1011.44 -2.59145 985.121 -2.14345C958.136 -1.68905 930.793 -2.75145 904.355 -3.77545C884.684 -4.54345 864.34 -5.33065 844.301 -5.49065C798.111 -5.85545 751.185 -3.57065 705.813 -1.36265C668.84 0.435745 630.605 2.29815 592.952 2.71415C531.216 3.39894 468.467 0.794146 407.779 -1.72745C363.525 -3.56425 317.768 -5.46505 272.776 -6.07305C244.742 -6.45065 214.572 -6.13065 183.876 -1.28585C168.52 1.13975 152.986 4.23734 137.969 7.23895C128.494 9.12695 118.702 11.0853 109.037 12.8517C83.0304 17.6197 59.4489 19.9749 37.5609 19.9749Z" fill="white" fill-opacity="0.01"/>
<path d="M40.6022 3.37335C32.279 3.37335 24.1747 3.01495 16.2547 2.30455C-16.0474 -0.607454 -45.481 -9.34985 -73.728 -24.4155L-72.7315 -26.7258C-20.8282 0.960546 36.9101 7.48215 108.991 -6.19465C119.388 -8.16585 129.934 -10.3803 140.129 -12.5243C154.38 -15.5195 169.114 -18.6171 183.704 -21.1067C213.466 -26.1818 243.066 -26.8666 270.593 -26.841C312.457 -26.809 355.018 -26.6938 396.179 -26.5914C451.63 -26.4442 508.971 -26.2971 565.367 -26.3355C674.035 -26.4123 784.524 -26.5274 891.372 -26.6362C972.962 -26.7194 1054.55 -26.8027 1136.14 -26.8731C1182.38 -26.9115 1229.39 -26.7834 1274.86 -26.6618C1352.74 -26.4506 1433.28 -26.2331 1512.48 -26.8475L1512.5 -24.2875C1433.28 -23.6731 1352.74 -23.8907 1274.85 -24.1019C1229.39 -24.2234 1182.37 -24.3515 1136.14 -24.3131C1054.55 -24.2427 972.956 -24.1594 891.372 -24.0762C784.524 -23.9674 674.035 -23.8523 565.367 -23.7755C508.971 -23.7307 451.624 -23.8842 396.173 -24.0314C355.012 -24.1402 312.451 -24.2491 270.588 -24.2811C243.141 -24.3131 213.656 -23.6283 184.049 -18.5723C169.5 -16.0891 154.783 -12.9979 140.55 -10.0091C130.343 -7.86505 119.791 -5.64425 109.371 -3.67305C84.5741 1.03735 61.8566 3.37335 40.6022 3.37335Z" fill="white" fill-opacity="0.01"/>
</g>
<defs>
<clipPath id="clip0_22_43">
<rect width="1440" height="1024" fill="white"/>
</clipPath>
</defs>
</svg>
