<svg width="600" height="65" viewBox="0 0 600 65" fill="none" xmlns="http://www.w3.org/2000/svg">
<mask id="path-1-outside-1_2_1050" maskUnits="userSpaceOnUse" x="9" y="10" width="581" height="50" fill="black">
<rect fill="white" x="9" y="10" width="581" height="50"/>
<path d="M28.24 39.3C22.94 39.3 18.89 37.9333 16.09 35.2C13.29 32.4667 11.89 28.5 11.89 23.3V13.5H21.34V22.55C21.34 25.35 22.09 27.4667 23.59 28.9C25.1234 30.3 27.4067 31 30.44 31C32.2067 31 34.04 30.8 35.94 30.4C37.8734 29.9667 39.8067 29.3667 41.74 28.6L42.29 36.15C40.2567 37.1833 38.0234 37.9667 35.59 38.5C33.19 39.0333 30.74 39.3 28.24 39.3ZM40.44 51V13.5H49.89V51H40.44ZM65.1436 25.7H74.4436V51H65.1436V25.7ZM54.0936 22.5H85.5436V29.55H54.0936V22.5ZM104.829 51.8C101.229 51.8 98.0795 51.1667 95.3795 49.9C92.6795 48.6333 90.5795 46.8667 89.0795 44.6C87.5795 42.3333 86.8295 39.7167 86.8295 36.75C86.8295 33.75 87.5795 31.1333 89.0795 28.9C90.5795 26.6333 92.6795 24.8667 95.3795 23.6C98.1128 22.3333 101.263 21.7 104.829 21.7C108.429 21.7 111.579 22.3333 114.279 23.6C116.979 24.8667 119.079 26.6333 120.579 28.9C122.113 31.1333 122.879 33.75 122.879 36.75C122.879 39.75 122.113 42.3833 120.579 44.65C119.079 46.8833 116.979 48.6333 114.279 49.9C111.579 51.1667 108.429 51.8 104.829 51.8ZM104.829 44.8C106.663 44.8 108.213 44.4833 109.479 43.85C110.779 43.1833 111.763 42.25 112.429 41.05C113.129 39.85 113.479 38.4167 113.479 36.75C113.479 35.0833 113.129 33.65 112.429 32.45C111.763 31.2167 110.779 30.2833 109.479 29.65C108.213 28.9833 106.663 28.65 104.829 28.65C103.063 28.65 101.529 28.9833 100.229 29.65C98.9295 30.2833 97.9295 31.2167 97.2295 32.45C96.5295 33.65 96.1795 35.0833 96.1795 36.75C96.1795 38.4167 96.5295 39.85 97.2295 41.05C97.9295 42.25 98.9295 43.1833 100.229 43.85C101.529 44.4833 103.063 44.8 104.829 44.8ZM136.935 51L148.835 32L155.685 37.05L147.635 51H136.935ZM184.085 51L175.985 37.05L182.835 32L194.785 51H184.085ZM170.435 43.35L167.835 42.45L183.485 22.5H193.935L169.435 51H162.285L137.735 22.5H148.235L163.885 42.45L161.285 43.35V22.5H170.435V43.35ZM212.099 51.8C208.699 51.8 205.649 51.1667 202.949 49.9C200.282 48.6333 198.182 46.8667 196.649 44.6C195.116 42.3333 194.349 39.6833 194.349 36.65C194.349 33.6833 195.082 31.0833 196.549 28.85C198.016 26.6167 200.032 24.8667 202.599 23.6C205.199 22.3333 208.132 21.7 211.399 21.7C214.732 21.7 217.599 22.4333 219.999 23.9C222.399 25.3667 224.249 27.4333 225.549 30.1C226.849 32.7667 227.499 35.9 227.499 39.5H201.799V33.65H222.399L219.049 35.75C218.949 34.1833 218.566 32.8667 217.899 31.8C217.266 30.7 216.416 29.8667 215.349 29.3C214.282 28.7 213.016 28.4 211.549 28.4C209.949 28.4 208.566 28.7167 207.399 29.35C206.232 29.9833 205.316 30.8667 204.649 32C204.016 33.1333 203.699 34.45 203.699 35.95C203.699 37.85 204.116 39.4667 204.949 40.8C205.816 42.1333 207.049 43.15 208.649 43.85C210.282 44.55 212.266 44.9 214.599 44.9C216.732 44.9 218.866 44.6167 220.999 44.05C223.132 43.45 225.049 42.6167 226.749 41.55V47.6C224.816 48.9333 222.599 49.9667 220.099 50.7C217.632 51.4333 214.966 51.8 212.099 51.8ZM244.024 51L245.724 36.75L244.024 22.5H266.574C269.307 22.5 271.49 23.15 273.124 24.45C274.757 25.7167 275.574 27.45 275.574 29.65C275.574 31.7167 274.757 33.4 273.124 34.7C271.49 35.9667 269.224 36.7333 266.324 37L266.974 35.5C270.307 35.6 272.857 36.3 274.624 37.6C276.424 38.9 277.324 40.7 277.324 43C277.324 45.4333 276.407 47.3833 274.574 48.85C272.774 50.2833 270.324 51 267.224 51H244.024ZM252.974 49L249.374 45.15H264.224C265.524 45.15 266.474 44.8833 267.074 44.35C267.674 43.8167 267.974 43.0667 267.974 42.1C267.974 41.2 267.64 40.4667 266.974 39.9C266.307 39.3333 265.24 39.05 263.774 39.05H251.224V34.05H262.674C263.874 34.05 264.757 33.8 265.324 33.3C265.924 32.7667 266.224 32.0667 266.224 31.2C266.224 30.3333 265.957 29.65 265.424 29.15C264.89 28.6167 264.057 28.35 262.924 28.35H249.424L252.974 24.55L254.524 36.75L252.974 49ZM307.733 51L306.483 40.65L307.833 36.75L306.483 32.9L307.733 22.5H317.383L315.633 36.75L317.383 51H307.733ZM310.033 36.75C309.533 39.7833 308.583 42.4333 307.183 44.7C305.783 46.9333 304.016 48.6833 301.883 49.95C299.75 51.1833 297.35 51.8 294.683 51.8C291.883 51.8 289.416 51.1667 287.283 49.9C285.183 48.6333 283.533 46.8833 282.333 44.65C281.133 42.3833 280.533 39.75 280.533 36.75C280.533 33.75 281.133 31.1333 282.333 28.9C283.533 26.6333 285.183 24.8667 287.283 23.6C289.416 22.3333 291.883 21.7 294.683 21.7C297.35 21.7 299.75 22.3333 301.883 23.6C304.016 24.8333 305.783 26.5667 307.183 28.8C308.616 31.0333 309.566 33.6833 310.033 36.75ZM289.933 36.75C289.933 38.2833 290.25 39.65 290.883 40.85C291.516 42.0167 292.383 42.95 293.483 43.65C294.616 44.3167 295.916 44.65 297.383 44.65C298.85 44.65 300.233 44.3167 301.533 43.65C302.866 42.95 304.033 42.0167 305.033 40.85C306.033 39.65 306.783 38.2833 307.283 36.75C306.783 35.2167 306.033 33.8667 305.033 32.7C304.033 31.5 302.866 30.5667 301.533 29.9C300.233 29.2 298.85 28.85 297.383 28.85C295.916 28.85 294.616 29.2 293.483 29.9C292.383 30.5667 291.516 31.5 290.883 32.7C290.25 33.8667 289.933 35.2167 289.933 36.75ZM355.758 39.2C355.491 41.6667 354.558 43.85 352.958 45.75C351.391 47.65 349.358 49.1333 346.858 50.2C344.391 51.2667 341.608 51.8 338.508 51.8C335.075 51.8 332.041 51.1667 329.408 49.9C326.775 48.6333 324.725 46.8667 323.258 44.6C321.791 42.3333 321.058 39.7167 321.058 36.75C321.058 33.7833 321.791 31.1833 323.258 28.95C324.725 26.6833 326.775 24.9167 329.408 23.65C332.041 22.35 335.075 21.7 338.508 21.7C341.608 21.7 344.391 22.2333 346.858 23.3C349.358 24.3667 351.391 25.85 352.958 27.75C354.558 29.6167 355.491 31.8167 355.758 34.35H346.508C346.141 32.5167 345.225 31.1167 343.758 30.15C342.325 29.15 340.575 28.65 338.508 28.65C336.875 28.65 335.441 28.9667 334.208 29.6C333.008 30.2333 332.075 31.1667 331.408 32.4C330.741 33.6 330.408 35.05 330.408 36.75C330.408 38.45 330.741 39.9 331.408 41.1C332.075 42.3 333.008 43.2167 334.208 43.85C335.441 44.4833 336.875 44.8 338.508 44.8C340.608 44.8 342.375 44.3 343.808 43.3C345.241 42.2667 346.141 40.9 346.508 39.2H355.758ZM369.503 51L381.403 32L388.253 37.05L380.203 51H369.503ZM416.653 51L408.553 37.05L415.403 32L427.353 51H416.653ZM403.003 43.35L400.403 42.45L416.053 22.5H426.503L402.003 51H394.853L370.303 22.5H380.803L396.453 42.45L393.853 43.35V22.5H403.003V43.35ZM469.919 44.05V57.95H461.919V51H436.169V57.95H428.119V44.05H436.419L438.269 44.2H458.969L460.669 44.05H469.919ZM434.169 22.5H464.719V49.1H455.469V25.05L459.719 29.3H438.769L442.319 25.95C442.719 27.3833 442.953 28.7167 443.019 29.95C443.119 31.1833 443.169 32.3333 443.169 33.4C443.169 38.0667 442.419 41.7 440.919 44.3C439.419 46.9 437.303 48.2 434.569 48.2L430.769 45.05C433.403 43.1833 434.719 38.6833 434.719 31.55C434.719 30.15 434.669 28.7 434.569 27.2C434.469 25.6667 434.336 24.1 434.169 22.5ZM489.882 51.8C486.482 51.8 483.432 51.1667 480.732 49.9C478.066 48.6333 475.966 46.8667 474.432 44.6C472.899 42.3333 472.132 39.6833 472.132 36.65C472.132 33.6833 472.866 31.0833 474.332 28.85C475.799 26.6167 477.816 24.8667 480.382 23.6C482.982 22.3333 485.916 21.7 489.182 21.7C492.516 21.7 495.382 22.4333 497.782 23.9C500.182 25.3667 502.032 27.4333 503.332 30.1C504.632 32.7667 505.282 35.9 505.282 39.5H479.582V33.65H500.182L496.832 35.75C496.732 34.1833 496.349 32.8667 495.682 31.8C495.049 30.7 494.199 29.8667 493.132 29.3C492.066 28.7 490.799 28.4 489.332 28.4C487.732 28.4 486.349 28.7167 485.182 29.35C484.016 29.9833 483.099 30.8667 482.432 32C481.799 33.1333 481.482 34.45 481.482 35.95C481.482 37.85 481.899 39.4667 482.732 40.8C483.599 42.1333 484.832 43.15 486.432 43.85C488.066 44.55 490.049 44.9 492.382 44.9C494.516 44.9 496.649 44.6167 498.782 44.05C500.916 43.45 502.832 42.6167 504.532 41.55V47.6C502.599 48.9333 500.382 49.9667 497.882 50.7C495.416 51.4333 492.749 51.8 489.882 51.8ZM517.536 25.7H526.836V51H517.536V25.7ZM506.486 22.5H537.936V29.55H506.486V22.5ZM552.365 37C552.365 35.4667 552.798 34.1167 553.665 32.95C554.531 31.7833 555.931 30.75 557.865 29.85L561.665 28C562.565 27.5667 563.248 27.0667 563.715 26.5C564.215 25.9333 564.465 25.2833 564.465 24.55C564.465 23.15 563.865 22.05 562.665 21.25C561.465 20.4167 559.748 20 557.515 20C555.281 20 553.481 20.5 552.115 21.5C550.748 22.4667 549.948 23.8167 549.715 25.55H540.815C541.115 21.5167 542.731 18.3667 545.665 16.1C548.598 13.8333 552.565 12.7 557.565 12.7C562.531 12.7 566.415 13.7167 569.215 15.75C572.015 17.75 573.415 20.55 573.415 24.15C573.415 25.9167 572.915 27.5333 571.915 29C570.915 30.4333 569.415 31.6167 567.415 32.55L563.215 34.6C562.381 35 561.748 35.45 561.315 35.95C560.915 36.45 560.715 37.0667 560.715 37.8V38.85H552.615C552.515 38.4833 552.448 38.15 552.415 37.85C552.381 37.55 552.365 37.2667 552.365 37ZM556.515 51.5C554.981 51.5 553.715 51.05 552.715 50.15C551.748 49.2167 551.265 48.0167 551.265 46.55C551.265 45.0833 551.748 43.9 552.715 43C553.715 42.1 554.981 41.65 556.515 41.65C558.115 41.65 559.398 42.1 560.365 43C561.331 43.9 561.815 45.0833 561.815 46.55C561.815 48.0167 561.331 49.2167 560.365 50.15C559.398 51.05 558.115 51.5 556.515 51.5ZM577.634 13.5H587.284L585.734 38.2H579.134L577.634 13.5ZM582.434 51.5C580.867 51.5 579.6 51.05 578.634 50.15C577.667 49.2167 577.184 48.0167 577.184 46.55C577.184 45.0833 577.667 43.9 578.634 43C579.6 42.1 580.867 41.65 582.434 41.65C584 41.65 585.267 42.1 586.234 43C587.2 43.9 587.684 45.0833 587.684 46.55C587.684 48.0167 587.2 49.2167 586.234 50.15C585.267 51.05 584 51.5 582.434 51.5Z"/>
</mask>
<path d="M16.09 35.2L14.693 36.6311L14.693 36.6311L16.09 35.2ZM11.89 13.5V11.5H9.89004V13.5H11.89ZM21.34 13.5H23.34V11.5H21.34V13.5ZM23.59 28.9L22.2083 30.346L22.2247 30.3617L22.2415 30.377L23.59 28.9ZM35.94 30.4L36.3521 32.3571L36.3648 32.3544L36.3775 32.3516L35.94 30.4ZM41.74 28.6L43.7348 28.4547L43.5367 25.736L41.0028 26.7408L41.74 28.6ZM42.29 36.15L43.1961 37.933L44.3813 37.3307L44.2848 36.0047L42.29 36.15ZM35.59 38.5L35.1618 36.5464L35.1562 36.5476L35.59 38.5ZM40.44 51H38.44V53H40.44V51ZM40.44 13.5V11.5H38.44V13.5H40.44ZM49.89 13.5H51.89V11.5H49.89V13.5ZM49.89 51V53H51.89V51H49.89ZM28.24 37.3C23.2727 37.3 19.7969 36.0237 17.4871 33.7689L14.693 36.6311C17.9831 39.843 22.6074 41.3 28.24 41.3V37.3ZM17.4871 33.7689C15.187 31.5235 13.89 28.1452 13.89 23.3H9.89004C9.89004 28.8548 11.3931 33.4099 14.693 36.6311L17.4871 33.7689ZM13.89 23.3V13.5H9.89004V23.3H13.89ZM11.89 15.5H21.34V11.5H11.89V15.5ZM19.34 13.5V22.55H23.34V13.5H19.34ZM19.34 22.55C19.34 25.6984 20.1902 28.4175 22.2083 30.346L24.9718 27.454C23.9899 26.5158 23.34 25.0016 23.34 22.55H19.34ZM22.2415 30.377C24.2821 32.2401 27.1343 33 30.44 33V29C27.6791 29 25.9647 28.3599 24.9386 27.423L22.2415 30.377ZM30.44 33C32.358 33 34.3298 32.7828 36.3521 32.3571L35.528 28.4429C33.7503 28.8172 32.0554 29 30.44 29V33ZM36.3775 32.3516C38.4179 31.8942 40.4514 31.2625 42.4773 30.4592L41.0028 26.7408C39.162 27.4708 37.3288 28.0391 35.5026 28.4484L36.3775 32.3516ZM39.7453 28.7453L40.2953 36.2953L44.2848 36.0047L43.7348 28.4547L39.7453 28.7453ZM41.3839 34.367C39.5152 35.3167 37.4444 36.0461 35.1618 36.5464L36.0182 40.4536C38.6023 39.8872 40.9982 39.05 43.1961 37.933L41.3839 34.367ZM35.1562 36.5476C32.901 37.0488 30.5966 37.3 28.24 37.3V41.3C30.8835 41.3 33.4791 41.0179 36.0239 40.4524L35.1562 36.5476ZM42.44 51V13.5H38.44V51H42.44ZM40.44 15.5H49.89V11.5H40.44V15.5ZM47.89 13.5V51H51.89V13.5H47.89ZM49.89 49H40.44V53H49.89V49ZM65.1436 25.7V23.7H63.1436V25.7H65.1436ZM74.4436 25.7H76.4436V23.7H74.4436V25.7ZM74.4436 51V53H76.4436V51H74.4436ZM65.1436 51H63.1436V53H65.1436V51ZM54.0936 22.5V20.5H52.0936V22.5H54.0936ZM85.5436 22.5H87.5436V20.5H85.5436V22.5ZM85.5436 29.55V31.55H87.5436V29.55H85.5436ZM54.0936 29.55H52.0936V31.55H54.0936V29.55ZM65.1436 27.7H74.4436V23.7H65.1436V27.7ZM72.4436 25.7V51H76.4436V25.7H72.4436ZM74.4436 49H65.1436V53H74.4436V49ZM67.1436 51V25.7H63.1436V51H67.1436ZM54.0936 24.5H85.5436V20.5H54.0936V24.5ZM83.5436 22.5V29.55H87.5436V22.5H83.5436ZM85.5436 27.55H54.0936V31.55H85.5436V27.55ZM56.0936 29.55V22.5H52.0936V29.55H56.0936ZM95.3795 49.9L96.2289 48.0894L96.2289 48.0894L95.3795 49.9ZM89.0795 44.6L90.7474 43.4963L90.7474 43.4963L89.0795 44.6ZM89.0795 28.9L90.7398 30.0151L90.7474 30.0037L89.0795 28.9ZM95.3795 23.6L94.5386 21.7854L94.5301 21.7893L95.3795 23.6ZM120.579 28.9L118.912 30.0037L118.921 30.018L118.931 30.032L120.579 28.9ZM120.579 44.65L118.923 43.5294L118.919 43.5349L120.579 44.65ZM114.279 49.9L113.43 48.0894L113.43 48.0894L114.279 49.9ZM109.479 43.85L110.374 45.6389L110.383 45.6343L110.392 45.6296L109.479 43.85ZM112.429 41.05L110.702 40.0423L110.691 40.0604L110.681 40.0787L112.429 41.05ZM112.429 32.45L110.67 33.401L110.686 33.4296L110.702 33.4577L112.429 32.45ZM109.479 29.65L108.548 31.4198L108.576 31.4343L108.604 31.448L109.479 29.65ZM100.229 29.65L101.105 31.448L101.124 31.439L101.142 31.4296L100.229 29.65ZM97.2295 32.45L98.9571 33.4577L98.963 33.4475L98.9689 33.4372L97.2295 32.45ZM97.2295 41.05L98.9571 40.0423L98.9571 40.0423L97.2295 41.05ZM100.229 43.85L99.3169 45.6296L99.3351 45.639L99.3536 45.648L100.229 43.85ZM104.829 49.8C101.463 49.8 98.6138 49.2082 96.2289 48.0894L94.5301 51.7106C97.5452 53.1251 100.996 53.8 104.829 53.8V49.8ZM96.2289 48.0894C93.8281 46.963 92.0252 45.4272 90.7474 43.4963L87.4116 45.7037C89.1338 48.3061 91.5309 50.3036 94.5301 51.7106L96.2289 48.0894ZM90.7474 43.4963C89.4838 41.5868 88.8295 39.3616 88.8295 36.75H84.8295C84.8295 40.0718 85.6752 43.0798 87.4116 45.7037L90.7474 43.4963ZM88.8295 36.75C88.8295 34.0997 89.4863 31.8814 90.7398 30.0151L87.4192 27.7849C85.6727 30.3853 84.8295 33.4003 84.8295 36.75H88.8295ZM90.7474 30.0037C92.0252 28.0728 93.8281 26.537 96.2289 25.4106L94.5301 21.7893C91.5309 23.1964 89.1338 25.1939 87.4116 27.7963L90.7474 30.0037ZM96.2204 25.4146C98.6462 24.2905 101.5 23.7 104.829 23.7V19.7C101.025 19.7 97.5795 20.3762 94.5386 21.7854L96.2204 25.4146ZM104.829 23.7C108.196 23.7 111.045 24.2918 113.43 25.4106L115.129 21.7893C112.114 20.3749 108.663 19.7 104.829 19.7V23.7ZM113.43 25.4106C115.831 26.537 117.634 28.0728 118.912 30.0037L122.247 27.7963C120.525 25.1939 118.128 23.1964 115.129 21.7893L113.43 25.4106ZM118.931 30.032C120.211 31.8967 120.879 34.1089 120.879 36.75H124.879C124.879 33.3911 124.015 30.37 122.228 27.768L118.931 30.032ZM120.879 36.75C120.879 39.3907 120.211 41.6253 118.923 43.5294L122.236 45.7706C124.015 43.1413 124.879 40.1093 124.879 36.75H120.879ZM118.919 43.5349C117.643 45.4352 115.838 46.9595 113.43 48.0894L115.129 51.7106C118.121 50.3071 120.516 48.3314 122.24 45.7651L118.919 43.5349ZM113.43 48.0894C111.045 49.2082 108.196 49.8 104.829 49.8V53.8C108.663 53.8 112.114 53.1251 115.129 51.7106L113.43 48.0894ZM104.829 46.8C106.885 46.8 108.76 46.4458 110.374 45.6389L108.585 42.0611C107.666 42.5209 106.441 42.8 104.829 42.8V46.8ZM110.392 45.6296C112.021 44.7944 113.306 43.5902 114.178 42.0213L110.681 40.0787C110.219 40.9098 109.538 41.5722 108.567 42.0704L110.392 45.6296ZM114.157 42.0577C115.068 40.496 115.479 38.6999 115.479 36.75H111.479C111.479 38.1334 111.191 39.204 110.702 40.0423L114.157 42.0577ZM115.479 36.75C115.479 34.8001 115.068 33.004 114.157 31.4423L110.702 33.4577C111.191 34.296 111.479 35.3666 111.479 36.75H115.479ZM114.189 31.499C113.317 29.8858 112.019 28.6623 110.355 27.852L108.604 31.448C109.54 31.9044 110.209 32.5476 110.67 33.401L114.189 31.499ZM110.411 27.8802C108.788 27.0258 106.899 26.65 104.829 26.65V30.65C106.427 30.65 107.638 30.9408 108.548 31.4198L110.411 27.8802ZM104.829 26.65C102.811 26.65 100.952 27.0316 99.3169 27.8704L101.142 31.4296C102.107 30.9351 103.315 30.65 104.829 30.65V26.65ZM99.3536 27.852C97.6981 28.6585 96.3936 29.8709 95.4901 31.4628L98.9689 33.4372C99.4654 32.5624 100.161 31.9081 101.105 31.448L99.3536 27.852ZM95.5019 31.4423C94.5909 33.004 94.1795 34.8001 94.1795 36.75H98.1795C98.1795 35.3666 98.4681 34.296 98.9571 33.4577L95.5019 31.4423ZM94.1795 36.75C94.1795 38.6999 94.5909 40.496 95.5019 42.0577L98.9571 40.0423C98.4681 39.204 98.1795 38.1334 98.1795 36.75H94.1795ZM95.5019 42.0577C96.4045 43.605 97.6955 44.7982 99.3169 45.6296L101.142 42.0704C100.163 41.5685 99.4545 40.895 98.9571 40.0423L95.5019 42.0577ZM99.3536 45.648C100.98 46.4405 102.825 46.8 104.829 46.8V42.8C103.3 42.8 102.079 42.5262 101.105 42.052L99.3536 45.648ZM136.935 51L135.24 49.9384L133.322 53H136.935V51ZM148.835 32L150.022 30.3902L148.285 29.1099L147.14 30.9384L148.835 32ZM155.685 37.05L157.417 38.0496L158.311 36.5011L156.872 35.4402L155.685 37.05ZM147.635 51V53H148.79L149.367 51.9996L147.635 51ZM184.085 51L182.355 52.0043L182.934 53H184.085V51ZM175.985 37.05L174.798 35.4402L173.355 36.504L174.255 38.0543L175.985 37.05ZM182.835 32L184.528 30.9352L183.381 29.1123L181.648 30.3902L182.835 32ZM194.785 51V53H198.406L196.478 49.9352L194.785 51ZM170.435 43.35L169.781 45.24L172.435 46.1587V43.35H170.435ZM167.835 42.45L166.261 41.2156L164.53 43.4225L167.181 44.34L167.835 42.45ZM183.485 22.5V20.5H182.512L181.911 21.2656L183.485 22.5ZM193.935 22.5L195.452 23.8038L198.292 20.5H193.935V22.5ZM169.435 51V53H170.353L170.952 52.3038L169.435 51ZM162.285 51L160.77 52.3053L161.368 53H162.285V51ZM137.735 22.5V20.5H133.372L136.22 23.8053L137.735 22.5ZM148.235 22.5L149.809 21.2656L149.208 20.5H148.235V22.5ZM163.885 42.45L164.539 44.34L167.19 43.4225L165.459 41.2156L163.885 42.45ZM161.285 43.35H159.285V46.1587L161.939 45.24L161.285 43.35ZM161.285 22.5V20.5H159.285V22.5H161.285ZM170.435 22.5H172.435V20.5H170.435V22.5ZM138.63 52.0616L150.53 33.0616L147.14 30.9384L135.24 49.9384L138.63 52.0616ZM147.648 33.6098L154.498 38.6598L156.872 35.4402L150.022 30.3902L147.648 33.6098ZM153.953 36.0504L145.903 50.0004L149.367 51.9996L157.417 38.0496L153.953 36.0504ZM147.635 49H136.935V53H147.635V49ZM185.815 49.9957L177.715 36.0457L174.255 38.0543L182.355 52.0043L185.815 49.9957ZM177.172 38.6598L184.022 33.6098L181.648 30.3902L174.798 35.4402L177.172 38.6598ZM181.142 33.0648L193.092 52.0648L196.478 49.9352L184.528 30.9352L181.142 33.0648ZM194.785 49H184.085V53H194.785V49ZM171.089 41.46L168.489 40.56L167.181 44.34L169.781 45.24L171.089 41.46ZM169.409 43.6844L185.059 23.7344L181.911 21.2656L166.261 41.2156L169.409 43.6844ZM183.485 24.5H193.935V20.5H183.485V24.5ZM192.418 21.1962L167.918 49.6962L170.952 52.3038L195.452 23.8038L192.418 21.1962ZM169.435 49H162.285V53H169.435V49ZM163.8 49.6947L139.25 21.1947L136.22 23.8053L160.77 52.3053L163.8 49.6947ZM137.735 24.5H148.235V20.5H137.735V24.5ZM146.661 23.7344L162.311 43.6844L165.459 41.2156L149.809 21.2656L146.661 23.7344ZM163.231 40.56L160.631 41.46L161.939 45.24L164.539 44.34L163.231 40.56ZM163.285 43.35V22.5H159.285V43.35H163.285ZM161.285 24.5H170.435V20.5H161.285V24.5ZM168.435 22.5V43.35H172.435V22.5H168.435ZM202.949 49.9L202.091 51.7066L202.1 51.7106L202.949 49.9ZM196.649 44.6L194.992 45.7206L194.992 45.7206L196.649 44.6ZM196.549 28.85L198.221 29.9479L198.221 29.9479L196.549 28.85ZM202.599 23.6L201.723 21.802L201.714 21.8065L202.599 23.6ZM219.999 23.9L221.042 22.1934L221.042 22.1934L219.999 23.9ZM225.549 30.1L223.751 30.9764L223.751 30.9764L225.549 30.1ZM227.499 39.5V41.5H229.499V39.5H227.499ZM201.799 39.5H199.799V41.5H201.799V39.5ZM201.799 33.65V31.65H199.799V33.65H201.799ZM222.399 33.65L223.461 35.3446L229.355 31.65H222.399V33.65ZM219.049 35.75L217.053 35.8774L217.267 39.2276L220.111 37.4446L219.049 35.75ZM217.899 31.8L216.166 32.7979L216.184 32.8293L216.203 32.86L217.899 31.8ZM215.349 29.3L214.369 31.0432L214.389 31.0549L214.411 31.0662L215.349 29.3ZM204.649 32L202.925 30.986L202.914 31.005L202.903 31.0244L204.649 32ZM204.949 40.8L203.253 41.86L203.262 41.8751L203.272 41.89L204.949 40.8ZM208.649 43.85L207.847 45.6823L207.854 45.6853L207.861 45.6883L208.649 43.85ZM220.999 44.05L221.512 45.983L221.527 45.9792L221.541 45.9753L220.999 44.05ZM226.749 41.55H228.749V37.934L225.686 39.8559L226.749 41.55ZM226.749 47.6L227.884 49.2464L228.749 48.6502V47.6H226.749ZM220.099 50.7L219.536 48.7808L219.529 48.7829L220.099 50.7ZM212.099 49.8C208.951 49.8 206.198 49.2149 203.798 48.0894L202.1 51.7106C205.1 53.1184 208.447 53.8 212.099 53.8V49.8ZM203.807 48.0934C201.437 46.9675 199.623 45.427 198.306 43.4794L194.992 45.7206C196.742 48.3063 199.128 50.2991 202.091 51.7066L203.807 48.0934ZM198.306 43.4794C197.02 41.579 196.349 39.329 196.349 36.65H192.349C192.349 40.0377 193.211 43.0876 194.992 45.7206L198.306 43.4794ZM196.349 36.65C196.349 34.0288 196.992 31.8197 198.221 29.9479L194.877 27.7521C193.173 30.347 192.349 33.3378 192.349 36.65H196.349ZM198.221 29.9479C199.478 28.0336 201.213 26.5141 203.484 25.3935L201.714 21.8065C198.851 23.2192 196.553 25.1998 194.877 27.7521L198.221 29.9479ZM203.475 25.398C205.769 24.2805 208.396 23.7 211.399 23.7V19.7C207.868 19.7 204.629 20.3861 201.723 21.802L203.475 25.398ZM211.399 23.7C214.433 23.7 216.924 24.3648 218.956 25.6066L221.042 22.1934C218.274 20.5019 215.032 19.7 211.399 19.7V23.7ZM218.956 25.6066C221.012 26.8631 222.609 28.6331 223.751 30.9764L227.347 29.2236C225.889 26.2336 223.786 23.8703 221.042 22.1934L218.956 25.6066ZM223.751 30.9764C224.893 33.318 225.499 36.1399 225.499 39.5H229.499C229.499 35.6601 228.805 32.2153 227.347 29.2236L223.751 30.9764ZM227.499 37.5H201.799V41.5H227.499V37.5ZM203.799 39.5V33.65H199.799V39.5H203.799ZM201.799 35.65H222.399V31.65H201.799V35.65ZM221.337 31.9554L217.987 34.0554L220.111 37.4446L223.461 35.3446L221.337 31.9554ZM221.045 35.6226C220.929 33.8057 220.476 32.1493 219.595 30.74L216.203 32.86C216.656 33.5841 216.969 34.561 217.053 35.8774L221.045 35.6226ZM219.632 30.8021C218.821 29.3937 217.703 28.2859 216.287 27.5338L214.411 31.0662C215.128 31.4474 215.71 32.0063 216.166 32.7979L219.632 30.8021ZM216.33 27.5568C214.909 26.758 213.291 26.4 211.549 26.4V30.4C212.74 30.4 213.655 30.642 214.369 31.0432L216.33 27.5568ZM211.549 26.4C209.684 26.4 207.959 26.7704 206.445 27.5923L208.353 31.1077C209.172 30.663 210.214 30.4 211.549 30.4V26.4ZM206.445 27.5923C204.962 28.3972 203.778 29.5363 202.925 30.986L206.373 33.014C206.853 32.1971 207.503 31.5694 208.353 31.1077L206.445 27.5923ZM202.903 31.0244C202.079 32.4994 201.699 34.162 201.699 35.95H205.699C205.699 34.738 205.953 33.7673 206.395 32.9756L202.903 31.0244ZM201.699 35.95C201.699 38.1462 202.183 40.1482 203.253 41.86L206.645 39.74C206.048 38.7852 205.699 37.5538 205.699 35.95H201.699ZM203.272 41.89C204.373 43.5829 205.926 44.8417 207.847 45.6823L209.451 42.0177C208.172 41.4583 207.259 40.6838 206.626 39.71L203.272 41.89ZM207.861 45.6883C209.808 46.5227 212.076 46.9 214.599 46.9V42.9C212.456 42.9 210.756 42.5773 209.437 42.0117L207.861 45.6883ZM214.599 46.9C216.912 46.9 219.217 46.5926 221.512 45.983L220.486 42.117C218.514 42.6407 216.553 42.9 214.599 42.9V46.9ZM221.541 45.9753C223.839 45.3289 225.934 44.4223 227.812 43.2441L225.686 39.8559C224.164 40.811 222.426 41.5711 220.458 42.1247L221.541 45.9753ZM224.749 41.55V47.6H228.749V41.55H224.749ZM225.614 45.9536C223.873 47.1537 221.854 48.1009 219.536 48.7809L220.662 52.6191C223.344 51.8324 225.758 50.713 227.884 49.2464L225.614 45.9536ZM219.529 48.7829C217.267 49.4554 214.794 49.8 212.099 49.8V53.8C215.137 53.8 217.998 53.4113 220.669 52.6171L219.529 48.7829ZM244.024 51L242.038 50.7631L241.771 53H244.024V51ZM245.724 36.75L247.71 36.9869L247.738 36.75L247.71 36.5131L245.724 36.75ZM244.024 22.5V20.5H241.771L242.038 22.7369L244.024 22.5ZM273.124 24.45L271.878 26.0148L271.888 26.0227L271.898 26.0304L273.124 24.45ZM273.124 34.7L274.349 36.2804L274.359 36.2727L274.369 36.2648L273.124 34.7ZM266.324 37L264.489 36.2048L263.147 39.3005L266.507 38.9916L266.324 37ZM266.974 35.5L267.034 33.5009L265.678 33.4602L265.139 34.7048L266.974 35.5ZM274.624 37.6L273.438 39.2109L273.445 39.2161L273.453 39.2214L274.624 37.6ZM274.574 48.85L275.819 50.4146L275.823 50.4117L274.574 48.85ZM252.974 49L251.513 50.366L254.423 53.4782L254.958 49.2511L252.974 49ZM249.374 45.15V43.15H244.765L247.913 46.516L249.374 45.15ZM267.074 44.35L268.402 45.8448L268.402 45.8448L267.074 44.35ZM266.974 39.9L265.678 41.4239L265.678 41.4239L266.974 39.9ZM251.224 39.05H249.224V41.05H251.224V39.05ZM251.224 34.05V32.05H249.224V34.05H251.224ZM265.324 33.3L266.647 34.7997L266.652 34.7948L265.324 33.3ZM265.424 29.15L264.009 30.5642L264.032 30.587L264.056 30.6091L265.424 29.15ZM249.424 28.35L247.962 26.9847L244.818 30.35H249.424V28.35ZM252.974 24.55L254.958 24.2979L254.421 20.0713L251.512 23.1847L252.974 24.55ZM254.524 36.75L256.508 37.0011L256.54 36.7495L256.508 36.4979L254.524 36.75ZM246.01 51.2369L247.71 36.9869L243.738 36.5131L242.038 50.7631L246.01 51.2369ZM247.71 36.5131L246.01 22.2631L242.038 22.7369L243.738 36.9869L247.71 36.5131ZM244.024 24.5H266.574V20.5H244.024V24.5ZM266.574 24.5C268.995 24.5 270.695 25.0733 271.878 26.0148L274.369 22.8852C272.285 21.2267 269.618 20.5 266.574 20.5V24.5ZM271.898 26.0304C273.008 26.8909 273.574 28.0221 273.574 29.65H277.574C277.574 26.8779 276.506 24.5424 274.349 22.8696L271.898 26.0304ZM273.574 29.65C273.574 31.1002 273.04 32.2101 271.878 33.1352L274.369 36.2648C276.474 34.5899 277.574 32.3331 277.574 29.65H273.574ZM271.898 33.1196C270.665 34.0755 268.809 34.763 266.14 35.0084L266.507 38.9916C269.638 38.7037 272.315 37.8578 274.349 36.2804L271.898 33.1196ZM268.159 37.7952L268.809 36.2952L265.139 34.7048L264.489 36.2048L268.159 37.7952ZM266.914 37.4991C270.039 37.5929 272.128 38.2469 273.438 39.2109L275.809 35.9891C273.586 34.3531 270.575 33.6071 267.034 33.5009L266.914 37.4991ZM273.453 39.2214C274.71 40.1297 275.324 41.315 275.324 43H279.324C279.324 40.085 278.137 37.6703 275.795 35.9786L273.453 39.2214ZM275.324 43C275.324 44.8514 274.663 46.2169 273.324 47.2883L275.823 50.4117C278.15 48.5498 279.324 46.0152 279.324 43H275.324ZM273.328 47.2854C271.988 48.3527 270.028 49 267.224 49V53C270.62 53 273.56 52.214 275.819 50.4146L273.328 47.2854ZM267.224 49H244.024V53H267.224V49ZM254.434 47.634L250.834 43.784L247.913 46.516L251.513 50.366L254.434 47.634ZM249.374 47.15H264.224V43.15H249.374V47.15ZM264.224 47.15C265.728 47.15 267.268 46.8533 268.402 45.8448L265.745 42.8552C265.679 42.9134 265.319 43.15 264.224 43.15V47.15ZM268.402 45.8448C269.516 44.855 269.974 43.5108 269.974 42.1H265.974C265.974 42.6225 265.831 42.7784 265.745 42.8552L268.402 45.8448ZM269.974 42.1C269.974 40.6326 269.397 39.3351 268.269 38.3761L265.678 41.4239C265.883 41.5982 265.974 41.7674 265.974 42.1H269.974ZM268.269 38.3761C267.066 37.3534 265.419 37.05 263.774 37.05V41.05C265.062 41.05 265.548 41.3133 265.678 41.4239L268.269 38.3761ZM263.774 37.05H251.224V41.05H263.774V37.05ZM253.224 39.05V34.05H249.224V39.05H253.224ZM251.224 36.05H262.674V32.05H251.224V36.05ZM262.674 36.05C264.089 36.05 265.553 35.7652 266.647 34.7997L264 31.8003C263.961 31.8348 263.658 32.05 262.674 32.05V36.05ZM266.652 34.7948C267.716 33.8492 268.224 32.5867 268.224 31.2H264.224C264.224 31.5466 264.131 31.6841 263.995 31.8052L266.652 34.7948ZM268.224 31.2C268.224 29.8918 267.803 28.639 266.792 27.6909L264.056 30.6091C264.111 30.661 264.224 30.7748 264.224 31.2H268.224ZM266.838 27.7358C265.777 26.6751 264.324 26.35 262.924 26.35V30.35C263.79 30.35 264.003 30.5582 264.009 30.5642L266.838 27.7358ZM262.924 26.35H249.424V30.35H262.924V26.35ZM250.885 29.7153L254.435 25.9153L251.512 23.1847L247.962 26.9847L250.885 29.7153ZM250.99 24.8021L252.54 37.0021L256.508 36.4979L254.958 24.2979L250.99 24.8021ZM252.539 36.4989L250.989 48.7489L254.958 49.2511L256.508 37.0011L252.539 36.4989ZM307.733 51L305.747 51.2398L305.96 53H307.733V51ZM306.483 40.65L304.593 39.9958L304.442 40.4318L304.497 40.8898L306.483 40.65ZM307.833 36.75L309.723 37.4042L309.951 36.7458L309.72 36.0882L307.833 36.75ZM306.483 32.9L304.497 32.6613L304.442 33.123L304.596 33.5618L306.483 32.9ZM307.733 22.5V20.5H305.959L305.747 22.2613L307.733 22.5ZM317.383 22.5L319.368 22.7438L319.644 20.5H317.383V22.5ZM315.633 36.75L313.648 36.5062L313.618 36.75L313.648 36.9938L315.633 36.75ZM317.383 51V53H319.644L319.368 50.7562L317.383 51ZM310.033 36.75L312.006 37.0753L312.058 36.7625L312.01 36.4491L310.033 36.75ZM307.183 44.7L308.878 45.7623L308.885 45.751L307.183 44.7ZM301.883 49.95L302.884 51.6815L302.894 51.6756L302.904 51.6697L301.883 49.95ZM287.283 49.9L286.25 51.6126L286.262 51.6197L287.283 49.9ZM282.333 44.65L280.565 45.5858L280.571 45.5966L282.333 44.65ZM282.333 28.9L284.095 29.8466L284.101 29.8358L282.333 28.9ZM287.283 23.6L286.262 21.8802L286.25 21.8874L287.283 23.6ZM301.883 23.6L300.862 25.3197L300.872 25.3256L300.882 25.3315L301.883 23.6ZM307.183 28.8L305.488 29.8623L305.494 29.8713L305.5 29.8802L307.183 28.8ZM290.883 40.85L289.114 41.7835L289.12 41.7939L289.125 41.8042L290.883 40.85ZM293.483 43.65L292.409 45.3373L292.439 45.3561L292.469 45.3739L293.483 43.65ZM301.533 43.65L302.446 45.4296L302.454 45.4253L302.463 45.4208L301.533 43.65ZM305.033 40.85L306.552 42.1516L306.561 42.141L306.569 42.1304L305.033 40.85ZM307.283 36.75L309.184 37.37L309.387 36.75L309.184 36.13L307.283 36.75ZM305.033 32.7L303.497 33.9804L303.505 33.991L303.514 34.0016L305.033 32.7ZM301.533 29.9L300.585 31.6609L300.611 31.6753L300.639 31.6889L301.533 29.9ZM293.483 29.9L294.52 31.6104L294.527 31.606L294.534 31.6016L293.483 29.9ZM290.883 32.7L292.641 33.6542L292.646 33.6439L292.652 33.6335L290.883 32.7ZM309.719 50.7602L308.469 40.4102L304.497 40.8898L305.747 51.2398L309.719 50.7602ZM308.373 41.3042L309.723 37.4042L305.943 36.0958L304.593 39.9958L308.373 41.3042ZM309.72 36.0882L308.37 32.2382L304.596 33.5618L305.946 37.4118L309.72 36.0882ZM308.469 33.1387L309.719 22.7387L305.747 22.2613L304.497 32.6613L308.469 33.1387ZM307.733 24.5H317.383V20.5H307.733V24.5ZM315.398 22.2562L313.648 36.5062L317.618 36.9938L319.368 22.7438L315.398 22.2562ZM313.648 36.9938L315.398 51.2438L319.368 50.7562L317.618 36.5062L313.648 36.9938ZM317.383 49H307.733V53H317.383V49ZM308.06 36.4247C307.596 39.2399 306.725 41.6357 305.481 43.649L308.885 45.751C310.441 43.231 311.47 40.3267 312.006 37.0753L308.06 36.4247ZM305.488 43.6377C304.247 45.6187 302.705 47.1362 300.862 48.2303L302.904 51.6697C305.328 50.2305 307.319 48.2479 308.878 45.7623L305.488 43.6377ZM300.882 48.2185C299.078 49.2616 297.028 49.8 294.683 49.8V53.8C297.671 53.8 300.422 53.1051 302.884 51.6815L300.882 48.2185ZM294.683 49.8C292.195 49.8 290.09 49.2408 288.304 48.1803L286.262 51.6197C288.742 53.0925 291.571 53.8 294.683 53.8V49.8ZM288.316 48.1874C286.534 47.1125 285.131 45.6318 284.095 43.7034L280.571 45.5966C281.935 48.1349 283.832 50.1541 286.25 51.6126L288.316 48.1874ZM284.101 43.7142C283.077 41.7812 282.533 39.4792 282.533 36.75H278.533C278.533 40.0208 279.189 42.9855 280.565 45.5858L284.101 43.7142ZM282.533 36.75C282.533 34.0199 283.078 31.7399 284.095 29.8466L280.571 27.9534C279.189 30.5267 278.533 33.4801 278.533 36.75H282.533ZM284.101 29.8358C285.139 27.8746 286.541 26.383 288.316 25.3126L286.25 21.8874C283.825 23.3503 281.927 25.3921 280.565 27.9642L284.101 29.8358ZM288.304 25.3197C290.09 24.2592 292.195 23.7 294.683 23.7V19.7C291.571 19.7 288.742 20.4075 286.262 21.8803L288.304 25.3197ZM294.683 23.7C297.018 23.7 299.061 24.2502 300.862 25.3197L302.904 21.8803C300.439 20.4164 297.681 19.7 294.683 19.7V23.7ZM300.882 25.3315C302.714 26.3903 304.249 27.8854 305.488 29.8623L308.878 27.7377C307.317 25.2479 305.319 23.2764 302.884 21.8685L300.882 25.3315ZM305.5 29.8802C306.758 31.8407 307.624 34.2153 308.056 37.0509L312.01 36.4491C311.508 33.1513 310.475 30.2259 308.866 27.7198L305.5 29.8802ZM287.933 36.75C287.933 38.5659 288.31 40.2602 289.114 41.7835L292.652 39.9165C292.189 39.0398 291.933 38.0008 291.933 36.75H287.933ZM289.125 41.8042C289.918 43.2637 291.017 44.4516 292.409 45.3373L294.557 41.9627C293.749 41.4484 293.115 40.7697 292.641 39.8958L289.125 41.8042ZM292.469 45.3739C293.944 46.2416 295.602 46.65 297.383 46.65V42.65C296.231 42.65 295.289 42.3917 294.497 41.9261L292.469 45.3739ZM297.383 46.65C299.166 46.65 300.862 46.2417 302.446 45.4296L300.62 41.8704C299.604 42.3916 298.534 42.65 297.383 42.65V46.65ZM302.463 45.4208C304.025 44.6007 305.39 43.5065 306.552 42.1516L303.514 39.5484C302.676 40.5268 301.708 41.2993 300.603 41.8792L302.463 45.4208ZM306.569 42.1304C307.737 40.7291 308.608 39.1367 309.184 37.37L305.382 36.13C304.958 37.43 304.329 38.5709 303.497 39.5696L306.569 42.1304ZM309.184 36.13C308.607 34.3591 307.731 32.7747 306.552 31.3984L303.514 34.0016C304.335 34.9586 304.959 36.0742 305.382 37.37L309.184 36.13ZM306.569 31.4196C305.401 30.018 304.019 28.9071 302.427 28.1111L300.639 31.6889C301.713 32.2262 302.665 32.982 303.497 33.9804L306.569 31.4196ZM302.481 28.1391C300.892 27.2832 299.183 26.85 297.383 26.85V30.85C298.516 30.85 299.574 31.1168 300.585 31.6609L302.481 28.1391ZM297.383 26.85C295.584 26.85 293.913 27.2839 292.432 28.1984L294.534 31.6016C295.32 31.1161 296.249 30.85 297.383 30.85V26.85ZM292.446 28.1896C291.019 29.0546 289.907 30.2643 289.114 31.7665L292.652 33.6335C293.126 32.7357 293.747 32.0788 294.52 31.6104L292.446 28.1896ZM289.125 31.7458C288.31 33.248 287.933 34.9355 287.933 36.75H291.933C291.933 35.4979 292.19 34.4854 292.641 33.6542L289.125 31.7458ZM355.758 39.2L357.746 39.415L357.986 37.2H355.758V39.2ZM352.958 45.75L351.428 44.4617L351.422 44.4696L351.415 44.4776L352.958 45.75ZM346.858 50.2L346.073 48.3604L346.064 48.3643L346.858 50.2ZM329.408 49.9L330.275 48.0977L329.408 49.9ZM323.258 44.6L324.937 43.5135L324.937 43.5135L323.258 44.6ZM323.258 28.95L324.93 30.0479L324.937 30.0365L323.258 28.95ZM329.408 23.65L330.275 25.4523L330.284 25.4479L330.293 25.4434L329.408 23.65ZM346.858 23.3L346.064 25.1357L346.073 25.1396L346.858 23.3ZM352.958 27.75L351.415 29.0224L351.427 29.0371L351.439 29.0516L352.958 27.75ZM355.758 34.35V36.35H357.98L357.747 34.1406L355.758 34.35ZM346.508 34.35L344.547 34.7422L344.868 36.35H346.508V34.35ZM343.758 30.15L342.614 31.7903L342.635 31.8054L342.657 31.8199L343.758 30.15ZM334.208 29.6L333.294 27.8209L333.284 27.826L333.274 27.8312L334.208 29.6ZM331.408 32.4L333.156 33.3713L333.162 33.3612L333.167 33.351L331.408 32.4ZM331.408 41.1L333.156 40.1287L333.156 40.1287L331.408 41.1ZM334.208 43.85L333.274 45.6188L333.284 45.624L333.294 45.6291L334.208 43.85ZM343.808 43.3L344.952 44.9403L344.965 44.9314L344.978 44.9224L343.808 43.3ZM346.508 39.2V37.2H344.893L344.553 38.7783L346.508 39.2ZM353.77 38.985C353.546 41.0558 352.772 42.8656 351.428 44.4617L354.488 47.0383C356.344 44.8344 357.437 42.2775 357.746 39.415L353.77 38.985ZM351.415 44.4776C350.072 46.1058 348.31 47.4062 346.073 48.3604L347.643 52.0396C350.406 50.8605 352.71 49.1942 354.501 47.0224L351.415 44.4776ZM346.064 48.3643C343.884 49.3072 341.377 49.8 338.508 49.8V53.8C341.839 53.8 344.899 53.2261 347.652 52.0357L346.064 48.3643ZM338.508 49.8C335.323 49.8 332.594 49.2134 330.275 48.0977L328.541 51.7023C331.488 53.12 334.827 53.8 338.508 53.8V49.8ZM330.275 48.0977C327.945 46.9768 326.188 45.4461 324.937 43.5135L321.579 45.6865C323.262 48.2873 325.605 50.2899 328.541 51.7023L330.275 48.0977ZM324.937 43.5135C323.7 41.6022 323.058 39.3707 323.058 36.75H319.058C319.058 40.0626 319.882 43.0645 321.579 45.6865L324.937 43.5135ZM323.058 36.75C323.058 34.1288 323.7 31.9197 324.93 30.0479L321.586 27.8521C319.882 30.447 319.058 33.4378 319.058 36.75H323.058ZM324.937 30.0365C326.188 28.1039 327.945 26.5732 330.275 25.4523L328.541 21.8477C325.605 23.2601 323.262 25.2627 321.579 27.8635L324.937 30.0365ZM330.293 25.4434C332.608 24.3005 335.33 23.7 338.508 23.7V19.7C334.819 19.7 331.474 20.3995 328.523 21.8566L330.293 25.4434ZM338.508 23.7C341.377 23.7 343.884 24.1928 346.064 25.1357L347.652 21.4643C344.899 20.2739 341.839 19.7 338.508 19.7V23.7ZM346.073 25.1396C348.31 26.0938 350.072 27.3942 351.415 29.0224L354.501 26.4776C352.71 24.3058 350.406 22.6395 347.643 21.4604L346.073 25.1396ZM351.439 29.0516C352.766 30.5987 353.543 32.4139 353.769 34.5594L357.747 34.1406C357.44 31.2194 356.35 28.6346 354.477 26.4484L351.439 29.0516ZM355.758 32.35H346.508V36.35H355.758V32.35ZM348.469 33.9578C348.005 31.6382 346.802 29.761 344.859 28.4801L342.657 31.8199C343.647 32.4723 344.277 33.3952 344.547 34.7422L348.469 33.9578ZM344.902 28.5097C343.076 27.2353 340.907 26.65 338.508 26.65V30.65C340.242 30.65 341.574 31.0647 342.614 31.7903L344.902 28.5097ZM338.508 26.65C336.613 26.65 334.857 27.0186 333.294 27.8209L335.122 31.3791C336.026 30.9147 337.136 30.65 338.508 30.65V26.65ZM333.274 27.8312C331.712 28.6558 330.497 29.8796 329.649 31.449L333.167 33.351C333.652 32.4538 334.304 31.8109 335.142 31.3688L333.274 27.8312ZM329.66 31.4287C328.793 32.9887 328.408 34.7901 328.408 36.75H332.408C332.408 35.3098 332.69 34.2113 333.156 33.3713L329.66 31.4287ZM328.408 36.75C328.408 38.7098 328.793 40.5113 329.66 42.0713L333.156 40.1287C332.69 39.2887 332.408 38.1902 332.408 36.75H328.408ZM329.66 42.0713C330.512 43.6063 331.727 44.8021 333.274 45.6188L335.142 42.0812C334.289 41.6313 333.637 40.9937 333.156 40.1287L329.66 42.0713ZM333.294 45.6291C334.857 46.4314 336.613 46.8 338.508 46.8V42.8C337.136 42.8 336.026 42.5353 335.122 42.0709L333.294 45.6291ZM338.508 46.8C340.933 46.8 343.12 46.2183 344.952 44.9403L342.664 41.6597C341.629 42.3817 340.283 42.8 338.508 42.8V46.8ZM344.978 44.9224C346.805 43.6048 347.99 41.8138 348.463 39.6217L344.553 38.7783C344.292 39.9862 343.678 40.9285 342.638 41.6776L344.978 44.9224ZM346.508 41.2H355.758V37.2H346.508V41.2ZM369.503 51L367.808 49.9384L365.891 53H369.503V51ZM381.403 32L382.59 30.3902L380.854 29.1099L379.708 30.9384L381.403 32ZM388.253 37.05L389.986 38.0496L390.879 36.5011L389.44 35.4402L388.253 37.05ZM380.203 51V53H381.358L381.936 51.9996L380.203 51ZM416.653 51L414.924 52.0043L415.502 53H416.653V51ZM408.553 37.05L407.367 35.4402L405.924 36.504L406.824 38.0543L408.553 37.05ZM415.403 32L417.096 30.9352L415.95 29.1123L414.217 30.3902L415.403 32ZM427.353 51V53H430.974L429.046 49.9352L427.353 51ZM403.003 43.35L402.349 45.24L405.003 46.1587V43.35H403.003ZM400.403 42.45L398.83 41.2156L397.099 43.4225L399.749 44.34L400.403 42.45ZM416.053 22.5V20.5H415.08L414.48 21.2656L416.053 22.5ZM426.503 22.5L428.02 23.8038L430.86 20.5H426.503V22.5ZM402.003 51V53H402.921L403.52 52.3038L402.003 51ZM394.853 51L393.338 52.3053L393.936 53H394.853V51ZM370.303 22.5V20.5H365.941L368.788 23.8053L370.303 22.5ZM380.803 22.5L382.377 21.2656L381.776 20.5H380.803V22.5ZM396.453 42.45L397.108 44.34L399.758 43.4225L398.027 41.2156L396.453 42.45ZM393.853 43.35H391.853V46.1587L394.508 45.24L393.853 43.35ZM393.853 22.5V20.5H391.853V22.5H393.853ZM403.003 22.5H405.003V20.5H403.003V22.5ZM371.198 52.0616L383.098 33.0616L379.708 30.9384L367.808 49.9384L371.198 52.0616ZM380.217 33.6098L387.067 38.6598L389.44 35.4402L382.59 30.3902L380.217 33.6098ZM386.521 36.0504L378.471 50.0004L381.936 51.9996L389.986 38.0496L386.521 36.0504ZM380.203 49H369.503V53H380.203V49ZM418.383 49.9957L410.283 36.0457L406.824 38.0543L414.924 52.0043L418.383 49.9957ZM409.74 38.6598L416.59 33.6098L414.217 30.3902L407.367 35.4402L409.74 38.6598ZM413.71 33.0648L425.66 52.0648L429.046 49.9352L417.096 30.9352L413.71 33.0648ZM427.353 49H416.653V53H427.353V49ZM403.658 41.46L401.058 40.56L399.749 44.34L402.349 45.24L403.658 41.46ZM401.977 43.6844L417.627 23.7344L414.48 21.2656L398.83 41.2156L401.977 43.6844ZM416.053 24.5H426.503V20.5H416.053V24.5ZM424.987 21.1962L400.487 49.6962L403.52 52.3038L428.02 23.8038L424.987 21.1962ZM402.003 49H394.853V53H402.003V49ZM396.369 49.6947L371.819 21.1947L368.788 23.8053L393.338 52.3053L396.369 49.6947ZM370.303 24.5H380.803V20.5H370.303V24.5ZM379.23 23.7344L394.88 43.6844L398.027 41.2156L382.377 21.2656L379.23 23.7344ZM395.799 40.56L393.199 41.46L394.508 45.24L397.108 44.34L395.799 40.56ZM395.853 43.35V22.5H391.853V43.35H395.853ZM393.853 24.5H403.003V20.5H393.853V24.5ZM401.003 22.5V43.35H405.003V22.5H401.003ZM469.919 44.05H471.919V42.05H469.919V44.05ZM469.919 57.95V59.95H471.919V57.95H469.919ZM461.919 57.95H459.919V59.95H461.919V57.95ZM461.919 51H463.919V49H461.919V51ZM436.169 51V49H434.169V51H436.169ZM436.169 57.95V59.95H438.169V57.95H436.169ZM428.119 57.95H426.119V59.95H428.119V57.95ZM428.119 44.05V42.05H426.119V44.05H428.119ZM436.419 44.05L436.581 42.0565L436.5 42.05H436.419V44.05ZM438.269 44.2L438.108 46.1935L438.188 46.2H438.269V44.2ZM458.969 44.2V46.2H459.057L459.145 46.1923L458.969 44.2ZM460.669 44.05V42.05H460.581L460.494 42.0577L460.669 44.05ZM434.169 22.5V20.5H431.95L432.18 22.7072L434.169 22.5ZM464.719 22.5H466.719V20.5H464.719V22.5ZM464.719 49.1V51.1H466.719V49.1H464.719ZM455.469 49.1H453.469V51.1H455.469V49.1ZM455.469 25.05L456.884 23.6358L453.469 20.2216V25.05H455.469ZM459.719 29.3V31.3H464.548L461.134 27.8858L459.719 29.3ZM438.769 29.3L437.397 27.8454L433.736 31.3H438.769V29.3ZM442.319 25.95L444.246 25.4124L443.355 22.2223L440.947 24.4954L442.319 25.95ZM443.019 29.95L441.022 30.0579L441.024 30.0848L441.026 30.1116L443.019 29.95ZM440.919 44.3L442.652 45.2994L442.652 45.2994L440.919 44.3ZM434.569 48.2L433.293 49.7398L433.848 50.2H434.569V48.2ZM430.769 45.05L429.613 43.4184L427.486 44.926L429.493 46.5898L430.769 45.05ZM434.569 27.2L432.574 27.3302L432.574 27.333L434.569 27.2ZM467.919 44.05V57.95H471.919V44.05H467.919ZM469.919 55.95H461.919V59.95H469.919V55.95ZM463.919 57.95V51H459.919V57.95H463.919ZM461.919 49H436.169V53H461.919V49ZM434.169 51V57.95H438.169V51H434.169ZM436.169 55.95H428.119V59.95H436.169V55.95ZM430.119 57.95V44.05H426.119V57.95H430.119ZM428.119 46.05H436.419V42.05H428.119V46.05ZM436.258 46.0435L438.108 46.1935L438.431 42.2065L436.581 42.0565L436.258 46.0435ZM438.269 46.2H458.969V42.2H438.269V46.2ZM459.145 46.1923L460.845 46.0423L460.494 42.0577L458.794 42.2077L459.145 46.1923ZM460.669 46.05H469.919V42.05H460.669V46.05ZM434.169 24.5H464.719V20.5H434.169V24.5ZM462.719 22.5V49.1H466.719V22.5H462.719ZM464.719 47.1H455.469V51.1H464.719V47.1ZM457.469 49.1V25.05H453.469V49.1H457.469ZM454.055 26.4642L458.305 30.7142L461.134 27.8858L456.884 23.6358L454.055 26.4642ZM459.719 27.3H438.769V31.3H459.719V27.3ZM440.142 30.7546L443.692 27.4046L440.947 24.4954L437.397 27.8454L440.142 30.7546ZM440.393 26.4876C440.761 27.8082 440.965 28.996 441.022 30.0579L445.016 29.842C444.94 28.4374 444.677 26.9584 444.246 25.4124L440.393 26.4876ZM441.026 30.1116C441.122 31.2995 441.169 32.395 441.169 33.4H445.169C445.169 32.2717 445.116 31.0672 445.013 29.7884L441.026 30.1116ZM441.169 33.4C441.169 37.8934 440.44 41.1282 439.187 43.3006L442.652 45.2994C444.398 42.2718 445.169 38.2399 445.169 33.4H441.169ZM439.187 43.3006C438.002 45.3552 436.507 46.2 434.569 46.2V50.2C438.099 50.2 440.837 48.4448 442.652 45.2994L439.187 43.3006ZM435.846 46.6602L432.046 43.5102L429.493 46.5898L433.293 49.7398L435.846 46.6602ZM431.926 46.6816C433.744 45.3928 434.922 43.3295 435.651 40.8366C436.383 38.3355 436.719 35.2187 436.719 31.55H432.719C432.719 35.0146 432.397 37.7145 431.812 39.7134C431.225 41.7205 430.428 42.8405 429.613 43.4184L431.926 46.6816ZM436.719 31.55C436.719 30.1025 436.668 28.608 436.565 27.067L432.574 27.333C432.671 28.792 432.719 30.1975 432.719 31.55H436.719ZM436.565 27.0698C436.463 25.5096 436.328 23.9172 436.159 22.2928L432.18 22.7072C432.344 24.2828 432.475 25.8237 432.574 27.3302L436.565 27.0698ZM480.732 49.9L479.874 51.7066L479.883 51.7106L480.732 49.9ZM474.432 44.6L472.776 45.7206L472.776 45.7206L474.432 44.6ZM474.332 28.85L476.004 29.9479L476.004 29.9479L474.332 28.85ZM480.382 23.6L479.506 21.802L479.497 21.8065L480.382 23.6ZM497.782 23.9L498.825 22.1934L498.825 22.1934L497.782 23.9ZM503.332 30.1L501.534 30.9764L501.534 30.9764L503.332 30.1ZM505.282 39.5V41.5H507.282V39.5H505.282ZM479.582 39.5H477.582V41.5H479.582V39.5ZM479.582 33.65V31.65H477.582V33.65H479.582ZM500.182 33.65L501.244 35.3446L507.138 31.65H500.182V33.65ZM496.832 35.75L494.836 35.8774L495.05 39.2276L497.894 37.4446L496.832 35.75ZM495.682 31.8L493.949 32.7979L493.967 32.8293L493.986 32.86L495.682 31.8ZM493.132 29.3L492.152 31.0432L492.173 31.0549L492.194 31.0662L493.132 29.3ZM482.432 32L480.708 30.986L480.697 31.005L480.686 31.0244L482.432 32ZM482.732 40.8L481.036 41.86L481.046 41.8751L481.055 41.89L482.732 40.8ZM486.432 43.85L485.631 45.6823L485.637 45.6853L485.644 45.6883L486.432 43.85ZM498.782 44.05L499.296 45.983L499.31 45.9792L499.324 45.9753L498.782 44.05ZM504.532 41.55H506.532V37.934L503.469 39.8559L504.532 41.55ZM504.532 47.6L505.668 49.2464L506.532 48.6502V47.6H504.532ZM497.882 50.7L497.319 48.7808L497.312 48.7829L497.882 50.7ZM489.882 49.8C486.735 49.8 483.981 49.2149 481.582 48.0894L479.883 51.7106C482.883 53.1184 486.23 53.8 489.882 53.8V49.8ZM481.59 48.0934C479.22 46.9675 477.406 45.427 476.089 43.4794L472.776 45.7206C474.525 48.3063 476.911 50.2991 479.874 51.7066L481.59 48.0934ZM476.089 43.4794C474.803 41.579 474.132 39.329 474.132 36.65H470.132C470.132 40.0377 470.995 43.0876 472.776 45.7206L476.089 43.4794ZM474.132 36.65C474.132 34.0288 474.775 31.8197 476.004 29.9479L472.66 27.7521C470.956 30.347 470.132 33.3378 470.132 36.65H474.132ZM476.004 29.9479C477.261 28.0336 478.997 26.5141 481.267 25.3935L479.497 21.8065C476.635 23.2192 474.337 25.1998 472.66 27.7521L476.004 29.9479ZM481.258 25.398C483.552 24.2805 486.18 23.7 489.182 23.7V19.7C485.652 19.7 482.413 20.3861 479.506 21.802L481.258 25.398ZM489.182 23.7C492.216 23.7 494.707 24.3648 496.739 25.6066L498.825 22.1934C496.057 20.5019 492.815 19.7 489.182 19.7V23.7ZM496.739 25.6066C498.795 26.8631 500.392 28.6331 501.534 30.9764L505.13 29.2236C503.672 26.2336 501.569 23.8703 498.825 22.1934L496.739 25.6066ZM501.534 30.9764C502.676 33.318 503.282 36.1399 503.282 39.5H507.282C507.282 35.6601 506.588 32.2153 505.13 29.2236L501.534 30.9764ZM505.282 37.5H479.582V41.5H505.282V37.5ZM481.582 39.5V33.65H477.582V39.5H481.582ZM479.582 35.65H500.182V31.65H479.582V35.65ZM499.12 31.9554L495.77 34.0554L497.894 37.4446L501.244 35.3446L499.12 31.9554ZM498.828 35.6226C498.712 33.8057 498.259 32.1493 497.378 30.74L493.986 32.86C494.439 33.5841 494.752 34.561 494.836 35.8774L498.828 35.6226ZM497.415 30.8021C496.605 29.3937 495.486 28.2859 494.071 27.5338L492.194 31.0662C492.911 31.4474 493.493 32.0063 493.949 32.7979L497.415 30.8021ZM494.113 27.5568C492.692 26.758 491.074 26.4 489.332 26.4V30.4C490.524 30.4 491.439 30.642 492.152 31.0432L494.113 27.5568ZM489.332 26.4C487.467 26.4 485.742 26.7704 484.228 27.5923L486.136 31.1077C486.956 30.663 487.997 30.4 489.332 30.4V26.4ZM484.228 27.5923C482.745 28.3972 481.561 29.5363 480.708 30.986L484.156 33.014C484.637 32.1971 485.286 31.5694 486.136 31.1077L484.228 27.5923ZM480.686 31.0244C479.862 32.4994 479.482 34.162 479.482 35.95H483.482C483.482 34.738 483.736 33.7673 484.178 32.9756L480.686 31.0244ZM479.482 35.95C479.482 38.1462 479.966 40.1482 481.036 41.86L484.428 39.74C483.831 38.7852 483.482 37.5538 483.482 35.95H479.482ZM481.055 41.89C482.156 43.5829 483.709 44.8417 485.631 45.6823L487.234 42.0177C485.955 41.4583 485.042 40.6838 484.409 39.71L481.055 41.89ZM485.644 45.6883C487.591 46.5227 489.859 46.9 492.382 46.9V42.9C490.239 42.9 488.54 42.5773 487.22 42.0117L485.644 45.6883ZM492.382 46.9C494.695 46.9 497.001 46.5926 499.296 45.983L498.269 42.117C496.297 42.6407 494.336 42.9 492.382 42.9V46.9ZM499.324 45.9753C501.622 45.3289 503.717 44.4223 505.595 43.2441L503.469 39.8559C501.947 40.811 500.209 41.5711 498.241 42.1247L499.324 45.9753ZM502.532 41.55V47.6H506.532V41.55H502.532ZM503.397 45.9536C501.657 47.1537 499.637 48.1009 497.319 48.7809L498.445 52.6191C501.127 51.8324 503.541 50.713 505.668 49.2464L503.397 45.9536ZM497.312 48.7829C495.05 49.4554 492.578 49.8 489.882 49.8V53.8C492.92 53.8 495.781 53.4113 498.452 52.6171L497.312 48.7829ZM517.536 25.7V23.7H515.536V25.7H517.536ZM526.836 25.7H528.836V23.7H526.836V25.7ZM526.836 51V53H528.836V51H526.836ZM517.536 51H515.536V53H517.536V51ZM506.486 22.5V20.5H504.486V22.5H506.486ZM537.936 22.5H539.936V20.5H537.936V22.5ZM537.936 29.55V31.55H539.936V29.55H537.936ZM506.486 29.55H504.486V31.55H506.486V29.55ZM517.536 27.7H526.836V23.7H517.536V27.7ZM524.836 25.7V51H528.836V25.7H524.836ZM526.836 49H517.536V53H526.836V49ZM519.536 51V25.7H515.536V51H519.536ZM506.486 24.5H537.936V20.5H506.486V24.5ZM535.936 22.5V29.55H539.936V22.5H535.936ZM537.936 27.55H506.486V31.55H537.936V27.55ZM508.486 29.55V22.5H504.486V29.55H508.486ZM553.665 32.95L552.059 31.7573L552.059 31.7574L553.665 32.95ZM557.865 29.85L558.709 31.6632L558.724 31.6558L558.74 31.6482L557.865 29.85ZM561.665 28L560.797 26.198L560.789 26.2018L561.665 28ZM563.715 26.5L562.215 25.1768L562.192 25.2023L562.171 25.2286L563.715 26.5ZM562.665 21.25L561.524 22.8927L561.539 22.9036L561.555 22.9141L562.665 21.25ZM552.115 21.5L553.27 23.1328L553.283 23.1235L553.296 23.1141L552.115 21.5ZM549.715 25.55V27.55H551.463L551.697 25.8168L549.715 25.55ZM540.815 25.55L538.82 25.4016L538.66 27.55H540.815V25.55ZM545.665 16.1L546.888 17.6826L546.888 17.6826L545.665 16.1ZM569.215 15.75L568.039 17.3683L568.046 17.3729L568.052 17.3775L569.215 15.75ZM571.915 29L573.555 30.1444L573.561 30.1355L573.567 30.1267L571.915 29ZM567.415 32.55L566.569 30.7376L566.553 30.745L566.537 30.7527L567.415 32.55ZM563.215 34.6L564.08 36.4031L564.092 36.3973L563.215 34.6ZM561.315 35.95L559.803 34.6401L559.777 34.6699L559.753 34.7006L561.315 35.95ZM560.715 38.85V40.85H562.715V38.85H560.715ZM552.615 38.85L550.685 39.3762L551.087 40.85H552.615V38.85ZM552.715 50.15L551.325 51.5888L551.351 51.6131L551.377 51.6366L552.715 50.15ZM552.715 43L551.377 41.5134L551.364 41.5247L551.352 41.5362L552.715 43ZM560.365 43L559.002 44.4638L559.002 44.4638L560.365 43ZM560.365 50.15L561.727 51.6138L561.741 51.6014L561.754 51.5888L560.365 50.15ZM554.365 37C554.365 35.8711 554.674 34.9447 555.27 34.1426L552.059 31.7574C550.922 33.2886 550.365 35.0623 550.365 37H554.365ZM555.27 34.1426C555.867 33.3387 556.946 32.4837 558.709 31.6632L557.021 28.0368C554.917 29.0163 553.195 30.2279 552.059 31.7573L555.27 34.1426ZM558.74 31.6482L562.54 29.7982L560.789 26.2018L556.989 28.0518L558.74 31.6482ZM562.532 29.802C563.605 29.2857 564.554 28.6273 565.259 27.7714L562.171 25.2286C561.942 25.5061 561.525 25.8476 560.797 26.198L562.532 29.802ZM565.214 27.8232C566.026 26.9034 566.465 25.7867 566.465 24.55H562.465C562.465 24.7799 562.403 24.9632 562.215 25.1768L565.214 27.8232ZM566.465 24.55C566.465 22.4574 565.51 20.7434 563.774 19.5859L561.555 22.9141C562.219 23.3566 562.465 23.8426 562.465 24.55H566.465ZM563.805 19.6073C562.136 18.4481 559.954 18 557.515 18V22C559.542 22 560.793 22.3853 561.524 22.8927L563.805 19.6073ZM557.515 18C554.991 18 552.738 18.5659 550.934 19.8859L553.296 23.1141C554.225 22.4341 555.571 22 557.515 22V18ZM550.96 19.8672C549.117 21.1704 548.036 23.0272 547.733 25.2832L551.697 25.8168C551.86 24.6061 552.379 23.7629 553.27 23.1328L550.96 19.8672ZM549.715 23.55H540.815V27.55H549.715V23.55ZM542.809 25.6984C543.071 22.1732 544.447 19.5684 546.888 17.6826L544.442 14.5174C541.016 17.1649 539.158 20.8601 538.82 25.4016L542.809 25.6984ZM546.888 17.6826C549.366 15.7673 552.854 14.7 557.565 14.7V10.7C552.275 10.7 547.83 11.8994 544.442 14.5174L546.888 17.6826ZM557.565 14.7C562.286 14.7 565.701 15.67 568.039 17.3683L570.39 14.1317C567.128 11.7633 562.777 10.7 557.565 10.7V14.7ZM568.052 17.3775C570.299 18.982 571.415 21.1606 571.415 24.15H575.415C575.415 19.9394 573.731 16.518 570.377 14.1225L568.052 17.3775ZM571.415 24.15C571.415 25.5127 571.037 26.7371 570.262 27.8733L573.567 30.1267C574.792 28.3296 575.415 26.3207 575.415 24.15H571.415ZM570.274 27.8556C569.522 28.9337 568.332 29.9146 566.569 30.7376L568.26 34.3624C570.497 33.3187 572.307 31.9329 573.555 30.1444L570.274 27.8556ZM566.537 30.7527L562.337 32.8027L564.092 36.3973L568.292 34.3473L566.537 30.7527ZM562.349 32.797C561.36 33.2716 560.472 33.8684 559.803 34.6401L562.826 37.2599C563.024 37.0316 563.402 36.7284 564.08 36.403L562.349 32.797ZM559.753 34.7006C559.029 35.6059 558.715 36.6819 558.715 37.8H562.715C562.715 37.4514 562.801 37.2941 562.876 37.1994L559.753 34.7006ZM558.715 37.8V38.85H562.715V37.8H558.715ZM560.715 36.85H552.615V40.85H560.715V36.85ZM554.544 38.3238C554.465 38.0328 554.422 37.8036 554.402 37.6291L550.427 38.0709C550.474 38.4964 550.564 38.9338 550.685 39.3762L554.544 38.3238ZM554.402 37.6291C554.376 37.3931 554.365 37.184 554.365 37H550.365C550.365 37.3493 550.386 37.7069 550.427 38.0709L554.402 37.6291ZM556.515 49.5C555.402 49.5 554.634 49.1866 554.053 48.6634L551.377 51.6366C552.795 52.9134 554.561 53.5 556.515 53.5V49.5ZM554.104 48.7112C553.565 48.1913 553.265 47.529 553.265 46.55H549.265C549.265 48.5043 549.931 50.242 551.325 51.5888L554.104 48.7112ZM553.265 46.55C553.265 45.5706 553.564 44.9415 554.077 44.4638L551.352 41.5362C549.932 42.8585 549.265 44.5961 549.265 46.55H553.265ZM554.053 44.4866C554.634 43.9634 555.402 43.65 556.515 43.65V39.65C554.561 39.65 552.795 40.2366 551.377 41.5134L554.053 44.4866ZM556.515 43.65C557.722 43.65 558.48 43.9783 559.002 44.4638L561.727 41.5362C560.316 40.2217 558.508 39.65 556.515 39.65V43.65ZM559.002 44.4638C559.515 44.9415 559.815 45.5706 559.815 46.55H563.815C563.815 44.5961 563.148 42.8585 561.727 41.5362L559.002 44.4638ZM559.815 46.55C559.815 47.529 559.514 48.1913 558.975 48.7112L561.754 51.5888C563.149 50.242 563.815 48.5043 563.815 46.55H559.815ZM559.002 48.6862C558.48 49.1717 557.722 49.5 556.515 49.5V53.5C558.508 53.5 560.316 52.9283 561.727 51.6138L559.002 48.6862ZM577.634 13.5V11.5H575.509L575.637 13.6212L577.634 13.5ZM587.284 13.5L589.28 13.6253L589.413 11.5H587.284V13.5ZM585.734 38.2V40.2H587.612L587.73 38.3253L585.734 38.2ZM579.134 38.2L577.137 38.3212L577.252 40.2H579.134V38.2ZM578.634 50.15L577.245 51.5888L577.258 51.6014L577.271 51.6138L578.634 50.15ZM578.634 43L577.271 41.5362L577.271 41.5362L578.634 43ZM586.234 43L587.597 41.5362L587.597 41.5362L586.234 43ZM586.234 50.15L587.597 51.6138L587.61 51.6014L587.623 51.5888L586.234 50.15ZM577.634 15.5H587.284V11.5H577.634V15.5ZM585.288 13.3747L583.738 38.0747L587.73 38.3253L589.28 13.6253L585.288 13.3747ZM585.734 36.2H579.134V40.2H585.734V36.2ZM581.13 38.0788L579.63 13.3788L575.637 13.6212L577.137 38.3212L581.13 38.0788ZM582.434 49.5C581.273 49.5 580.526 49.179 579.997 48.6862L577.271 51.6138C578.675 52.921 580.461 53.5 582.434 53.5V49.5ZM580.023 48.7112C579.485 48.1913 579.184 47.529 579.184 46.55H575.184C575.184 48.5043 575.85 50.242 577.245 51.5888L580.023 48.7112ZM579.184 46.55C579.184 45.5706 579.484 44.9415 579.997 44.4638L577.271 41.5362C575.851 42.8585 575.184 44.5961 575.184 46.55H579.184ZM579.997 44.4638C580.526 43.971 581.273 43.65 582.434 43.65V39.65C580.461 39.65 578.675 40.229 577.271 41.5362L579.997 44.4638ZM582.434 43.65C583.595 43.65 584.342 43.971 584.871 44.4638L587.597 41.5362C586.193 40.229 584.406 39.65 582.434 39.65V43.65ZM584.871 44.4638C585.384 44.9415 585.684 45.5706 585.684 46.55H589.684C589.684 44.5961 589.017 42.8585 587.597 41.5362L584.871 44.4638ZM585.684 46.55C585.684 47.529 585.383 48.1913 584.845 48.7112L587.623 51.5888C589.018 50.242 589.684 48.5043 589.684 46.55H585.684ZM584.871 48.6862C584.342 49.179 583.595 49.5 582.434 49.5V53.5C584.406 53.5 586.193 52.921 587.597 51.6138L584.871 48.6862Z" fill="#B6BEC4" fill-opacity="0.25" mask="url(#path-1-outside-1_2_1050)"/>
</svg>
