<svg width="520" height="250" viewBox="0 0 520 250" fill="none" xmlns="http://www.w3.org/2000/svg">
<mask id="path-1-outside-1_2_799" maskUnits="userSpaceOnUse" x="1" y="17" width="512" height="231" fill="black">
<rect fill="white" x="1" y="17" width="512" height="231"/>
<path d="M17.794 42.46H44.444C49.8013 42.46 54.1747 43.28 57.564 44.92C61.008 46.5053 63.5227 48.7467 65.108 51.644C66.748 54.4867 67.568 57.876 67.568 61.812C67.568 65.6933 66.666 69.0827 64.862 71.98C63.058 74.8227 60.434 77.0367 56.99 78.622C53.546 80.2073 49.364 81 44.444 81H3.608L8.282 49.266L3.608 19.5H62.976V33.686H15.334L22.632 25.076L26.404 48.856L22.222 75.998L15.006 67.388H41.82C43.952 67.388 45.6193 66.8687 46.822 65.83C48.0247 64.7367 48.626 63.206 48.626 61.238C48.626 59.3247 47.9973 57.8487 46.74 56.81C45.5373 55.7167 43.8973 55.17 41.82 55.17H17.794V42.46ZM88.4197 95.924C84.7024 95.924 81.4224 95.4593 78.5797 94.53C75.7917 93.6553 73.031 92.234 70.2977 90.266V77.474C73.031 79.2233 75.573 80.4807 77.9237 81.246C80.2744 82.0113 82.8437 82.394 85.6317 82.394C87.9277 82.394 89.923 81.902 91.6177 80.918C93.367 79.934 94.8157 78.1027 95.9637 75.424L112.938 34.014H132.864L110.888 81.164C109.193 84.8267 107.116 87.7513 104.656 89.938C102.25 92.1247 99.6537 93.6553 96.8657 94.53C94.0777 95.4593 91.2624 95.924 88.4197 95.924ZM87.3537 75.67L68.0017 34.014H88.6657L105.394 75.67H87.3537ZM200.949 67.06V92.07H184.795V81H145.681V92.07H129.527V67.06H144.369L147.485 67.388H181.515L184.385 67.06H200.949ZM139.121 34.014H192.339V77.802H173.725V38.934L182.335 47.544H148.141L154.947 40.574C155.876 42.8153 156.423 44.8927 156.587 46.806C156.751 48.6647 156.833 50.3867 156.833 51.972C156.833 59.4067 155.493 65.1467 152.815 69.192C150.136 73.2373 146.337 75.26 141.417 75.26L133.791 68.864C137.945 65.9667 140.023 59.0787 140.023 48.2C140.023 46.068 139.941 43.8267 139.777 41.476C139.613 39.0707 139.394 36.5833 139.121 34.014ZM207.342 81V34.014H226.038V76.49L220.462 67.962H235.96C237.764 67.962 239.131 67.5247 240.06 66.65C241.044 65.7753 241.536 64.5453 241.536 62.96C241.536 61.3747 241.044 60.1447 240.06 59.27C239.131 58.3953 237.764 57.958 235.96 57.958H220.216V45.494H239.158C243.422 45.494 247.139 46.232 250.31 47.708C253.481 49.184 255.941 51.2613 257.69 53.94C259.439 56.564 260.314 59.68 260.314 63.288C260.314 66.8413 259.439 69.9573 257.69 72.636C255.941 75.26 253.508 77.31 250.392 78.786C247.276 80.262 243.613 81 239.404 81H207.342ZM282.509 81L285.543 57.466L282.509 34.014H322.115C326.652 34.014 330.287 35.08 333.021 37.212C335.754 39.2893 337.121 42.132 337.121 45.74C337.121 49.1293 335.727 51.89 332.939 54.022C330.205 56.154 326.406 57.466 321.541 57.958L322.689 55.088C328.319 55.3613 332.611 56.564 335.563 58.696C338.515 60.828 339.991 63.78 339.991 67.552C339.991 71.652 338.46 74.932 335.399 77.392C332.337 79.7973 328.265 81 323.181 81H282.509ZM300.549 77.228L293.333 69.602H316.621C318.097 69.602 319.217 69.274 319.983 68.618C320.748 67.9073 321.131 66.9507 321.131 65.748C321.131 64.5453 320.721 63.5887 319.901 62.878C319.081 62.1673 317.851 61.812 316.211 61.812H296.941V52.546H314.161C315.527 52.546 316.566 52.218 317.277 51.562C317.987 50.906 318.343 50.0313 318.343 48.938C318.343 47.8447 317.987 46.9973 317.277 46.396C316.621 45.74 315.637 45.412 314.325 45.412H293.415L300.549 37.786L303.337 57.466L300.549 77.228ZM4.264 156V109.014H23.042V141.568L17.63 139.682L42.558 109.014H62.074L20.828 156H4.264ZM42.312 156L29.274 133.204L43.624 123.61L63.304 156H42.312ZM83.5349 170.924C79.8176 170.924 76.5376 170.459 73.6949 169.53C70.9069 168.655 68.1463 167.234 65.4129 165.266V152.474C68.1463 154.223 70.6883 155.481 73.0389 156.246C75.3896 157.011 77.9589 157.394 80.7469 157.394C83.0429 157.394 85.0383 156.902 86.7329 155.918C88.4823 154.934 89.9309 153.103 91.0789 150.424L108.053 109.014H127.979L106.003 156.164C104.308 159.827 102.231 162.751 99.7709 164.938C97.3656 167.125 94.7689 168.655 91.9809 169.53C89.1929 170.459 86.3776 170.924 83.5349 170.924ZM82.4689 150.67L63.1169 109.014H83.7809L100.509 150.67H82.4689ZM132.069 109.014H150.847V121.56L150.109 123.692V138.042L150.847 142.224V169.53H132.069V109.014ZM145.107 132.548C145.763 127.464 147.184 123.063 149.371 119.346C151.612 115.574 154.482 112.677 157.981 110.654C161.479 108.631 165.443 107.62 169.871 107.62C174.463 107.62 178.481 108.659 181.925 110.736C185.423 112.759 188.129 115.656 190.043 119.428C192.011 123.145 192.995 127.519 192.995 132.548C192.995 137.468 192.011 141.814 190.043 145.586C188.129 149.303 185.423 152.201 181.925 154.278C178.481 156.355 174.463 157.394 169.871 157.394C165.388 157.394 161.397 156.383 157.899 154.36C154.455 152.283 151.639 149.385 149.453 145.668C147.266 141.896 145.817 137.523 145.107 132.548ZM174.053 132.548C174.053 130.471 173.615 128.639 172.741 127.054C171.921 125.414 170.745 124.129 169.215 123.2C167.684 122.271 165.935 121.806 163.967 121.806C161.944 121.806 160.003 122.271 158.145 123.2C156.286 124.129 154.646 125.414 153.225 127.054C151.858 128.639 150.847 130.471 150.191 132.548C150.847 134.625 151.858 136.457 153.225 138.042C154.646 139.627 156.286 140.885 158.145 141.814C160.003 142.743 161.944 143.208 163.967 143.208C165.935 143.208 167.684 142.743 169.215 141.814C170.745 140.885 171.921 139.627 172.741 138.042C173.615 136.457 174.053 134.625 174.053 132.548ZM257.055 135.746C256.617 140.065 255.059 143.864 252.381 147.144C249.702 150.369 246.203 152.884 241.885 154.688C237.621 156.492 232.81 157.394 227.453 157.394C221.603 157.394 216.41 156.355 211.873 154.278C207.39 152.201 203.891 149.276 201.377 145.504C198.862 141.732 197.605 137.413 197.605 132.548C197.605 127.573 198.862 123.227 201.377 119.51C203.891 115.793 207.39 112.895 211.873 110.818C216.41 108.686 221.603 107.62 227.453 107.62C232.81 107.62 237.621 108.522 241.885 110.326C246.203 112.13 249.702 114.645 252.381 117.87C255.059 121.095 256.617 124.895 257.055 129.268H238.441C237.894 126.699 236.637 124.758 234.669 123.446C232.701 122.079 230.295 121.396 227.453 121.396C225.266 121.396 223.353 121.833 221.713 122.708C220.073 123.528 218.815 124.785 217.941 126.48C217.066 128.12 216.629 130.143 216.629 132.548C216.629 134.953 217.066 136.976 217.941 138.616C218.815 140.256 220.073 141.513 221.713 142.388C223.353 143.208 225.266 143.618 227.453 143.618C230.295 143.618 232.701 142.907 234.669 141.486C236.637 140.01 237.894 138.097 238.441 135.746H257.055ZM291.283 157.394C285.488 157.394 280.322 156.355 275.785 154.278C271.247 152.201 267.667 149.276 265.043 145.504C262.419 141.732 261.107 137.331 261.107 132.302C261.107 127.382 262.364 123.063 264.879 119.346C267.448 115.629 270.919 112.759 275.293 110.736C279.721 108.659 284.668 107.62 290.135 107.62C295.875 107.62 300.767 108.823 304.813 111.228C308.858 113.579 311.947 116.941 314.079 121.314C316.265 125.687 317.359 130.826 317.359 136.73H276.441V127.464H306.535L301.041 130.58C300.767 128.229 300.166 126.289 299.237 124.758C298.362 123.173 297.159 121.97 295.629 121.15C294.153 120.33 292.376 119.92 290.299 119.92C288.003 119.92 286.035 120.412 284.395 121.396C282.809 122.38 281.579 123.747 280.705 125.496C279.885 127.245 279.475 129.241 279.475 131.482C279.475 134.27 280.076 136.621 281.279 138.534C282.536 140.447 284.422 141.923 286.937 142.962C289.451 143.946 292.567 144.438 296.285 144.438C299.838 144.438 303.309 143.973 306.699 143.044C310.143 142.115 313.286 140.748 316.129 138.944V149.932C312.794 152.337 308.94 154.196 304.567 155.508C300.193 156.765 295.765 157.394 291.283 157.394ZM322.622 168.464L331.56 149.686L332.626 156.656C330.713 156.656 328.963 156.191 327.378 155.262C325.793 154.333 324.535 153.103 323.606 151.572C322.731 149.987 322.294 148.265 322.294 146.406C322.294 144.493 322.731 142.771 323.606 141.24C324.535 139.709 325.793 138.507 327.378 137.632C328.963 136.703 330.713 136.238 332.626 136.238C334.594 136.238 336.343 136.703 337.874 137.632C339.459 138.561 340.689 139.819 341.564 141.404C342.493 142.935 342.958 144.684 342.958 146.652C342.958 148.401 342.493 150.315 341.564 152.392C340.689 154.415 339.213 156.984 337.136 160.1L331.478 168.464H322.622ZM17.794 192.46H44.444C49.8013 192.46 54.1747 193.28 57.564 194.92C61.008 196.505 63.5227 198.747 65.108 201.644C66.748 204.487 67.568 207.876 67.568 211.812C67.568 215.693 66.666 219.083 64.862 221.98C63.058 224.823 60.434 227.037 56.99 228.622C53.546 230.207 49.364 231 44.444 231H3.608L8.282 199.266L3.608 169.5H62.976V183.686H15.334L22.632 175.076L26.404 198.856L22.222 225.998L15.006 217.388H41.82C43.952 217.388 45.6193 216.869 46.822 215.83C48.0247 214.737 48.626 213.206 48.626 211.238C48.626 209.325 47.9973 207.849 46.74 206.81C45.5373 205.717 43.8973 205.17 41.82 205.17H17.794V192.46ZM88.4197 245.924C84.7024 245.924 81.4224 245.459 78.5797 244.53C75.7917 243.655 73.031 242.234 70.2977 240.266V227.474C73.031 229.223 75.573 230.481 77.9237 231.246C80.2744 232.011 82.8437 232.394 85.6317 232.394C87.9277 232.394 89.923 231.902 91.6177 230.918C93.367 229.934 94.8157 228.103 95.9637 225.424L112.938 184.014H132.864L110.888 231.164C109.193 234.827 107.116 237.751 104.656 239.938C102.25 242.125 99.6537 243.655 96.8657 244.53C94.0777 245.459 91.2624 245.924 88.4197 245.924ZM87.3537 225.67L68.0017 184.014H88.6657L105.394 225.67H87.3537ZM200.949 217.06V242.07H184.795V231H145.681V242.07H129.527V217.06H144.369L147.485 217.388H181.515L184.385 217.06H200.949ZM139.121 184.014H192.339V227.802H173.725V188.934L182.335 197.544H148.141L154.947 190.574C155.876 192.815 156.423 194.893 156.587 196.806C156.751 198.665 156.833 200.387 156.833 201.972C156.833 209.407 155.493 215.147 152.815 219.192C150.136 223.237 146.337 225.26 141.417 225.26L133.791 218.864C137.945 215.967 140.023 209.079 140.023 198.2C140.023 196.068 139.941 193.827 139.777 191.476C139.613 189.071 139.394 186.583 139.121 184.014ZM207.342 231V184.014H226.038V226.49L220.462 217.962H235.96C237.764 217.962 239.131 217.525 240.06 216.65C241.044 215.775 241.536 214.545 241.536 212.96C241.536 211.375 241.044 210.145 240.06 209.27C239.131 208.395 237.764 207.958 235.96 207.958H220.216V195.494H239.158C243.422 195.494 247.139 196.232 250.31 197.708C253.481 199.184 255.941 201.261 257.69 203.94C259.439 206.564 260.314 209.68 260.314 213.288C260.314 216.841 259.439 219.957 257.69 222.636C255.941 225.26 253.508 227.31 250.392 228.786C247.276 230.262 243.613 231 239.404 231H207.342ZM295.843 190.492H314.621V231H295.843V190.492ZM278.541 184.014H331.923V198.036H278.541V184.014ZM377.85 231L375.636 214.272L377.932 207.548L375.636 200.906L377.85 184.014H397.366L394.25 207.466L397.366 231H377.85ZM382.032 207.548C381.376 212.523 379.927 216.896 377.686 220.668C375.499 224.385 372.656 227.283 369.158 229.36C365.714 231.383 361.75 232.394 357.268 232.394C352.73 232.394 348.712 231.355 345.214 229.278C341.715 227.201 338.982 224.303 337.014 220.586C335.1 216.814 334.144 212.468 334.144 207.548C334.144 202.519 335.1 198.145 337.014 194.428C338.982 190.656 341.715 187.759 345.214 185.736C348.712 183.659 352.73 182.62 357.268 182.62C361.75 182.62 365.714 183.631 369.158 185.654C372.656 187.677 375.526 190.574 377.768 194.346C380.009 198.063 381.43 202.464 382.032 207.548ZM353.086 207.548C353.086 209.625 353.496 211.457 354.316 213.042C355.19 214.627 356.393 215.885 357.924 216.814C359.454 217.743 361.204 218.208 363.172 218.208C365.194 218.208 367.135 217.743 368.994 216.814C370.852 215.885 372.492 214.627 373.914 213.042C375.335 211.457 376.374 209.625 377.03 207.548C376.374 205.471 375.335 203.639 373.914 202.054C372.492 200.414 370.852 199.129 368.994 198.2C367.135 197.271 365.194 196.806 363.172 196.806C361.204 196.806 359.454 197.271 357.924 198.2C356.393 199.129 355.19 200.414 354.316 202.054C353.496 203.639 353.086 205.471 353.086 207.548ZM404.735 231V184.014H433.025L445.817 220.504H441.061L453.607 184.014H481.897V231H464.267V191.23H467.055L451.803 231H434.911L419.659 191.394L422.365 191.312V231H404.735ZM490.172 169.5H509.852L506.654 208.204H493.37L490.172 169.5ZM500.012 231.902C496.951 231.902 494.491 231.027 492.632 229.278C490.774 227.529 489.844 225.26 489.844 222.472C489.844 219.629 490.774 217.333 492.632 215.584C494.491 213.835 496.951 212.96 500.012 212.96C503.074 212.96 505.534 213.835 507.392 215.584C509.251 217.333 510.18 219.629 510.18 222.472C510.18 225.26 509.251 227.529 507.392 229.278C505.534 231.027 503.074 231.902 500.012 231.902Z"/>
</mask>
<path d="M17.794 42.46V40.46H15.794V42.46H17.794ZM57.564 44.92L56.6929 46.7203L56.7102 46.7287L56.7277 46.7368L57.564 44.92ZM65.108 51.644L63.3535 52.604L63.3643 52.6239L63.3756 52.6434L65.108 51.644ZM64.862 71.98L66.5507 73.0516L66.5553 73.0444L66.5598 73.0371L64.862 71.98ZM56.99 78.622L57.8263 80.4388L57.8263 80.4388L56.99 78.622ZM3.608 81L1.62935 80.7086L1.29185 83H3.608V81ZM8.282 49.266L10.2607 49.5574L10.305 49.2564L10.2578 48.9558L8.282 49.266ZM3.608 19.5V17.5H1.26944L1.63221 19.8102L3.608 19.5ZM62.976 19.5H64.976V17.5H62.976V19.5ZM62.976 33.686V35.686H64.976V33.686H62.976ZM15.334 33.686L13.8083 32.3928L11.017 35.686H15.334V33.686ZM22.632 25.076L24.6073 24.7627L23.9245 20.458L21.1063 23.7828L22.632 25.076ZM26.404 48.856L28.3807 49.1606L28.4283 48.8515L28.3793 48.5427L26.404 48.856ZM22.222 75.998L20.6892 77.2827L23.5261 80.6677L24.1987 76.3026L22.222 75.998ZM15.006 67.388V65.388H10.7203L13.4732 68.6727L15.006 67.388ZM46.822 65.83L48.1292 67.3436L48.1485 67.327L48.1673 67.3099L46.822 65.83ZM46.74 56.81L45.3947 58.2899L45.4297 58.3217L45.4662 58.3519L46.74 56.81ZM17.794 55.17H15.794V57.17H17.794V55.17ZM17.794 44.46H44.444V40.46H17.794V44.46ZM44.444 44.46C49.6185 44.46 53.665 45.2552 56.6929 46.7203L58.4351 43.1197C54.6843 41.3048 49.9842 40.46 44.444 40.46V44.46ZM56.7277 46.7368C59.8417 48.1702 62.0039 50.1376 63.3535 52.604L66.8625 50.684C65.0414 47.3557 62.1743 44.8405 58.4003 43.1032L56.7277 46.7368ZM63.3756 52.6434C64.8083 55.1268 65.568 58.1568 65.568 61.812H69.568C69.568 57.5952 68.6877 53.8465 66.8404 50.6446L63.3756 52.6434ZM65.568 61.812C65.568 65.3722 64.7447 68.3846 63.1642 70.9229L66.5598 73.0371C68.5873 69.7807 69.568 66.0145 69.568 61.812H65.568ZM63.1733 70.9084C61.6011 73.3859 59.2933 75.36 56.1537 76.8052L57.8263 80.4388C61.5747 78.7133 64.5149 76.2595 66.5507 73.0516L63.1733 70.9084ZM56.1537 76.8052C53.0378 78.2396 49.1578 79 44.444 79V83C49.5702 83 54.0542 82.1751 57.8263 80.4388L56.1537 76.8052ZM44.444 79H3.608V83H44.444V79ZM5.58665 81.2914L10.2607 49.5574L6.30335 48.9746L1.62935 80.7086L5.58665 81.2914ZM10.2578 48.9558L5.58379 19.1897L1.63221 19.8102L6.30621 49.5762L10.2578 48.9558ZM3.608 21.5H62.976V17.5H3.608V21.5ZM60.976 19.5V33.686H64.976V19.5H60.976ZM62.976 31.686H15.334V35.686H62.976V31.686ZM16.8597 34.9792L24.1577 26.3692L21.1063 23.7828L13.8083 32.3928L16.8597 34.9792ZM20.6567 25.3893L24.4287 49.1693L28.3793 48.5427L24.6073 24.7627L20.6567 25.3893ZM24.4273 48.5514L20.2453 75.6934L24.1987 76.3026L28.3807 49.1606L24.4273 48.5514ZM23.7548 74.7133L16.5388 66.1033L13.4732 68.6727L20.6892 77.2827L23.7548 74.7133ZM15.006 69.388H41.82V65.388H15.006V69.388ZM41.82 69.388C44.2665 69.388 46.4551 68.7895 48.1292 67.3436L45.5148 64.3164C44.7836 64.9478 43.6375 65.388 41.82 65.388V69.388ZM48.1673 67.3099C49.8736 65.7588 50.626 63.6407 50.626 61.238H46.626C46.626 62.7713 46.1758 63.7146 45.4767 64.3501L48.1673 67.3099ZM50.626 61.238C50.626 58.8431 49.8129 56.7543 48.0138 55.2681L45.4662 58.3519C46.1818 58.943 46.626 59.8063 46.626 61.238H50.626ZM48.0853 55.3301C46.4209 53.817 44.2519 53.17 41.82 53.17V57.17C43.5428 57.17 44.6538 57.6163 45.3947 58.2899L48.0853 55.3301ZM41.82 53.17H17.794V57.17H41.82V53.17ZM19.794 55.17V42.46H15.794V55.17H19.794ZM78.5797 94.53L79.2012 92.629L79.1898 92.6253L79.1784 92.6217L78.5797 94.53ZM70.2977 90.266H68.2977V91.2905L69.1291 91.8891L70.2977 90.266ZM70.2977 77.474L71.3758 75.7895L68.2977 73.8195V77.474H70.2977ZM77.9237 81.246L78.5429 79.3443L78.5429 79.3443L77.9237 81.246ZM91.6177 80.918L90.6372 79.1748L90.6253 79.1816L90.6134 79.1884L91.6177 80.918ZM95.9637 75.424L97.802 76.2118L97.8082 76.1972L97.8143 76.1825L95.9637 75.424ZM112.938 34.014V32.014H111.596L111.087 33.2554L112.938 34.014ZM132.864 34.014L134.676 34.8589L136.002 32.014H132.864V34.014ZM110.888 81.164L109.075 80.3191L109.073 80.3242L110.888 81.164ZM104.656 89.938L103.327 88.4432L103.319 88.4506L103.31 88.4581L104.656 89.938ZM96.8657 94.53L96.267 92.6217L96.2501 92.627L96.2332 92.6326L96.8657 94.53ZM87.3537 75.67L85.5399 76.5126L86.0776 77.67H87.3537V75.67ZM68.0017 34.014V32.014H64.8673L66.1879 34.8566L68.0017 34.014ZM88.6657 34.014L90.5216 33.2687L90.0178 32.014H88.6657V34.014ZM105.394 75.67V77.67H108.352L107.25 74.9247L105.394 75.67ZM88.4197 93.924C84.8643 93.924 81.8013 93.4791 79.2012 92.629L77.9582 96.431C81.0434 97.4396 84.5404 97.924 88.4197 97.924V93.924ZM79.1784 92.6217C76.6228 91.82 74.0521 90.5047 71.4663 88.6429L69.1291 91.8891C72.01 93.9633 74.9606 95.4907 77.981 96.4383L79.1784 92.6217ZM72.2977 90.266V77.474H68.2977V90.266H72.2977ZM69.2196 79.1585C72.0542 80.9727 74.751 82.3164 77.3045 83.1477L78.5429 79.3443C76.395 78.645 74.0078 77.474 71.3758 75.7895L69.2196 79.1585ZM77.3045 83.1477C79.8789 83.9859 82.6599 84.394 85.6317 84.394V80.394C83.0275 80.394 80.6699 80.0368 78.5429 79.3443L77.3045 83.1477ZM85.6317 84.394C88.2194 84.394 90.5734 83.837 92.622 82.6476L90.6134 79.1884C89.2726 79.967 87.636 80.394 85.6317 80.394V84.394ZM92.5982 82.6612C94.8696 81.3835 96.5564 79.1183 97.802 76.2118L94.1254 74.6362C93.0751 77.087 91.8644 78.4845 90.6372 79.1748L92.5982 82.6612ZM97.8143 76.1825L114.788 34.7725L111.087 33.2554L94.1131 74.6654L97.8143 76.1825ZM112.938 36.014H132.864V32.014H112.938V36.014ZM131.051 33.1691L109.075 80.3191L112.7 82.0089L134.676 34.8589L131.051 33.1691ZM109.073 80.3242C107.468 83.7924 105.541 86.4755 103.327 88.4432L105.984 91.4328C108.691 89.0272 110.918 85.861 112.703 82.0038L109.073 80.3242ZM103.31 88.4581C101.096 90.4716 98.7482 91.8433 96.267 92.6217L97.4644 96.4383C100.559 95.4674 103.405 93.7777 106.001 91.4179L103.31 88.4581ZM96.2332 92.6326C93.6422 93.4963 91.0402 93.924 88.4197 93.924V97.924C91.4846 97.924 94.5132 97.4224 97.4982 96.4274L96.2332 92.6326ZM89.1675 74.8274L69.8155 33.1714L66.1879 34.8566L85.5399 76.5126L89.1675 74.8274ZM68.0017 36.014H88.6657V32.014H68.0017V36.014ZM86.8098 34.7593L103.538 76.4153L107.25 74.9247L90.5216 33.2687L86.8098 34.7593ZM105.394 73.67H87.3537V77.67H105.394V73.67ZM200.949 67.06H202.949V65.06H200.949V67.06ZM200.949 92.07V94.07H202.949V92.07H200.949ZM184.795 92.07H182.795V94.07H184.795V92.07ZM184.795 81H186.795V79H184.795V81ZM145.681 81V79H143.681V81H145.681ZM145.681 92.07V94.07H147.681V92.07H145.681ZM129.527 92.07H127.527V94.07H129.527V92.07ZM129.527 67.06V65.06H127.527V67.06H129.527ZM144.369 67.06L144.578 65.071L144.474 65.06H144.369V67.06ZM147.485 67.388L147.275 69.377L147.38 69.388H147.485V67.388ZM181.515 67.388V69.388H181.629L181.742 69.3751L181.515 67.388ZM184.385 67.06V65.06H184.271L184.158 65.0729L184.385 67.06ZM139.121 34.014V32.014H136.897L137.132 34.2256L139.121 34.014ZM192.339 34.014H194.339V32.014H192.339V34.014ZM192.339 77.802V79.802H194.339V77.802H192.339ZM173.725 77.802H171.725V79.802H173.725V77.802ZM173.725 38.934L175.139 37.5198L171.725 34.1056V38.934H173.725ZM182.335 47.544V49.544H187.163L183.749 46.1298L182.335 47.544ZM148.141 47.544L146.71 46.1467L143.392 49.544H148.141V47.544ZM154.947 40.574L156.794 39.808L155.633 37.0082L153.516 39.1767L154.947 40.574ZM156.587 46.806L154.594 46.9768L154.594 46.9818L156.587 46.806ZM152.815 69.192L151.147 68.0878L151.147 68.0878L152.815 69.192ZM141.417 75.26L140.131 76.7924L140.689 77.26H141.417V75.26ZM133.791 68.864L132.647 67.2235L130.504 68.7177L132.505 70.3964L133.791 68.864ZM139.777 41.476L137.781 41.612L137.782 41.6152L139.777 41.476ZM198.949 67.06V92.07H202.949V67.06H198.949ZM200.949 90.07H184.795V94.07H200.949V90.07ZM186.795 92.07V81H182.795V92.07H186.795ZM184.795 79H145.681V83H184.795V79ZM143.681 81V92.07H147.681V81H143.681ZM145.681 90.07H129.527V94.07H145.681V90.07ZM131.527 92.07V67.06H127.527V92.07H131.527ZM129.527 69.06H144.369V65.06H129.527V69.06ZM144.159 69.049L147.275 69.377L147.694 65.399L144.578 65.071L144.159 69.049ZM147.485 69.388H181.515V65.388H147.485V69.388ZM181.742 69.3751L184.612 69.0471L184.158 65.0729L181.288 65.4009L181.742 69.3751ZM184.385 69.06H200.949V65.06H184.385V69.06ZM139.121 36.014H192.339V32.014H139.121V36.014ZM190.339 34.014V77.802H194.339V34.014H190.339ZM192.339 75.802H173.725V79.802H192.339V75.802ZM175.725 77.802V38.934H171.725V77.802H175.725ZM172.31 40.3482L180.92 48.9582L183.749 46.1298L175.139 37.5198L172.31 40.3482ZM182.335 45.544H148.141V49.544H182.335V45.544ZM149.572 48.9413L156.378 41.9713L153.516 39.1767L146.71 46.1467L149.572 48.9413ZM153.099 41.34C153.97 43.4392 154.451 45.3138 154.594 46.9768L158.579 46.6352C158.394 44.4715 157.782 42.1915 156.794 39.808L153.099 41.34ZM154.594 46.9818C154.754 48.7919 154.833 50.4545 154.833 51.972H158.833C158.833 50.3188 158.747 48.5374 158.579 46.6302L154.594 46.9818ZM154.833 51.972C154.833 59.2083 153.522 64.5012 151.147 68.0878L154.482 70.2962C157.465 65.7922 158.833 59.605 158.833 51.972H154.833ZM151.147 68.0878C148.845 71.5643 145.677 73.26 141.417 73.26V77.26C146.996 77.26 151.427 74.9104 154.482 70.2962L151.147 68.0878ZM142.702 73.7276L135.076 67.3316L132.505 70.3964L140.131 76.7924L142.702 73.7276ZM134.935 70.5045C137.509 68.7095 139.264 65.8005 140.38 62.1025C141.496 58.4015 142.023 53.7457 142.023 48.2H138.023C138.023 53.533 137.511 57.7605 136.55 60.9475C135.588 64.1375 134.227 66.1212 132.647 67.2235L134.935 70.5045ZM142.023 48.2C142.023 46.017 141.939 43.729 141.772 41.3368L137.782 41.6152C137.943 43.9243 138.023 46.119 138.023 48.2H142.023ZM141.772 41.34C141.606 38.9077 141.385 36.3951 141.109 33.8024L137.132 34.2256C137.403 36.7715 137.619 39.2336 137.781 41.612L141.772 41.34ZM207.342 81H205.342V83H207.342V81ZM207.342 34.014V32.014H205.342V34.014H207.342ZM226.038 34.014H228.038V32.014H226.038V34.014ZM226.038 76.49L224.364 77.5845L228.038 83.2035V76.49H226.038ZM220.462 67.962V65.962H216.765L218.788 69.0565L220.462 67.962ZM240.06 66.65L238.731 65.1552L238.71 65.1741L238.689 65.1936L240.06 66.65ZM240.06 59.27L238.689 60.7264L238.71 60.7459L238.731 60.7648L240.06 59.27ZM220.216 57.958H218.216V59.958H220.216V57.958ZM220.216 45.494V43.494H218.216V45.494H220.216ZM250.31 47.708L251.154 45.8948L251.154 45.8948L250.31 47.708ZM257.69 53.94L256.016 55.0336L256.021 55.0415L256.026 55.0494L257.69 53.94ZM257.69 72.636L259.354 73.7454L259.359 73.7375L259.365 73.7296L257.69 72.636ZM209.342 81V34.014H205.342V81H209.342ZM207.342 36.014H226.038V32.014H207.342V36.014ZM224.038 34.014V76.49H228.038V34.014H224.038ZM227.712 75.3955L222.136 66.8675L218.788 69.0565L224.364 77.5845L227.712 75.3955ZM220.462 69.962H235.96V65.962H220.462V69.962ZM235.96 69.962C238.062 69.962 240.001 69.4521 241.431 68.1064L238.689 65.1936C238.261 65.5972 237.466 65.962 235.96 65.962V69.962ZM241.389 68.1448C242.886 66.8136 243.536 64.9895 243.536 62.96H239.536C239.536 64.1012 239.202 64.737 238.731 65.1552L241.389 68.1448ZM243.536 62.96C243.536 60.9305 242.886 59.1064 241.389 57.7752L238.731 60.7648C239.202 61.183 239.536 61.8188 239.536 62.96H243.536ZM241.431 57.8136C240.001 56.4679 238.062 55.958 235.96 55.958V59.958C237.466 59.958 238.261 60.3228 238.689 60.7264L241.431 57.8136ZM235.96 55.958H220.216V59.958H235.96V55.958ZM222.216 57.958V45.494H218.216V57.958H222.216ZM220.216 47.494H239.158V43.494H220.216V47.494ZM239.158 47.494C243.193 47.494 246.611 48.1922 249.466 49.5212L251.154 45.8948C247.668 44.2718 243.651 43.494 239.158 43.494V47.494ZM249.466 49.5212C252.331 50.8548 254.489 52.6965 256.016 55.0336L259.365 52.8464C257.392 49.8262 254.631 47.5132 251.154 45.8948L249.466 49.5212ZM256.026 55.0494C257.526 57.2993 258.314 60.0163 258.314 63.288H262.314C262.314 59.3437 261.353 55.8287 259.354 52.8306L256.026 55.0494ZM258.314 63.288C258.314 66.4975 257.529 69.2243 256.016 71.5424L259.365 73.7296C261.349 70.6903 262.314 67.1852 262.314 63.288H258.314ZM256.026 71.5266C254.496 73.8212 252.356 75.6428 249.536 76.9785L251.248 80.5935C254.66 78.9772 257.385 76.6988 259.354 73.7454L256.026 71.5266ZM249.536 76.9785C246.74 78.3029 243.381 79 239.404 79V83C243.845 83 247.812 82.2211 251.248 80.5935L249.536 76.9785ZM239.404 79H207.342V83H239.404V79ZM282.509 81L280.525 80.7443L280.234 83H282.509V81ZM285.543 57.466L287.526 57.7217L287.559 57.4656L287.526 57.2094L285.543 57.466ZM282.509 34.014V32.014H280.233L280.525 34.2706L282.509 34.014ZM333.021 37.212L331.791 38.789L331.8 38.7967L331.81 38.8043L333.021 37.212ZM332.939 54.022L331.724 52.4333L331.716 52.4391L331.709 52.445L332.939 54.022ZM321.541 57.958L319.684 57.2152L318.458 60.2799L321.742 59.9479L321.541 57.958ZM322.689 55.088L322.786 53.0904L321.361 53.0212L320.832 54.3452L322.689 55.088ZM335.563 58.696L336.734 57.0746L336.734 57.0746L335.563 58.696ZM335.399 77.392L336.634 78.9646L336.643 78.9579L336.651 78.951L335.399 77.392ZM300.549 77.228L299.096 78.6026L301.949 81.6179L302.529 77.5074L300.549 77.228ZM293.333 69.602V67.602H288.687L291.88 70.9766L293.333 69.602ZM319.983 68.618L321.284 70.1365L321.314 70.1106L321.343 70.0836L319.983 68.618ZM319.901 62.878L321.21 61.3666L321.21 61.3666L319.901 62.878ZM296.941 61.812H294.941V63.812H296.941V61.812ZM296.941 52.546V50.546H294.941V52.546H296.941ZM317.277 51.562L315.92 50.0924L315.92 50.0924L317.277 51.562ZM317.277 46.396L315.862 47.8102L315.921 47.869L315.985 47.9228L317.277 46.396ZM293.415 45.412L291.954 44.0457L288.805 47.412H293.415V45.412ZM300.549 37.786L302.529 37.5055L301.943 33.3682L299.088 36.4197L300.549 37.786ZM303.337 57.466L305.317 57.7454L305.356 57.4654L305.317 57.1855L303.337 57.466ZM284.492 81.2557L287.526 57.7217L283.559 57.2103L280.525 80.7443L284.492 81.2557ZM287.526 57.2094L284.492 33.7574L280.525 34.2706L283.559 57.7226L287.526 57.2094ZM282.509 36.014H322.115V32.014H282.509V36.014ZM322.115 36.014C326.344 36.014 329.504 37.0055 331.791 38.789L334.251 35.635C331.071 33.1545 326.959 32.014 322.115 32.014V36.014ZM331.81 38.8043C334.017 40.4815 335.121 42.7199 335.121 45.74H339.121C339.121 41.5441 337.491 38.0971 334.231 35.6197L331.81 38.8043ZM335.121 45.74C335.121 48.481 334.037 50.664 331.724 52.4333L334.153 55.6107C337.416 53.116 339.121 49.7777 339.121 45.74H335.121ZM331.709 52.445C329.371 54.2685 325.977 55.4992 321.339 55.9681L321.742 59.9479C326.835 59.4328 331.04 58.0395 334.169 55.599L331.709 52.445ZM323.398 58.7008L324.546 55.8308L320.832 54.3452L319.684 57.2152L323.398 58.7008ZM322.592 57.0856C328.031 57.3497 331.882 58.5047 334.392 60.3174L336.734 57.0746C333.339 54.6232 328.607 53.3729 322.786 53.0904L322.592 57.0856ZM334.392 60.3174C336.801 62.0577 337.991 64.395 337.991 67.552H341.991C341.991 63.165 340.228 59.5983 336.734 57.0746L334.392 60.3174ZM337.991 67.552C337.991 71.0768 336.711 73.7715 334.146 75.833L336.651 78.951C340.209 76.0925 341.991 72.2272 341.991 67.552H337.991ZM334.163 75.8194C331.549 77.8732 327.954 79 323.181 79V83C328.575 83 333.126 81.7214 336.634 78.9646L334.163 75.8194ZM323.181 79H282.509V83H323.181V79ZM302.001 75.8534L294.785 68.2274L291.88 70.9766L299.096 78.6026L302.001 75.8534ZM293.333 71.602H316.621V67.602H293.333V71.602ZM316.621 71.602C318.358 71.602 320.02 71.2198 321.284 70.1365L318.681 67.0995C318.414 67.3282 317.835 67.602 316.621 67.602V71.602ZM321.343 70.0836C322.579 68.9359 323.131 67.4144 323.131 65.748H319.131C319.131 66.487 318.916 66.8788 318.622 67.1524L321.343 70.0836ZM323.131 65.748C323.131 64.0358 322.519 62.5011 321.21 61.3666L318.591 64.3894C318.922 64.6763 319.131 65.0548 319.131 65.748H323.131ZM321.21 61.3666C319.88 60.214 318.094 59.812 316.211 59.812V63.812C317.607 63.812 318.281 64.1207 318.591 64.3894L321.21 61.3666ZM316.211 59.812H296.941V63.812H316.211V59.812ZM298.941 61.812V52.546H294.941V61.812H298.941ZM296.941 54.546H314.161V50.546H296.941V54.546ZM314.161 54.546C315.822 54.546 317.425 54.1472 318.633 53.0316L315.92 50.0924C315.707 50.2888 315.232 50.546 314.161 50.546V54.546ZM318.633 53.0316C319.81 51.9457 320.343 50.5091 320.343 48.938H316.343C316.343 49.5535 316.165 49.8663 315.92 50.0924L318.633 53.0316ZM320.343 48.938C320.343 47.37 319.808 45.9183 318.568 44.8692L315.985 47.9228C316.166 48.0763 316.343 48.3193 316.343 48.938H320.343ZM318.691 44.9818C317.527 43.8184 315.945 43.412 314.325 43.412V47.412C315.328 47.412 315.714 47.6616 315.862 47.8102L318.691 44.9818ZM314.325 43.412H293.415V47.412H314.325V43.412ZM294.875 46.7783L302.009 39.1523L299.088 36.4197L291.954 44.0457L294.875 46.7783ZM298.568 38.0665L301.356 57.7465L305.317 57.1855L302.529 37.5055L298.568 38.0665ZM301.356 57.1866L298.568 76.9486L302.529 77.5074L305.317 57.7454L301.356 57.1866ZM4.264 156H2.264V158H4.264V156ZM4.264 109.014V107.014H2.264V109.014H4.264ZM23.042 109.014H25.042V107.014H23.042V109.014ZM23.042 141.568L22.3839 143.457L25.042 144.383V141.568H23.042ZM17.63 139.682L16.078 138.421L14.28 140.633L16.9718 141.571L17.63 139.682ZM42.558 109.014V107.014H41.6063L41.006 107.753L42.558 109.014ZM62.074 109.014L63.577 110.333L66.4909 107.014H62.074V109.014ZM20.828 156V158H21.7336L22.331 157.319L20.828 156ZM42.312 156L40.5759 156.993L41.1519 158H42.312V156ZM29.274 133.204L28.1624 131.541L26.6119 132.578L27.5379 134.197L29.274 133.204ZM43.624 123.61L45.3332 122.571L44.2487 120.787L42.5124 121.947L43.624 123.61ZM63.304 156V158H66.8594L65.0132 154.961L63.304 156ZM6.264 156V109.014H2.264V156H6.264ZM4.264 111.014H23.042V107.014H4.264V111.014ZM21.042 109.014V141.568H25.042V109.014H21.042ZM23.7002 139.679L18.2882 137.793L16.9718 141.571L22.3839 143.457L23.7002 139.679ZM19.182 140.943L44.11 110.275L41.006 107.753L16.078 138.421L19.182 140.943ZM42.558 111.014H62.074V107.014H42.558V111.014ZM60.571 107.695L19.325 154.681L22.331 157.319L63.577 110.333L60.571 107.695ZM20.828 154H4.264V158H20.828V154ZM44.0481 155.007L31.0101 132.211L27.5379 134.197L40.5759 156.993L44.0481 155.007ZM30.3856 134.867L44.7356 125.273L42.5124 121.947L28.1624 131.541L30.3856 134.867ZM41.9148 124.649L61.5948 157.039L65.0132 154.961L45.3332 122.571L41.9148 124.649ZM63.304 154H42.312V158H63.304V154ZM73.6949 169.53L74.3164 167.629L74.305 167.625L74.2936 167.622L73.6949 169.53ZM65.4129 165.266H63.4129V166.29L64.2443 166.889L65.4129 165.266ZM65.4129 152.474L66.491 150.789L63.4129 148.819V152.474H65.4129ZM73.0389 156.246L73.6581 154.344L73.6581 154.344L73.0389 156.246ZM86.7329 155.918L85.7524 154.175L85.7405 154.182L85.7287 154.188L86.7329 155.918ZM91.0789 150.424L92.9172 151.212L92.9235 151.197L92.9295 151.183L91.0789 150.424ZM108.053 109.014V107.014H106.711L106.202 108.255L108.053 109.014ZM127.979 109.014L129.792 109.859L131.118 107.014H127.979V109.014ZM106.003 156.164L104.19 155.319L104.188 155.324L106.003 156.164ZM99.7709 164.938L98.4422 163.443L98.4339 163.451L98.4256 163.458L99.7709 164.938ZM91.9809 169.53L91.3823 167.622L91.3653 167.627L91.3485 167.633L91.9809 169.53ZM82.4689 150.67L80.6551 151.513L81.1928 152.67H82.4689V150.67ZM63.1169 109.014V107.014H59.9825L61.3031 109.857L63.1169 109.014ZM83.7809 109.014L85.6369 108.269L85.133 107.014H83.7809V109.014ZM100.509 150.67V152.67H103.467L102.365 149.925L100.509 150.67ZM83.5349 168.924C79.9796 168.924 76.9166 168.479 74.3164 167.629L73.0735 171.431C76.1586 172.44 79.6556 172.924 83.5349 172.924V168.924ZM74.2936 167.622C71.7381 166.82 69.1674 165.505 66.5815 163.643L64.2443 166.889C67.1252 168.963 70.0758 170.491 73.0963 171.438L74.2936 167.622ZM67.4129 165.266V152.474H63.4129V165.266H67.4129ZM64.3348 154.159C67.1695 155.973 69.8663 157.316 72.4198 158.148L73.6581 154.344C71.5103 153.645 69.1231 152.474 66.491 150.789L64.3348 154.159ZM72.4198 158.148C74.9941 158.986 77.7752 159.394 80.7469 159.394V155.394C78.1427 155.394 75.7851 155.037 73.6581 154.344L72.4198 158.148ZM80.7469 159.394C83.3346 159.394 85.6887 158.837 87.7372 157.648L85.7287 154.188C84.3879 154.967 82.7513 155.394 80.7469 155.394V159.394ZM87.7135 157.661C89.9849 156.383 91.6716 154.118 92.9172 151.212L89.2406 149.636C88.1903 152.087 86.9797 153.485 85.7524 154.175L87.7135 157.661ZM92.9295 151.183L109.904 109.773L106.202 108.255L89.2284 149.665L92.9295 151.183ZM108.053 111.014H127.979V107.014H108.053V111.014ZM126.166 108.169L104.19 155.319L107.816 157.009L129.792 109.859L126.166 108.169ZM104.188 155.324C102.583 158.792 100.656 161.475 98.4422 163.443L101.1 166.433C103.806 164.027 106.033 160.861 107.818 157.004L104.188 155.324ZM98.4256 163.458C96.2108 165.472 93.8635 166.843 91.3823 167.622L92.5796 171.438C95.6744 170.467 98.5205 168.778 101.116 166.418L98.4256 163.458ZM91.3485 167.633C88.7574 168.496 86.1554 168.924 83.5349 168.924V172.924C86.5998 172.924 89.6284 172.422 92.6134 171.427L91.3485 167.633ZM84.2828 149.827L64.9308 108.171L61.3031 109.857L80.6551 151.513L84.2828 149.827ZM63.1169 111.014H83.7809V107.014H63.1169V111.014ZM81.925 109.759L98.653 151.415L102.365 149.925L85.6369 108.269L81.925 109.759ZM100.509 148.67H82.4689V152.67H100.509V148.67ZM132.069 109.014V107.014H130.069V109.014H132.069ZM150.847 109.014H152.847V107.014H150.847V109.014ZM150.847 121.56L152.737 122.214L152.847 121.896V121.56H150.847ZM150.109 123.692L148.219 123.038L148.109 123.356V123.692H150.109ZM150.109 138.042H148.109V138.217L148.139 138.39L150.109 138.042ZM150.847 142.224H152.847V142.049L152.816 141.876L150.847 142.224ZM150.847 169.53V171.53H152.847V169.53H150.847ZM132.069 169.53H130.069V171.53H132.069V169.53ZM145.107 132.548L143.123 132.292L143.088 132.562L143.127 132.831L145.107 132.548ZM149.371 119.346L147.651 118.324L147.647 118.332L149.371 119.346ZM157.981 110.654L158.982 112.385L158.982 112.385L157.981 110.654ZM181.925 110.736L180.892 112.449L180.908 112.458L180.924 112.467L181.925 110.736ZM190.043 119.428L188.259 120.333L188.267 120.348L188.275 120.364L190.043 119.428ZM190.043 145.586L188.269 144.661L188.264 144.671L190.043 145.586ZM181.925 154.278L180.904 152.558L180.892 152.565L181.925 154.278ZM157.899 154.36L156.866 156.073L156.882 156.082L156.898 156.091L157.899 154.36ZM149.453 145.668L147.722 146.671L147.729 146.682L149.453 145.668ZM172.741 127.054L170.952 127.948L170.97 127.985L170.99 128.02L172.741 127.054ZM169.215 123.2L168.177 124.91L168.177 124.91L169.215 123.2ZM158.145 123.2L159.039 124.989L159.039 124.989L158.145 123.2ZM153.225 127.054L151.713 125.744L151.71 125.748L153.225 127.054ZM150.191 132.548L148.284 131.946L148.093 132.548L148.284 133.15L150.191 132.548ZM153.225 138.042L151.71 139.348L151.723 139.363L151.736 139.377L153.225 138.042ZM158.145 141.814L157.25 143.603L157.25 143.603L158.145 141.814ZM169.215 141.814L168.177 140.104L168.177 140.104L169.215 141.814ZM172.741 138.042L170.99 137.076L170.977 137.099L170.964 137.123L172.741 138.042ZM132.069 111.014H150.847V107.014H132.069V111.014ZM148.847 109.014V121.56H152.847V109.014H148.847ZM148.957 120.906L148.219 123.038L151.999 124.346L152.737 122.214L148.957 120.906ZM148.109 123.692V138.042H152.109V123.692H148.109ZM148.139 138.39L148.877 142.572L152.816 141.876L152.078 137.694L148.139 138.39ZM148.847 142.224V169.53H152.847V142.224H148.847ZM150.847 167.53H132.069V171.53H150.847V167.53ZM134.069 169.53V109.014H130.069V169.53H134.069ZM147.09 132.804C147.718 127.938 149.068 123.805 151.095 120.36L147.647 118.332C145.3 122.321 143.807 126.99 143.123 132.292L147.09 132.804ZM151.09 120.368C153.172 116.864 155.804 114.222 158.982 112.385L156.98 108.923C153.16 111.131 150.052 114.284 147.651 118.324L151.09 120.368ZM158.982 112.385C162.147 110.555 165.76 109.62 169.871 109.62V105.62C165.126 105.62 160.811 106.707 156.98 108.923L158.982 112.385ZM169.871 109.62C174.151 109.62 177.802 110.585 180.892 112.449L182.958 109.023C179.16 106.733 174.774 105.62 169.871 105.62V109.62ZM180.924 112.467C184.071 114.287 186.512 116.889 188.259 120.333L191.826 118.523C189.746 114.423 186.776 111.23 182.926 109.005L180.924 112.467ZM188.275 120.364C190.063 123.741 190.995 127.781 190.995 132.548H194.995C194.995 127.256 193.958 122.549 191.81 118.492L188.275 120.364ZM190.995 132.548C190.995 137.196 190.067 141.216 188.27 144.661L191.816 146.511C193.955 142.412 194.995 137.74 194.995 132.548H190.995ZM188.264 144.671C186.518 148.064 184.07 150.678 180.904 152.558L182.946 155.998C186.777 153.723 189.741 150.543 191.821 146.501L188.264 144.671ZM180.892 152.565C177.802 154.429 174.151 155.394 169.871 155.394V159.394C174.774 159.394 179.16 158.281 182.958 155.991L180.892 152.565ZM169.871 155.394C165.7 155.394 162.062 154.457 158.9 152.629L156.898 156.091C160.733 158.309 165.076 159.394 169.871 159.394V155.394ZM158.932 152.647C155.793 150.754 153.207 148.106 151.177 144.654L147.729 146.682C150.072 150.665 153.116 153.811 156.866 156.073L158.932 152.647ZM151.183 144.665C149.143 141.146 147.766 137.024 147.087 132.265L143.127 132.831C143.868 138.021 145.389 142.646 147.722 146.671L151.183 144.665ZM176.053 132.548C176.053 130.183 175.552 128.01 174.492 126.088L170.99 128.02C171.678 129.268 172.053 130.758 172.053 132.548H176.053ZM174.53 126.16C173.545 124.191 172.113 122.62 170.253 121.49L168.177 124.91C169.377 125.638 170.296 126.637 170.952 127.948L174.53 126.16ZM170.253 121.49C168.379 120.353 166.263 119.806 163.967 119.806V123.806C165.606 123.806 166.989 124.189 168.177 124.91L170.253 121.49ZM163.967 119.806C161.625 119.806 159.379 120.347 157.25 121.411L159.039 124.989C160.628 124.194 162.263 123.806 163.967 123.806V119.806ZM157.25 121.411C155.146 122.463 153.299 123.914 151.713 125.744L154.736 128.364C155.993 126.914 157.426 125.795 159.039 124.989L157.25 121.411ZM151.71 125.748C150.159 127.547 149.018 129.62 148.284 131.946L152.098 133.15C152.676 131.321 153.557 129.731 154.74 128.36L151.71 125.748ZM148.284 133.15C149.018 135.476 150.159 137.549 151.71 139.348L154.74 136.736C153.557 135.365 152.676 133.775 152.098 131.946L148.284 133.15ZM151.736 139.377C153.321 141.145 155.161 142.558 157.25 143.603L159.039 140.025C157.411 139.211 155.971 138.11 154.714 136.707L151.736 139.377ZM157.25 143.603C159.379 144.667 161.625 145.208 163.967 145.208V141.208C162.263 141.208 160.628 140.82 159.039 140.025L157.25 143.603ZM163.967 145.208C166.263 145.208 168.379 144.661 170.253 143.524L168.177 140.104C166.989 140.825 165.606 141.208 163.967 141.208V145.208ZM170.253 143.524C172.096 142.404 173.528 140.874 174.517 138.961L170.964 137.123C170.314 138.381 169.394 139.365 168.177 140.104L170.253 143.524ZM174.492 139.008C175.552 137.086 176.053 134.913 176.053 132.548H172.053C172.053 134.338 171.678 135.828 170.99 137.076L174.492 139.008ZM257.055 135.746L259.044 135.948L259.267 133.746H257.055V135.746ZM252.381 147.144L253.919 148.422L253.924 148.415L253.93 148.409L252.381 147.144ZM241.885 154.688L241.114 152.843L241.105 152.846L241.885 154.688ZM211.873 154.278L211.032 156.093L211.04 156.096L211.873 154.278ZM201.377 145.504L203.041 144.395L203.041 144.395L201.377 145.504ZM201.377 119.51L199.72 118.389L199.72 118.389L201.377 119.51ZM211.873 110.818L212.714 112.633L212.723 112.628L211.873 110.818ZM241.885 110.326L241.105 112.168L241.114 112.171L241.885 110.326ZM252.381 117.87L253.919 116.592L253.919 116.592L252.381 117.87ZM257.055 129.268V131.268H259.265L259.045 129.069L257.055 129.268ZM238.441 129.268L236.484 129.684L236.821 131.268H238.441V129.268ZM234.669 123.446L233.528 125.089L233.543 125.1L233.559 125.11L234.669 123.446ZM221.713 122.708L222.607 124.497L222.631 124.485L222.654 124.473L221.713 122.708ZM217.941 126.48L219.705 127.421L219.712 127.409L219.718 127.397L217.941 126.48ZM217.941 138.616L216.176 139.557L217.941 138.616ZM221.713 142.388L220.771 144.153L220.795 144.165L220.818 144.177L221.713 142.388ZM234.669 141.486L235.84 143.107L235.854 143.097L235.869 143.086L234.669 141.486ZM238.441 135.746V133.746H236.852L236.493 135.293L238.441 135.746ZM255.065 135.544C254.666 139.483 253.256 142.911 250.832 145.879L253.93 148.409C256.863 144.817 258.569 140.646 259.044 135.948L255.065 135.544ZM250.842 145.866C248.393 148.815 245.17 151.148 241.114 152.843L242.656 156.533C247.237 154.62 251.011 151.923 253.919 148.422L250.842 145.866ZM241.105 152.846C237.124 154.531 232.584 155.394 227.453 155.394V159.394C233.036 159.394 238.118 158.453 242.664 156.53L241.105 152.846ZM227.453 155.394C221.842 155.394 216.94 154.398 212.705 152.46L211.04 156.096C215.88 158.312 221.365 159.394 227.453 159.394V155.394ZM212.714 152.463C208.534 150.526 205.333 147.833 203.041 144.395L199.713 146.613C202.45 150.719 206.246 153.875 211.032 156.093L212.714 152.463ZM203.041 144.395C200.761 140.975 199.605 137.049 199.605 132.548H195.605C195.605 137.778 196.963 142.489 199.713 146.613L203.041 144.395ZM199.605 132.548C199.605 127.928 200.766 123.982 203.033 120.631L199.72 118.389C196.958 122.473 195.605 127.219 195.605 132.548H199.605ZM203.033 120.631C205.324 117.244 208.526 114.573 212.714 112.633L211.032 109.003C206.253 111.218 202.459 114.341 199.72 118.389L203.033 120.631ZM212.723 112.628C216.954 110.64 221.849 109.62 227.453 109.62V105.62C221.358 105.62 215.866 106.732 211.022 109.008L212.723 112.628ZM227.453 109.62C232.584 109.62 237.124 110.483 241.105 112.168L242.664 108.484C238.118 106.561 233.036 105.62 227.453 105.62V109.62ZM241.114 112.171C245.17 113.866 248.393 116.199 250.842 119.148L253.919 116.592C251.011 113.091 247.237 110.394 242.656 108.481L241.114 112.171ZM250.842 119.148C253.253 122.051 254.665 125.47 255.065 129.467L259.045 129.069C258.57 124.319 256.865 120.139 253.919 116.592L250.842 119.148ZM257.055 127.268H238.441V131.268H257.055V127.268ZM240.397 128.852C239.755 125.834 238.23 123.417 235.778 121.782L233.559 125.11C235.043 126.099 236.033 127.564 236.484 129.684L240.397 128.852ZM235.809 121.803C233.448 120.163 230.625 119.396 227.453 119.396V123.396C229.965 123.396 231.953 123.995 233.528 125.089L235.809 121.803ZM227.453 119.396C224.996 119.396 222.748 119.889 220.771 120.943L222.654 124.473C223.957 123.778 225.536 123.396 227.453 123.396V119.396ZM220.818 120.919C218.783 121.937 217.224 123.507 216.163 125.563L219.718 127.397C220.406 126.063 221.362 125.119 222.607 124.497L220.818 120.919ZM216.176 125.539C215.108 127.541 214.629 129.908 214.629 132.548H218.629C218.629 130.377 219.024 128.699 219.705 127.421L216.176 125.539ZM214.629 132.548C214.629 135.188 215.108 137.555 216.176 139.557L219.705 137.675C219.024 136.397 218.629 134.719 218.629 132.548H214.629ZM216.176 139.557C217.237 141.547 218.781 143.091 220.771 144.153L222.654 140.623C221.364 139.935 220.393 138.965 219.705 137.675L216.176 139.557ZM220.818 144.177C222.784 145.16 225.015 145.618 227.453 145.618V141.618C225.517 141.618 223.921 141.256 222.607 140.599L220.818 144.177ZM227.453 145.618C230.642 145.618 233.475 144.815 235.84 143.107L233.498 139.865C231.926 141 229.949 141.618 227.453 141.618V145.618ZM235.869 143.086C238.205 141.334 239.733 139.018 240.389 136.199L236.493 135.293C236.055 137.176 235.068 138.686 233.469 139.886L235.869 143.086ZM238.441 137.746H257.055V133.746H238.441V137.746ZM275.785 154.278L276.617 152.46L276.617 152.46L275.785 154.278ZM265.043 145.504L263.401 146.646L265.043 145.504ZM264.879 119.346L263.233 118.209L263.228 118.217L263.222 118.225L264.879 119.346ZM275.293 110.736L276.132 112.551L276.142 112.547L275.293 110.736ZM304.813 111.228L303.79 112.947L303.799 112.952L303.808 112.957L304.813 111.228ZM314.079 121.314L312.281 122.19L312.285 122.199L312.29 122.208L314.079 121.314ZM317.359 136.73V138.73H319.359V136.73H317.359ZM276.441 136.73H274.441V138.73H276.441V136.73ZM276.441 127.464V125.464H274.441V127.464H276.441ZM306.535 127.464L307.521 129.204L314.115 125.464H306.535V127.464ZM301.041 130.58L299.054 130.811L299.402 133.808L302.027 132.32L301.041 130.58ZM299.237 124.758L297.485 125.724L297.505 125.76L297.527 125.796L299.237 124.758ZM295.629 121.15L294.657 122.898L294.671 122.906L294.684 122.913L295.629 121.15ZM284.395 121.396L283.366 119.681L283.353 119.689L283.34 119.697L284.395 121.396ZM280.705 125.496L278.916 124.602L278.904 124.624L278.894 124.647L280.705 125.496ZM281.279 138.534L279.585 139.598L279.596 139.615L279.607 139.632L281.279 138.534ZM286.937 142.962L286.173 144.811L286.19 144.818L286.208 144.824L286.937 142.962ZM306.699 143.044L306.178 141.113L306.17 141.115L306.699 143.044ZM316.129 138.944H318.129V135.306L315.057 137.255L316.129 138.944ZM316.129 149.932L317.299 151.554L318.129 150.955V149.932H316.129ZM304.567 155.508L305.119 157.43L305.13 157.427L305.141 157.424L304.567 155.508ZM291.283 155.394C285.729 155.394 280.854 154.399 276.617 152.46L274.952 156.096C279.789 158.311 285.247 159.394 291.283 159.394V155.394ZM276.617 152.46C272.376 150.518 269.087 147.815 266.684 144.362L263.401 146.646C266.247 150.737 270.118 153.883 274.952 156.096L276.617 152.46ZM266.684 144.362C264.316 140.957 263.107 136.963 263.107 132.302H259.107C259.107 137.699 260.521 142.507 263.401 146.646L266.684 144.362ZM263.107 132.302C263.107 127.741 264.266 123.821 266.535 120.467L263.222 118.225C260.462 122.305 259.107 127.023 259.107 132.302H263.107ZM266.524 120.483C268.876 117.079 272.061 114.434 276.132 112.551L274.453 108.921C269.778 111.083 266.019 114.178 263.233 118.209L266.524 120.483ZM276.142 112.547C280.274 110.608 284.927 109.62 290.135 109.62V105.62C284.409 105.62 279.167 106.709 274.443 108.925L276.142 112.547ZM290.135 109.62C295.594 109.62 300.116 110.762 303.79 112.947L305.835 109.509C301.419 106.883 296.155 105.62 290.135 105.62V109.62ZM303.808 112.957C307.496 115.1 310.315 118.159 312.281 122.19L315.876 120.438C313.578 115.723 310.22 112.057 305.817 109.499L303.808 112.957ZM312.29 122.208C314.312 126.252 315.359 131.073 315.359 136.73H319.359C319.359 130.579 318.219 125.122 315.867 120.42L312.29 122.208ZM317.359 134.73H276.441V138.73H317.359V134.73ZM278.441 136.73V127.464H274.441V136.73H278.441ZM276.441 129.464H306.535V125.464H276.441V129.464ZM305.548 125.724L300.054 128.84L302.027 132.32L307.521 129.204L305.548 125.724ZM303.027 130.349C302.731 127.8 302.065 125.562 300.946 123.72L297.527 125.796C298.267 127.015 298.804 128.658 299.054 130.811L303.027 130.349ZM300.988 123.792C299.935 121.884 298.459 120.397 296.573 119.387L294.684 122.913C295.86 123.543 296.789 124.461 297.485 125.724L300.988 123.792ZM296.6 119.402C294.766 118.383 292.638 117.92 290.299 117.92V121.92C292.114 121.92 293.539 122.277 294.657 122.898L296.6 119.402ZM290.299 117.92C287.713 117.92 285.374 118.476 283.366 119.681L285.424 123.111C286.696 122.348 288.292 121.92 290.299 121.92V117.92ZM283.34 119.697C281.425 120.886 279.948 122.538 278.916 124.602L282.493 126.39C283.211 124.955 284.194 123.874 285.449 123.095L283.34 119.697ZM278.894 124.647C277.931 126.701 277.475 128.994 277.475 131.482H281.475C281.475 129.487 281.838 127.789 282.515 126.345L278.894 124.647ZM277.475 131.482C277.475 134.559 278.14 137.299 279.585 139.598L282.972 137.47C282.012 135.942 281.475 133.981 281.475 131.482H277.475ZM279.607 139.632C281.124 141.94 283.359 143.648 286.173 144.811L287.7 141.113C285.485 140.199 283.948 138.954 282.95 137.436L279.607 139.632ZM286.208 144.824C289.024 145.927 292.405 146.438 296.285 146.438V142.438C292.729 142.438 289.878 141.965 287.665 141.1L286.208 144.824ZM296.285 146.438C300.015 146.438 303.664 145.95 307.227 144.973L306.17 141.115C302.955 141.997 299.661 142.438 296.285 142.438V146.438ZM307.22 144.975C310.847 143.996 314.177 142.551 317.2 140.633L315.057 137.255C312.394 138.945 309.438 140.233 306.178 141.113L307.22 144.975ZM314.129 138.944V149.932H318.129V138.944H314.129ZM314.959 148.31C311.823 150.571 308.175 152.337 303.992 153.592L305.141 157.424C309.705 156.055 313.764 154.103 317.299 151.554L314.959 148.31ZM304.014 153.586C299.818 154.792 295.575 155.394 291.283 155.394V159.394C295.955 159.394 300.569 158.738 305.119 157.43L304.014 153.586ZM322.622 168.464L320.816 167.604L319.455 170.464H322.622V168.464ZM331.56 149.686L333.537 149.384L332.553 142.947L329.754 148.826L331.56 149.686ZM332.626 156.656V158.656H334.955L334.603 156.354L332.626 156.656ZM327.378 155.262L326.367 156.987L326.367 156.987L327.378 155.262ZM323.606 151.572L321.855 152.538L321.875 152.574L321.896 152.61L323.606 151.572ZM323.606 141.24L321.896 140.202L321.883 140.225L321.869 140.248L323.606 141.24ZM327.378 137.632L328.344 139.383L328.367 139.371L328.389 139.357L327.378 137.632ZM337.874 137.632L336.836 139.342L336.849 139.35L336.863 139.357L337.874 137.632ZM341.564 141.404L339.813 142.37L339.833 142.406L339.854 142.442L341.564 141.404ZM341.564 152.392L339.738 151.575L339.733 151.587L339.728 151.598L341.564 152.392ZM337.136 160.1L338.793 161.221L338.8 161.209L337.136 160.1ZM331.478 168.464V170.464H332.54L333.135 169.585L331.478 168.464ZM324.428 169.324L333.366 150.546L329.754 148.826L320.816 167.604L324.428 169.324ZM329.583 149.988L330.649 156.958L334.603 156.354L333.537 149.384L329.583 149.988ZM332.626 154.656C331.053 154.656 329.655 154.279 328.389 153.537L326.367 156.987C328.272 158.104 330.372 158.656 332.626 158.656V154.656ZM328.389 153.537C327.082 152.77 326.068 151.774 325.316 150.534L321.896 152.61C323.002 154.432 324.503 155.895 326.367 156.987L328.389 153.537ZM325.357 150.606C324.65 149.324 324.294 147.936 324.294 146.406H320.294C320.294 148.593 320.812 150.649 321.855 152.538L325.357 150.606ZM324.294 146.406C324.294 144.81 324.655 143.435 325.342 142.232L321.869 140.248C320.808 142.106 320.294 144.175 320.294 146.406H324.294ZM325.316 142.278C326.061 141.049 327.061 140.091 328.344 139.383L326.412 135.881C324.524 136.922 323.009 138.369 321.896 140.202L325.316 142.278ZM328.389 139.357C329.655 138.615 331.053 138.238 332.626 138.238V134.238C330.372 134.238 328.272 134.79 326.367 135.907L328.389 139.357ZM332.626 138.238C334.265 138.238 335.649 138.621 336.836 139.342L338.912 135.922C337.038 134.785 334.923 134.238 332.626 134.238V138.238ZM336.863 139.357C338.142 140.108 339.115 141.105 339.813 142.37L343.315 140.438C342.264 138.533 340.776 137.015 338.885 135.907L336.863 139.357ZM339.854 142.442C340.575 143.629 340.958 145.013 340.958 146.652H344.958C344.958 144.355 344.411 142.24 343.274 140.366L339.854 142.442ZM340.958 146.652C340.958 148.049 340.586 149.681 339.738 151.575L343.39 153.209C344.401 150.948 344.958 148.754 344.958 146.652H340.958ZM339.728 151.598C338.923 153.461 337.522 155.916 335.472 158.991L338.8 161.209C340.905 158.052 342.456 155.369 343.4 153.186L339.728 151.598ZM335.479 158.979L329.821 167.343L333.135 169.585L338.793 161.221L335.479 158.979ZM331.478 166.464H322.622V170.464H331.478V166.464ZM17.794 192.46V190.46H15.794V192.46H17.794ZM57.564 194.92L56.6929 196.72L56.7102 196.729L56.7277 196.737L57.564 194.92ZM65.108 201.644L63.3535 202.604L63.3643 202.624L63.3756 202.643L65.108 201.644ZM64.862 221.98L66.5507 223.052L66.5553 223.044L66.5598 223.037L64.862 221.98ZM56.99 228.622L57.8263 230.439L57.8263 230.439L56.99 228.622ZM3.608 231L1.62935 230.709L1.29185 233H3.608V231ZM8.282 199.266L10.2607 199.557L10.305 199.256L10.2578 198.956L8.282 199.266ZM3.608 169.5V167.5H1.26944L1.63221 169.81L3.608 169.5ZM62.976 169.5H64.976V167.5H62.976V169.5ZM62.976 183.686V185.686H64.976V183.686H62.976ZM15.334 183.686L13.8083 182.393L11.017 185.686H15.334V183.686ZM22.632 175.076L24.6073 174.763L23.9245 170.458L21.1063 173.783L22.632 175.076ZM26.404 198.856L28.3807 199.161L28.4283 198.852L28.3793 198.543L26.404 198.856ZM22.222 225.998L20.6892 227.283L23.5261 230.668L24.1987 226.303L22.222 225.998ZM15.006 217.388V215.388H10.7203L13.4732 218.673L15.006 217.388ZM46.822 215.83L48.1292 217.344L48.1485 217.327L48.1673 217.31L46.822 215.83ZM46.74 206.81L45.3947 208.29L45.4297 208.322L45.4662 208.352L46.74 206.81ZM17.794 205.17H15.794V207.17H17.794V205.17ZM17.794 194.46H44.444V190.46H17.794V194.46ZM44.444 194.46C49.6185 194.46 53.665 195.255 56.6929 196.72L58.4351 193.12C54.6843 191.305 49.9842 190.46 44.444 190.46V194.46ZM56.7277 196.737C59.8417 198.17 62.0039 200.138 63.3535 202.604L66.8625 200.684C65.0414 197.356 62.1743 194.84 58.4003 193.103L56.7277 196.737ZM63.3756 202.643C64.8083 205.127 65.568 208.157 65.568 211.812H69.568C69.568 207.595 68.6877 203.847 66.8404 200.645L63.3756 202.643ZM65.568 211.812C65.568 215.372 64.7447 218.385 63.1642 220.923L66.5598 223.037C68.5873 219.781 69.568 216.014 69.568 211.812H65.568ZM63.1733 220.908C61.6011 223.386 59.2933 225.36 56.1537 226.805L57.8263 230.439C61.5747 228.713 64.5149 226.259 66.5507 223.052L63.1733 220.908ZM56.1537 226.805C53.0378 228.24 49.1578 229 44.444 229V233C49.5702 233 54.0542 232.175 57.8263 230.439L56.1537 226.805ZM44.444 229H3.608V233H44.444V229ZM5.58665 231.291L10.2607 199.557L6.30335 198.975L1.62935 230.709L5.58665 231.291ZM10.2578 198.956L5.58379 169.19L1.63221 169.81L6.30621 199.576L10.2578 198.956ZM3.608 171.5H62.976V167.5H3.608V171.5ZM60.976 169.5V183.686H64.976V169.5H60.976ZM62.976 181.686H15.334V185.686H62.976V181.686ZM16.8597 184.979L24.1577 176.369L21.1063 173.783L13.8083 182.393L16.8597 184.979ZM20.6567 175.389L24.4287 199.169L28.3793 198.543L24.6073 174.763L20.6567 175.389ZM24.4273 198.551L20.2453 225.693L24.1987 226.303L28.3807 199.161L24.4273 198.551ZM23.7548 224.713L16.5388 216.103L13.4732 218.673L20.6892 227.283L23.7548 224.713ZM15.006 219.388H41.82V215.388H15.006V219.388ZM41.82 219.388C44.2665 219.388 46.4551 218.789 48.1292 217.344L45.5148 214.316C44.7836 214.948 43.6375 215.388 41.82 215.388V219.388ZM48.1673 217.31C49.8736 215.759 50.626 213.641 50.626 211.238H46.626C46.626 212.771 46.1758 213.715 45.4767 214.35L48.1673 217.31ZM50.626 211.238C50.626 208.843 49.8129 206.754 48.0138 205.268L45.4662 208.352C46.1818 208.943 46.626 209.806 46.626 211.238H50.626ZM48.0853 205.33C46.4209 203.817 44.2519 203.17 41.82 203.17V207.17C43.5428 207.17 44.6538 207.616 45.3947 208.29L48.0853 205.33ZM41.82 203.17H17.794V207.17H41.82V203.17ZM19.794 205.17V192.46H15.794V205.17H19.794ZM78.5797 244.53L79.2012 242.629L79.1898 242.625L79.1784 242.622L78.5797 244.53ZM70.2977 240.266H68.2977V241.29L69.1291 241.889L70.2977 240.266ZM70.2977 227.474L71.3758 225.789L68.2977 223.819V227.474H70.2977ZM77.9237 231.246L78.5429 229.344L78.5429 229.344L77.9237 231.246ZM91.6177 230.918L90.6372 229.175L90.6253 229.182L90.6134 229.188L91.6177 230.918ZM95.9637 225.424L97.802 226.212L97.8082 226.197L97.8143 226.183L95.9637 225.424ZM112.938 184.014V182.014H111.596L111.087 183.255L112.938 184.014ZM132.864 184.014L134.676 184.859L136.002 182.014H132.864V184.014ZM110.888 231.164L109.075 230.319L109.073 230.324L110.888 231.164ZM104.656 239.938L103.327 238.443L103.319 238.451L103.31 238.458L104.656 239.938ZM96.8657 244.53L96.267 242.622L96.2501 242.627L96.2332 242.633L96.8657 244.53ZM87.3537 225.67L85.5399 226.513L86.0776 227.67H87.3537V225.67ZM68.0017 184.014V182.014H64.8673L66.1879 184.857L68.0017 184.014ZM88.6657 184.014L90.5216 183.269L90.0178 182.014H88.6657V184.014ZM105.394 225.67V227.67H108.352L107.25 224.925L105.394 225.67ZM88.4197 243.924C84.8643 243.924 81.8013 243.479 79.2012 242.629L77.9582 246.431C81.0434 247.44 84.5404 247.924 88.4197 247.924V243.924ZM79.1784 242.622C76.6228 241.82 74.0521 240.505 71.4663 238.643L69.1291 241.889C72.01 243.963 74.9606 245.491 77.981 246.438L79.1784 242.622ZM72.2977 240.266V227.474H68.2977V240.266H72.2977ZM69.2196 229.159C72.0542 230.973 74.751 232.316 77.3045 233.148L78.5429 229.344C76.395 228.645 74.0078 227.474 71.3758 225.789L69.2196 229.159ZM77.3045 233.148C79.8789 233.986 82.6599 234.394 85.6317 234.394V230.394C83.0275 230.394 80.6699 230.037 78.5429 229.344L77.3045 233.148ZM85.6317 234.394C88.2194 234.394 90.5734 233.837 92.622 232.648L90.6134 229.188C89.2726 229.967 87.636 230.394 85.6317 230.394V234.394ZM92.5982 232.661C94.8696 231.383 96.5564 229.118 97.802 226.212L94.1254 224.636C93.0751 227.087 91.8644 228.485 90.6372 229.175L92.5982 232.661ZM97.8143 226.183L114.788 184.773L111.087 183.255L94.1131 224.665L97.8143 226.183ZM112.938 186.014H132.864V182.014H112.938V186.014ZM131.051 183.169L109.075 230.319L112.7 232.009L134.676 184.859L131.051 183.169ZM109.073 230.324C107.468 233.792 105.541 236.475 103.327 238.443L105.984 241.433C108.691 239.027 110.918 235.861 112.703 232.004L109.073 230.324ZM103.31 238.458C101.096 240.472 98.7482 241.843 96.267 242.622L97.4644 246.438C100.559 245.467 103.405 243.778 106.001 241.418L103.31 238.458ZM96.2332 242.633C93.6422 243.496 91.0402 243.924 88.4197 243.924V247.924C91.4846 247.924 94.5132 247.422 97.4982 246.427L96.2332 242.633ZM89.1675 224.827L69.8155 183.171L66.1879 184.857L85.5399 226.513L89.1675 224.827ZM68.0017 186.014H88.6657V182.014H68.0017V186.014ZM86.8098 184.759L103.538 226.415L107.25 224.925L90.5216 183.269L86.8098 184.759ZM105.394 223.67H87.3537V227.67H105.394V223.67ZM200.949 217.06H202.949V215.06H200.949V217.06ZM200.949 242.07V244.07H202.949V242.07H200.949ZM184.795 242.07H182.795V244.07H184.795V242.07ZM184.795 231H186.795V229H184.795V231ZM145.681 231V229H143.681V231H145.681ZM145.681 242.07V244.07H147.681V242.07H145.681ZM129.527 242.07H127.527V244.07H129.527V242.07ZM129.527 217.06V215.06H127.527V217.06H129.527ZM144.369 217.06L144.578 215.071L144.474 215.06H144.369V217.06ZM147.485 217.388L147.275 219.377L147.38 219.388H147.485V217.388ZM181.515 217.388V219.388H181.629L181.742 219.375L181.515 217.388ZM184.385 217.06V215.06H184.271L184.158 215.073L184.385 217.06ZM139.121 184.014V182.014H136.897L137.132 184.226L139.121 184.014ZM192.339 184.014H194.339V182.014H192.339V184.014ZM192.339 227.802V229.802H194.339V227.802H192.339ZM173.725 227.802H171.725V229.802H173.725V227.802ZM173.725 188.934L175.139 187.52L171.725 184.106V188.934H173.725ZM182.335 197.544V199.544H187.163L183.749 196.13L182.335 197.544ZM148.141 197.544L146.71 196.147L143.392 199.544H148.141V197.544ZM154.947 190.574L156.794 189.808L155.633 187.008L153.516 189.177L154.947 190.574ZM156.587 196.806L154.594 196.977L154.594 196.982L156.587 196.806ZM152.815 219.192L151.147 218.088L151.147 218.088L152.815 219.192ZM141.417 225.26L140.131 226.792L140.689 227.26H141.417V225.26ZM133.791 218.864L132.647 217.224L130.504 218.718L132.505 220.396L133.791 218.864ZM139.777 191.476L137.781 191.612L137.782 191.615L139.777 191.476ZM198.949 217.06V242.07H202.949V217.06H198.949ZM200.949 240.07H184.795V244.07H200.949V240.07ZM186.795 242.07V231H182.795V242.07H186.795ZM184.795 229H145.681V233H184.795V229ZM143.681 231V242.07H147.681V231H143.681ZM145.681 240.07H129.527V244.07H145.681V240.07ZM131.527 242.07V217.06H127.527V242.07H131.527ZM129.527 219.06H144.369V215.06H129.527V219.06ZM144.159 219.049L147.275 219.377L147.694 215.399L144.578 215.071L144.159 219.049ZM147.485 219.388H181.515V215.388H147.485V219.388ZM181.742 219.375L184.612 219.047L184.158 215.073L181.288 215.401L181.742 219.375ZM184.385 219.06H200.949V215.06H184.385V219.06ZM139.121 186.014H192.339V182.014H139.121V186.014ZM190.339 184.014V227.802H194.339V184.014H190.339ZM192.339 225.802H173.725V229.802H192.339V225.802ZM175.725 227.802V188.934H171.725V227.802H175.725ZM172.31 190.348L180.92 198.958L183.749 196.13L175.139 187.52L172.31 190.348ZM182.335 195.544H148.141V199.544H182.335V195.544ZM149.572 198.941L156.378 191.971L153.516 189.177L146.71 196.147L149.572 198.941ZM153.099 191.34C153.97 193.439 154.451 195.314 154.594 196.977L158.579 196.635C158.394 194.471 157.782 192.191 156.794 189.808L153.099 191.34ZM154.594 196.982C154.754 198.792 154.833 200.455 154.833 201.972H158.833C158.833 200.319 158.747 198.537 158.579 196.63L154.594 196.982ZM154.833 201.972C154.833 209.208 153.522 214.501 151.147 218.088L154.482 220.296C157.465 215.792 158.833 209.605 158.833 201.972H154.833ZM151.147 218.088C148.845 221.564 145.677 223.26 141.417 223.26V227.26C146.996 227.26 151.427 224.91 154.482 220.296L151.147 218.088ZM142.702 223.728L135.076 217.332L132.505 220.396L140.131 226.792L142.702 223.728ZM134.935 220.504C137.509 218.709 139.264 215.8 140.38 212.102C141.496 208.402 142.023 203.746 142.023 198.2H138.023C138.023 203.533 137.511 207.76 136.55 210.948C135.588 214.138 134.227 216.121 132.647 217.224L134.935 220.504ZM142.023 198.2C142.023 196.017 141.939 193.729 141.772 191.337L137.782 191.615C137.943 193.924 138.023 196.119 138.023 198.2H142.023ZM141.772 191.34C141.606 188.908 141.385 186.395 141.109 183.802L137.132 184.226C137.403 186.772 137.619 189.234 137.781 191.612L141.772 191.34ZM207.342 231H205.342V233H207.342V231ZM207.342 184.014V182.014H205.342V184.014H207.342ZM226.038 184.014H228.038V182.014H226.038V184.014ZM226.038 226.49L224.364 227.584L228.038 233.203V226.49H226.038ZM220.462 217.962V215.962H216.765L218.788 219.056L220.462 217.962ZM240.06 216.65L238.731 215.155L238.71 215.174L238.689 215.194L240.06 216.65ZM240.06 209.27L238.689 210.726L238.71 210.746L238.731 210.765L240.06 209.27ZM220.216 207.958H218.216V209.958H220.216V207.958ZM220.216 195.494V193.494H218.216V195.494H220.216ZM250.31 197.708L251.154 195.895L251.154 195.895L250.31 197.708ZM257.69 203.94L256.016 205.034L256.021 205.042L256.026 205.049L257.69 203.94ZM257.69 222.636L259.354 223.745L259.359 223.738L259.365 223.73L257.69 222.636ZM209.342 231V184.014H205.342V231H209.342ZM207.342 186.014H226.038V182.014H207.342V186.014ZM224.038 184.014V226.49H228.038V184.014H224.038ZM227.712 225.396L222.136 216.868L218.788 219.056L224.364 227.584L227.712 225.396ZM220.462 219.962H235.96V215.962H220.462V219.962ZM235.96 219.962C238.062 219.962 240.001 219.452 241.431 218.106L238.689 215.194C238.261 215.597 237.466 215.962 235.96 215.962V219.962ZM241.389 218.145C242.886 216.814 243.536 214.989 243.536 212.96H239.536C239.536 214.101 239.202 214.737 238.731 215.155L241.389 218.145ZM243.536 212.96C243.536 210.93 242.886 209.106 241.389 207.775L238.731 210.765C239.202 211.183 239.536 211.819 239.536 212.96H243.536ZM241.431 207.814C240.001 206.468 238.062 205.958 235.96 205.958V209.958C237.466 209.958 238.261 210.323 238.689 210.726L241.431 207.814ZM235.96 205.958H220.216V209.958H235.96V205.958ZM222.216 207.958V195.494H218.216V207.958H222.216ZM220.216 197.494H239.158V193.494H220.216V197.494ZM239.158 197.494C243.193 197.494 246.611 198.192 249.466 199.521L251.154 195.895C247.668 194.272 243.651 193.494 239.158 193.494V197.494ZM249.466 199.521C252.331 200.855 254.489 202.696 256.016 205.034L259.365 202.846C257.392 199.826 254.631 197.513 251.154 195.895L249.466 199.521ZM256.026 205.049C257.526 207.299 258.314 210.016 258.314 213.288H262.314C262.314 209.344 261.353 205.829 259.354 202.831L256.026 205.049ZM258.314 213.288C258.314 216.497 257.529 219.224 256.016 221.542L259.365 223.73C261.349 220.69 262.314 217.185 262.314 213.288H258.314ZM256.026 221.527C254.496 223.821 252.356 225.643 249.536 226.979L251.248 230.593C254.66 228.977 257.385 226.699 259.354 223.745L256.026 221.527ZM249.536 226.979C246.74 228.303 243.381 229 239.404 229V233C243.845 233 247.812 232.221 251.248 230.593L249.536 226.979ZM239.404 229H207.342V233H239.404V229ZM295.843 190.492V188.492H293.843V190.492H295.843ZM314.621 190.492H316.621V188.492H314.621V190.492ZM314.621 231V233H316.621V231H314.621ZM295.843 231H293.843V233H295.843V231ZM278.541 184.014V182.014H276.541V184.014H278.541ZM331.923 184.014H333.923V182.014H331.923V184.014ZM331.923 198.036V200.036H333.923V198.036H331.923ZM278.541 198.036H276.541V200.036H278.541V198.036ZM295.843 192.492H314.621V188.492H295.843V192.492ZM312.621 190.492V231H316.621V190.492H312.621ZM314.621 229H295.843V233H314.621V229ZM297.843 231V190.492H293.843V231H297.843ZM278.541 186.014H331.923V182.014H278.541V186.014ZM329.923 184.014V198.036H333.923V184.014H329.923ZM331.923 196.036H278.541V200.036H331.923V196.036ZM280.541 198.036V184.014H276.541V198.036H280.541ZM377.85 231L375.867 231.262L376.097 233H377.85V231ZM375.636 214.272L373.743 213.626L373.591 214.07L373.653 214.534L375.636 214.272ZM377.932 207.548L379.824 208.194L380.046 207.544L379.822 206.895L377.932 207.548ZM375.636 200.906L373.653 200.646L373.591 201.114L373.745 201.559L375.636 200.906ZM377.85 184.014V182.014H376.095L375.867 183.754L377.85 184.014ZM397.366 184.014L399.348 184.277L399.649 182.014H397.366V184.014ZM394.25 207.466L392.267 207.203L392.232 207.466L392.267 207.729L394.25 207.466ZM397.366 231V233H399.648L399.348 230.737L397.366 231ZM382.032 207.548L384.014 207.809L384.047 207.561L384.018 207.313L382.032 207.548ZM377.686 220.668L375.966 219.646L375.962 219.654L377.686 220.668ZM369.158 229.36L370.17 231.085L370.179 231.08L369.158 229.36ZM345.214 229.278L344.193 230.998L344.193 230.998L345.214 229.278ZM337.014 220.586L335.23 221.491L335.238 221.506L335.246 221.522L337.014 220.586ZM337.014 194.428L335.24 193.503L335.235 193.513L337.014 194.428ZM345.214 185.736L346.215 187.467L346.225 187.462L346.235 187.456L345.214 185.736ZM369.158 185.654L368.145 187.379L368.157 187.385L369.158 185.654ZM377.768 194.346L376.048 195.368L376.055 195.379L377.768 194.346ZM354.316 213.042L352.539 213.961L352.551 213.985L352.564 214.008L354.316 213.042ZM368.994 216.814L368.099 215.025L368.099 215.025L368.994 216.814ZM373.914 213.042L375.403 214.377L375.403 214.377L373.914 213.042ZM377.03 207.548L378.937 208.15L379.127 207.548L378.937 206.946L377.03 207.548ZM373.914 202.054L372.402 203.364L372.413 203.377L372.424 203.389L373.914 202.054ZM368.994 198.2L368.099 199.989L368.099 199.989L368.994 198.2ZM357.924 198.2L358.962 199.91L358.962 199.91L357.924 198.2ZM354.316 202.054L352.551 201.113L352.545 201.124L352.539 201.135L354.316 202.054ZM379.832 230.738L377.618 214.01L373.653 214.534L375.867 231.262L379.832 230.738ZM377.528 214.918L379.824 208.194L376.039 206.902L373.743 213.626L377.528 214.918ZM379.822 206.895L377.526 200.253L373.745 201.559L376.041 208.201L379.822 206.895ZM377.619 201.166L379.833 184.274L375.867 183.754L373.653 200.646L377.619 201.166ZM377.85 186.014H397.366V182.014H377.85V186.014ZM395.383 183.751L392.267 207.203L396.232 207.729L399.348 184.277L395.383 183.751ZM392.267 207.729L395.383 231.263L399.348 230.737L396.232 207.203L392.267 207.729ZM397.366 229H377.85V233H397.366V229ZM380.049 207.287C379.423 212.031 378.051 216.138 375.966 219.646L379.405 221.69C381.803 217.654 383.328 213.014 384.014 207.809L380.049 207.287ZM375.962 219.654C373.935 223.099 371.328 225.746 368.137 227.64L370.179 231.08C373.985 228.82 377.062 225.672 379.409 221.682L375.962 219.654ZM368.145 227.635C365.044 229.456 361.439 230.394 357.268 230.394V234.394C362.062 234.394 366.383 233.309 370.17 231.085L368.145 227.635ZM357.268 230.394C353.047 230.394 349.39 229.432 346.235 227.558L344.193 230.998C348.035 233.279 352.413 234.394 357.268 234.394V230.394ZM346.235 227.558C343.063 225.675 340.583 223.054 338.781 219.65L335.246 221.522C337.38 225.553 340.367 228.726 344.193 230.998L346.235 227.558ZM338.797 219.681C337.048 216.232 336.144 212.205 336.144 207.548H332.144C332.144 212.731 333.153 217.396 335.23 221.491L338.797 219.681ZM336.144 207.548C336.144 202.773 337.051 198.726 338.792 195.343L335.235 193.513C333.15 197.565 332.144 202.264 332.144 207.548H336.144ZM338.787 195.353C340.589 191.899 343.062 189.29 346.215 187.467L344.213 184.005C340.367 186.227 337.374 189.413 335.24 193.503L338.787 195.353ZM346.235 187.456C349.39 185.582 353.047 184.62 357.268 184.62V180.62C352.413 180.62 348.035 181.735 344.193 184.016L346.235 187.456ZM357.268 184.62C361.439 184.62 365.044 185.558 368.145 187.379L370.17 183.929C366.383 181.705 362.062 180.62 357.268 180.62V184.62ZM368.157 187.385C371.334 189.222 373.966 191.864 376.048 195.368L379.487 193.324C377.086 189.284 373.979 186.131 370.159 183.923L368.157 187.385ZM376.055 195.379C378.125 198.813 379.472 202.931 380.045 207.783L384.018 207.313C383.389 201.997 381.892 197.314 379.48 193.313L376.055 195.379ZM351.086 207.548C351.086 209.893 351.55 212.048 352.539 213.961L356.092 212.123C355.441 210.865 355.086 209.358 355.086 207.548H351.086ZM352.564 214.008C353.606 215.896 355.053 217.411 356.886 218.524L358.962 215.104C357.733 214.358 356.775 213.359 356.067 212.076L352.564 214.008ZM356.886 218.524C358.76 219.661 360.875 220.208 363.172 220.208V216.208C361.532 216.208 360.149 215.825 358.962 215.104L356.886 218.524ZM363.172 220.208C365.513 220.208 367.76 219.667 369.888 218.603L368.099 215.025C366.51 215.82 364.875 216.208 363.172 216.208V220.208ZM369.888 218.603C371.977 217.558 373.818 216.145 375.403 214.377L372.424 211.707C371.167 213.11 369.727 214.211 368.099 215.025L369.888 218.603ZM375.403 214.377C377.018 212.575 378.197 210.492 378.937 208.15L375.122 206.946C374.55 208.758 373.651 210.338 372.424 211.707L375.403 214.377ZM378.937 206.946C378.197 204.604 377.018 202.521 375.403 200.719L372.424 203.389C373.651 204.758 374.55 206.338 375.122 208.15L378.937 206.946ZM375.425 200.744C373.839 198.914 371.992 197.463 369.888 196.411L368.099 199.989C369.712 200.795 371.145 201.914 372.402 203.364L375.425 200.744ZM369.888 196.411C367.76 195.347 365.513 194.806 363.172 194.806V198.806C364.875 198.806 366.51 199.194 368.099 199.989L369.888 196.411ZM363.172 194.806C360.875 194.806 358.76 195.353 356.886 196.49L358.962 199.91C360.149 199.189 361.532 198.806 363.172 198.806V194.806ZM356.886 196.49C355.036 197.613 353.588 199.169 352.551 201.113L356.08 202.995C356.793 201.659 357.75 200.645 358.962 199.91L356.886 196.49ZM352.539 201.135C351.55 203.048 351.086 205.203 351.086 207.548H355.086C355.086 205.738 355.441 204.231 356.092 202.973L352.539 201.135ZM404.735 231H402.735V233H404.735V231ZM404.735 184.014V182.014H402.735V184.014H404.735ZM433.025 184.014L434.912 183.352L434.443 182.014H433.025V184.014ZM445.817 220.504V222.504H448.637L447.704 219.842L445.817 220.504ZM441.061 220.504L439.169 219.854L438.258 222.504H441.061V220.504ZM453.607 184.014V182.014H452.179L451.715 183.364L453.607 184.014ZM481.897 184.014H483.897V182.014H481.897V184.014ZM481.897 231V233H483.897V231H481.897ZM464.267 231H462.267V233H464.267V231ZM464.267 191.23V189.23H462.267V191.23H464.267ZM467.055 191.23L468.922 191.946L469.964 189.23H467.055V191.23ZM451.803 231V233H453.178L453.67 231.716L451.803 231ZM434.911 231L433.044 231.719L433.538 233H434.911V231ZM419.659 191.394L419.598 189.395L416.779 189.48L417.792 192.113L419.659 191.394ZM422.365 191.312H424.365V189.25L422.304 189.313L422.365 191.312ZM422.365 231V233H424.365V231H422.365ZM406.735 231V184.014H402.735V231H406.735ZM404.735 186.014H433.025V182.014H404.735V186.014ZM431.137 184.676L443.929 221.166L447.704 219.842L434.912 183.352L431.137 184.676ZM445.817 218.504H441.061V222.504H445.817V218.504ZM442.952 221.154L455.498 184.664L451.715 183.364L439.169 219.854L442.952 221.154ZM453.607 186.014H481.897V182.014H453.607V186.014ZM479.897 184.014V231H483.897V184.014H479.897ZM481.897 229H464.267V233H481.897V229ZM466.267 231V191.23H462.267V231H466.267ZM464.267 193.23H467.055V189.23H464.267V193.23ZM465.187 190.514L449.935 230.284L453.67 231.716L468.922 191.946L465.187 190.514ZM451.803 229H434.911V233H451.803V229ZM436.777 230.281L421.525 190.675L417.792 192.113L433.044 231.719L436.777 230.281ZM419.719 193.393L422.425 193.311L422.304 189.313L419.598 189.395L419.719 193.393ZM420.365 191.312V231H424.365V191.312H420.365ZM422.365 229H404.735V233H422.365V229ZM490.172 169.5V167.5H488L488.179 169.665L490.172 169.5ZM509.852 169.5L511.846 169.665L512.024 167.5H509.852V169.5ZM506.654 208.204V210.204H508.496L508.648 208.369L506.654 208.204ZM493.37 208.204L491.377 208.369L491.529 210.204H493.37V208.204ZM492.632 229.278L494.003 227.822L492.632 229.278ZM507.392 215.584L506.022 217.04L506.022 217.04L507.392 215.584ZM507.392 229.278L506.022 227.822L506.022 227.822L507.392 229.278ZM490.172 171.5H509.852V167.5H490.172V171.5ZM507.859 169.335L504.661 208.039L508.648 208.369L511.846 169.665L507.859 169.335ZM506.654 206.204H493.37V210.204H506.654V206.204ZM495.364 208.039L492.166 169.335L488.179 169.665L491.377 208.369L495.364 208.039ZM500.012 229.902C497.353 229.902 495.419 229.154 494.003 227.822L491.262 230.734C493.563 232.9 496.549 233.902 500.012 233.902V229.902ZM494.003 227.822C492.585 226.487 491.844 224.765 491.844 222.472H487.844C487.844 225.755 488.962 228.57 491.262 230.734L494.003 227.822ZM491.844 222.472C491.844 220.111 492.594 218.367 494.003 217.04L491.262 214.128C488.953 216.3 487.844 219.147 487.844 222.472H491.844ZM494.003 217.04C495.419 215.708 497.353 214.96 500.012 214.96V210.96C496.549 210.96 493.563 211.962 491.262 214.128L494.003 217.04ZM500.012 214.96C502.672 214.96 504.606 215.708 506.022 217.04L508.763 214.128C506.462 211.962 503.475 210.96 500.012 210.96V214.96ZM506.022 217.04C507.431 218.367 508.18 220.111 508.18 222.472H512.18C512.18 219.147 511.071 216.3 508.763 214.128L506.022 217.04ZM508.18 222.472C508.18 224.765 507.439 226.487 506.022 227.822L508.763 230.734C511.063 228.57 512.18 225.755 512.18 222.472H508.18ZM506.022 227.822C504.606 229.154 502.672 229.902 500.012 229.902V233.902C503.475 233.902 506.462 232.9 508.763 230.734L506.022 227.822Z" fill="#B6BEC4" fill-opacity="0.25" mask="url(#path-1-outside-1_2_799)"/>
</svg>
