<svg width="16" height="16" viewBox="0 0 16 16" fill="none" xmlns="http://www.w3.org/2000/svg">
<path d="M14.8538 7.64616L8.85375 1.64616C8.78382 1.57615 8.6947 1.52847 8.59765 1.50914C8.50061 1.48982 8.40002 1.49972 8.30861 1.53759C8.21719 1.57547 8.13908 1.63962 8.08414 1.72191C8.0292 1.80421 7.99992 1.90096 8 1.99991V4.49991H6.5C6.36739 4.49991 6.24021 4.55258 6.14645 4.64635C6.05268 4.74012 6 4.8673 6 4.99991V10.9999C6 11.1325 6.05268 11.2597 6.14645 11.3535C6.24021 11.4472 6.36739 11.4999 6.5 11.4999H8V13.9999C7.99992 14.0989 8.0292 14.1956 8.08414 14.2779C8.13908 14.3602 8.21719 14.4243 8.30861 14.4622C8.40002 14.5001 8.50061 14.51 8.59765 14.4907C8.6947 14.4713 8.78382 14.4237 8.85375 14.3537L14.8538 8.35366C14.9002 8.30722 14.9371 8.25207 14.9623 8.19138C14.9874 8.13068 15.0004 8.06561 15.0004 7.99991C15.0004 7.9342 14.9874 7.86913 14.9623 7.80844C14.9371 7.74774 14.9002 7.69259 14.8538 7.64616ZM9 12.793V10.9999C9 10.8673 8.94732 10.7401 8.85355 10.6464C8.75979 10.5526 8.63261 10.4999 8.5 10.4999H7V5.49991H8.5C8.63261 5.49991 8.75979 5.44723 8.85355 5.35346C8.94732 5.25969 9 5.13251 9 4.99991V3.20678L13.7931 7.99991L9 12.793ZM3 4.99991V10.9999C3 11.1325 2.94732 11.2597 2.85355 11.3535C2.75979 11.4472 2.63261 11.4999 2.5 11.4999C2.36739 11.4999 2.24021 11.4472 2.14645 11.3535C2.05268 11.2597 2 11.1325 2 10.9999V4.99991C2 4.8673 2.05268 4.74012 2.14645 4.64635C2.24021 4.55258 2.36739 4.49991 2.5 4.49991C2.63261 4.49991 2.75979 4.55258 2.85355 4.64635C2.94732 4.74012 3 4.8673 3 4.99991ZM5 4.99991V10.9999C5 11.1325 4.94732 11.2597 4.85355 11.3535C4.75979 11.4472 4.63261 11.4999 4.5 11.4999C4.36739 11.4999 4.24021 11.4472 4.14645 11.3535C4.05268 11.2597 4 11.1325 4 10.9999V4.99991C4 4.8673 4.05268 4.74012 4.14645 4.64635C4.24021 4.55258 4.36739 4.49991 4.5 4.49991C4.63261 4.49991 4.75979 4.55258 4.85355 4.64635C4.94732 4.74012 5 4.8673 5 4.99991Z" fill="#B6BEC4"/>
</svg>
