<svg width="24" height="24" viewBox="0 0 24 24" fill="none" xmlns="http://www.w3.org/2000/svg">
<path d="M21.7501 13.4999C21.7484 15.0907 21.1157 16.6158 19.9908 17.7407C18.866 18.8655 17.3409 19.4982 15.7501 19.4999H7.5001C7.30119 19.4999 7.11042 19.4209 6.96977 19.2803C6.82912 19.1396 6.7501 18.9488 6.7501 18.7499C6.7501 18.551 6.82912 18.3603 6.96977 18.2196C7.11042 18.0789 7.30119 17.9999 7.5001 17.9999H15.7501C16.9436 17.9999 18.0882 17.5258 18.9321 16.6819C19.776 15.838 20.2501 14.6934 20.2501 13.4999C20.2501 12.3065 19.776 11.1619 18.9321 10.3179C18.0882 9.47403 16.9436 8.99993 15.7501 8.99993H4.81041L8.03073 12.2193C8.17146 12.36 8.25052 12.5509 8.25052 12.7499C8.25052 12.949 8.17146 13.1398 8.03073 13.2806C7.89 13.4213 7.69912 13.5003 7.5001 13.5003C7.30108 13.5003 7.11021 13.4213 6.96948 13.2806L2.46948 8.78055C2.39974 8.7109 2.34442 8.62818 2.30668 8.53713C2.26894 8.44609 2.24951 8.34849 2.24951 8.24993C2.24951 8.15137 2.26894 8.05377 2.30668 7.96272C2.34442 7.87167 2.39974 7.78896 2.46948 7.7193L6.96948 3.2193C7.11021 3.07857 7.30108 2.99951 7.5001 2.99951C7.69912 2.99951 7.89 3.07857 8.03073 3.2193C8.17146 3.36003 8.25052 3.55091 8.25052 3.74993C8.25052 3.94895 8.17146 4.13982 8.03073 4.28055L4.81041 7.49993H15.7501C17.3409 7.50167 18.866 8.13436 19.9908 9.25921C21.1157 10.384 21.7484 11.9092 21.7501 13.4999Z" fill="#4DBE95"/>
</svg>
