<svg width="25" height="24" viewBox="0 0 25 24" fill="none" xmlns="http://www.w3.org/2000/svg">
<path d="M23 19.5H21.5V9C21.5 8.60217 21.342 8.22064 21.0607 7.93934C20.7794 7.65803 20.3978 7.5 20 7.5H14V3C14.0002 2.72837 13.9266 2.46179 13.7871 2.22872C13.6476 1.99564 13.4474 1.80482 13.208 1.67661C12.9685 1.54841 12.6987 1.48764 12.4274 1.50078C12.1561 1.51393 11.8935 1.60049 11.6675 1.75125L4.1675 6.75C3.96176 6.88727 3.79315 7.07328 3.67669 7.29148C3.56023 7.50968 3.49953 7.75329 3.5 8.00062V19.5H2C1.80109 19.5 1.61032 19.579 1.46967 19.7197C1.32902 19.8603 1.25 20.0511 1.25 20.25C1.25 20.4489 1.32902 20.6397 1.46967 20.7803C1.61032 20.921 1.80109 21 2 21H23C23.1989 21 23.3897 20.921 23.5303 20.7803C23.671 20.6397 23.75 20.4489 23.75 20.25C23.75 20.0511 23.671 19.8603 23.5303 19.7197C23.3897 19.579 23.1989 19.5 23 19.5ZM20 9V19.5H14V9H20ZM5 8.00062L12.5 3V19.5H5V8.00062ZM11 10.5V12C11 12.1989 10.921 12.3897 10.7803 12.5303C10.6397 12.671 10.4489 12.75 10.25 12.75C10.0511 12.75 9.86032 12.671 9.71967 12.5303C9.57902 12.3897 9.5 12.1989 9.5 12V10.5C9.5 10.3011 9.57902 10.1103 9.71967 9.96967C9.86032 9.82902 10.0511 9.75 10.25 9.75C10.4489 9.75 10.6397 9.82902 10.7803 9.96967C10.921 10.1103 11 10.3011 11 10.5ZM8 10.5V12C8 12.1989 7.92098 12.3897 7.78033 12.5303C7.63968 12.671 7.44891 12.75 7.25 12.75C7.05109 12.75 6.86032 12.671 6.71967 12.5303C6.57902 12.3897 6.5 12.1989 6.5 12V10.5C6.5 10.3011 6.57902 10.1103 6.71967 9.96967C6.86032 9.82902 7.05109 9.75 7.25 9.75C7.44891 9.75 7.63968 9.82902 7.78033 9.96967C7.92098 10.1103 8 10.3011 8 10.5ZM8 15.75V17.25C8 17.4489 7.92098 17.6397 7.78033 17.7803C7.63968 17.921 7.44891 18 7.25 18C7.05109 18 6.86032 17.921 6.71967 17.7803C6.57902 17.6397 6.5 17.4489 6.5 17.25V15.75C6.5 15.5511 6.57902 15.3603 6.71967 15.2197C6.86032 15.079 7.05109 15 7.25 15C7.44891 15 7.63968 15.079 7.78033 15.2197C7.92098 15.3603 8 15.5511 8 15.75ZM11 15.75V17.25C11 17.4489 10.921 17.6397 10.7803 17.7803C10.6397 17.921 10.4489 18 10.25 18C10.0511 18 9.86032 17.921 9.71967 17.7803C9.57902 17.6397 9.5 17.4489 9.5 17.25V15.75C9.5 15.5511 9.57902 15.3603 9.71967 15.2197C9.86032 15.079 10.0511 15 10.25 15C10.4489 15 10.6397 15.079 10.7803 15.2197C10.921 15.3603 11 15.5511 11 15.75Z" fill="#B6BEC4"/>
</svg>
