<svg width="16" height="16" viewBox="0 0 16 16" fill="none" xmlns="http://www.w3.org/2000/svg">
<path d="M15 13H14V6.00004C14 5.73482 13.8946 5.48047 13.7071 5.29293C13.5196 5.1054 13.2652 5.00004 13 5.00004H9V2.00004C9.00012 1.81895 8.95106 1.64124 8.85807 1.48585C8.76507 1.33047 8.63163 1.20325 8.47199 1.11778C8.31234 1.03231 8.13248 0.991798 7.95161 1.00056C7.77073 1.00932 7.59564 1.06704 7.445 1.16754L2.445 4.50004C2.30784 4.59155 2.19543 4.71556 2.11779 4.86103C2.04015 5.00649 1.99969 5.1689 2 5.33379V13H1C0.867392 13 0.740215 13.0527 0.646447 13.1465C0.552678 13.2403 0.5 13.3674 0.5 13.5C0.5 13.6326 0.552678 13.7598 0.646447 13.8536C0.740215 13.9474 0.867392 14 1 14H15C15.1326 14 15.2598 13.9474 15.3536 13.8536C15.4473 13.7598 15.5 13.6326 15.5 13.5C15.5 13.3674 15.4473 13.2403 15.3536 13.1465C15.2598 13.0527 15.1326 13 15 13ZM13 6.00004V13H9V6.00004H13ZM3 5.33379L8 2.00004V13H3V5.33379ZM7 7.00004V8.00004C7 8.13265 6.94732 8.25983 6.85355 8.35359C6.75979 8.44736 6.63261 8.50004 6.5 8.50004C6.36739 8.50004 6.24021 8.44736 6.14645 8.35359C6.05268 8.25983 6 8.13265 6 8.00004V7.00004C6 6.86743 6.05268 6.74025 6.14645 6.64649C6.24021 6.55272 6.36739 6.50004 6.5 6.50004C6.63261 6.50004 6.75979 6.55272 6.85355 6.64649C6.94732 6.74025 7 6.86743 7 7.00004ZM5 7.00004V8.00004C5 8.13265 4.94732 8.25983 4.85355 8.35359C4.75979 8.44736 4.63261 8.50004 4.5 8.50004C4.36739 8.50004 4.24021 8.44736 4.14645 8.35359C4.05268 8.25983 4 8.13265 4 8.00004V7.00004C4 6.86743 4.05268 6.74025 4.14645 6.64649C4.24021 6.55272 4.36739 6.50004 4.5 6.50004C4.63261 6.50004 4.75979 6.55272 4.85355 6.64649C4.94732 6.74025 5 6.86743 5 7.00004ZM5 10.5V11.5C5 11.6326 4.94732 11.7598 4.85355 11.8536C4.75979 11.9474 4.63261 12 4.5 12C4.36739 12 4.24021 11.9474 4.14645 11.8536C4.05268 11.7598 4 11.6326 4 11.5V10.5C4 10.3674 4.05268 10.2403 4.14645 10.1465C4.24021 10.0527 4.36739 10 4.5 10C4.63261 10 4.75979 10.0527 4.85355 10.1465C4.94732 10.2403 5 10.3674 5 10.5ZM7 10.5V11.5C7 11.6326 6.94732 11.7598 6.85355 11.8536C6.75979 11.9474 6.63261 12 6.5 12C6.36739 12 6.24021 11.9474 6.14645 11.8536C6.05268 11.7598 6 11.6326 6 11.5V10.5C6 10.3674 6.05268 10.2403 6.14645 10.1465C6.24021 10.0527 6.36739 10 6.5 10C6.63261 10 6.75979 10.0527 6.85355 10.1465C6.94732 10.2403 7 10.3674 7 10.5Z" fill="#B6BEC4"/>
</svg>
