<svg width="32" height="32" viewBox="0 0 32 32" fill="none" xmlns="http://www.w3.org/2000/svg">
<path d="M29 13.9999C29 13.2043 28.6839 12.4412 28.1213 11.8786C27.5587 11.316 26.7956 10.9999 26 10.9999H17V9.87492C17.8583 9.65197 18.6185 9.15063 19.1613 8.44941C19.7042 7.7482 19.9992 6.88672 20 5.99992C20 2.49992 16.695 0.261167 16.555 0.167417C16.3907 0.0577782 16.1975 -0.000732422 16 -0.000732422C15.8025 -0.000732422 15.6093 0.0577782 15.445 0.167417C15.305 0.261167 12 2.49992 12 5.99992C12.0008 6.88672 12.2958 7.7482 12.8387 8.44941C13.3815 9.15063 14.1417 9.65197 15 9.87492V10.9999H6C5.20435 10.9999 4.44129 11.316 3.87868 11.8786C3.31607 12.4412 3 13.2043 3 13.9999V16.9162C3.00103 18.0071 3.35148 19.069 4 19.9462V24.9999C4 25.7956 4.31607 26.5586 4.87868 27.1212C5.44129 27.6838 6.20435 27.9999 7 27.9999H25C25.7956 27.9999 26.5587 27.6838 27.1213 27.1212C27.6839 26.5586 28 25.7956 28 24.9999V19.9462C28.6485 19.069 28.999 18.0071 29 16.9162V13.9999ZM14 5.99992C14 4.30367 15.25 2.94242 16 2.27617C16.75 2.94242 18 4.30367 18 5.99992C18 6.53035 17.7893 7.03906 17.4142 7.41413C17.0391 7.7892 16.5304 7.99992 16 7.99992C15.4696 7.99992 14.9609 7.7892 14.5858 7.41413C14.2107 7.03906 14 6.53035 14 5.99992ZM5 13.9999C5 13.7347 5.10536 13.4803 5.29289 13.2928C5.48043 13.1053 5.73478 12.9999 6 12.9999H26C26.2652 12.9999 26.5196 13.1053 26.7071 13.2928C26.8946 13.4803 27 13.7347 27 13.9999V16.9162C27 18.5724 25.6925 19.9549 24.085 19.9987C23.684 20.01 23.2849 19.9409 22.9111 19.7953C22.5374 19.6497 22.1966 19.4306 21.909 19.1511C21.6213 18.8715 21.3927 18.537 21.2366 18.1676C21.0805 17.7981 21 17.401 21 16.9999C21 16.7347 20.8946 16.4803 20.7071 16.2928C20.5196 16.1053 20.2652 15.9999 20 15.9999C19.7348 15.9999 19.4804 16.1053 19.2929 16.2928C19.1054 16.4803 19 16.7347 19 16.9999C19 17.7956 18.6839 18.5586 18.1213 19.1212C17.5587 19.6838 16.7956 19.9999 16 19.9999C15.2044 19.9999 14.4413 19.6838 13.8787 19.1212C13.3161 18.5586 13 17.7956 13 16.9999C13 16.7347 12.8946 16.4803 12.7071 16.2928C12.5196 16.1053 12.2652 15.9999 12 15.9999C11.7348 15.9999 11.4804 16.1053 11.2929 16.2928C11.1054 16.4803 11 16.7347 11 16.9999C11.0002 17.4011 10.9198 17.7983 10.7638 18.1679C10.6077 18.5376 10.3791 18.8721 10.0915 19.1519C9.80384 19.4316 9.46302 19.6508 9.08917 19.7964C8.71533 19.9421 8.31606 20.0113 7.915 19.9999C6.3075 19.9549 5 18.5724 5 16.9162V13.9999ZM25 25.9999H7C6.73478 25.9999 6.48043 25.8946 6.29289 25.707C6.10536 25.5195 6 25.2651 6 24.9999V21.5699C6.58536 21.8352 7.21762 21.9813 7.86 21.9999C8.52832 22.0207 9.19394 21.9062 9.81688 21.6632C10.4398 21.4203 11.0072 21.0539 11.485 20.5862C11.6715 20.4043 11.8437 20.2083 12 19.9999C12.4657 20.6209 13.0697 21.1249 13.7639 21.4721C14.4582 21.8192 15.2238 21.9999 16 21.9999C16.7762 21.9999 17.5418 21.8192 18.2361 21.4721C18.9303 21.1249 19.5343 20.6209 20 19.9999C20.1568 20.2075 20.3294 20.4027 20.5163 20.5837C21.4465 21.4949 22.6978 22.0036 24 21.9999C24.0475 21.9999 24.095 21.9999 24.1425 21.9999C24.784 21.981 25.4154 21.8348 26 21.5699V24.9999C26 25.2651 25.8946 25.5195 25.7071 25.707C25.5196 25.8946 25.2652 25.9999 25 25.9999Z" fill="#EEF0F1"/>
</svg>
