<svg width="26" height="26" viewBox="0 0 26 26" fill="none" xmlns="http://www.w3.org/2000/svg">
<path d="M21.125 3.25H18.6875V2.4375C18.6875 2.22201 18.6019 2.01535 18.4495 1.86298C18.2972 1.7106 18.0905 1.625 17.875 1.625C17.6595 1.625 17.4528 1.7106 17.3005 1.86298C17.1481 2.01535 17.0625 2.22201 17.0625 2.4375V3.25H8.9375V2.4375C8.9375 2.22201 8.8519 2.01535 8.69952 1.86298C8.54715 1.7106 8.34049 1.625 8.125 1.625C7.90951 1.625 7.70285 1.7106 7.55048 1.86298C7.3981 2.01535 7.3125 2.22201 7.3125 2.4375V3.25H4.875C4.44402 3.25 4.0307 3.4212 3.72595 3.72595C3.4212 4.0307 3.25 4.44402 3.25 4.875V21.125C3.25 21.556 3.4212 21.9693 3.72595 22.274C4.0307 22.5788 4.44402 22.75 4.875 22.75H21.125C21.556 22.75 21.9693 22.5788 22.274 22.274C22.5788 21.9693 22.75 21.556 22.75 21.125V4.875C22.75 4.44402 22.5788 4.0307 22.274 3.72595C21.9693 3.4212 21.556 3.25 21.125 3.25ZM7.3125 4.875V5.6875C7.3125 5.90299 7.3981 6.10965 7.55048 6.26202C7.70285 6.4144 7.90951 6.5 8.125 6.5C8.34049 6.5 8.54715 6.4144 8.69952 6.26202C8.8519 6.10965 8.9375 5.90299 8.9375 5.6875V4.875H17.0625V5.6875C17.0625 5.90299 17.1481 6.10965 17.3005 6.26202C17.4528 6.4144 17.6595 6.5 17.875 6.5C18.0905 6.5 18.2972 6.4144 18.4495 6.26202C18.6019 6.10965 18.6875 5.90299 18.6875 5.6875V4.875H21.125V8.125H4.875V4.875H7.3125ZM21.125 21.125H4.875V9.75H21.125V21.125ZM11.375 12.1875V18.6875C11.375 18.903 11.2894 19.1097 11.137 19.262C10.9847 19.4144 10.778 19.5 10.5625 19.5C10.347 19.5 10.1403 19.4144 9.98798 19.262C9.8356 19.1097 9.75 18.903 9.75 18.6875V13.5017L9.30109 13.7272C9.10823 13.8236 8.88496 13.8395 8.6804 13.7713C8.47584 13.7031 8.30674 13.5565 8.21031 13.3636C8.11388 13.1707 8.09801 12.9475 8.1662 12.7429C8.23439 12.5383 8.38104 12.3692 8.57391 12.2728L10.1989 11.4603C10.3228 11.3983 10.4605 11.369 10.599 11.3752C10.7374 11.3815 10.8719 11.423 10.9898 11.4958C11.1077 11.5687 11.2049 11.6705 11.2723 11.7916C11.3398 11.9126 11.3751 12.0489 11.375 12.1875ZM17.3834 15.2801L15.4375 17.875H17.0625C17.278 17.875 17.4847 17.9606 17.637 18.113C17.7894 18.2653 17.875 18.472 17.875 18.6875C17.875 18.903 17.7894 19.1097 17.637 19.262C17.4847 19.4144 17.278 19.5 17.0625 19.5H13.8125C13.6616 19.5 13.5137 19.458 13.3853 19.3787C13.257 19.2993 13.1533 19.1858 13.0858 19.0509C13.0183 18.9159 12.9897 18.7648 13.0033 18.6145C13.0168 18.4643 13.072 18.3207 13.1625 18.2L16.0855 14.303C16.152 14.2145 16.1997 14.1134 16.2256 14.0058C16.2516 13.8982 16.2553 13.7864 16.2366 13.6773C16.2178 13.5682 16.1769 13.4641 16.1165 13.3713C16.056 13.2786 15.9772 13.1992 15.885 13.138C15.7928 13.0768 15.689 13.0351 15.58 13.0155C15.4711 12.9958 15.3593 12.9986 15.2515 13.0238C15.1437 13.0489 15.0421 13.0958 14.9531 13.1615C14.864 13.2273 14.7894 13.3106 14.7337 13.4062C14.6819 13.5016 14.6115 13.5856 14.5268 13.6533C14.442 13.7211 14.3445 13.7711 14.2401 13.8005C14.1357 13.83 14.0264 13.8382 13.9187 13.8247C13.8111 13.8113 13.7072 13.7764 13.6133 13.7221C13.5193 13.6678 13.4372 13.5953 13.3717 13.5088C13.3062 13.4222 13.2588 13.3235 13.2321 13.2183C13.2054 13.1131 13.2001 13.0037 13.2164 12.8964C13.2327 12.7892 13.2703 12.6862 13.327 12.5938C13.5954 12.1293 14.0095 11.7663 14.5052 11.5612C15.0008 11.356 15.5503 11.32 16.0684 11.4589C16.5866 11.5977 17.0444 11.9036 17.3711 12.3292C17.6977 12.7547 17.8748 13.2761 17.875 13.8125C17.8767 14.3424 17.704 14.8581 17.3834 15.2801Z" fill="#EEF0F1"/>
</svg>
