<svg width="26" height="26" viewBox="0 0 26 26" fill="none" xmlns="http://www.w3.org/2000/svg">
<path d="M23.5626 13.8796C23.39 15.8865 22.6478 17.8023 21.4234 19.4016C20.1989 21.001 18.5431 22.2174 16.6509 22.9077C14.7586 23.598 12.7085 23.7335 10.7418 23.2982C8.77516 22.863 6.9737 21.8751 5.54941 20.4508C4.12511 19.0265 3.13722 17.225 2.70198 15.2584C2.26673 13.2917 2.40223 11.2416 3.09253 9.34934C3.78283 7.45706 4.99921 5.80129 6.59858 4.57684C8.19794 3.35239 10.1137 2.6102 12.1206 2.43757C12.2273 2.42877 12.3347 2.44107 12.4366 2.47377C12.5386 2.50647 12.6331 2.55893 12.7147 2.62815C12.7964 2.69738 12.8637 2.78201 12.9126 2.87722C12.9616 2.97242 12.9913 3.07634 13.0001 3.18304C13.0089 3.28974 12.9966 3.39713 12.9639 3.49908C12.9312 3.60102 12.8788 3.69553 12.8095 3.7772C12.7403 3.85887 12.6557 3.92611 12.5605 3.97508C12.4653 4.02404 12.3614 4.05377 12.2547 4.06257C10.5561 4.20851 8.93458 4.83655 7.58086 5.87279C6.22714 6.90903 5.19754 8.31035 4.61322 9.91189C4.02889 11.5134 3.91415 13.2485 4.28249 14.9131C4.65083 16.5776 5.48692 18.1023 6.6924 19.3078C7.89788 20.5133 9.42259 21.3494 11.0871 21.7177C12.7517 22.086 14.4868 21.9713 16.0883 21.387C17.6898 20.8027 19.0912 19.7731 20.1274 18.4193C21.1636 17.0656 21.7917 15.4441 21.9376 13.7455C21.9554 13.5301 22.0581 13.3305 22.223 13.1907C22.3879 13.0508 22.6017 12.9823 22.8172 13.0001C23.0326 13.0179 23.2322 13.1205 23.372 13.2854C23.5118 13.4504 23.5804 13.6641 23.5626 13.8796ZM12.1876 7.31257V13.0001C12.1876 13.2156 12.2732 13.4222 12.4256 13.5746C12.578 13.727 12.7846 13.8126 13.0001 13.8126H18.6876C18.9031 13.8126 19.1098 13.727 19.2621 13.5746C19.4145 13.4222 19.5001 13.2156 19.5001 13.0001C19.5001 12.7846 19.4145 12.5779 19.2621 12.4255C19.1098 12.2732 18.9031 12.1876 18.6876 12.1876H13.8126V7.31257C13.8126 7.09709 13.727 6.89042 13.5746 6.73805C13.4223 6.58568 13.2156 6.50007 13.0001 6.50007C12.7846 6.50007 12.578 6.58568 12.4256 6.73805C12.2732 6.89042 12.1876 7.09709 12.1876 7.31257ZM16.2501 4.87507C16.4912 4.87507 16.7268 4.8036 16.9272 4.66968C17.1276 4.53576 17.2839 4.34542 17.3761 4.12272C17.4683 3.90002 17.4925 3.65497 17.4455 3.41856C17.3984 3.18214 17.2824 2.96498 17.1119 2.79454C16.9415 2.62409 16.7243 2.50802 16.4879 2.46099C16.2515 2.41397 16.0064 2.4381 15.7837 2.53035C15.561 2.62259 15.3707 2.7788 15.2368 2.97922C15.1029 3.17965 15.0314 3.41528 15.0314 3.65632C15.0314 3.97956 15.1598 4.28955 15.3883 4.51811C15.6169 4.74667 15.9269 4.87507 16.2501 4.87507ZM19.9064 7.31257C20.1474 7.31257 20.3831 7.2411 20.5835 7.10718C20.7839 6.97326 20.9401 6.78292 21.0324 6.56022C21.1246 6.33752 21.1487 6.09247 21.1017 5.85606C21.0547 5.61964 20.9386 5.40248 20.7682 5.23204C20.5977 5.06159 20.3806 4.94552 20.1441 4.89849C19.9077 4.85147 19.6627 4.8756 19.44 4.96785C19.2173 5.06009 19.0269 5.2163 18.893 5.41672C18.7591 5.61715 18.6876 5.85278 18.6876 6.09382C18.6876 6.41706 18.816 6.72705 19.0446 6.95561C19.2731 7.18417 19.5831 7.31257 19.9064 7.31257ZM22.3439 10.9688C22.5849 10.9688 22.8206 10.8973 23.021 10.7634C23.2214 10.6295 23.3776 10.4392 23.4699 10.2165C23.5621 9.99377 23.5862 9.74872 23.5392 9.51231C23.4922 9.27589 23.3761 9.05873 23.2057 8.88829C23.0352 8.71784 22.8181 8.60177 22.5816 8.55474C22.3452 8.50772 22.1002 8.53185 21.8775 8.6241C21.6548 8.71634 21.4644 8.87255 21.3305 9.07297C21.1966 9.2734 21.1251 9.50903 21.1251 9.75007C21.1251 10.0733 21.2535 10.3833 21.4821 10.6119C21.7106 10.8404 22.0206 10.9688 22.3439 10.9688Z" fill="#EEF0F1"/>
</svg>
