<svg width="12" height="13" viewBox="0 0 12 13" fill="none" xmlns="http://www.w3.org/2000/svg">
<path d="M8.625 3.5H1.875C1.77554 3.5 1.68016 3.53951 1.60984 3.60984C1.53951 3.68016 1.5 3.77554 1.5 3.875V10.625C1.5 10.7245 1.53951 10.8198 1.60984 10.8902C1.68016 10.9605 1.77554 11 1.875 11H8.625C8.72446 11 8.81984 10.9605 8.89017 10.8902C8.96049 10.8198 9 10.7245 9 10.625V3.875C9 3.77554 8.96049 3.68016 8.89017 3.60984C8.81984 3.53951 8.72446 3.5 8.625 3.5ZM8.25 10.25H2.25V4.25H8.25V10.25ZM10.5 2.375V9.125C10.5 9.22446 10.4605 9.31984 10.3902 9.39017C10.3198 9.46049 10.2245 9.5 10.125 9.5C10.0255 9.5 9.93016 9.46049 9.85983 9.39017C9.78951 9.31984 9.75 9.22446 9.75 9.125V2.75H3.375C3.27554 2.75 3.18016 2.71049 3.10984 2.64016C3.03951 2.56984 3 2.47446 3 2.375C3 2.27554 3.03951 2.18016 3.10984 2.10984C3.18016 2.03951 3.27554 2 3.375 2H10.125C10.2245 2 10.3198 2.03951 10.3902 2.10984C10.4605 2.18016 10.5 2.27554 10.5 2.375Z" fill="url(#paint0_linear_46_942)"/>
<defs>
<linearGradient id="paint0_linear_46_942" x1="5.47636" y1="10.2218" x2="12.1862" y2="8.30829" gradientUnits="userSpaceOnUse">
<stop stop-color="#3AAA82"/>
<stop offset="1" stop-color="#3FC6D8"/>
</linearGradient>
</defs>
</svg>
