<svg width="16" height="16" viewBox="0 0 16 16" fill="none" xmlns="http://www.w3.org/2000/svg">
<path d="M9.25 9.5C10.2446 9.5 11.1984 9.10491 11.9017 8.40165C12.6049 7.69839 13 6.74456 13 5.75C13 4.75544 12.6049 3.80161 11.9017 3.09835C11.1984 2.39509 10.2446 2 9.25 2H5.5C5.36739 2 5.24021 2.05268 5.14645 2.14645C5.05268 2.24021 5 2.36739 5 2.5V8.5H3.5C3.36739 8.5 3.24021 8.55268 3.14645 8.64645C3.05268 8.74021 3 8.86739 3 9C3 9.13261 3.05268 9.25979 3.14645 9.35355C3.24021 9.44732 3.36739 9.5 3.5 9.5H5V10.5H3.5C3.36739 10.5 3.24021 10.5527 3.14645 10.6464C3.05268 10.7402 3 10.8674 3 11C3 11.1326 3.05268 11.2598 3.14645 11.3536C3.24021 11.4473 3.36739 11.5 3.5 11.5H5V13.5C5 13.6326 5.05268 13.7598 5.14645 13.8536C5.24021 13.9473 5.36739 14 5.5 14C5.63261 14 5.75979 13.9473 5.85355 13.8536C5.94732 13.7598 6 13.6326 6 13.5V11.5H9C9.13261 11.5 9.25979 11.4473 9.35355 11.3536C9.44732 11.2598 9.5 11.1326 9.5 11C9.5 10.8674 9.44732 10.7402 9.35355 10.6464C9.25979 10.5527 9.13261 10.5 9 10.5H6V9.5H9.25ZM6 3H9.25C9.97935 3 10.6788 3.28973 11.1945 3.80546C11.7103 4.32118 12 5.02065 12 5.75C12 6.47935 11.7103 7.17882 11.1945 7.69454C10.6788 8.21027 9.97935 8.5 9.25 8.5H6V3Z" fill="#B6BEC4"/>
</svg>
