<svg width="32" height="32" viewBox="0 0 32 32" fill="none" xmlns="http://www.w3.org/2000/svg">
<path d="M29 27H26V5C26 4.46957 25.7893 3.96086 25.4142 3.58579C25.0391 3.21071 24.5304 3 24 3H8C7.46957 3 6.96086 3.21071 6.58579 3.58579C6.21071 3.96086 6 4.46957 6 5V27H3C2.73478 27 2.48043 27.1054 2.29289 27.2929C2.10536 27.4804 2 27.7348 2 28C2 28.2652 2.10536 28.5196 2.29289 28.7071C2.48043 28.8946 2.73478 29 3 29H29C29.2652 29 29.5196 28.8946 29.7071 28.7071C29.8946 28.5196 30 28.2652 30 28C30 27.7348 29.8946 27.4804 29.7071 27.2929C29.5196 27.1054 29.2652 27 29 27ZM24 27H22V5H24V27ZM8 5H20V27H8V5ZM18 16.5C18 16.7967 17.912 17.0867 17.7472 17.3334C17.5824 17.58 17.3481 17.7723 17.074 17.8858C16.7999 17.9993 16.4983 18.0291 16.2074 17.9712C15.9164 17.9133 15.6491 17.7704 15.4393 17.5607C15.2296 17.3509 15.0867 17.0836 15.0288 16.7926C14.9709 16.5017 15.0006 16.2001 15.1142 15.926C15.2277 15.6519 15.42 15.4176 15.6666 15.2528C15.9133 15.088 16.2033 15 16.5 15C16.8978 15 17.2794 15.158 17.5607 15.4393C17.842 15.7206 18 16.1022 18 16.5Z" fill="#EEF0F1"/>
</svg>
