<svg width="14" height="14" viewBox="0 0 14 14" fill="none" xmlns="http://www.w3.org/2000/svg">
<path d="M12.6875 11.8125H11.375V2.1875C11.375 1.95544 11.2828 1.73288 11.1187 1.56878C10.9546 1.40469 10.7321 1.3125 10.5 1.3125H3.5C3.26794 1.3125 3.04538 1.40469 2.88128 1.56878C2.71719 1.73288 2.625 1.95544 2.625 2.1875V11.8125H1.3125C1.19647 11.8125 1.08519 11.8586 1.00314 11.9406C0.921094 12.0227 0.875 12.134 0.875 12.25C0.875 12.366 0.921094 12.4773 1.00314 12.5594C1.08519 12.6414 1.19647 12.6875 1.3125 12.6875H12.6875C12.8035 12.6875 12.9148 12.6414 12.9969 12.5594C13.0789 12.4773 13.125 12.366 13.125 12.25C13.125 12.134 13.0789 12.0227 12.9969 11.9406C12.9148 11.8586 12.8035 11.8125 12.6875 11.8125ZM10.5 11.8125H9.625V2.1875H10.5V11.8125ZM3.5 2.1875H8.75V11.8125H3.5V2.1875ZM7.875 7.21875C7.875 7.34854 7.83651 7.47542 7.7644 7.58334C7.69229 7.69126 7.5898 7.77538 7.46989 7.82505C7.34997 7.87472 7.21802 7.88771 7.09072 7.86239C6.96342 7.83707 6.84649 7.77457 6.75471 7.68279C6.66293 7.59101 6.60043 7.47408 6.57511 7.34678C6.54979 7.21948 6.56278 7.08753 6.61245 6.96761C6.66212 6.8477 6.74624 6.74521 6.85416 6.6731C6.96208 6.60099 7.08896 6.5625 7.21875 6.5625C7.3928 6.5625 7.55972 6.63164 7.68279 6.75471C7.80586 6.87778 7.875 7.0447 7.875 7.21875Z" fill="#4DBE95"/>
</svg>
