<svg width="16" height="16" viewBox="0 0 16 16" fill="none" xmlns="http://www.w3.org/2000/svg">
<path d="M14.2775 5.58371L8.2775 1.58371C8.19533 1.52889 8.09877 1.49963 8 1.49963C7.90123 1.49963 7.80467 1.52889 7.7225 1.58371L1.7225 5.58371C1.65401 5.62941 1.59786 5.69131 1.55904 5.76393C1.52023 5.83654 1.49995 5.91762 1.5 5.99996V12.5C1.5 12.7652 1.60536 13.0195 1.79289 13.2071C1.98043 13.3946 2.23478 13.5 2.5 13.5H13.5C13.7652 13.5 14.0196 13.3946 14.2071 13.2071C14.3946 13.0195 14.5 12.7652 14.5 12.5V5.99996C14.5001 5.91762 14.4798 5.83654 14.441 5.76393C14.4021 5.69131 14.346 5.62941 14.2775 5.58371ZM6.045 9.49996L2.5 12V6.97058L6.045 9.49996ZM7.06812 9.99996H8.93188L12.4712 12.5H3.52875L7.06812 9.99996ZM9.955 9.49996L13.5 6.97058V12L9.955 9.49996ZM8 2.60058L13.1194 6.01371L8.93188 8.99996H7.06938L2.88188 6.01371L8 2.60058Z" fill="#B6BEC4"/>
</svg>
