<svg width="16" height="16" viewBox="0 0 16 16" fill="none" xmlns="http://www.w3.org/2000/svg">
<path d="M4.49999 8C4.50357 9.31155 4.2005 10.6058 3.61499 11.7794C3.58704 11.8402 3.54715 11.8948 3.4977 11.94C3.44824 11.9851 3.39023 12.0199 3.32709 12.0422C3.26395 12.0644 3.19698 12.0738 3.13014 12.0697C3.06331 12.0657 2.99798 12.0482 2.93802 12.0184C2.87806 11.9886 2.82471 11.947 2.78111 11.8962C2.73752 11.8454 2.70458 11.7863 2.68424 11.7225C2.66391 11.6587 2.65659 11.5915 2.66273 11.5248C2.66887 11.4581 2.68834 11.3934 2.71999 11.3344C3.23624 10.2989 3.50334 9.15705 3.49999 8C3.49881 7.32528 3.64995 6.65899 3.94214 6.05081C4.23432 5.44263 4.66002 4.90825 5.18749 4.4875C5.29101 4.40462 5.42321 4.36626 5.55501 4.38085C5.68681 4.39544 5.80742 4.4618 5.8903 4.56531C5.97318 4.66883 6.01154 4.80103 5.99695 4.93283C5.98236 5.06464 5.91601 5.18524 5.81249 5.26813C5.40214 5.59528 5.07098 6.01088 4.84371 6.48391C4.61645 6.95695 4.49895 7.4752 4.49999 8ZM7.99999 7.5C7.86738 7.5 7.7402 7.55268 7.64643 7.64645C7.55267 7.74021 7.49999 7.86739 7.49999 8C7.49989 9.948 7.00527 11.8641 6.06249 13.5688C5.99817 13.6848 5.98259 13.8216 6.01916 13.9491C6.05572 14.0767 6.14146 14.1844 6.25749 14.2487C6.37352 14.3131 6.51035 14.3287 6.63787 14.2921C6.7654 14.2555 6.87317 14.1698 6.93749 14.0538C7.96223 12.2006 8.49984 10.1176 8.49999 8C8.49999 7.86739 8.44731 7.74021 8.35354 7.64645C8.25977 7.55268 8.1326 7.5 7.99999 7.5ZM7.99999 5.5C7.33695 5.5 6.70106 5.76339 6.23222 6.23223C5.76338 6.70107 5.49999 7.33696 5.49999 8C5.49999 8.13261 5.55267 8.25979 5.64643 8.35355C5.7402 8.44732 5.86738 8.5 5.99999 8.5C6.1326 8.5 6.25977 8.44732 6.35354 8.35355C6.44731 8.25979 6.49999 8.13261 6.49999 8C6.49999 7.60218 6.65802 7.22064 6.93933 6.93934C7.22063 6.65804 7.60216 6.5 7.99999 6.5C8.39781 6.5 8.77934 6.65804 9.06065 6.93934C9.34195 7.22064 9.49999 7.60218 9.49999 8C9.50517 9.9881 9.06727 11.9524 8.21811 13.75C8.19008 13.8095 8.17406 13.874 8.17095 13.9398C8.16784 14.0055 8.17771 14.0712 8.2 14.1331C8.22228 14.1951 8.25655 14.252 8.30084 14.3007C8.34512 14.3494 8.39857 14.3888 8.45811 14.4169C8.51766 14.4449 8.58214 14.4609 8.64788 14.464C8.71362 14.4671 8.77933 14.4573 8.84126 14.435C8.90318 14.4127 8.96011 14.3784 9.00879 14.3342C9.05748 14.2899 9.09696 14.2364 9.12499 14.1769C10.0364 12.2456 10.5062 10.1355 10.5 8C10.5 7.33696 10.2366 6.70107 9.76775 6.23223C9.29891 5.76339 8.66303 5.5 7.99999 5.5ZM7.99999 1.5C6.27664 1.50182 4.6244 2.18722 3.4058 3.40582C2.18721 4.62441 1.50181 6.27665 1.49999 8C1.50092 8.62437 1.39523 9.24432 1.18749 9.83313C1.14331 9.95819 1.15063 10.0957 1.20783 10.2154C1.26503 10.335 1.36742 10.4271 1.49249 10.4712C1.61755 10.5154 1.75505 10.5081 1.87472 10.4509C1.99439 10.3937 2.08644 10.2913 2.13061 10.1663C2.37591 9.47039 2.50082 8.73782 2.49999 8C2.49999 6.54131 3.07945 5.14236 4.1109 4.11091C5.14235 3.07946 6.5413 2.5 7.99999 2.5C9.45868 2.5 10.8576 3.07946 11.8891 4.11091C12.9205 5.14236 13.5 6.54131 13.5 8C13.5002 9.1424 13.3895 10.2821 13.1694 11.4031C13.1566 11.4676 13.1567 11.5339 13.1696 11.5983C13.1825 11.6627 13.208 11.7239 13.2445 11.7784C13.2811 11.833 13.328 11.8798 13.3827 11.9162C13.4374 11.9526 13.4987 11.9779 13.5631 11.9906C13.595 11.9968 13.6275 11.9999 13.66 12C13.7757 11.9999 13.8878 11.9596 13.9771 11.8861C14.0665 11.8126 14.1276 11.7104 14.15 11.5969C14.3828 10.4121 14.5 9.20746 14.5 8C14.498 6.2767 13.8125 4.62455 12.594 3.406C11.3754 2.18744 9.72329 1.50198 7.99999 1.5ZM5.89999 9.51062C5.77031 9.48483 5.6357 9.51144 5.52559 9.58465C5.41549 9.65786 5.33887 9.77169 5.31249 9.90125C5.10961 10.8998 4.74636 11.8589 4.23686 12.7413C4.17056 12.8561 4.1526 12.9926 4.18695 13.1207C4.22129 13.2488 4.30512 13.3581 4.41999 13.4244C4.53486 13.4907 4.67137 13.5086 4.79948 13.4743C4.92759 13.4399 5.03681 13.3561 5.10311 13.2413C5.66617 12.2655 6.06721 11.2048 6.29061 10.1006C6.30375 10.0362 6.30407 9.96988 6.29154 9.90537C6.27901 9.84085 6.25389 9.77944 6.21761 9.72465C6.18133 9.66985 6.13461 9.62274 6.0801 9.58602C6.0256 9.54929 5.9644 9.52367 5.89999 9.51062ZM7.99999 3.5C7.81194 3.50004 7.62408 3.51173 7.43749 3.535C7.30837 3.55438 7.19196 3.6235 7.11313 3.72758C7.03431 3.83166 6.99932 3.96244 7.01564 4.09198C7.03196 4.22151 7.09831 4.33953 7.2005 4.42079C7.30268 4.50206 7.4326 4.54013 7.56249 4.52688C8.05506 4.46563 8.55503 4.5097 9.02929 4.65617C9.50355 4.80264 9.9413 5.04818 10.3135 5.37653C10.6858 5.70488 10.9841 6.10854 11.1886 6.56081C11.3931 7.01308 11.4993 7.50363 11.5 8C11.4998 8.64769 11.4598 9.29475 11.38 9.9375C11.3712 10.0029 11.3755 10.0693 11.3925 10.133C11.4095 10.1968 11.439 10.2565 11.4792 10.3088C11.5194 10.361 11.5695 10.4049 11.6267 10.4377C11.6839 10.4705 11.7471 10.4917 11.8125 10.5C11.8332 10.5025 11.8541 10.5037 11.875 10.5037C11.9966 10.5035 12.1139 10.4589 12.205 10.3784C12.2961 10.2979 12.3548 10.1869 12.37 10.0662C12.4543 9.382 12.496 8.69317 12.495 8.00375C12.4947 6.8109 12.0213 5.66687 11.1786 4.82257C10.3359 3.97828 9.19284 3.50265 7.99999 3.5ZM11.6206 11.5156C11.557 11.4992 11.4908 11.4954 11.4257 11.5046C11.3607 11.5138 11.298 11.5356 11.2414 11.569C11.1849 11.6024 11.1354 11.6466 11.0959 11.6991C11.0564 11.7516 11.0276 11.8114 11.0112 11.875C10.92 12.2306 10.8144 12.5875 10.6987 12.9375C10.6564 13.0629 10.6656 13.2 10.7241 13.3186C10.7827 13.4373 10.886 13.5279 11.0112 13.5706C11.0626 13.5881 11.1164 13.597 11.1706 13.5969C11.2754 13.5968 11.3775 13.5638 11.4625 13.5026C11.5475 13.4414 11.6111 13.355 11.6444 13.2556C11.7694 12.8856 11.8812 12.5056 11.9787 12.1275C11.9955 12.0639 11.9995 11.9976 11.9906 11.9324C11.9817 11.8672 11.96 11.8045 11.9268 11.7477C11.8936 11.6909 11.8495 11.6412 11.7971 11.6015C11.7447 11.5618 11.6849 11.5328 11.6212 11.5162L11.6206 11.5156Z" fill="#B6BEC4"/>
</svg>
