<svg width="14" height="14" viewBox="0 0 14 14" fill="none" xmlns="http://www.w3.org/2000/svg">
<path d="M6.59312 10.9375H2.1875V4.8125H11.8125V6.5625C11.8125 6.67854 11.8586 6.78982 11.9406 6.87186C12.0227 6.95391 12.134 7 12.25 7C12.366 7 12.4773 6.95391 12.5594 6.87186C12.6414 6.78982 12.6875 6.67854 12.6875 6.5625V4.8125C12.6875 4.58044 12.5953 4.35788 12.4312 4.19379C12.2671 4.02969 12.0446 3.9375 11.8125 3.9375H7.18102L5.6875 2.44399C5.60654 2.36238 5.51017 2.29769 5.40399 2.25365C5.29781 2.20962 5.18393 2.18714 5.06898 2.1875H2.1875C1.95544 2.1875 1.73288 2.27969 1.56878 2.44379C1.40469 2.60788 1.3125 2.83044 1.3125 3.0625V10.9714C1.31279 11.1944 1.4015 11.4082 1.55917 11.5658C1.71684 11.7235 1.93061 11.8122 2.15359 11.8125H6.59312C6.70916 11.8125 6.82044 11.7664 6.90248 11.6844C6.98453 11.6023 7.03062 11.491 7.03062 11.375C7.03062 11.259 6.98453 11.1477 6.90248 11.0656C6.82044 10.9836 6.70916 10.9375 6.59312 10.9375ZM5.06898 3.0625L5.94398 3.9375H2.1875V3.0625H5.06898ZM13.1048 8.70625C13.0785 8.62322 13.028 8.54993 12.9598 8.49576C12.8916 8.4416 12.8088 8.40901 12.722 8.40219L11.0901 8.27586L10.465 6.82664C10.4312 6.74805 10.3751 6.68108 10.3037 6.63402C10.2323 6.58697 10.1486 6.56189 10.063 6.56189C9.9775 6.56189 9.89383 6.58697 9.82239 6.63402C9.75095 6.68108 9.69487 6.74805 9.66109 6.82664L9.03602 8.27586L7.40414 8.40219C7.3173 8.40904 7.23447 8.44165 7.16628 8.49586C7.09808 8.55007 7.04762 8.6234 7.02137 8.70647C6.99511 8.78953 6.99425 8.87854 7.01889 8.9621C7.04353 9.04565 7.09256 9.11995 7.15969 9.17547L8.3907 10.1921L8.01609 11.7075C7.99553 11.7911 8.00006 11.8788 8.02912 11.9598C8.05817 12.0408 8.11047 12.1114 8.17946 12.1628C8.24845 12.2143 8.33107 12.2442 8.41699 12.2489C8.50291 12.2536 8.58831 12.2329 8.6625 12.1893L10.0625 11.3652L11.463 12.1893C11.5372 12.2329 11.6226 12.2536 11.7086 12.2489C11.7945 12.2442 11.8771 12.2143 11.9461 12.1628C12.0151 12.1114 12.0674 12.0408 12.0964 11.9598C12.1255 11.8788 12.13 11.7911 12.1095 11.7075L11.7348 10.1921L12.9659 9.17547C13.0331 9.12001 13.0823 9.0457 13.107 8.9621C13.1318 8.8785 13.131 8.7894 13.1048 8.70625ZM10.9654 9.69063C10.9017 9.74307 10.8542 9.81242 10.8283 9.8907C10.8024 9.96898 10.7991 10.053 10.8188 10.133L11.0102 10.9052L10.2845 10.4781C10.2172 10.4385 10.1406 10.4176 10.0625 10.4176C9.98441 10.4176 9.90775 10.4385 9.84047 10.4781L9.11477 10.9052L9.30617 10.133C9.32592 10.053 9.32264 9.96898 9.29671 9.8907C9.27078 9.81242 9.22325 9.74307 9.15961 9.69063L8.55203 9.1886L9.36633 9.12571C9.44576 9.11961 9.52202 9.09194 9.58688 9.04568C9.65174 8.99942 9.70274 8.93633 9.73438 8.86321L10.0625 8.10196L10.3906 8.86321C10.4223 8.93633 10.4733 8.99942 10.5381 9.04568C10.603 9.09194 10.6792 9.11961 10.7587 9.12571L11.573 9.1886L10.9654 9.69063Z" fill="#E9EC89"/>
</svg>
