<svg width="16" height="16" viewBox="0 0 16 16" fill="none" xmlns="http://www.w3.org/2000/svg">
<path d="M14.4125 3.09564C14.3355 2.91784 14.208 2.76658 14.0458 2.66068C13.8835 2.55477 13.6937 2.49891 13.5 2.50002H2.49998C2.30644 2.5004 2.11717 2.55694 1.95512 2.66277C1.79308 2.76861 1.66523 2.91919 1.58709 3.09626C1.50894 3.27332 1.48386 3.46926 1.51488 3.6603C1.54591 3.85134 1.6317 4.02928 1.76186 4.17252L1.76686 4.17814L5.99998 8.69814V13.5C5.99994 13.681 6.04902 13.8586 6.14198 14.0139C6.23494 14.1692 6.36831 14.2963 6.52785 14.3818C6.68739 14.4672 6.86714 14.5078 7.04792 14.4991C7.22869 14.4904 7.40373 14.4329 7.55436 14.3325L9.55436 12.9988C9.69146 12.9074 9.80388 12.7837 9.88162 12.6384C9.95936 12.4932 10 12.331 9.99998 12.1663V8.69814L14.2337 4.17814L14.2387 4.17252C14.3703 4.02993 14.4569 3.85176 14.4878 3.66025C14.5187 3.46873 14.4925 3.27236 14.4125 3.09564ZM9.13623 8.16127C9.04974 8.25297 9.00107 8.37396 8.99998 8.50002V12.1663L6.99998 13.5V8.50002C7.00002 8.37305 6.95176 8.25083 6.86498 8.15814L2.49998 3.50002H13.5L9.13623 8.16127Z" fill="#B6BEC4"/>
</svg>
