<svg width="24" height="24" viewBox="0 0 24 24" fill="none" xmlns="http://www.w3.org/2000/svg">
<path d="M21.6188 4.64346C21.5033 4.37675 21.312 4.14986 21.0687 3.99101C20.8253 3.83216 20.5406 3.74836 20.25 3.75002H3.75001C3.45969 3.7506 3.17578 3.8354 2.93272 3.99416C2.68965 4.15291 2.49788 4.37879 2.38066 4.64438C2.26345 4.90998 2.22582 5.20389 2.27236 5.49045C2.31889 5.77701 2.44758 6.04391 2.64282 6.25877L2.65032 6.26721L9.00001 13.0472V20.25C8.99994 20.5215 9.07356 20.7879 9.213 21.0208C9.35244 21.2538 9.55249 21.4445 9.79181 21.5727C10.0311 21.7008 10.3007 21.7617 10.5719 21.7487C10.8431 21.7356 11.1056 21.6493 11.3316 21.4988L14.3316 19.4982C14.5372 19.3612 14.7058 19.1755 14.8225 18.9576C14.9391 18.7398 15.0001 18.4965 15 18.2494V13.0472L21.3506 6.26721L21.3581 6.25877C21.5554 6.04489 21.6854 5.77764 21.7317 5.49037C21.7781 5.2031 21.7388 4.90854 21.6188 4.64346ZM13.7044 12.2419C13.5746 12.3795 13.5016 12.5609 13.5 12.75V18.2494L10.5 20.25V12.75C10.5001 12.5596 10.4277 12.3762 10.2975 12.2372L3.75001 5.25002H20.25L13.7044 12.2419Z" fill="#B6BEC4"/>
</svg>
