<svg width="14" height="14" viewBox="0 0 14 14" fill="none" xmlns="http://www.w3.org/2000/svg">
<path d="M6.99998 4.37491C6.48081 4.37491 5.97329 4.52886 5.54161 4.8173C5.10993 5.10574 4.77348 5.51571 4.5748 5.99536C4.37612 6.47502 4.32413 7.00282 4.42542 7.51202C4.52671 8.02122 4.77671 8.48895 5.14383 8.85606C5.51094 9.22318 5.97867 9.47318 6.48787 9.57447C6.99707 9.67576 7.52487 9.62377 8.00453 9.42509C8.48418 9.22641 8.89415 8.88996 9.18259 8.45828C9.47103 8.0266 9.62498 7.51908 9.62498 6.99991C9.62426 6.30394 9.34746 5.63668 8.85534 5.14455C8.36321 4.65243 7.69595 4.37563 6.99998 4.37491ZM6.99998 8.74991C6.65386 8.74991 6.31552 8.64727 6.02773 8.45498C5.73995 8.26269 5.51565 7.98937 5.38319 7.6696C5.25074 7.34983 5.21608 6.99797 5.28361 6.6585C5.35113 6.31903 5.5178 6.00721 5.76254 5.76247C6.00729 5.51773 6.31911 5.35106 6.65857 5.28353C6.99804 5.21601 7.34991 5.25067 7.66968 5.38312C7.98945 5.51557 8.26276 5.73987 8.45505 6.02766C8.64735 6.31545 8.74998 6.65379 8.74998 6.99991C8.74998 7.46404 8.56561 7.90916 8.23742 8.23734C7.90923 8.56553 7.46411 8.74991 6.99998 8.74991ZM13.0123 5.86296C13.0001 5.80135 12.9748 5.74308 12.9381 5.69213C12.9014 5.64117 12.8542 5.59871 12.7996 5.56764L11.1683 4.63795L11.1617 2.79936C11.1615 2.73604 11.1476 2.67352 11.1208 2.61611C11.0941 2.5587 11.0553 2.50778 11.0069 2.46686C10.4152 1.96631 9.73373 1.58271 8.99881 1.33647C8.94094 1.31688 8.8796 1.30963 8.81875 1.31519C8.75791 1.32075 8.6989 1.33899 8.64553 1.36874L6.99998 2.28858L5.35279 1.3671C5.29939 1.33718 5.24031 1.3188 5.17936 1.31315C5.11841 1.3075 5.05696 1.3147 4.99897 1.33428C4.26459 1.58232 3.58392 1.96738 2.99303 2.46905C2.94478 2.50991 2.90596 2.56074 2.87924 2.61805C2.85252 2.67536 2.83854 2.73777 2.83826 2.801L2.83006 4.64124L1.19873 5.57092C1.14415 5.60199 1.09691 5.64445 1.0602 5.69541C1.02349 5.74637 0.998184 5.80463 0.985998 5.86624C0.836699 6.61649 0.836699 7.3888 0.985998 8.13905C0.998184 8.20066 1.02349 8.25892 1.0602 8.30988C1.09691 8.36083 1.14415 8.40329 1.19873 8.43436L2.83006 9.36405L2.83662 11.2026C2.83682 11.266 2.85076 11.3285 2.87748 11.3859C2.9042 11.4433 2.94307 11.4942 2.99139 11.5351C3.58315 12.0357 4.2646 12.4193 4.99951 12.6655C5.05739 12.6851 5.11872 12.6924 5.17957 12.6868C5.24042 12.6813 5.29943 12.663 5.35279 12.6333L6.99998 11.7112L8.64717 12.6327C8.71236 12.669 8.78583 12.6879 8.86045 12.6874C8.90823 12.6874 8.9557 12.6796 9.001 12.6644C9.73529 12.4167 10.416 12.032 11.0069 11.5308C11.0552 11.4899 11.094 11.4391 11.1207 11.3818C11.1474 11.3245 11.1614 11.262 11.1617 11.1988L11.1699 9.35858L12.8012 8.42889C12.8558 8.39782 12.9031 8.35537 12.9398 8.30441C12.9765 8.25345 13.0018 8.19519 13.014 8.13358C13.1624 7.38393 13.1619 6.61239 13.0123 5.86296ZM12.192 7.7721L10.6296 8.66077C10.5611 8.69969 10.5045 8.75637 10.4655 8.82483C10.4338 8.87952 10.4005 8.93749 10.3665 8.99217C10.3231 9.06114 10.3 9.14092 10.2998 9.22241L10.2916 10.9861C9.87166 11.3159 9.40379 11.5796 8.9042 11.7681L7.32811 10.8898C7.26268 10.8536 7.18906 10.8348 7.11428 10.8351H7.10389C7.03772 10.8351 6.971 10.8351 6.90483 10.8351C6.82656 10.8332 6.74918 10.8521 6.68061 10.8898L5.10342 11.7703C4.60276 11.5832 4.1336 11.3208 3.71217 10.9921L3.70615 9.23116C3.70588 9.14951 3.68277 9.06957 3.63944 9.00038C3.60553 8.94569 3.57217 8.891 3.541 8.83303C3.50235 8.76352 3.44567 8.70571 3.37694 8.66569L1.81287 7.77483C1.73193 7.26285 1.73193 6.74134 1.81287 6.22936L3.37256 5.33905C3.44102 5.30012 3.4977 5.24344 3.53662 5.17499C3.56834 5.1203 3.6017 5.06233 3.63561 5.00764C3.67901 4.93868 3.70213 4.85889 3.70233 4.77741L3.71053 3.01374C4.13049 2.68394 4.59836 2.42022 5.09795 2.23171L6.67186 3.10999C6.74035 3.14796 6.81779 3.16684 6.89608 3.16467C6.96225 3.16467 7.02897 3.16467 7.09514 3.16467C7.1734 3.16663 7.25078 3.14776 7.31936 3.10999L8.89654 2.22952C9.3972 2.41659 9.86636 2.67901 10.2878 3.00772L10.2938 4.76866C10.2941 4.8503 10.3172 4.93024 10.3605 4.99944C10.3944 5.05413 10.4278 5.10881 10.459 5.16678C10.4976 5.2363 10.5543 5.29411 10.623 5.33413L12.1871 6.22499C12.2691 6.73736 12.27 7.25944 12.1898 7.7721H12.192Z" fill="#4DBE95"/>
</svg>
