<svg width="32" height="32" viewBox="0 0 32 32" fill="none" xmlns="http://www.w3.org/2000/svg">
<path d="M27 4H21C20.7348 4 20.4804 4.10536 20.2929 4.29289C20.1054 4.48043 20 4.73478 20 5C20 5.26522 20.1054 5.51957 20.2929 5.70711C20.4804 5.89464 20.7348 6 21 6H24.5862L19.3275 11.2587C17.3411 9.63509 14.8067 8.83697 12.2484 9.02946C9.69013 9.22195 7.30367 10.3903 5.58263 12.2929C3.8616 14.1956 2.93764 16.6869 3.00185 19.2516C3.06607 21.8163 4.11355 24.2582 5.92765 26.0723C7.74175 27.8864 10.1837 28.9339 12.7484 28.9981C15.3131 29.0624 17.8044 28.1384 19.707 26.4174C21.6097 24.6963 22.778 22.3099 22.9705 19.7516C23.163 17.1933 22.3649 14.6589 20.7412 12.6725L26 7.415V11C26 11.2652 26.1054 11.5196 26.2929 11.7071C26.4804 11.8946 26.7348 12 27 12C27.2652 12 27.5196 11.8946 27.7071 11.7071C27.8946 11.5196 28 11.2652 28 11V5C28 4.73478 27.8946 4.48043 27.7071 4.29289C27.5196 4.10536 27.2652 4 27 4ZM18.655 24.6612C17.536 25.7797 16.1106 26.5413 14.5588 26.8497C13.0071 27.1581 11.3987 26.9994 9.93711 26.3938C8.47551 25.7882 7.2263 24.7628 6.3474 23.4473C5.46851 22.1318 4.99941 20.5852 4.99941 19.0031C4.99941 17.421 5.46851 15.8745 6.3474 14.5589C7.2263 13.2434 8.47551 12.218 9.93711 11.6124C11.3987 11.0068 13.0071 10.8482 14.5588 11.1566C16.1106 11.465 17.536 12.2265 18.655 13.345C20.153 14.847 20.9942 16.8818 20.9942 19.0031C20.9942 21.1245 20.153 23.1592 18.655 24.6612Z" fill="#4DBE95"/>
</svg>
