<svg width="24" height="24" viewBox="0 0 24 24" fill="none" xmlns="http://www.w3.org/2000/svg">
<path d="M15.0206 2.25V0.75C15.0206 0.551088 15.0997 0.360322 15.2403 0.21967C15.381 0.0790176 15.5717 0 15.7706 0C15.9695 0 16.1603 0.0790176 16.301 0.21967C16.4416 0.360322 16.5206 0.551088 16.5206 0.75V2.25C16.5206 2.44891 16.4416 2.63968 16.301 2.78033C16.1603 2.92098 15.9695 3 15.7706 3C15.5717 3 15.381 2.92098 15.2403 2.78033C15.0997 2.63968 15.0206 2.44891 15.0206 2.25ZM18.3844 3.84375C18.502 3.91597 18.6373 3.95396 18.7753 3.95344C18.904 3.95364 19.0306 3.92072 19.1429 3.85783C19.2553 3.79495 19.3495 3.70422 19.4166 3.59438L20.1666 2.36531C20.2179 2.2811 20.252 2.18762 20.2672 2.09019C20.2823 1.99277 20.2781 1.89332 20.2549 1.79751C20.2316 1.70171 20.1896 1.61143 20.1315 1.53183C20.0733 1.45223 20 1.38487 19.9158 1.33359C19.8316 1.28232 19.7381 1.24813 19.6407 1.23298C19.5433 1.21783 19.4438 1.22202 19.348 1.24531C19.2522 1.2686 19.1619 1.31052 19.0823 1.3687C19.0027 1.42688 18.9354 1.50016 18.8841 1.58437L18.1341 2.8125C18.0827 2.89663 18.0485 2.99006 18.0333 3.08744C18.0181 3.18481 18.0223 3.28423 18.0455 3.38C18.0687 3.47578 18.1106 3.56603 18.1688 3.6456C18.2269 3.72518 18.3002 3.79251 18.3844 3.84375ZM22.8384 5.02406C22.8082 4.9302 22.7598 4.84321 22.696 4.76808C22.6321 4.69295 22.554 4.63115 22.4663 4.58622C22.3785 4.54129 22.2827 4.51411 22.1844 4.50623C22.0861 4.49835 21.9873 4.50993 21.8934 4.54031L20.4816 4.995C20.311 5.04953 20.1656 5.16329 20.0716 5.31572C19.9776 5.46814 19.9412 5.64916 19.9691 5.82606C19.997 6.00295 20.0872 6.16404 20.2235 6.2802C20.3598 6.39635 20.5331 6.45991 20.7122 6.45938C20.7905 6.45908 20.8683 6.44674 20.9428 6.42281L22.3538 5.96812C22.448 5.93803 22.5354 5.88958 22.6109 5.82556C22.6863 5.76154 22.7484 5.68323 22.7934 5.59512C22.8385 5.50702 22.8657 5.41087 22.8734 5.31222C22.8811 5.21356 22.8692 5.11436 22.8384 5.02031V5.02406ZM20.3438 9.14812C21.1381 10.5291 21.4733 12.1267 21.3011 13.7105C21.1289 15.2944 20.4582 16.7826 19.3856 17.9606C19.3538 18.1228 19.3181 18.285 19.2741 18.4462C18.8874 19.8803 18.0845 21.1677 16.9668 22.1458C15.849 23.1238 14.4665 23.7488 12.9939 23.9418C11.5212 24.1348 10.0243 23.8871 8.69232 23.2301C7.36029 22.573 6.25281 21.536 5.5097 20.25L2.20314 14.5312C2.0023 14.1833 1.89058 13.7911 1.87792 13.3896C1.86526 12.988 1.95205 12.5895 2.13056 12.2296C2.30908 11.8697 2.57379 11.5595 2.90114 11.3266C3.2285 11.0937 3.60834 10.9453 4.00689 10.8947L3.72564 10.4072C3.52506 10.0595 3.41344 9.66772 3.40069 9.26656C3.38793 8.86539 3.47444 8.46728 3.65252 8.10759C3.83061 7.74789 4.09476 7.43774 4.42153 7.20467C4.74829 6.9716 5.12756 6.82283 5.52564 6.77156L5.46001 6.65625C5.18198 6.17743 5.07525 5.61823 5.15738 5.07067C5.23952 4.52311 5.50563 4.01983 5.91192 3.64367C6.3182 3.2675 6.84045 3.04087 7.3927 3.00107C7.94495 2.96127 8.4943 3.11067 8.95032 3.42469C9.17041 3.06221 9.48105 2.76325 9.8517 2.55722C10.2223 2.3512 10.6402 2.24519 11.0643 2.24964C11.4883 2.25409 11.9039 2.36883 12.2701 2.58258C12.6364 2.79633 12.9407 3.10173 13.1531 3.46875L14.3025 5.45625C14.547 5.13743 14.8662 4.88378 15.2321 4.71776C15.5979 4.55174 15.9991 4.47846 16.4 4.50441C16.8009 4.53037 17.1892 4.65476 17.5306 4.86656C17.872 5.07837 18.1559 5.37107 18.3572 5.71875L20.3438 9.14812ZM10.2253 5.15625L12.5691 9.20344C12.7646 8.94762 13.0088 8.73306 13.2876 8.57215C13.5665 8.41124 13.8745 8.30716 14.1938 8.26594L11.8519 4.21875C11.7276 4.00305 11.5227 3.84558 11.2822 3.78097C11.0418 3.71635 10.7856 3.7499 10.5699 3.87422C10.3542 3.99854 10.1967 4.20345 10.1321 4.44388C10.0675 4.68431 10.101 4.94055 10.2253 5.15625ZM6.76126 5.90625L7.36689 6.95344C7.56244 6.69791 7.80655 6.48354 8.08521 6.32265C8.36387 6.16177 8.67157 6.05753 8.99064 6.01594L8.38595 4.96875C8.32439 4.86207 8.24243 4.76856 8.14473 4.69356C8.04703 4.61856 7.93552 4.56354 7.81656 4.53163C7.6976 4.49972 7.57352 4.49156 7.45141 4.50761C7.32929 4.52366 7.21153 4.5636 7.10486 4.62516C6.99818 4.68671 6.90467 4.76868 6.82967 4.86637C6.75466 4.96407 6.69964 5.07558 6.66773 5.19454C6.63583 5.3135 6.62767 5.43758 6.64371 5.5597C6.65976 5.68181 6.6997 5.79957 6.76126 5.90625ZM17.2181 13.5L15.3225 10.2188C15.2075 9.99821 15.0096 9.83238 14.7724 9.75774C14.5351 9.68311 14.2779 9.70578 14.0574 9.82078C13.8368 9.93578 13.671 10.1337 13.5963 10.3709C13.5217 10.6082 13.5444 10.8654 13.6594 11.0859L14.8406 13.125C14.9401 13.2974 14.967 13.5023 14.9154 13.6946C14.8638 13.8868 14.7379 14.0507 14.5655 14.1502C14.393 14.2496 14.1882 14.2765 13.9959 14.2249C13.8037 14.1733 13.6398 14.0474 13.5403 13.875L10.1184 7.96875C9.99413 7.75305 9.78922 7.59558 9.54879 7.53097C9.30836 7.46635 9.05211 7.4999 8.83642 7.62422C8.62072 7.74854 8.46325 7.95345 8.39863 8.19388C8.33402 8.43431 8.36757 8.69055 8.49189 8.90625L10.9341 13.125C11.0335 13.2974 11.0604 13.5023 11.0088 13.6946C10.9572 13.8868 10.8314 14.0507 10.6589 14.1502C10.4865 14.2496 10.2816 14.2765 10.0894 14.2249C9.8971 14.1733 9.73322 14.0474 9.63376 13.875L6.65626 8.71875C6.53194 8.5033 6.32713 8.34607 6.08687 8.28163C5.84662 8.21719 5.59061 8.25084 5.37517 8.37516C5.15972 8.49948 5.00248 8.70429 4.93805 8.94454C4.87361 9.18479 4.90725 9.4408 5.03157 9.65625L8.33345 15.375C8.43291 15.5477 8.45969 15.7528 8.40791 15.9452C8.35614 16.1377 8.23004 16.3016 8.05736 16.4011C7.88467 16.5006 7.67956 16.5273 7.48713 16.4756C7.2947 16.4238 7.13072 16.2977 7.03126 16.125L5.13001 12.8438C5.00569 12.6282 4.80083 12.4708 4.56049 12.4063C4.32015 12.3418 4.06402 12.3754 3.84845 12.4997C3.63288 12.624 3.47552 12.8289 3.411 13.0692C3.34647 13.3096 3.38007 13.5657 3.50439 13.7812L6.81095 19.5C7.40574 20.5283 8.29188 21.3573 9.35746 21.8823C10.423 22.4074 11.6203 22.605 12.7981 22.4501C13.9759 22.2952 15.0814 21.7949 15.975 21.0122C16.8686 20.2295 17.5103 19.1996 17.8191 18.0525C18.0252 17.2917 18.0782 16.4975 17.9751 15.716C17.8719 14.9345 17.6146 14.1813 17.2181 13.5ZM19.0378 9.89812L17.0559 6.46875C16.9944 6.36176 16.9124 6.26795 16.8146 6.19266C16.7167 6.11738 16.6051 6.0621 16.4859 6.02997C16.2452 5.9651 15.9886 5.99849 15.7725 6.12281C15.6655 6.18437 15.5717 6.2664 15.4964 6.36421C15.4211 6.46202 15.3659 6.57371 15.3337 6.69289C15.2689 6.93358 15.3023 7.19018 15.4266 7.40625L18.5203 12.7547C18.9492 13.4942 19.2488 14.3014 19.4063 15.1416C19.7452 14.2966 19.8882 13.3857 19.8244 12.4775C19.7606 11.5693 19.4916 10.6874 19.0378 9.89812Z" fill="#4DBE95"/>
</svg>
