<svg width="16" height="16" viewBox="0 0 16 16" fill="none" xmlns="http://www.w3.org/2000/svg">
<path d="M11.75 5.49995C11.4905 5.49959 11.2342 5.55747 11 5.66933V3.74995C10.9999 3.44669 10.921 3.14865 10.7711 2.88505C10.6211 2.62146 10.4052 2.40136 10.1446 2.24633C9.88394 2.09131 9.58748 2.00667 9.28427 2.00073C8.98106 1.9948 8.68152 2.06775 8.415 2.21245C8.28669 1.81594 8.0211 1.47824 7.66599 1.2601C7.31089 1.04196 6.8896 0.95771 6.47791 1.02251C6.06623 1.0873 5.69118 1.29689 5.42025 1.61356C5.14932 1.93024 5.0003 2.3332 5 2.74995V3.16933C4.76582 3.05747 4.50952 2.99959 4.25 2.99995C3.78587 2.99995 3.34075 3.18433 3.01256 3.51252C2.68437 3.84071 2.5 4.28583 2.5 4.74995V9.49995C2.5 10.9586 3.07946 12.3576 4.11091 13.389C5.14236 14.4205 6.54131 15 8 15C9.45869 15 10.8576 14.4205 11.8891 13.389C12.9205 12.3576 13.5 10.9586 13.5 9.49995V7.24995C13.5 6.78583 13.3156 6.34071 12.9874 6.01252C12.6592 5.68433 12.2141 5.49995 11.75 5.49995ZM12.5 9.49995C12.5 10.6934 12.0259 11.838 11.182 12.6819C10.3381 13.5258 9.19347 14 8 14C6.80653 14 5.66193 13.5258 4.81802 12.6819C3.97411 11.838 3.5 10.6934 3.5 9.49995V4.74995C3.5 4.55104 3.57902 4.36028 3.71967 4.21962C3.86032 4.07897 4.05109 3.99995 4.25 3.99995C4.44891 3.99995 4.63968 4.07897 4.78033 4.21962C4.92098 4.36028 5 4.55104 5 4.74995V6.99995C5 7.13256 5.05268 7.25974 5.14645 7.35351C5.24021 7.44728 5.36739 7.49995 5.5 7.49995C5.63261 7.49995 5.75979 7.44728 5.85355 7.35351C5.94732 7.25974 6 7.13256 6 6.99995V2.74995C6 2.55104 6.07902 2.36028 6.21967 2.21962C6.36032 2.07897 6.55109 1.99995 6.75 1.99995C6.94891 1.99995 7.13968 2.07897 7.28033 2.21962C7.42098 2.36028 7.5 2.55104 7.5 2.74995V6.49995C7.5 6.63256 7.55268 6.75974 7.64645 6.85351C7.74021 6.94728 7.86739 6.99995 8 6.99995C8.13261 6.99995 8.25979 6.94728 8.35355 6.85351C8.44732 6.75974 8.5 6.63256 8.5 6.49995V3.74995C8.5 3.55104 8.57902 3.36028 8.71967 3.21962C8.86032 3.07897 9.05109 2.99995 9.25 2.99995C9.44891 2.99995 9.63968 3.07897 9.78033 3.21962C9.92098 3.36028 10 3.55104 10 3.74995V7.49995C10 7.63256 10.0527 7.75974 10.1464 7.85351C10.2402 7.94728 10.3674 7.99995 10.5 7.99995C10.6326 7.99995 10.7598 7.94728 10.8536 7.85351C10.9473 7.75974 11 7.63256 11 7.49995V7.24995C11 7.05104 11.079 6.86028 11.2197 6.71962C11.3603 6.57897 11.5511 6.49995 11.75 6.49995C11.9489 6.49995 12.1397 6.57897 12.2803 6.71962C12.421 6.86028 12.5 7.05104 12.5 7.24995V9.49995ZM8.75 10.5C8.75 10.6483 8.70601 10.7933 8.6236 10.9166C8.54119 11.04 8.42406 11.1361 8.28701 11.1929C8.14997 11.2496 7.99917 11.2645 7.85368 11.2355C7.7082 11.2066 7.57456 11.1352 7.46967 11.0303C7.36478 10.9254 7.29335 10.7918 7.26441 10.6463C7.23547 10.5008 7.25032 10.35 7.30709 10.2129C7.36386 10.0759 7.45999 9.95876 7.58332 9.87635C7.70666 9.79394 7.85166 9.74995 8 9.74995C8.19891 9.74995 8.38968 9.82897 8.53033 9.96962C8.67098 10.1103 8.75 10.301 8.75 10.5ZM8 7.99995C5.7175 7.99995 4.59937 10.1837 4.5525 10.2762C4.51774 10.3457 4.49964 10.4223 4.49964 10.5C4.49964 10.5776 4.51774 10.6542 4.5525 10.7237C4.59937 10.8162 5.7175 13 8 13C10.2825 13 11.4006 10.8162 11.4475 10.7237C11.4823 10.6542 11.5004 10.5776 11.5004 10.5C11.5004 10.4223 11.4823 10.3457 11.4475 10.2762C11.4006 10.1837 10.2825 7.99995 8 7.99995ZM8 12C6.71063 12 5.8875 10.9675 5.58125 10.5C5.8875 10.0325 6.71063 8.99995 8 8.99995C9.28937 8.99995 10.1131 10.0331 10.4187 10.5C10.1125 10.9675 9.28937 12 8 12Z" fill="#B6BEC4"/>
</svg>
