<svg width="14" height="14" viewBox="0 0 14 14" fill="none" xmlns="http://www.w3.org/2000/svg">
<path d="M8.76202 1.3125V0.4375C8.76202 0.321468 8.80811 0.210188 8.89016 0.128141C8.9722 0.0460936 9.08348 0 9.19952 0C9.31555 0 9.42683 0.0460936 9.50888 0.128141C9.59092 0.210188 9.63702 0.321468 9.63702 0.4375V1.3125C9.63702 1.42853 9.59092 1.53981 9.50888 1.62186C9.42683 1.70391 9.31555 1.75 9.19952 1.75C9.08348 1.75 8.9722 1.70391 8.89016 1.62186C8.80811 1.53981 8.76202 1.42853 8.76202 1.3125ZM10.7242 2.24219C10.7928 2.28432 10.8718 2.30647 10.9523 2.30617C11.0273 2.30629 11.1012 2.28709 11.1667 2.2504C11.2322 2.21372 11.2872 2.16079 11.3263 2.09672L11.7638 1.37977C11.7937 1.33064 11.8137 1.27611 11.8225 1.21928C11.8313 1.16245 11.8289 1.10444 11.8153 1.04855C11.8017 0.992665 11.7773 0.940002 11.7433 0.893569C11.7094 0.847135 11.6666 0.807841 11.6175 0.77793C11.5684 0.748018 11.5139 0.728075 11.457 0.719238C11.4002 0.710402 11.3422 0.712846 11.2863 0.72643C11.2304 0.740014 11.1778 0.764473 11.1313 0.798409C11.0849 0.832346 11.0456 0.875096 11.0157 0.924219L10.5782 1.64062C10.5482 1.6897 10.5283 1.7442 10.5194 1.801C10.5105 1.85781 10.513 1.9158 10.5265 1.97167C10.5401 2.02754 10.5645 2.08018 10.5984 2.1266C10.6324 2.17302 10.6751 2.2123 10.7242 2.24219ZM13.3224 2.9307C13.3048 2.87595 13.2765 2.82521 13.2393 2.78138C13.202 2.73756 13.1565 2.70151 13.1053 2.6753C13.0541 2.64909 12.9982 2.63323 12.9409 2.62863C12.8836 2.62404 12.8259 2.63079 12.7712 2.64852L11.9476 2.91375C11.8481 2.94556 11.7632 3.01192 11.7084 3.10084C11.6536 3.18975 11.6324 3.29535 11.6486 3.39853C11.6649 3.50172 11.7175 3.59569 11.797 3.66345C11.8765 3.7312 11.9776 3.76828 12.0821 3.76797C12.1278 3.76779 12.1731 3.7606 12.2166 3.74664L13.0397 3.48141C13.0947 3.46385 13.1456 3.43559 13.1897 3.39824C13.2337 3.3609 13.2699 3.31522 13.2961 3.26382C13.3224 3.21243 13.3383 3.15634 13.3428 3.09879C13.3473 3.04125 13.3404 2.98337 13.3224 2.92852V2.9307ZM11.8672 5.33641C12.3305 6.142 12.526 7.07392 12.4256 7.99782C12.3252 8.92171 11.9339 9.78983 11.3083 10.477C11.2897 10.5716 11.2689 10.6662 11.2432 10.7603C11.0176 11.5968 10.5493 12.3478 9.89727 12.9184C9.24525 13.4889 8.4388 13.8535 7.57974 13.9661C6.72067 14.0786 5.84751 13.9342 5.0705 13.5509C4.29348 13.1676 3.64745 12.5627 3.21397 11.8125L1.28514 8.47656C1.16799 8.27359 1.10282 8.04481 1.09543 7.81057C1.08805 7.57634 1.13867 7.3439 1.24281 7.13396C1.34694 6.92401 1.50136 6.74306 1.69231 6.6072C1.88327 6.47134 2.10485 6.38478 2.33733 6.35523L2.17327 6.07086C2.05627 5.86806 1.99115 5.6395 1.98371 5.40549C1.97627 5.17148 2.02674 4.93925 2.13062 4.72943C2.2345 4.5196 2.38859 4.33868 2.5792 4.20272C2.76982 4.06676 2.99105 3.97998 3.22327 3.95008L3.18499 3.88281C3.0228 3.6035 2.96054 3.2773 3.00845 2.95789C3.05637 2.63848 3.2116 2.3449 3.4486 2.12547C3.6856 1.90604 3.99024 1.77384 4.31239 1.75062C4.63453 1.72741 4.95499 1.81456 5.221 1.99773C5.34938 1.78629 5.53059 1.6119 5.7468 1.49171C5.96302 1.37153 6.20679 1.3097 6.45414 1.31229C6.7015 1.31488 6.94392 1.38182 7.15757 1.5065C7.37121 1.63119 7.54872 1.80934 7.67264 2.02344L8.34311 3.18281C8.48571 2.99683 8.67195 2.84887 8.88536 2.75202C9.09877 2.65518 9.33276 2.61243 9.56663 2.62758C9.8005 2.64272 10.027 2.71527 10.2262 2.83883C10.4253 2.96238 10.5909 3.13312 10.7083 3.33594L11.8672 5.33641ZM5.96475 3.00781L7.33194 5.36867C7.44597 5.21944 7.58843 5.09428 7.75109 5.00042C7.91376 4.90655 8.09341 4.84584 8.27967 4.8218L6.91358 2.46094C6.84106 2.33511 6.72153 2.24325 6.58128 2.20556C6.44103 2.16787 6.29155 2.18744 6.16573 2.25996C6.03991 2.33248 5.94805 2.45201 5.91035 2.59226C5.87266 2.73251 5.89223 2.88199 5.96475 3.00781ZM3.94405 3.44531L4.29733 4.05617C4.4114 3.90711 4.5538 3.78207 4.71635 3.68821C4.8789 3.59436 5.05839 3.53356 5.24452 3.5093L4.89178 2.89844C4.85587 2.83621 4.80806 2.78166 4.75107 2.73791C4.69408 2.69416 4.62903 2.66206 4.55964 2.64345C4.49025 2.62484 4.41787 2.62008 4.34663 2.62944C4.2754 2.6388 4.20671 2.6621 4.14448 2.69801C4.08225 2.73392 4.0277 2.78173 3.98395 2.83872C3.9402 2.89571 3.9081 2.96076 3.88949 3.03015C3.87088 3.09954 3.86612 3.17192 3.87548 3.24316C3.88484 3.31439 3.90814 3.38308 3.94405 3.44531ZM10.0439 7.875L8.93811 5.96094C8.87103 5.83229 8.75559 5.73555 8.61719 5.69202C8.47878 5.64848 8.32875 5.66171 8.2001 5.72879C8.07145 5.79587 7.97472 5.91131 7.93118 6.04971C7.88765 6.18812 7.90087 6.33815 7.96795 6.4668L8.65702 7.65625C8.71503 7.75684 8.73072 7.87635 8.70061 7.9885C8.67051 8.10065 8.59709 8.19624 8.49651 8.25426C8.39592 8.31227 8.27641 8.32796 8.16426 8.29786C8.05211 8.26775 7.95652 8.19433 7.8985 8.09375L5.90241 4.64844C5.82989 4.52261 5.71035 4.43075 5.57011 4.39306C5.42986 4.35537 5.28038 4.37494 5.15456 4.44746C5.02873 4.51998 4.93687 4.63951 4.89918 4.77976C4.86149 4.92001 4.88106 5.06949 4.95358 5.19531L6.37819 7.65625C6.4362 7.75684 6.45189 7.87635 6.42179 7.9885C6.39169 8.10065 6.31827 8.19624 6.21768 8.25426C6.1171 8.31227 5.99758 8.32796 5.88544 8.29786C5.77329 8.26775 5.67769 8.19433 5.61967 8.09375L3.8828 5.08594C3.81028 4.96026 3.6908 4.86854 3.55066 4.83095C3.41051 4.79336 3.26117 4.81299 3.13549 4.88551C3.00982 4.95803 2.91809 5.0775 2.88051 5.21765C2.84292 5.3578 2.86254 5.50713 2.93506 5.63281L4.86116 8.96875C4.91917 9.06948 4.9348 9.18913 4.90459 9.30138C4.87439 9.41363 4.80083 9.50929 4.7001 9.5673C4.59937 9.62532 4.47972 9.64095 4.36747 9.61074C4.25522 9.58054 4.15956 9.50698 4.10155 9.40625L2.99249 7.49219C2.91997 7.36644 2.80046 7.27465 2.66026 7.23701C2.52007 7.19937 2.37066 7.21896 2.24491 7.29148C2.11916 7.364 2.02737 7.48351 1.98973 7.62371C1.95209 7.7639 1.97168 7.91331 2.0442 8.03906L3.97303 11.375C4.32 11.9748 4.83691 12.4584 5.4585 12.7647C6.08009 13.071 6.7785 13.1862 7.46554 13.0959C8.15258 13.0055 8.79745 12.7137 9.31873 12.2571C9.84001 11.8005 10.2143 11.1998 10.3944 10.5306C10.5147 10.0868 10.5456 9.62353 10.4854 9.16766C10.4253 8.7118 10.2752 8.27242 10.0439 7.875ZM11.1054 5.77391L9.94928 3.77344C9.91337 3.71103 9.86553 3.6563 9.80847 3.61239C9.75141 3.56847 9.68626 3.53622 9.61674 3.51748C9.47634 3.47964 9.32665 3.49912 9.20061 3.57164C9.1382 3.60755 9.08348 3.6554 9.03956 3.71246C8.99564 3.76951 8.9634 3.83466 8.94466 3.90418C8.90681 4.04459 8.92629 4.19427 8.99881 4.32031L10.8035 7.44023C11.0537 7.8716 11.2284 8.34246 11.3203 8.83258C11.518 8.33967 11.6014 7.80834 11.5642 7.27855C11.527 6.74877 11.3701 6.23432 11.1054 5.77391Z" fill="#4DBE95"/>
</svg>
