<svg width="14" height="15" viewBox="0 0 14 15" fill="none" xmlns="http://www.w3.org/2000/svg">
<path d="M9.73438 2.6875C8.60508 2.6875 7.61633 3.17312 7 3.99398C6.38367 3.17312 5.39492 2.6875 4.26562 2.6875C3.36669 2.68851 2.50486 3.04606 1.86921 3.68171C1.23356 4.31736 0.876013 5.17919 0.875 6.07812C0.875 9.90625 6.55102 13.0048 6.79273 13.1328C6.85644 13.1671 6.92766 13.185 7 13.185C7.07234 13.185 7.14356 13.1671 7.20727 13.1328C7.44898 13.0048 13.125 9.90625 13.125 6.07812C13.124 5.17919 12.7664 4.31736 12.1308 3.68171C11.4951 3.04606 10.6333 2.68851 9.73438 2.6875ZM7 12.2469C6.00141 11.665 1.75 9.0143 1.75 6.07812C1.75087 5.41121 2.01619 4.77185 2.48777 4.30027C2.95935 3.82869 3.59871 3.56337 4.26562 3.5625C5.3293 3.5625 6.22234 4.12906 6.59531 5.03906C6.62827 5.1193 6.68435 5.18794 6.7564 5.23624C6.82846 5.28454 6.91325 5.31033 7 5.31033C7.08675 5.31033 7.17154 5.28454 7.2436 5.23624C7.31565 5.18794 7.37173 5.1193 7.40469 5.03906C7.77766 4.12742 8.6707 3.5625 9.73438 3.5625C10.4013 3.56337 11.0406 3.82869 11.5122 4.30027C11.9838 4.77185 12.2491 5.41121 12.25 6.07812C12.25 9.00992 7.9975 11.6645 7 12.2469Z" fill="#D84F68"/>
</svg>
