<svg width="26" height="26" viewBox="0 0 26 26" fill="none" xmlns="http://www.w3.org/2000/svg">
<path d="M22.75 15.4375H13.2945L3.86953 4.3489C3.73 4.18459 3.53092 4.08244 3.31607 4.06492C3.10122 4.04739 2.88822 4.11594 2.72391 4.25547C2.5596 4.39499 2.45744 4.59408 2.43992 4.80893C2.4224 5.02377 2.49094 5.23678 2.63047 5.40109L16.2002 21.3647C16.3527 21.5442 16.5425 21.6884 16.7562 21.7873C16.97 21.8862 17.2027 21.9375 17.4383 21.9375H22.75C23.181 21.9375 23.5943 21.7663 23.899 21.4615C24.2038 21.1568 24.375 20.7435 24.375 20.3125V17.0625C24.375 16.6315 24.2038 16.2182 23.899 15.9134C23.5943 15.6087 23.181 15.4375 22.75 15.4375ZM14.6758 17.0625H19.5V20.3125H17.4383L14.6758 17.0625ZM22.75 20.3125H21.125V17.0625H22.75V20.3125ZM11.3933 18.2355C11.2292 18.0961 11.0165 18.0276 10.8019 18.0449C10.5872 18.0622 10.3883 18.164 10.2487 18.328L8.56172 20.3125H6.5V17.0625H8.65312C8.86861 17.0625 9.07528 16.9769 9.22765 16.8245C9.38002 16.6721 9.46562 16.4655 9.46562 16.25C9.46562 16.0345 9.38002 15.8278 9.22765 15.6755C9.07528 15.5231 8.86861 15.4375 8.65312 15.4375H3.25C2.81902 15.4375 2.4057 15.6087 2.10095 15.9134C1.7962 16.2182 1.625 16.6315 1.625 17.0625V20.3125C1.625 20.7435 1.7962 21.1568 2.10095 21.4615C2.4057 21.7663 2.81902 21.9375 3.25 21.9375H8.56172C8.79727 21.9375 9.02999 21.8862 9.24376 21.7873C9.45753 21.6884 9.64725 21.5442 9.79977 21.3647L11.4867 19.3812C11.5558 19.2998 11.6083 19.2057 11.641 19.1041C11.6737 19.0024 11.6861 18.8954 11.6774 18.789C11.6687 18.6826 11.6391 18.579 11.5904 18.484C11.5417 18.389 11.4747 18.3046 11.3933 18.2355ZM3.25 17.0625H4.875V20.3125H3.25V17.0625ZM15.2242 12.4739L22.1305 4.3489C22.27 4.18459 22.4691 4.08244 22.6839 4.06492C22.8988 4.04739 23.1118 4.11594 23.2761 4.25547C23.4404 4.39499 23.5426 4.59408 23.5601 4.80893C23.5776 5.02377 23.5091 5.23678 23.3695 5.40109L16.4633 13.5261C16.3942 13.6074 16.3098 13.6744 16.2148 13.7231C16.1198 13.7719 16.0162 13.8014 15.9098 13.8101C15.695 13.8276 15.482 13.7591 15.3177 13.6195C15.1533 13.48 15.0512 13.2809 15.0337 13.0661C15.0161 12.8512 15.0847 12.6382 15.2242 12.4739Z" fill="#EEF0F1"/>
</svg>
