<svg width="16" height="16" viewBox="0 0 16 16" fill="none" xmlns="http://www.w3.org/2000/svg">
<path d="M13.5356 2.46437C12.7414 1.66906 11.7024 1.16454 10.5863 1.03222C9.47016 0.899893 8.34199 1.14749 7.38384 1.73504C6.42569 2.3226 5.69346 3.21585 5.30529 4.27064C4.91712 5.32544 4.89566 6.48026 5.24438 7.54874L1.79313 11C1.69987 11.0925 1.62593 11.2027 1.5756 11.324C1.52528 11.4454 1.49959 11.5755 1.50001 11.7069V13.5C1.50001 13.7652 1.60536 14.0196 1.7929 14.2071C1.98043 14.3946 2.23479 14.5 2.50001 14.5H4.50001C4.63261 14.5 4.75979 14.4473 4.85356 14.3535C4.94733 14.2598 5.00001 14.1326 5.00001 14V13H6.00001C6.13261 13 6.25979 12.9473 6.35356 12.8535C6.44733 12.7598 6.50001 12.6326 6.50001 12.5V11.5H7.50001C7.56569 11.5 7.63073 11.4872 7.69143 11.4621C7.75213 11.437 7.80729 11.4002 7.85376 11.3537L8.45126 10.7556C8.95138 10.9183 9.47409 11.0008 10 11H10.0063C10.9947 10.9988 11.9605 10.7047 12.7818 10.1548C13.6032 9.60492 14.2431 8.82395 14.6208 7.91055C14.9985 6.99715 15.0969 5.99231 14.9038 5.02296C14.7107 4.05361 14.2346 3.16326 13.5356 2.46437ZM14 6.13124C13.9319 8.26187 12.1406 9.99749 10.0069 9.99999H10C9.49386 10.0008 8.99219 9.90518 8.52188 9.71812C8.42988 9.67819 8.328 9.66685 8.22947 9.68558C8.13094 9.7043 8.04032 9.75222 7.96938 9.82312L7.29313 10.5H6.00001C5.8674 10.5 5.74022 10.5527 5.64645 10.6464C5.55268 10.7402 5.50001 10.8674 5.50001 11V12H4.50001C4.3674 12 4.24022 12.0527 4.14645 12.1464C4.05268 12.2402 4.00001 12.3674 4.00001 12.5V13.5H2.50001V11.7069L6.17688 8.03062C6.24777 7.95968 6.2957 7.86906 6.31442 7.77053C6.33315 7.672 6.32181 7.57012 6.28188 7.47812C6.09422 7.00624 5.99854 6.50282 6.00001 5.99499C6.00001 3.86124 7.73813 2.06999 9.86875 2.00187C10.416 1.9836 10.9613 2.07791 11.4706 2.27894C11.98 2.47997 12.4427 2.78345 12.83 3.17057C13.2173 3.5577 13.5209 4.02022 13.7222 4.5295C13.9235 5.03877 14.018 5.58394 14 6.13124ZM12 4.74999C12 4.89833 11.956 5.04333 11.8736 5.16667C11.7912 5.29001 11.6741 5.38614 11.537 5.4429C11.4 5.49967 11.2492 5.51452 11.1037 5.48558C10.9582 5.45664 10.8246 5.38521 10.7197 5.28032C10.6148 5.17544 10.5434 5.0418 10.5144 4.89631C10.4855 4.75083 10.5003 4.60003 10.5571 4.46298C10.6139 4.32594 10.71 4.2088 10.8333 4.12639C10.9567 4.04398 11.1017 3.99999 11.25 3.99999C11.4489 3.99999 11.6397 4.07901 11.7803 4.21966C11.921 4.36032 12 4.55108 12 4.74999Z" fill="#B6BEC4"/>
</svg>
