<svg width="16" height="16" viewBox="0 0 16 16" fill="none" xmlns="http://www.w3.org/2000/svg">
<path d="M8 1.5C6.71442 1.5 5.45772 1.88122 4.3888 2.59545C3.31988 3.30968 2.48676 4.32484 1.99479 5.51256C1.50282 6.70028 1.37409 8.00721 1.6249 9.26809C1.8757 10.529 2.49477 11.6872 3.40381 12.5962C4.31285 13.5052 5.47104 14.1243 6.73192 14.3751C7.99279 14.6259 9.29973 14.4972 10.4874 14.0052C11.6752 13.5132 12.6903 12.6801 13.4046 11.6112C14.1188 10.5423 14.5 9.28558 14.5 8C14.4982 6.27665 13.8128 4.62441 12.5942 3.40582C11.3756 2.18722 9.72335 1.50182 8 1.5ZM8 13.5C6.91221 13.5 5.84884 13.1774 4.94437 12.5731C4.0399 11.9687 3.33495 11.1098 2.91867 10.1048C2.50238 9.09977 2.39347 7.9939 2.60568 6.927C2.8179 5.86011 3.34173 4.8801 4.11092 4.11091C4.8801 3.34172 5.86011 2.8179 6.92701 2.60568C7.9939 2.39346 9.09977 2.50238 10.1048 2.91866C11.1098 3.33494 11.9687 4.03989 12.5731 4.94436C13.1774 5.84883 13.5 6.9122 13.5 8C13.4983 9.45818 12.9184 10.8562 11.8873 11.8873C10.8562 12.9184 9.45819 13.4983 8 13.5ZM10.5 7C10.5001 6.58041 10.3946 6.16755 10.1932 5.79945C9.99176 5.43136 9.70095 5.11988 9.34753 4.89372C8.99411 4.66755 8.58945 4.53398 8.17084 4.50531C7.75223 4.47663 7.33314 4.55378 6.95218 4.72965C6.57123 4.90551 6.24066 5.17443 5.99094 5.51162C5.74123 5.84881 5.5804 6.24343 5.52328 6.65911C5.46616 7.0748 5.51458 7.49817 5.66408 7.89023C5.81358 8.28228 6.05935 8.6304 6.37875 8.9025L5.5425 10.7981C5.50891 10.8742 5.49484 10.9575 5.50158 11.0405C5.50831 11.1234 5.53563 11.2033 5.58107 11.273C5.6265 11.3427 5.68861 11.4 5.76176 11.4396C5.83491 11.4793 5.9168 11.5 6 11.5H10C10.0832 11.5 10.1651 11.4793 10.2382 11.4396C10.3114 11.4 10.3735 11.3427 10.4189 11.273C10.4644 11.2033 10.4917 11.1234 10.4984 11.0405C10.5052 10.9575 10.4911 10.8742 10.4575 10.7981L9.62125 8.9025C9.89622 8.66748 10.1171 8.37578 10.2688 8.0474C10.4205 7.71902 10.4993 7.36172 10.5 7ZM8.5425 8.9375L9.23 10.5031H6.76688L7.45438 8.9375C7.50534 8.8247 7.51265 8.69701 7.47489 8.57914C7.43714 8.46126 7.35701 8.36158 7.25 8.29937C6.96404 8.13427 6.74055 7.87943 6.61418 7.57436C6.48782 7.2693 6.46565 6.93106 6.55111 6.61211C6.63658 6.29316 6.82489 6.01132 7.08686 5.81031C7.34883 5.60929 7.6698 5.50034 8 5.50034C8.3302 5.50034 8.65118 5.60929 8.91315 5.81031C9.17511 6.01132 9.36343 6.29316 9.44889 6.61211C9.53435 6.93106 9.51219 7.2693 9.38582 7.57436C9.25946 7.87943 9.03597 8.13427 8.75 8.29937C8.64245 8.36108 8.56166 8.46054 8.52331 8.57846C8.48497 8.69638 8.49181 8.82434 8.5425 8.9375Z" fill="#B6BEC4"/>
</svg>
