<svg width="16" height="16" viewBox="0 0 16 16" fill="none" xmlns="http://www.w3.org/2000/svg">
<path d="M14.3536 13.6463L11.2243 10.5175C12.1313 9.42857 12.5836 8.03187 12.487 6.61796C12.3905 5.20405 11.7526 3.88179 10.706 2.92624C9.65938 1.97069 8.28468 1.45541 6.86784 1.48761C5.451 1.51981 4.10112 2.09701 3.09901 3.09912C2.0969 4.10123 1.51971 5.45111 1.48751 6.86795C1.45531 8.28478 1.97058 9.65949 2.92613 10.7061C3.88168 11.7527 5.20395 12.3906 6.61786 12.4872C8.03177 12.5837 9.42846 12.1314 10.5174 11.2244L13.6461 14.3538C13.6926 14.4002 13.7478 14.4371 13.8085 14.4622C13.8691 14.4873 13.9342 14.5003 13.9999 14.5003C14.0656 14.5003 14.1307 14.4873 14.1913 14.4622C14.252 14.4371 14.3072 14.4002 14.3536 14.3538C14.4001 14.3073 14.437 14.2522 14.4621 14.1915C14.4872 14.1308 14.5002 14.0657 14.5002 14C14.5002 13.9343 14.4872 13.8693 14.4621 13.8086C14.437 13.7479 14.4001 13.6927 14.3536 13.6463ZM2.4999 7.00001C2.4999 6.10999 2.76382 5.23996 3.25829 4.49994C3.75275 3.75992 4.45556 3.18314 5.27782 2.84255C6.10009 2.50195 7.00489 2.41284 7.8778 2.58647C8.75072 2.76011 9.55254 3.18869 10.1819 3.81802C10.8112 4.44736 11.2398 5.24918 11.4134 6.1221C11.5871 6.99501 11.498 7.89981 11.1574 8.72208C10.8168 9.54435 10.24 10.2472 9.49996 10.7416C8.75994 11.2361 7.88991 11.5 6.9999 11.5C5.80683 11.4987 4.66301 11.0242 3.81938 10.1805C2.97575 9.3369 2.50122 8.19307 2.4999 7.00001Z" fill="#B6BEC4"/>
</svg>
