<svg width="14" height="14" viewBox="0 0 14 14" fill="none" xmlns="http://www.w3.org/2000/svg">
<path d="M11.8125 2.1875H2.1875C1.95544 2.1875 1.73288 2.27969 1.56878 2.44378C1.40469 2.60788 1.3125 2.83044 1.3125 3.0625V11.8125C1.31254 11.8871 1.33164 11.9604 1.36798 12.0255C1.40432 12.0906 1.4567 12.1453 1.52015 12.1845C1.5836 12.2237 1.65601 12.246 1.7305 12.2493C1.80499 12.2527 1.8791 12.2369 1.94578 12.2035L3.5 11.4264L5.05422 12.2035C5.115 12.2339 5.18203 12.2498 5.25 12.2498C5.31797 12.2498 5.385 12.2339 5.44578 12.2035L7 11.4264L8.55422 12.2035C8.615 12.2339 8.68203 12.2498 8.75 12.2498C8.81797 12.2498 8.885 12.2339 8.94578 12.2035L10.5 11.4264L12.0542 12.2035C12.1209 12.2369 12.195 12.2527 12.2695 12.2493C12.344 12.246 12.4164 12.2237 12.4798 12.1845C12.5433 12.1453 12.5957 12.0906 12.632 12.0255C12.6684 11.9604 12.6875 11.8871 12.6875 11.8125V3.0625C12.6875 2.83044 12.5953 2.60788 12.4312 2.44378C12.2671 2.27969 12.0446 2.1875 11.8125 2.1875ZM11.8125 11.1048L10.6958 10.5459C10.635 10.5155 10.568 10.4997 10.5 10.4997C10.432 10.4997 10.365 10.5155 10.3042 10.5459L8.75 11.3236L7.19578 10.5459C7.135 10.5155 7.06797 10.4997 7 10.4997C6.93203 10.4997 6.865 10.5155 6.80422 10.5459L5.25 11.3236L3.69578 10.5459C3.635 10.5155 3.56797 10.4997 3.5 10.4997C3.43203 10.4997 3.365 10.5155 3.30422 10.5459L2.1875 11.1048V3.0625H11.8125V11.1048ZM7.4375 6.125C7.4375 6.00897 7.48359 5.89769 7.56564 5.81564C7.64769 5.73359 7.75897 5.6875 7.875 5.6875H10.5C10.616 5.6875 10.7273 5.73359 10.8094 5.81564C10.8914 5.89769 10.9375 6.00897 10.9375 6.125C10.9375 6.24103 10.8914 6.35231 10.8094 6.43436C10.7273 6.51641 10.616 6.5625 10.5 6.5625H7.875C7.75897 6.5625 7.64769 6.51641 7.56564 6.43436C7.48359 6.35231 7.4375 6.24103 7.4375 6.125ZM7.4375 7.875C7.4375 7.75897 7.48359 7.64769 7.56564 7.56564C7.64769 7.48359 7.75897 7.4375 7.875 7.4375H10.5C10.616 7.4375 10.7273 7.48359 10.8094 7.56564C10.8914 7.64769 10.9375 7.75897 10.9375 7.875C10.9375 7.99103 10.8914 8.10231 10.8094 8.18436C10.7273 8.26641 10.616 8.3125 10.5 8.3125H7.875C7.75897 8.3125 7.64769 8.26641 7.56564 8.18436C7.48359 8.10231 7.4375 7.99103 7.4375 7.875ZM3.5 9.1875H6.125C6.24103 9.1875 6.35231 9.14141 6.43436 9.05936C6.51641 8.97731 6.5625 8.86603 6.5625 8.75V5.25C6.5625 5.13397 6.51641 5.02269 6.43436 4.94064C6.35231 4.85859 6.24103 4.8125 6.125 4.8125H3.5C3.38397 4.8125 3.27269 4.85859 3.19064 4.94064C3.10859 5.02269 3.0625 5.13397 3.0625 5.25V8.75C3.0625 8.86603 3.10859 8.97731 3.19064 9.05936C3.27269 9.14141 3.38397 9.1875 3.5 9.1875ZM3.9375 5.6875H5.6875V8.3125H3.9375V5.6875Z" fill="#4DBE95"/>
</svg>
