<svg width="32" height="32" viewBox="0 0 32 32" fill="none" xmlns="http://www.w3.org/2000/svg">
<path d="M28.9837 14.25L7.98372 2.26378C7.6295 2.06437 7.22292 1.97763 6.81816 2.01512C6.4134 2.0526 6.02967 2.21254 5.7181 2.47361C5.40653 2.73468 5.1819 3.08449 5.07415 3.47644C4.9664 3.86839 4.98064 4.28387 5.11497 4.66753L8.94372 16L5.11497 27.3338C5.00841 27.6354 4.97575 27.9581 5.01972 28.2749C5.06368 28.5918 5.183 28.8934 5.36765 29.1546C5.5523 29.4158 5.7969 29.6289 6.08092 29.776C6.36494 29.9231 6.68011 29.9999 6.99997 30C7.34747 29.9993 7.6889 29.9089 7.99122 29.7375L28.9812 17.7313C29.2908 17.5578 29.5487 17.3052 29.7284 16.9992C29.9081 16.6932 30.0031 16.3448 30.0038 15.99C30.0044 15.6351 29.9106 15.2865 29.732 14.9798C29.5534 14.6732 29.2964 14.4196 28.9875 14.245L28.9837 14.25ZM6.99997 28C7.0005 27.995 7.0005 27.99 6.99997 27.985L10.7175 17H18C18.2652 17 18.5195 16.8947 18.7071 16.7071C18.8946 16.5196 19 16.2652 19 16C19 15.7348 18.8946 15.4805 18.7071 15.2929C18.5195 15.1054 18.2652 15 18 15H10.7175L7.00747 4.02003C7.00624 4.01295 7.00369 4.00616 6.99997 4.00003L28 15.9788L6.99997 28Z" fill="#4DBE95"/>
</svg>
