<svg width="16" height="16" viewBox="0 0 16 16" fill="none" xmlns="http://www.w3.org/2000/svg">
<path d="M3 3.5V12.5C3 12.6326 2.94732 12.7598 2.85355 12.8536C2.75979 12.9473 2.63261 13 2.5 13C2.36739 13 2.24021 12.9473 2.14645 12.8536C2.05268 12.7598 2 12.6326 2 12.5V3.5C2 3.36739 2.05268 3.24021 2.14645 3.14645C2.24021 3.05268 2.36739 3 2.5 3C2.63261 3 2.75979 3.05268 2.85355 3.14645C2.94732 3.24021 3 3.36739 3 3.5ZM8.75 6.90625L7.5 7.3125V6C7.5 5.86739 7.44732 5.74021 7.35355 5.64645C7.25979 5.55268 7.13261 5.5 7 5.5C6.86739 5.5 6.74021 5.55268 6.64645 5.64645C6.55268 5.74021 6.5 5.86739 6.5 6V7.3125L5.25 6.90625C5.12386 6.86481 4.98642 6.87518 4.86792 6.93507C4.74942 6.99497 4.65957 7.09948 4.61812 7.22563C4.57668 7.35177 4.58705 7.48921 4.64695 7.60771C4.70684 7.72621 4.81136 7.81606 4.9375 7.8575L6.1875 8.26313L5.41625 9.32563C5.37549 9.37858 5.34576 9.43917 5.32882 9.50382C5.31188 9.56846 5.30807 9.63584 5.31761 9.70199C5.32715 9.76813 5.34986 9.83168 5.38439 9.8889C5.41891 9.94612 5.46456 9.99583 5.51862 10.0351C5.57269 10.0744 5.63408 10.1024 5.69917 10.1176C5.76426 10.1327 5.83172 10.1347 5.89757 10.1233C5.96342 10.1119 6.02633 10.0875 6.08257 10.0514C6.1388 10.0153 6.18724 9.96826 6.225 9.91313L6.99625 8.85063L7.7675 9.91313C7.80526 9.96826 7.85369 10.0153 7.90993 10.0514C7.96617 10.0875 8.02908 10.1119 8.09493 10.1233C8.16078 10.1347 8.22824 10.1327 8.29333 10.1176C8.35842 10.1024 8.41981 10.0744 8.47388 10.0351C8.52794 9.99583 8.57359 9.94612 8.60811 9.8889C8.64264 9.83168 8.66535 9.76813 8.67489 9.70199C8.68443 9.63584 8.68062 9.56846 8.66368 9.50382C8.64674 9.43917 8.61701 9.37858 8.57625 9.32563L7.805 8.26313L9.055 7.8575C9.17557 7.81265 9.27422 7.72306 9.33043 7.60735C9.38664 7.49163 9.39609 7.35871 9.35681 7.23621C9.31754 7.11371 9.23255 7.01106 9.11954 6.94961C9.00652 6.88815 8.87417 6.87263 8.75 6.90625ZM15.375 7.2275C15.334 7.10251 15.2454 6.99869 15.1285 6.93856C15.0115 6.87843 14.8755 6.86682 14.75 6.90625L13.5 7.3125V6C13.5 5.86739 13.4473 5.74021 13.3536 5.64645C13.2598 5.55268 13.1326 5.5 13 5.5C12.8674 5.5 12.7402 5.55268 12.6464 5.64645C12.5527 5.74021 12.5 5.86739 12.5 6V7.3125L11.25 6.90688C11.1239 6.86585 10.9866 6.87661 10.8684 6.9368C10.7502 6.99699 10.6607 7.10167 10.6197 7.22781C10.5787 7.35396 10.5894 7.49123 10.6496 7.60944C10.7098 7.72764 10.8145 7.8171 10.9406 7.85813L12.1906 8.26375L11.4194 9.32625C11.3786 9.37921 11.3489 9.4398 11.3319 9.50444C11.315 9.56909 11.3112 9.63647 11.3207 9.70261C11.3303 9.76875 11.353 9.83231 11.3875 9.88953C11.422 9.94674 11.4677 9.99646 11.5217 10.0357C11.5758 10.075 11.6372 10.103 11.7023 10.1182C11.7674 10.1333 11.8348 10.1353 11.9007 10.1239C11.9665 10.1125 12.0295 10.0881 12.0857 10.052C12.1419 10.0159 12.1904 9.96888 12.2281 9.91375L12.9994 8.85125L13.7706 9.91375C13.8084 9.96888 13.8568 10.0159 13.9131 10.052C13.9693 10.0881 14.0322 10.1125 14.0981 10.1239C14.1639 10.1353 14.2314 10.1333 14.2965 10.1182C14.3615 10.103 14.4229 10.075 14.477 10.0357C14.5311 9.99646 14.5767 9.94674 14.6112 9.88953C14.6458 9.83231 14.6685 9.76875 14.678 9.70261C14.6876 9.63647 14.6837 9.56909 14.6668 9.50444C14.6499 9.4398 14.6201 9.37921 14.5794 9.32625L13.8081 8.26375L15.0581 7.85813C15.1836 7.8163 15.2874 7.72646 15.3468 7.60826C15.4062 7.49007 15.4163 7.35315 15.375 7.2275Z" fill="#B6BEC4"/>
</svg>
