<svg width="26" height="26" viewBox="0 0 26 26" fill="none" xmlns="http://www.w3.org/2000/svg">
<path d="M16.2501 4.0625C16.2501 3.41971 16.0595 2.79136 15.7024 2.2569C15.3453 1.72244 14.8377 1.30588 14.2438 1.05989C13.65 0.813908 12.9965 0.749547 12.3661 0.874949C11.7356 1.00035 11.1566 1.30988 10.702 1.7644C10.2475 2.21893 9.93798 2.79802 9.81258 3.42846C9.68717 4.0589 9.75153 4.71236 9.99752 5.30622C10.2435 5.90008 10.6601 6.40766 11.1945 6.76478C11.729 7.12189 12.3573 7.3125 13.0001 7.3125C13.8621 7.3125 14.6887 6.97009 15.2982 6.3606C15.9077 5.75111 16.2501 4.92446 16.2501 4.0625ZM13.0001 5.6875C12.6787 5.6875 12.3646 5.5922 12.0973 5.41364C11.8301 5.23508 11.6218 4.98129 11.4988 4.68436C11.3758 4.38743 11.3437 4.0607 11.4064 3.74548C11.4691 3.43026 11.6238 3.14071 11.8511 2.91345C12.0783 2.68619 12.3679 2.53143 12.6831 2.46873C12.9983 2.40602 13.3251 2.43821 13.622 2.5612C13.9189 2.68419 14.1727 2.89247 14.3513 3.1597C14.5298 3.42693 14.6251 3.74111 14.6251 4.0625C14.6251 4.49348 14.4539 4.9068 14.1492 5.21155C13.8444 5.5163 13.4311 5.6875 13.0001 5.6875ZM22.1753 13.6145L17.5877 8.41242C17.2827 8.06668 16.9076 7.78978 16.4873 7.60014C16.0671 7.4105 15.6113 7.31245 15.1502 7.3125H10.85C10.389 7.31245 9.93319 7.4105 9.51293 7.60014C9.09267 7.78978 8.71757 8.06668 8.41255 8.41242L3.82497 13.6145C3.45242 13.9955 3.24452 14.5077 3.2461 15.0406C3.24769 15.5735 3.45862 16.0844 3.83344 16.4632C4.20825 16.842 4.71691 17.0583 5.24976 17.0656C5.78261 17.0728 6.29696 16.8704 6.68193 16.5019L8.33739 15.1734L6.65755 21.5597C6.43506 22.0506 6.41669 22.6098 6.60649 23.1142C6.79629 23.6187 7.17871 24.0271 7.66962 24.2496C8.16053 24.4721 8.71972 24.4904 9.22417 24.3006C9.72862 24.1108 10.137 23.7284 10.3595 23.2375L13.0001 18.6804L15.6408 23.2375C15.8732 23.7119 16.2813 24.0771 16.7786 24.2556C17.2758 24.4341 17.823 24.4119 18.3041 24.1936C18.7852 23.9753 19.1624 23.5782 19.3555 23.0864C19.5486 22.5947 19.5426 22.047 19.3386 21.5597L17.6629 15.1734L19.3183 16.5019C19.7033 16.8704 20.2176 17.0728 20.7505 17.0656C21.2833 17.0583 21.792 16.842 22.1668 16.4632C22.5416 16.0844 22.7526 15.5735 22.7542 15.0406C22.7557 14.5077 22.5478 13.9955 22.1753 13.6145ZM21.0063 15.3177C20.9686 15.3554 20.9238 15.3854 20.8744 15.4058C20.8251 15.4263 20.7723 15.4368 20.7189 15.4368C20.6655 15.4368 20.6126 15.4263 20.5633 15.4058C20.514 15.3854 20.4692 15.3554 20.4315 15.3177C20.4101 15.2973 20.3888 15.277 20.3654 15.2588L16.7579 12.3663C16.6248 12.26 16.4616 12.1982 16.2915 12.1898C16.1213 12.1813 15.9528 12.2265 15.8098 12.319C15.6668 12.4115 15.5564 12.5467 15.4944 12.7053C15.4323 12.864 15.4217 13.0381 15.464 13.2031L17.7878 22.0391C17.7997 22.0862 17.8161 22.1321 17.8365 22.1762C17.86 22.2246 17.8736 22.2773 17.8765 22.331C17.8794 22.3848 17.8716 22.4386 17.8535 22.4893C17.8355 22.54 17.8075 22.5867 17.7713 22.6265C17.7351 22.6663 17.6913 22.6985 17.6425 22.7213C17.5937 22.744 17.5409 22.7569 17.4871 22.759C17.4333 22.7612 17.3796 22.7526 17.3291 22.7338C17.2787 22.715 17.2324 22.6864 17.1931 22.6496C17.1538 22.6128 17.1223 22.5686 17.1002 22.5195C17.0903 22.4975 17.0791 22.4761 17.0667 22.4555L13.7029 16.6563C13.6315 16.5331 13.529 16.4309 13.4057 16.3599C13.2823 16.2888 13.1425 16.2514 13.0001 16.2514C12.8578 16.2514 12.7179 16.2888 12.5946 16.3599C12.4713 16.4309 12.3687 16.5331 12.2973 16.6563L8.93763 22.4504C8.92525 22.4711 8.91406 22.4924 8.90411 22.5144C8.88155 22.5628 8.84967 22.6063 8.81028 22.6423C8.77089 22.6784 8.72478 22.7064 8.67458 22.7246C8.59903 22.7523 8.51696 22.7569 8.43878 22.7379C8.36059 22.7189 8.28981 22.6771 8.23542 22.6178C8.18102 22.5585 8.14546 22.4844 8.13324 22.4049C8.12102 22.3254 8.13269 22.244 8.16677 22.1711C8.18723 22.127 8.20355 22.0811 8.21552 22.034L10.5362 13.2031C10.5785 13.0381 10.5679 12.864 10.5059 12.7053C10.4438 12.5467 10.3335 12.4115 10.1905 12.319C10.0474 12.2265 9.87891 12.1813 9.70877 12.1898C9.53863 12.1982 9.37545 12.26 9.24232 12.3663L5.63482 15.2588C5.61146 15.277 5.59013 15.2973 5.5688 15.3177C5.53149 15.357 5.48667 15.3885 5.437 15.4102C5.38733 15.432 5.33381 15.4436 5.27959 15.4443C5.22537 15.4451 5.17155 15.4349 5.12131 15.4145C5.07106 15.3942 5.0254 15.3639 4.98703 15.3256C4.94865 15.2873 4.91833 15.2417 4.89786 15.1915C4.87738 15.1413 4.86717 15.0875 4.86781 15.0333C4.86846 14.979 4.87995 14.9255 4.90162 14.8758C4.92328 14.8261 4.95468 14.7812 4.99396 14.7438C5.00614 14.7316 5.01732 14.7195 5.02849 14.7063L9.6313 9.48695C9.78386 9.31417 9.97143 9.17582 10.1816 9.08109C10.3917 8.98636 10.6196 8.93741 10.85 8.9375H15.1502C15.3807 8.93741 15.6086 8.98636 15.8187 9.08109C16.0288 9.17582 16.2164 9.31417 16.369 9.48695L20.9718 14.7063C20.9829 14.7195 20.9941 14.7316 21.0063 14.7438C21.0823 14.82 21.1249 14.9232 21.1249 15.0307C21.1249 15.1383 21.0823 15.2415 21.0063 15.3177Z" fill="#EEF0F1"/>
</svg>
