<svg width="32" height="32" viewBox="0 0 32 32" fill="none" xmlns="http://www.w3.org/2000/svg">
<path d="M18.9999 10C19.791 10 20.5644 9.76541 21.2222 9.32588C21.88 8.88635 22.3927 8.26164 22.6954 7.53074C22.9982 6.79983 23.0774 5.99556 22.9231 5.21964C22.7687 4.44372 22.3878 3.73098 21.8284 3.17157C21.2689 2.61216 20.5562 2.2312 19.7803 2.07686C19.0044 1.92252 18.2001 2.00173 17.4692 2.30448C16.7383 2.60723 16.1136 3.11992 15.674 3.77772C15.2345 4.43552 14.9999 5.20888 14.9999 6C14.9999 7.06087 15.4214 8.07828 16.1715 8.82843C16.9216 9.57857 17.9391 10 18.9999 10ZM18.9999 4C19.3955 4 19.7822 4.1173 20.1111 4.33706C20.44 4.55683 20.6963 4.86918 20.8477 5.23463C20.9991 5.60009 21.0387 6.00222 20.9615 6.39018C20.8843 6.77814 20.6938 7.13451 20.4141 7.41422C20.1344 7.69392 19.7781 7.8844 19.3901 7.96157C19.0021 8.03874 18.6 7.99914 18.2346 7.84776C17.8691 7.69639 17.5567 7.44004 17.337 7.11114C17.1172 6.78224 16.9999 6.39556 16.9999 6C16.9999 5.46957 17.2106 4.96086 17.5857 4.58579C17.9608 4.21072 18.4695 4 18.9999 4ZM24.9999 18V29C24.9999 29.2652 24.8946 29.5196 24.707 29.7071C24.5195 29.8946 24.2651 30 23.9999 30C23.7347 30 23.4804 29.8946 23.2928 29.7071C23.1053 29.5196 22.9999 29.2652 22.9999 29V18.9575C19.7812 18.6763 18.7062 17.0175 17.7499 15.5375C17.3937 14.9888 17.0549 14.4663 16.6087 14.0138L14.9337 17.865L19.5837 21.1863C19.7127 21.279 19.8178 21.4013 19.8902 21.5428C19.9626 21.6843 20.0002 21.841 19.9999 22V29C19.9999 29.2652 19.8946 29.5196 19.707 29.7071C19.5195 29.8946 19.2651 30 18.9999 30C18.7347 30 18.4804 29.8946 18.2928 29.7071C18.1053 29.5196 17.9999 29.2652 17.9999 29V22.515L14.1162 19.74L9.91742 29.3988C9.83971 29.5775 9.71148 29.7296 9.54847 29.8364C9.38547 29.9432 9.19481 30.0001 8.99992 30C8.86261 30.0003 8.72676 29.9718 8.60117 29.9163C8.3583 29.8103 8.16739 29.6124 8.07036 29.3658C7.97334 29.1193 7.97812 28.8443 8.08367 28.6013L15.2737 12.0625C15.3283 11.937 15.408 11.8241 15.508 11.7307C15.608 11.6373 15.7261 11.5654 15.855 11.5195C15.9839 11.4735 16.1208 11.4545 16.2573 11.4637C16.3938 11.4728 16.527 11.5098 16.6487 11.5725C17.0079 11.76 17.3436 11.9895 17.6487 12.2563C18.4449 12.9463 18.9624 13.745 19.4187 14.45C20.3787 15.93 21.0712 17 23.9937 17C24.1255 16.9992 24.2562 17.0244 24.3783 17.0743C24.5003 17.1242 24.6113 17.1977 24.7048 17.2907C24.7983 17.3836 24.8726 17.4941 24.9232 17.6159C24.9739 17.7376 24.9999 17.8682 24.9999 18ZM8.99992 19C9.19558 18.9999 9.38691 18.9424 9.55022 18.8347C9.71353 18.7269 9.84163 18.5736 9.91867 18.3938L12.9187 11.3938C13.023 11.1501 13.0263 10.8749 12.9278 10.6288C12.8294 10.3827 12.6373 10.1858 12.3937 10.0813L8.89367 8.58125C8.64999 8.47694 8.37487 8.47365 8.12876 8.57209C7.88265 8.67053 7.68569 8.86266 7.58117 9.10625L4.58117 16.1063C4.47686 16.3499 4.47357 16.6251 4.57201 16.8712C4.67046 17.1173 4.86258 17.3142 5.10617 17.4188L8.60617 18.9188C8.73057 18.9722 8.86453 18.9999 8.99992 19ZM6.81367 15.975L9.02492 10.8125L10.6874 11.525L8.47492 16.6863L6.81367 15.975Z" fill="#EEF0F1"/>
</svg>
