<svg width="16" height="16" viewBox="0 0 16 16" fill="none" xmlns="http://www.w3.org/2000/svg">
<path d="M13.3975 10.4039L10.4538 9.08449L10.4463 9.08074C10.2933 9.01526 10.1265 8.98896 9.96079 9.00424C9.79512 9.01952 9.63589 9.07589 9.49751 9.16824C9.48122 9.179 9.46557 9.19069 9.45063 9.20324L7.92938 10.5001C6.96563 10.032 5.97063 9.04449 5.50251 8.09324L6.80126 6.54887C6.81376 6.53324 6.82563 6.51762 6.83688 6.50074C6.92715 6.36281 6.98192 6.20469 6.99631 6.04048C7.0107 5.87626 6.98428 5.71103 6.91938 5.55949C6.91913 5.557 6.91913 5.55449 6.91938 5.55199L5.59626 2.60262C5.51047 2.40466 5.36296 2.23975 5.17575 2.13252C4.98854 2.02528 4.77166 1.98147 4.55751 2.00762C3.71061 2.11906 2.93324 2.53497 2.37059 3.17768C1.80794 3.82038 1.49847 4.64592 1.50001 5.50012C1.50001 10.4626 5.53751 14.5001 10.5 14.5001C11.3542 14.5017 12.1797 14.1922 12.8224 13.6295C13.4652 13.0669 13.8811 12.2895 13.9925 11.4426C14.0187 11.2285 13.9748 11.0116 13.8676 10.8244C13.7604 10.6372 13.5955 10.4897 13.3975 10.4039ZM10.5 13.5001C8.37898 13.4978 6.3455 12.6542 4.84571 11.1544C3.34592 9.65462 2.50232 7.62114 2.50001 5.50012C2.49765 4.8898 2.71754 4.29949 3.11859 3.83943C3.51964 3.37938 4.07444 3.08103 4.67938 3.00012C4.67913 3.00261 4.67913 3.00512 4.67938 3.00762L5.99188 5.94512L4.70001 7.49137C4.68689 7.50646 4.67498 7.52255 4.66438 7.53949C4.57033 7.68382 4.51515 7.84999 4.5042 8.02191C4.49325 8.19382 4.5269 8.36565 4.60188 8.52074C5.16813 9.67887 6.33501 10.837 7.50563 11.4026C7.66186 11.4769 7.83468 11.5094 8.00722 11.4969C8.17976 11.4844 8.3461 11.4274 8.49001 11.3314C8.50621 11.3205 8.52166 11.3086 8.53626 11.2957L10.0556 10.0001L12.9931 11.3164C12.9931 11.3164 12.9981 11.3164 13 11.3164C12.9199 11.922 12.622 12.4778 12.1619 12.8797C11.7017 13.2817 11.1109 13.5022 10.5 13.5001ZM8.50001 4.00012C8.50001 3.86751 8.55268 3.74033 8.64645 3.64656C8.74022 3.5528 8.8674 3.50012 9.00001 3.50012H13C13.1326 3.50012 13.2598 3.5528 13.3536 3.64656C13.4473 3.74033 13.5 3.86751 13.5 4.00012C13.5 4.13273 13.4473 4.2599 13.3536 4.35367C13.2598 4.44744 13.1326 4.50012 13 4.50012H9.00001C8.8674 4.50012 8.74022 4.44744 8.64645 4.35367C8.55268 4.2599 8.50001 4.13273 8.50001 4.00012ZM8.50001 6.50012C8.50001 6.36751 8.55268 6.24033 8.64645 6.14656C8.74022 6.0528 8.8674 6.00012 9.00001 6.00012H13C13.1326 6.00012 13.2598 6.0528 13.3536 6.14656C13.4473 6.24033 13.5 6.36751 13.5 6.50012C13.5 6.63273 13.4473 6.7599 13.3536 6.85367C13.2598 6.94744 13.1326 7.00012 13 7.00012H9.00001C8.8674 7.00012 8.74022 6.94744 8.64645 6.85367C8.55268 6.7599 8.50001 6.63273 8.50001 6.50012Z" fill="#B6BEC4"/>
</svg>
