<svg width="26" height="26" viewBox="0 0 26 26" fill="none" xmlns="http://www.w3.org/2000/svg">
<path d="M23.8996 8.26414L17.7357 2.10133C17.5848 1.95039 17.4057 1.83066 17.2085 1.74898C17.0113 1.66729 16.8 1.62524 16.5866 1.62524C16.3731 1.62524 16.1618 1.66729 15.9646 1.74898C15.7674 1.83066 15.5883 1.95039 15.4374 2.10133L9.99059 7.56539C8.90793 7.22617 6.4359 6.81687 3.85622 8.89992C3.6784 9.0429 3.5327 9.22172 3.42858 9.42474C3.32446 9.62776 3.26426 9.85044 3.2519 10.0783C3.23954 10.3061 3.2753 10.534 3.35684 10.7471C3.43839 10.9602 3.5639 11.1537 3.7252 11.3151L8.6327 16.2205L4.30004 20.5502C4.14759 20.7026 4.06194 20.9094 4.06194 21.125C4.06194 21.3406 4.14759 21.5474 4.30004 21.6998C4.4525 21.8523 4.65928 21.938 4.87489 21.938C5.0905 21.938 5.29727 21.8523 5.44973 21.6998L9.77934 17.3672L14.6838 22.2716C14.8346 22.423 15.0137 22.5432 15.211 22.6253C15.4083 22.7074 15.6198 22.7498 15.8335 22.75C15.8721 22.75 15.9097 22.75 15.9482 22.75C16.1799 22.7339 16.4054 22.6682 16.6094 22.5573C16.8133 22.4464 16.9911 22.2928 17.1304 22.1071C19.1251 19.4563 18.9332 17.3012 18.47 16.0134L23.9006 10.5625C24.0515 10.4115 24.1711 10.2323 24.2527 10.0351C24.3343 9.83789 24.3763 9.62654 24.3762 9.41311C24.3761 9.19968 24.3339 8.98836 24.2522 8.79122C24.1704 8.59407 24.0506 8.41497 23.8996 8.26414ZM22.7499 9.41383L16.9334 15.2496C16.8133 15.3702 16.7341 15.5254 16.7069 15.6934C16.6798 15.8614 16.706 16.0337 16.7821 16.186C17.7429 18.1086 16.5993 20.1053 15.8335 21.124L4.87489 10.1644C6.10176 9.17515 7.27583 8.91414 8.17364 8.91414C8.74333 8.90636 9.30832 9.01812 9.83215 9.24219C9.98498 9.31867 10.158 9.34502 10.3267 9.31749C10.4954 9.28995 10.651 9.20994 10.7716 9.08883L16.5871 3.25L22.7499 9.41281V9.41383Z" fill="#EEF0F1"/>
</svg>
