<svg width="32" height="32" viewBox="0 0 32 32" fill="none" xmlns="http://www.w3.org/2000/svg">
<path d="M11 16C11 15.7348 11.1054 15.4804 11.2929 15.2929C11.4804 15.1054 11.7348 15 12 15H15V12C15 11.7348 15.1054 11.4804 15.2929 11.2929C15.4804 11.1054 15.7348 11 16 11C16.2652 11 16.5196 11.1054 16.7071 11.2929C16.8946 11.4804 17 11.7348 17 12V15H20C20.2652 15 20.5196 15.1054 20.7071 15.2929C20.8946 15.4804 21 15.7348 21 16C21 16.2652 20.8946 16.5196 20.7071 16.7071C20.5196 16.8946 20.2652 17 20 17H17V20C17 20.2652 16.8946 20.5196 16.7071 20.7071C16.5196 20.8946 16.2652 21 16 21C15.7348 21 15.4804 20.8946 15.2929 20.7071C15.1054 20.5196 15 20.2652 15 20V17H12C11.7348 17 11.4804 16.8946 11.2929 16.7071C11.1054 16.5196 11 16.2652 11 16ZM28 7V14C28 20.59 24.81 24.5837 22.1338 26.7738C19.2513 29.1313 16.3838 29.9325 16.2588 29.965C16.0869 30.0118 15.9056 30.0118 15.7338 29.965C15.6088 29.9325 12.745 29.1313 9.85875 26.7738C7.19 24.5837 4 20.59 4 14V7C4 6.46957 4.21071 5.96086 4.58579 5.58579C4.96086 5.21071 5.46957 5 6 5H26C26.5304 5 27.0391 5.21071 27.4142 5.58579C27.7893 5.96086 28 6.46957 28 7ZM26 7H6V14C6 18.6625 7.7275 22.4387 11.1337 25.2262C12.5841 26.4124 14.2311 27.3351 16 27.9525C17.7924 27.3241 19.46 26.3848 20.9263 25.1775C24.2925 22.395 26 18.6337 26 14V7Z" fill="url(#paint0_linear_46_368)"/>
<defs>
<linearGradient id="paint0_linear_46_368" x1="14.6036" y1="27.8385" x2="32.6027" y2="22.9108" gradientUnits="userSpaceOnUse">
<stop stop-color="#3AAA82"/>
<stop offset="1" stop-color="#3FC6D8"/>
</linearGradient>
</defs>
</svg>
