<svg width="24" height="24" viewBox="0 0 24 24" fill="none" xmlns="http://www.w3.org/2000/svg">
<path d="M12 12C12.0001 12.1125 11.9748 12.2236 11.9261 12.325C11.8775 12.4264 11.8066 12.5156 11.7188 12.5859L7.96875 15.5859C7.8918 15.6475 7.80349 15.6933 7.70884 15.7207C7.61419 15.7481 7.51507 15.7567 7.41714 15.7458C7.3192 15.7349 7.22436 15.7048 7.13805 15.6573C7.05173 15.6098 6.97562 15.5457 6.91406 15.4688C6.85251 15.3918 6.80671 15.3035 6.77928 15.2088C6.75186 15.1142 6.74334 15.0151 6.75422 14.9171C6.76511 14.8192 6.79517 14.7244 6.8427 14.638C6.89024 14.5517 6.9543 14.4756 7.03125 14.4141L10.0491 12L7.03125 9.58594C6.9543 9.52438 6.89024 9.44827 6.8427 9.36195C6.79517 9.27564 6.76511 9.1808 6.75422 9.08286C6.74334 8.98493 6.75186 8.88581 6.77928 8.79116C6.80671 8.69651 6.85251 8.6082 6.91406 8.53125C6.97562 8.4543 7.05173 8.39024 7.13805 8.3427C7.22436 8.29517 7.3192 8.26511 7.41714 8.25422C7.51507 8.24334 7.61419 8.25186 7.70884 8.27928C7.80349 8.30671 7.8918 8.35251 7.96875 8.41406L11.7188 11.4141C11.8066 11.4844 11.8775 11.5736 11.9261 11.675C11.9748 11.7764 12.0001 11.8875 12 12ZM16.5 14.25H12.75C12.5511 14.25 12.3603 14.329 12.2197 14.4697C12.079 14.6103 12 14.8011 12 15C12 15.1989 12.079 15.3897 12.2197 15.5303C12.3603 15.671 12.5511 15.75 12.75 15.75H16.5C16.6989 15.75 16.8897 15.671 17.0303 15.5303C17.171 15.3897 17.25 15.1989 17.25 15C17.25 14.8011 17.171 14.6103 17.0303 14.4697C16.8897 14.329 16.6989 14.25 16.5 14.25ZM21.75 5.25V18.75C21.75 19.1478 21.592 19.5294 21.3107 19.8107C21.0294 20.092 20.6478 20.25 20.25 20.25H3.75C3.35218 20.25 2.97064 20.092 2.68934 19.8107C2.40804 19.5294 2.25 19.1478 2.25 18.75V5.25C2.25 4.85218 2.40804 4.47064 2.68934 4.18934C2.97064 3.90804 3.35218 3.75 3.75 3.75H20.25C20.6478 3.75 21.0294 3.90804 21.3107 4.18934C21.592 4.47064 21.75 4.85218 21.75 5.25ZM20.25 18.75V5.25H3.75V18.75H20.25Z" fill="#4DBE95"/>
</svg>
