<svg width="16" height="16" viewBox="0 0 16 16" fill="none" xmlns="http://www.w3.org/2000/svg">
<path d="M14 8.00003C14 8.13264 13.9473 8.25982 13.8536 8.35359C13.7598 8.44736 13.6326 8.50003 13.5 8.50003H7.00003C6.86742 8.50003 6.74024 8.44736 6.64647 8.35359C6.55271 8.25982 6.50003 8.13264 6.50003 8.00003C6.50003 7.86743 6.55271 7.74025 6.64647 7.64648C6.74024 7.55271 6.86742 7.50003 7.00003 7.50003H13.5C13.6326 7.50003 13.7598 7.55271 13.8536 7.64648C13.9473 7.74025 14 7.86743 14 8.00003ZM7.00003 4.50003H13.5C13.6326 4.50003 13.7598 4.44736 13.8536 4.35359C13.9473 4.25982 14 4.13264 14 4.00003C14 3.86743 13.9473 3.74025 13.8536 3.64648C13.7598 3.55271 13.6326 3.50003 13.5 3.50003H7.00003C6.86742 3.50003 6.74024 3.55271 6.64647 3.64648C6.55271 3.74025 6.50003 3.86743 6.50003 4.00003C6.50003 4.13264 6.55271 4.25982 6.64647 4.35359C6.74024 4.44736 6.86742 4.50003 7.00003 4.50003ZM13.5 11.5H2.50003C2.36742 11.5 2.24024 11.5527 2.14647 11.6465C2.05271 11.7402 2.00003 11.8674 2.00003 12C2.00003 12.1326 2.05271 12.2598 2.14647 12.3536C2.24024 12.4474 2.36742 12.5 2.50003 12.5H13.5C13.6326 12.5 13.7598 12.4474 13.8536 12.3536C13.9473 12.2598 14 12.1326 14 12C14 11.8674 13.9473 11.7402 13.8536 11.6465C13.7598 11.5527 13.6326 11.5 13.5 11.5ZM2.14628 8.85378C2.19271 8.90027 2.24786 8.93715 2.30856 8.96231C2.36926 8.98748 2.43432 9.00043 2.50003 9.00043C2.56573 9.00043 2.6308 8.98748 2.6915 8.96231C2.7522 8.93715 2.80734 8.90027 2.85378 8.85378L5.35378 6.35378C5.40027 6.30735 5.43714 6.2522 5.46231 6.1915C5.48747 6.1308 5.50042 6.06574 5.50042 6.00003C5.50042 5.93433 5.48747 5.86926 5.46231 5.80856C5.43714 5.74786 5.40027 5.69272 5.35378 5.64628L2.85378 3.14628C2.75996 3.05246 2.63271 2.99976 2.50003 2.99976C2.36735 2.99976 2.2401 3.05246 2.14628 3.14628C2.05246 3.2401 1.99975 3.36735 1.99975 3.50003C1.99975 3.63272 2.05246 3.75996 2.14628 3.85378L4.29315 6.00003L2.14628 8.14628C2.09979 8.19272 2.06291 8.24786 2.03775 8.30856C2.01259 8.36926 1.99963 8.43433 1.99963 8.50003C1.99963 8.56574 2.01259 8.6308 2.03775 8.6915C2.06291 8.7522 2.09979 8.80735 2.14628 8.85378Z" fill="#B6BEC4"/>
</svg>
