<svg width="24" height="24" viewBox="0 0 24 24" fill="none" xmlns="http://www.w3.org/2000/svg">
<path d="M21 11.9999C21 12.1988 20.921 12.3896 20.7803 12.5303C20.6397 12.6709 20.4489 12.7499 20.25 12.7499H10.5C10.3011 12.7499 10.1103 12.6709 9.96965 12.5303C9.829 12.3896 9.74998 12.1988 9.74998 11.9999C9.74998 11.801 9.829 11.6103 9.96965 11.4696C10.1103 11.3289 10.3011 11.2499 10.5 11.2499H20.25C20.4489 11.2499 20.6397 11.3289 20.7803 11.4696C20.921 11.6103 21 11.801 21 11.9999ZM10.5 6.74993H20.25C20.4489 6.74993 20.6397 6.67091 20.7803 6.53026C20.921 6.38961 21 6.19884 21 5.99993C21 5.80102 20.921 5.61025 20.7803 5.4696C20.6397 5.32895 20.4489 5.24993 20.25 5.24993H10.5C10.3011 5.24993 10.1103 5.32895 9.96965 5.4696C9.829 5.61025 9.74998 5.80102 9.74998 5.99993C9.74998 6.19884 9.829 6.38961 9.96965 6.53026C10.1103 6.67091 10.3011 6.74993 10.5 6.74993ZM20.25 17.2499H3.74998C3.55107 17.2499 3.3603 17.3289 3.21965 17.4696C3.079 17.6103 2.99998 17.801 2.99998 17.9999C2.99998 18.1988 3.079 18.3896 3.21965 18.5303C3.3603 18.6709 3.55107 18.7499 3.74998 18.7499H20.25C20.4489 18.7499 20.6397 18.6709 20.7803 18.5303C20.921 18.3896 21 18.1988 21 17.9999C21 17.801 20.921 17.6103 20.7803 17.4696C20.6397 17.3289 20.4489 17.2499 20.25 17.2499ZM3.21935 13.2806C3.28901 13.3503 3.37173 13.4056 3.46277 13.4433C3.55382 13.4811 3.65142 13.5005 3.74998 13.5005C3.84854 13.5005 3.94614 13.4811 4.03718 13.4433C4.12823 13.4056 4.21095 13.3503 4.2806 13.2806L8.03061 9.53055C8.10034 9.4609 8.15566 9.37818 8.1934 9.28713C8.23114 9.19608 8.25057 9.09849 8.25057 8.99993C8.25057 8.90137 8.23114 8.80377 8.1934 8.71272C8.15566 8.62167 8.10034 8.53896 8.03061 8.4693L4.2806 4.7193C4.13987 4.57857 3.949 4.49951 3.74998 4.49951C3.55096 4.49951 3.36009 4.57857 3.21935 4.7193C3.07862 4.86003 2.99956 5.05091 2.99956 5.24993C2.99956 5.44895 3.07862 5.63982 3.21935 5.78055L6.43967 8.99993L3.21935 12.2193C3.14962 12.289 3.0943 12.3717 3.05656 12.4627C3.01882 12.5538 2.99939 12.6514 2.99939 12.7499C2.99939 12.8485 3.01882 12.9461 3.05656 13.0371C3.0943 13.1282 3.14962 13.2109 3.21935 13.2806Z" fill="#EEF0F1"/>
</svg>
