<svg width="16" height="16" viewBox="0 0 16 16" fill="none" xmlns="http://www.w3.org/2000/svg">
<path d="M14.5 6.5C14.6326 6.5 14.7598 6.44732 14.8536 6.35355C14.9473 6.25979 15 6.13261 15 6V4C15 3.73478 14.8946 3.48043 14.7071 3.29289C14.5196 3.10536 14.2652 3 14 3H2C1.73478 3 1.48043 3.10536 1.29289 3.29289C1.10536 3.48043 1 3.73478 1 4V6C1 6.13261 1.05268 6.25979 1.14645 6.35355C1.24021 6.44732 1.36739 6.5 1.5 6.5C1.89782 6.5 2.27936 6.65804 2.56066 6.93934C2.84196 7.22064 3 7.60218 3 8C3 8.39782 2.84196 8.77936 2.56066 9.06066C2.27936 9.34196 1.89782 9.5 1.5 9.5C1.36739 9.5 1.24021 9.55268 1.14645 9.64645C1.05268 9.74021 1 9.86739 1 10V12C1 12.2652 1.10536 12.5196 1.29289 12.7071C1.48043 12.8946 1.73478 13 2 13H14C14.2652 13 14.5196 12.8946 14.7071 12.7071C14.8946 12.5196 15 12.2652 15 12V10C15 9.86739 14.9473 9.74021 14.8536 9.64645C14.7598 9.55268 14.6326 9.5 14.5 9.5C14.1022 9.5 13.7206 9.34196 13.4393 9.06066C13.158 8.77936 13 8.39782 13 8C13 7.60218 13.158 7.22064 13.4393 6.93934C13.7206 6.65804 14.1022 6.5 14.5 6.5ZM2 10.45C2.56514 10.3352 3.07324 10.0286 3.43819 9.58213C3.80314 9.13562 4.00251 8.57668 4.00251 8C4.00251 7.42332 3.80314 6.86438 3.43819 6.41787C3.07324 5.97136 2.56514 5.66476 2 5.55V4H5.5V12H2V10.45ZM14 10.45V12H6.5V4H14V5.55C13.4349 5.66476 12.9268 5.97136 12.5618 6.41787C12.1969 6.86438 11.9975 7.42332 11.9975 8C11.9975 8.57668 12.1969 9.13562 12.5618 9.58213C12.9268 10.0286 13.4349 10.3352 14 10.45Z" fill="#B6BEC4"/>
</svg>
