<svg width="16" height="16" viewBox="0 0 16 16" fill="none" xmlns="http://www.w3.org/2000/svg">
<path d="M15.3 9.39995C15.2475 9.43935 15.1877 9.46801 15.1241 9.48431C15.0605 9.5006 14.9943 9.50421 14.9293 9.49492C14.8643 9.48564 14.8018 9.46364 14.7453 9.43019C14.6888 9.39673 14.6394 9.35248 14.6 9.29995C14.2986 8.89486 13.9064 8.56619 13.4548 8.3404C13.0032 8.1146 12.5049 7.99799 12 7.99995C11.9017 7.99994 11.8055 7.97094 11.7236 7.91658C11.6417 7.86222 11.5776 7.78491 11.5394 7.69432C11.5134 7.63281 11.5001 7.56672 11.5001 7.49995C11.5001 7.43318 11.5134 7.36709 11.5394 7.30557C11.5776 7.21498 11.6417 7.13768 11.7236 7.08332C11.8055 7.02896 11.9017 6.99996 12 6.99995C12.2806 6.99992 12.5555 6.92122 12.7935 6.77279C13.0316 6.62435 13.2232 6.41213 13.3467 6.16022C13.4702 5.90832 13.5206 5.62683 13.4921 5.34774C13.4637 5.06864 13.3575 4.80312 13.1857 4.58134C13.0139 4.35956 12.7833 4.1904 12.5202 4.09308C12.2571 3.99577 11.9719 3.9742 11.6972 4.03081C11.4224 4.08743 11.169 4.21997 10.9658 4.41338C10.7626 4.60679 10.6176 4.85331 10.5475 5.12495C10.5311 5.18856 10.5023 5.24831 10.4628 5.3008C10.4233 5.35328 10.3738 5.39747 10.3172 5.43084C10.2607 5.46421 10.1981 5.48611 10.133 5.49529C10.068 5.50446 10.0017 5.50074 9.93813 5.48432C9.87452 5.46791 9.81477 5.43913 9.76228 5.39962C9.7098 5.36011 9.66561 5.31065 9.63224 5.25407C9.59887 5.19748 9.57697 5.13487 9.56779 5.06983C9.55862 5.00478 9.56234 4.93856 9.57876 4.87495C9.6761 4.49827 9.86002 4.14951 10.1159 3.85642C10.3717 3.56333 10.6925 3.33399 11.0525 3.18667C11.4126 3.03934 11.8021 2.97809 12.19 3.00778C12.578 3.03747 12.9536 3.15729 13.2871 3.35771C13.6205 3.55812 13.9026 3.83359 14.1109 4.16221C14.3191 4.49083 14.4478 4.86352 14.4867 5.25062C14.5256 5.63773 14.4736 6.02857 14.3349 6.39204C14.1961 6.75552 13.9744 7.08159 13.6875 7.34432C14.3674 7.6387 14.9584 8.10583 15.4019 8.69932C15.4413 8.75199 15.4699 8.8119 15.4861 8.87564C15.5023 8.93938 15.5058 9.00569 15.4963 9.07077C15.4868 9.13585 15.4646 9.19843 15.4309 9.25492C15.3973 9.3114 15.3528 9.36069 15.3 9.39995ZM11.9325 13.2499C11.9687 13.3069 11.993 13.3705 12.0039 13.437C12.0149 13.5036 12.0122 13.5716 11.9962 13.6371C11.9801 13.7026 11.951 13.7642 11.9106 13.8182C11.8701 13.8721 11.8192 13.9173 11.7608 13.9511C11.7024 13.9848 11.6378 14.0064 11.5708 14.0145C11.5039 14.0227 11.436 14.0172 11.3712 13.9984C11.3065 13.9796 11.2462 13.9479 11.194 13.9052C11.1418 13.8625 11.0988 13.8097 11.0675 13.7499C10.7525 13.2166 10.304 12.7746 9.76602 12.4676C9.22809 12.1605 8.6194 11.999 8.00001 11.999C7.38061 11.999 6.77192 12.1605 6.23399 12.4676C5.69606 12.7746 5.24748 13.2166 4.93251 13.7499C4.90125 13.8097 4.85823 13.8625 4.80603 13.9052C4.75383 13.9479 4.69354 13.9796 4.62878 13.9984C4.56401 14.0172 4.49612 14.0227 4.42917 14.0145C4.36223 14.0064 4.29762 13.9848 4.23924 13.9511C4.18086 13.9173 4.12991 13.8721 4.08945 13.8182C4.04899 13.7642 4.01986 13.7026 4.00382 13.6371C3.98778 13.5716 3.98515 13.5036 3.99609 13.437C4.00704 13.3705 4.03133 13.3069 4.06751 13.2499C4.55226 12.4171 5.29138 11.7616 6.17626 11.3799C5.67834 10.9987 5.3124 10.471 5.12988 9.87109C4.94736 9.27114 4.95744 8.62907 5.1587 8.03514C5.35996 7.44121 5.74228 6.92528 6.25192 6.55987C6.76157 6.19446 7.3729 5.99795 8.00001 5.99795C8.62711 5.99795 9.23845 6.19446 9.74809 6.55987C10.2577 6.92528 10.64 7.44121 10.8413 8.03514C11.0426 8.62907 11.0526 9.27114 10.8701 9.87109C10.6876 10.471 10.3217 10.9987 9.82376 11.3799C10.7086 11.7616 11.4478 12.4171 11.9325 13.2499ZM8.00001 10.9999C8.39557 10.9999 8.78225 10.8827 9.11115 10.6629C9.44005 10.4431 9.69639 10.1308 9.84777 9.76532C9.99914 9.39986 10.0387 8.99773 9.96158 8.60977C9.88441 8.22181 9.69392 7.86544 9.41422 7.58574C9.13451 7.30603 8.77815 7.11555 8.39019 7.03838C8.00223 6.96121 7.60009 7.00081 7.23464 7.15219C6.86919 7.30357 6.55683 7.55991 6.33707 7.88881C6.1173 8.21771 6.00001 8.60439 6.00001 8.99995C6.00001 9.53038 6.21072 10.0391 6.58579 10.4142C6.96087 10.7892 7.46957 10.9999 8.00001 10.9999ZM4.50001 7.49995C4.50001 7.36734 4.44733 7.24016 4.35356 7.1464C4.25979 7.05263 4.13261 6.99995 4.00001 6.99995C3.71946 6.99992 3.44455 6.92122 3.20649 6.77279C2.96843 6.62435 2.77677 6.41213 2.65328 6.16022C2.52978 5.90832 2.47941 5.62683 2.50788 5.34774C2.53635 5.06864 2.64252 4.80312 2.81432 4.58134C2.98613 4.35956 3.21669 4.1904 3.47982 4.09308C3.74294 3.99577 4.02809 3.9742 4.30286 4.03081C4.57763 4.08743 4.83102 4.21997 5.03424 4.41338C5.23746 4.60679 5.38237 4.85331 5.45251 5.12495C5.48566 5.25341 5.56849 5.36345 5.68277 5.43084C5.79704 5.49824 5.93342 5.51748 6.06188 5.48432C6.19035 5.45117 6.30038 5.36835 6.36777 5.25407C6.43517 5.13979 6.45441 5.00341 6.42126 4.87495C6.32391 4.49827 6.13999 4.14951 5.88414 3.85642C5.62829 3.56333 5.30756 3.33399 4.94748 3.18667C4.5874 3.03934 4.1979 2.97809 3.80998 3.00778C3.42206 3.03747 3.04642 3.15729 2.71296 3.35771C2.3795 3.55812 2.09741 3.83359 1.88914 4.16221C1.68088 4.49083 1.55218 4.86352 1.5133 5.25062C1.47441 5.63773 1.52641 6.02857 1.66516 6.39204C1.8039 6.75552 2.02557 7.08159 2.31251 7.34432C1.63331 7.63898 1.04295 8.10609 0.600007 8.69932C0.520359 8.80541 0.486116 8.93879 0.504811 9.07013C0.523506 9.20146 0.593607 9.31999 0.699694 9.39964C0.805781 9.47928 0.939162 9.51353 1.0705 9.49483C1.20183 9.47614 1.32036 9.40604 1.40001 9.29995C1.70137 8.89486 2.09364 8.56619 2.54523 8.3404C2.99682 8.1146 3.49512 7.99799 4.00001 7.99995C4.13261 7.99995 4.25979 7.94727 4.35356 7.8535C4.44733 7.75973 4.50001 7.63256 4.50001 7.49995Z" fill="#B6BEC4"/>
</svg>
