<svg width="12" height="12" viewBox="0 0 12 12" fill="none" xmlns="http://www.w3.org/2000/svg">
<path d="M9.77246 8.97699C9.87813 9.08266 9.9375 9.22599 9.9375 9.37543C9.9375 9.52487 9.87813 9.66819 9.77246 9.77387C9.66679 9.87954 9.52347 9.9389 9.37402 9.9389C9.22458 9.93891 9.08126 9.87954 8.97558 9.77387L5.99949 6.79683L3.02246 9.77293C2.91679 9.8786 2.77347 9.93797 2.62402 9.93797C2.47458 9.93797 2.33126 9.8786 2.22559 9.77293C2.11991 9.66726 2.06055 9.52393 2.06055 9.37449C2.06055 9.22505 2.11991 9.08173 2.22559 8.97605L5.20262 5.99996L2.22652 3.02293C2.12085 2.91726 2.06148 2.77393 2.06148 2.62449C2.06148 2.47505 2.12085 2.33173 2.22652 2.22605C2.33219 2.12038 2.47552 2.06102 2.62496 2.06102C2.7744 2.06102 2.91773 2.12038 3.0234 2.22605L5.99949 5.20309L8.97652 2.22558C9.08219 2.11991 9.22552 2.06055 9.37496 2.06055C9.5244 2.06055 9.66772 2.11991 9.7734 2.22558C9.87907 2.33126 9.93844 2.47458 9.93844 2.62402C9.93844 2.77347 9.87907 2.91679 9.7734 3.02246L6.79637 5.99996L9.77246 8.97699Z" fill="#EEF0F1"/>
</svg>
